  0
SECTION
  2
HEADER
  9
$ACADVER
  1
AC1015
  9
$ACADMAINTVER
 70
     6
  9
$DWGCODEPAGE
  3
ANSI_1252
  9
$INSBASE
 10
0.0
 20
0.0
 30
0.0
  9
$EXTMIN
 10
-25.3397081107
 20
-29.21
 30
0.0
  9
$EXTMAX
 10
127.0602918893
 20
85.09
 30
0.0
  9
$LIMMIN
 10
0.0
 20
0.0
  9
$LIMMAX
 10
420.0
 20
297.0
  9
$ORTHOMODE
 70
     0
  9
$REGENMODE
 70
     1
  9
$FILLMODE
 70
     1
  9
$QTEXTMODE
 70
     0
  9
$MIRRTEXT
 70
     1
  9
$LTSCALE
 40
1.0
  9
$ATTMODE
 70
     1
  9
$TEXTSIZE
 40
3.5
  9
$TRACEWID
 40
1.0
  9
$TEXTSTYLE
  7
Standard
  9
$CLAYER
  8
0
  9
$CELTYPE
  6
ByLayer
  9
$CECOLOR
 62
   256
  9
$CELTSCALE
 40
1.0
  9
$DISPSILH
 70
     0
  9
$DIMSCALE
 40
1.0
  9
$DIMASZ
 40
3.302
  9
$DIMEXO
 40
0.0
  9
$DIMDLI
 40
3.75
  9
$DIMRND
 40
0.0
  9
$DIMDLE
 40
0.0
  9
$DIMEXE
 40
1.0
  9
$DIMTP
 40
0.0
  9
$DIMTM
 40
0.0
  9
$DIMTXT
 40
3.5
  9
$DIMCEN
 40
2.5
  9
$DIMTSZ
 40
0.0
  9
$DIMTOL
 70
     0
  9
$DIMLIM
 70
     0
  9
$DIMTIH
 70
     1
  9
$DIMTOH
 70
     1
  9
$DIMSE1
 70
     0
  9
$DIMSE2
 70
     0
  9
$DIMTAD
 70
     1
  9
$DIMZIN
 70
     1
  9
$DIMBLK
  1

  9
$DIMASO
 70
     1
  9
$DIMSHO
 70
     1
  9
$DIMPOST
  1

  9
$DIMAPOST
  1

  9
$DIMALT
 70
     0
  9
$DIMALTD
 70
     3
  9
$DIMALTF
 40
0.0393700787
  9
$DIMLFAC
 40
1.0
  9
$DIMTOFL
 70
     1
  9
$DIMTVP
 40
0.0
  9
$DIMTIX
 70
     0
  9
$DIMSOXD
 70
     0
  9
$DIMSAH
 70
     0
  9
$DIMBLK1
  1

  9
$DIMBLK2
  1

  9
$DIMSTYLE
  2
ISO-25
  9
$DIMCLRD
 70
     0
  9
$DIMCLRE
 70
     0
  9
$DIMCLRT
 70
     0
  9
$DIMTFAC
 40
1.0
  9
$DIMGAP
 40
1.524
  9
$DIMJUST
 70
     0
  9
$DIMSD1
 70
     0
  9
$DIMSD2
 70
     0
  9
$DIMTOLJ
 70
     0
  9
$DIMTZIN
 70
     1
  9
$DIMALTZ
 70
     0
  9
$DIMALTTZ
 70
     0
  9
$DIMUPT
 70
     0
  9
$DIMDEC
 70
     2
  9
$DIMTDEC
 70
     2
  9
$DIMALTU
 70
     2
  9
$DIMALTTD
 70
     3
  9
$DIMTXSTY
  7
Standard
  9
$DIMAUNIT
 70
     0
  9
$DIMADEC
 70
     2
  9
$DIMALTRND
 40
0.0
  9
$DIMAZIN
 70
     0
  9
$DIMDSEP
 70
    44
  9
$DIMATFIT
 70
     3
  9
$DIMFRAC
 70
     0
  9
$DIMLDRBLK
  1

  9
$DIMLUNIT
 70
     2
  9
$DIMLWD
 70
    -2
  9
$DIMLWE
 70
    -2
  9
$DIMTMOVE
 70
     0
  9
$LUNITS
 70
     2
  9
$LUPREC
 70
     2
  9
$SKETCHINC
 40
1.0
  9
$FILLETRAD
 40
0.0
  9
$AUNITS
 70
     0
  9
$AUPREC
 70
     2
  9
$MENU
  1
.
  9
$ELEVATION
 40
0.0
  9
$PELEVATION
 40
0.0
  9
$THICKNESS
 40
0.0
  9
$LIMCHECK
 70
     0
  9
$CHAMFERA
 40
0.0
  9
$CHAMFERB
 40
0.0
  9
$CHAMFERC
 40
0.0
  9
$CHAMFERD
 40
0.0
  9
$SKPOLY
 70
     0
  9
$TDCREATE
 40
2461123.626039491
  9
$TDUCREATE
 40
2461123.917706158
  9
$TDUPDATE
 40
2461123.626089005
  9
$TDUUPDATE
 40
2461123.917755672
  9
$TDINDWG
 40
0.0000000116
  9
$TDUSRTIMER
 40
0.0000000116
  9
$USRTIMER
 70
     1
  9
$ANGBASE
 50
0.0
  9
$ANGDIR
 70
     0
  9
$PDMODE
 70
     0
  9
$PDSIZE
 40
-1.0
  9
$PLINEWID
 40
0.0
  9
$SPLFRAME
 70
     0
  9
$SPLINETYPE
 70
     6
  9
$SPLINESEGS
 70
     8
  9
$HANDSEED
  5
7D
  9
$SURFTAB1
 70
     6
  9
$SURFTAB2
 70
     6
  9
$SURFTYPE
 70
     6
  9
$SURFU
 70
     6
  9
$SURFV
 70
     6
  9
$UCSBASE
  2

  9
$UCSNAME
  2

  9
$UCSORG
 10
0.0
 20
0.0
 30
0.0
  9
$UCSXDIR
 10
1.0
 20
0.0
 30
0.0
  9
$UCSYDIR
 10
0.0
 20
1.0
 30
0.0
  9
$UCSORTHOREF
  2

  9
$UCSORTHOVIEW
 70
     0
  9
$UCSORGTOP
 10
0.0
 20
0.0
 30
0.0
  9
$UCSORGBOTTOM
 10
0.0
 20
0.0
 30
0.0
  9
$UCSORGLEFT
 10
0.0
 20
0.0
 30
0.0
  9
$UCSORGRIGHT
 10
0.0
 20
0.0
 30
0.0
  9
$UCSORGFRONT
 10
0.0
 20
0.0
 30
0.0
  9
$UCSORGBACK
 10
0.0
 20
0.0
 30
0.0
  9
$PUCSBASE
  2

  9
$PUCSNAME
  2

  9
$PUCSORG
 10
0.0
 20
0.0
 30
0.0
  9
$PUCSXDIR
 10
1.0
 20
0.0
 30
0.0
  9
$PUCSYDIR
 10
0.0
 20
1.0
 30
0.0
  9
$PUCSORTHOREF
  2

  9
$PUCSORTHOVIEW
 70
     0
  9
$PUCSORGTOP
 10
0.0
 20
0.0
 30
0.0
  9
$PUCSORGBOTTOM
 10
0.0
 20
0.0
 30
0.0
  9
$PUCSORGLEFT
 10
0.0
 20
0.0
 30
0.0
  9
$PUCSORGRIGHT
 10
0.0
 20
0.0
 30
0.0
  9
$PUCSORGFRONT
 10
0.0
 20
0.0
 30
0.0
  9
$PUCSORGBACK
 10
0.0
 20
0.0
 30
0.0
  9
$USERI1
 70
     0
  9
$USERI2
 70
     0
  9
$USERI3
 70
     0
  9
$USERI4
 70
     0
  9
$USERI5
 70
     0
  9
$USERR1
 40
0.0
  9
$USERR2
 40
0.0
  9
$USERR3
 40
0.0
  9
$USERR4
 40
0.0
  9
$USERR5
 40
0.0
  9
$WORLDVIEW
 70
     1
  9
$SHADEDGE
 70
     3
  9
$SHADEDIF
 70
    70
  9
$TILEMODE
 70
     1
  9
$MAXACTVP
 70
    64
  9
$PINSBASE
 10
0.0
 20
0.0
 30
0.0
  9
$PLIMCHECK
 70
     0
  9
$PEXTMIN
 10
1.0000000000E+20
 20
1.0000000000E+20
 30
1.0000000000E+20
  9
$PEXTMAX
 10
-1.0000000000E+20
 20
-1.0000000000E+20
 30
-1.0000000000E+20
  9
$PLIMMIN
 10
0.0
 20
0.0
  9
$PLIMMAX
 10
420.0
 20
297.0
  9
$UNITMODE
 70
     0
  9
$VISRETAIN
 70
     1
  9
$PLINEGEN
 70
     0
  9
$PSLTSCALE
 70
     1
  9
$TREEDEPTH
 70
  3020
  9
$CMLSTYLE
  2
Standard
  9
$CMLJUST
 70
     0
  9
$CMLSCALE
 40
20.0
  9
$PROXYGRAPHICS
 70
     1
  9
$MEASUREMENT
 70
     1
  9
$CELWEIGHT
370
    -1
  9
$ENDCAPS
280
     0
  9
$JOINSTYLE
280
     0
  9
$LWDISPLAY
290
     1
  9
$INSUNITS
 70
     4
  9
$HYPERLINKBASE
  1

  9
$STYLESHEET
  1

  9
$XEDIT
290
     1
  9
$CEPSNTYPE
380
     0
  9
$PSTYLEMODE
290
     1
  9
$FINGERPRINTGUID
  2
{ecd2e661-0691-4318-bb82-fb24f897923b}
  9
$VERSIONGUID
  2
{FAEB1C32-E019-11D5-929B-00C0DF256EC4}
  9
$EXTNAMES
290
     1
  9
$PSVPSCALE
 40
0.0
  9
$OLESTARTUP
290
     0
  0
ENDSEC
  0
SECTION
  2
CLASSES
  0
CLASS
  1
ACDBDICTIONARYWDFLT
  2
AcDbDictionaryWithDefault
  3
ObjectDBX Classes
 90
        0
280
     0
281
     0
  0
CLASS
  1
VISUALSTYLE
  2
AcDbVisualStyle
  3
ObjectDBX Classes
 90
     4095
280
     0
281
     0
  0
CLASS
  1
MATERIAL
  2
AcDbMaterial
  3
ObjectDBX Classes
 90
     1153
280
     0
281
     0
  0
CLASS
  1
SCALE
  2
AcDbScale
  3
ObjectDBX Classes
 90
     1153
280
     0
281
     0
  0
CLASS
  1
TABLESTYLE
  2
AcDbTableStyle
  3
ObjectDBX Classes
 90
     4095
280
     0
281
     0
  0
CLASS
  1
MLEADERSTYLE
  2
AcDbMLeaderStyle
  3
ACDB_MLEADERSTYLE_CLASS
 90
     4095
280
     0
281
     0
  0
CLASS
  1
SUN
  2
AcDbSun
  3
SCENEOE
 90
     1153
280
     0
281
     0
  0
CLASS
  1
ACDBPLACEHOLDER
  2
AcDbPlaceHolder
  3
ObjectDBX Classes
 90
        0
280
     0
281
     0
  0
CLASS
  1
LAYOUT
  2
AcDbLayout
  3
ObjectDBX Classes
 90
        0
280
     0
281
     0
  0
ENDSEC
  0
SECTION
  2
TABLES
  0
TABLE
  2
VPORT
  5
8
330
0
100
AcDbSymbolTable
 70
     1
  0
VPORT
  5
29
330
8
100
AcDbSymbolTableRecord
100
AcDbViewportTableRecord
  2
*Active
 70
     0
 10
0.0
 20
0.0
 11
1.0
 21
1.0
 12
50.8602918893
 22
27.94
 13
0.0
 23
0.0
 14
10.0
 24
10.0
 15
10.0
 25
10.0
 16
0.0
 26
0.0
 36
1.0
 17
0.0
 27
0.0
 37
0.0
 40
116.586
 41
1.3333333333
 42
50.0
 43
0.0
 44
0.0
 50
0.0
 51
0.0
 71
     0
 72
   100
 73
     1
 74
     3
 75
     0
 76
     0
 77
     0
 78
     0
281
     0
 65
     1
110
0.0
120
0.0
130
0.0
111
1.0
121
0.0
131
0.0
112
0.0
122
1.0
132
0.0
 79
     0
146
0.0
  0
ENDTAB
  0
TABLE
  2
LTYPE
  5
5
330
0
100
AcDbSymbolTable
 70
     6
  0
LTYPE
  5
14
330
5
100
AcDbSymbolTableRecord
100
AcDbLinetypeTableRecord
  2
ByBlock
 70
     0
  3

 72
    65
 73
     0
 40
0.0
  0
LTYPE
  5
15
330
5
100
AcDbSymbolTableRecord
100
AcDbLinetypeTableRecord
  2
ByLayer
 70
     0
  3

 72
    65
 73
     0
 40
0.0
  0
LTYPE
  5
16
330
5
100
AcDbSymbolTableRecord
100
AcDbLinetypeTableRecord
  2
Continuous
 70
     0
  3
Solid line
 72
    65
 73
     0
 40
0.0
  0
LTYPE
  5
5E
330
5
100
AcDbSymbolTableRecord
100
AcDbLinetypeTableRecord
  2
HIDDEN
 70
     0
  3
Hidden __ __ __ __ __ __ __ __ __ __ __ __ __ __
 72
    65
 73
     2
 40
1.905
 49
1.27
 74
     0
 49
-0.635
 74
     0
  0
LTYPE
  5
5F
330
5
100
AcDbSymbolTableRecord
100
AcDbLinetypeTableRecord
  2
PHANTOM
 70
     0
  3
Phantom ______  __  __  ______  __  __  ______
 72
    65
 73
     6
 40
12.7
 49
6.35
 74
     0
 49
-1.27
 74
     0
 49
1.27
 74
     0
 49
-1.27
 74
     0
 49
1.27
 74
     0
 49
-1.27
 74
     0
  0
LTYPE
  5
60
330
5
100
AcDbSymbolTableRecord
100
AcDbLinetypeTableRecord
  2
CENTER
 70
     0
  3
Center ____ _ ____ _ ____ _ ____ _ ____ _ ____
 72
    65
 73
     4
 40
10.16
 49
6.35
 74
     0
 49
-1.27
 74
     0
 49
1.27
 74
     0
 49
-1.27
 74
     0
  0
LTYPE
  5
61
330
5
100
AcDbSymbolTableRecord
100
AcDbLinetypeTableRecord
  2
CENTERX2
 70
     0
  3
Center (2x) ________  __  ________  __  _____
 72
    65
 73
     4
 40
20.32
 49
12.7
 74
     0
 49
-2.54
 74
     0
 49
2.54
 74
     0
 49
-2.54
 74
     0
  0
LTYPE
  5
62
330
5
100
AcDbSymbolTableRecord
100
AcDbLinetypeTableRecord
  2
DOT2
 70
     0
  3
Dot (.5x) ........................................
 72
    65
 73
     2
 40
0.635
 49
0.0
 74
     0
 49
-0.635
 74
     0
  0
ENDTAB
  0
TABLE
  2
LAYER
  5
2
330
0
100
AcDbSymbolTable
 70
     1
  0
LAYER
  5
10
330
2
100
AcDbSymbolTableRecord
100
AcDbLayerTableRecord
  2
0
 70
     0
 62
     7
  6
Continuous
370
    -3
390
F
  0
ENDTAB
  0
TABLE
  2
STYLE
  5
3
330
0
100
AcDbSymbolTable
 70
     2
  0
STYLE
  5
11
330
3
100
AcDbSymbolTableRecord
100
AcDbTextStyleTableRecord
  2
Standard
 70
     0
 40
0.0
 41
1.0
 50
0.0
 71
     0
 42
3.5
  3
txt
  4

  0
STYLE
  5
79
330
3
100
AcDbSymbolTableRecord
100
AcDbTextStyleTableRecord
  2
SLDTEXTSTYLE0
 70
     0
 40
0.0
 41
0.7
 50
0.0
 71
     0
 42
3.5
  3
TXT
  4

  0
ENDTAB
  0
TABLE
  2
VIEW
  5
6
330
0
100
AcDbSymbolTable
 70
     0
  0
ENDTAB
  0
TABLE
  2
UCS
  5
7
330
0
100
AcDbSymbolTable
 70
     0
  0
ENDTAB
  0
TABLE
  2
APPID
  5
9
330
0
100
AcDbSymbolTable
 70
     1
  0
APPID
  5
12
330
9
100
AcDbSymbolTableRecord
100
AcDbRegAppTableRecord
  2
ACAD
 70
     0
  0
ENDTAB
  0
TABLE
  2
DIMSTYLE
  5
A
330
0
100
AcDbSymbolTable
 70
     1
100
AcDbDimStyleTable
  0
DIMSTYLE
105
27
330
A
100
AcDbSymbolTableRecord
100
AcDbDimStyleTableRecord
  2
ISO-25
 70
     0
 41
2.5
 42
0.625
 43
3.75
 44
1.25
 73
     0
 74
     0
 77
     1
 78
     8
140
2.5
141
2.5
143
0.0393700787
147
0.625
171
     3
172
     1
178
     0
271
     2
272
     2
274
     3
278
    44
283
     0
284
     8
340
11
  0
ENDTAB
  0
TABLE
  2
BLOCK_RECORD
  5
1
330
0
100
AcDbSymbolTable
 70
     1
  0
BLOCK_RECORD
  5
1F
330
1
100
AcDbSymbolTableRecord
100
AcDbBlockTableRecord
  2
*Model_Space
340
22
  0
BLOCK_RECORD
  5
1B
330
1
100
AcDbSymbolTableRecord
100
AcDbBlockTableRecord
  2
*Paper_Space
340
1E
  0
BLOCK_RECORD
  5
23
330
1
100
AcDbSymbolTableRecord
100
AcDbBlockTableRecord
  2
*Paper_Space0
340
26
  0
ENDTAB
  0
ENDSEC
  0
SECTION
  2
BLOCKS
  0
BLOCK
  5
20
330
1F
100
AcDbEntity
  8
0
100
AcDbBlockBegin
  2
*Model_Space
 70
     0
 10
0.0
 20
0.0
 30
0.0
  3
*Model_Space
  1

  0
ENDBLK
  5
21
330
1F
100
AcDbEntity
  8
0
100
AcDbBlockEnd
  0
BLOCK
  5
1C
330
1B
100
AcDbEntity
 67
     1
  8
0
100
AcDbBlockBegin
  2
*Paper_Space
 70
     0
 10
0.0
 20
0.0
 30
0.0
  3
*Paper_Space
  1

  0
ENDBLK
  5
1D
330
1B
100
AcDbEntity
 67
     1
  8
0
100
AcDbBlockEnd
  0
BLOCK
  5
24
330
23
100
AcDbEntity
  8
0
100
AcDbBlockBegin
  2
*Paper_Space0
 70
     0
 10
0.0
 20
0.0
 30
0.0
  3
*Paper_Space0
  1

  0
ENDBLK
  5
25
330
23
100
AcDbEntity
  8
0
100
AcDbBlockEnd
  0
ENDSEC
  0
SECTION
  2
ENTITIES
  0
SPLINE
  5
63
330
1F
100
AcDbEntity
  8
0
  6
Continuous
 62
     7
370
    25
100
AcDbSpline
210
0.0
220
0.0
230
1.0
 70
     8
 71
     3
 72
    25
 73
    21
 74
     0
 42
0.00000001
 43
0.00000001
 40
0.0
 40
0.0
 40
0.0
 40
0.0
 40
0.003989728474507
 40
0.0077689465165378
 40
0.0157198407433152
 40
0.0312647592231893
 40
0.0625152417157001
 40
0.1250025663295528
 40
0.1875137208190193
 40
0.2500282374414307
 40
0.3333690498384838
 40
0.4167096934833379
 40
0.5000488413049141
 40
0.5700551612534601
 40
0.6400574834829317
 40
0.7100606005519524
 40
0.780045460243248
 40
0.8533614827390066
 40
0.9266807042276499
 40
1.0
 40
1.0
 40
1.0
 40
1.0
 10
-0.0000000000001318
 20
19.05000000000028
 30
0.0
 10
0.0009964526278758
 20
19.19335427084902
 30
0.0
 10
0.0029367819567236
 20
19.47249899717746
 30
0.0
 10
0.3907309449097951
 20
19.89942606960478
 30
0.0
 10
1.232906361745896
 20
20.3276799560099
 30
0.0
 10
2.899351952481755
 20
21.24849808816717
 30
0.0
 10
6.484119491537439
 20
22.53631370104681
 30
0.0
 10
11.7716482949698
 20
23.77996427194405
 30
0.0
 10
18.20534721246619
 20
24.78081463059963
 30
0.0
 10
25.35824797120858
 20
25.84878885741882
 30
0.0
 10
33.19533484357395
 20
27.24404211621368
 30
0.0
 10
41.62313078021675
 20
29.34286878859382
 30
0.0
 10
49.46659879087129
 20
31.80895767329921
 30
0.0
 10
56.69939283391535
 20
34.61286840252118
 30
0.0
 10
63.33794055182557
 20
37.63847427531094
 30
0.0
 10
69.74654944226366
 20
41.12150733890156
 30
0.0
 10
75.9706922186843
 20
45.16310806743228
 30
0.0
 10
81.67785784910289
 20
50.08310634869316
 30
0.0
 10
87.05169905138574
 20
55.52625104340914
 30
0.0
 10
90.18128291534282
 20
59.54590092738494
 30
0.0
 10
91.74607564000902
 20
61.55572688750401
 30
0.0
  0
SPLINE
  5
6C
330
1F
100
AcDbEntity
  8
0
  6
Continuous
 62
     7
370
    25
100
AcDbSpline
210
0.0
220
0.0
230
1.0
 70
     8
 71
     3
 72
   127
 73
   123
 74
     0
 42
0.00000001
 43
0.00000001
 40
0.0
 40
0.0
 40
0.0
 40
0.0
 40
0.0068283479960585
 40
0.013400157313286
 40
0.0189422443190448
 40
0.0248065158289016
 40
0.0316174196653171
 40
0.0383007672960456
 40
0.0449383960747752
 40
0.0521774619696011
 40
0.0596358595887608
 40
0.0667674522997774
 40
0.0738750866849318
 40
0.0812315917376586
 40
0.0885867111873816
 40
0.1035130256086876
 40
0.1113578320214391
 40
0.1194366058451829
 40
0.1277749628864386
 40
0.1363593945633316
 40
0.1449534394998556
 40
0.1534789371036009
 40
0.162561882976089
 40
0.1718816737871286
 40
0.181459811199459
 40
0.1912716543002642
 40
0.2013153638900052
 40
0.2118966128719341
 40
0.22246484804901
 40
0.2332686820221112
 40
0.2443246265529838
 40
0.255373343957276
 40
0.2666270515761393
 40
0.2778785925407891
 40
0.2891068005721679
 40
0.300302715585017
 40
0.322698498103545
 40
0.3338568129534619
 40
0.3449741053966859
 40
0.3560787251672542
 40
0.3671833449378226
 40
0.3783038840439822
 40
0.4004396480874988
 40
0.411494768176625
 40
0.4225293629970976
 40
0.4335561792255987
 40
0.4445725665458953
 40
0.4555811909591429
 40
0.4665817000565153
 40
0.4775766812738809
 40
0.4885548821966984
 40
0.499528370546166
 40
0.5105030454111096
 40
0.5214651735407949
 40
0.5324311838906595
 40
0.5433857360942673
 40
0.5543498300768578
 40
0.5653160246751577
 40
0.5762753139826424
 40
0.5872521774275177
 40
0.5982299734430196
 40
0.6092057528794838
 40
0.6202000276017406
 40
0.6312041197634236
 40
0.6422250220568673
 40
0.6532645351967431
 40
0.6643240123532688
 40
0.6754057596729712
 40
0.686515109140178
 40
0.6976353454260766
 40
0.7088213624909567
 40
0.7200304758593307
 40
0.7313026330150358
 40
0.7426221311567383
 40
0.7534600852648266
 40
0.763537944540386
 40
0.7725824937455061
 40
0.7811815945253162
 40
0.7895311657816197
 40
0.7974181497208589
 40
0.8119157989445263
 40
0.8188142661567467
 40
0.8252179860985913
 40
0.8316988378488898
 40
0.8379398285478854
 40
0.8439032253758403
 40
0.8499542806117553
 40
0.855802382298532
 40
0.8614478455449143
 40
0.8671434854798012
 40
0.8726106940538475
 40
0.8775175009945949
 40
0.8820699718125368
 40
0.8870869850313856
 40
0.8918687024234185
 40
0.8960577007570719
 40
0.9003945661305316
 40
0.9046405740201374
 40
0.9090697583412269
 40
0.9134989832111013
 40
0.9178146767157304
 40
0.9217754570934277
 40
0.9258521861385519
 40
0.9300020507029519
 40
0.9343611285694394
 40
0.9384624649656449
 40
0.9422734872379575
 40
0.9461452424742282
 40
0.9500118569444256
 40
0.9536919888388355
 40
0.9570326480598819
 40
0.9608449425263069
 40
0.9648266845254305
 40
0.9686399564081585
 40
0.9731351891299334
 40
0.9773905452250282
 40
0.9816264423603324
 40
0.9857955858801347
 40
0.9889132741802962
 40
0.9928188830374013
 40
0.996740221529064
 40
1.0
 40
1.0
 40
1.0
 40
1.0
 10
92.19537902736485
 20
42.22928372376877
 30
0.0
 10
92.0613919537172
 20
42.01151438123829
 30
0.0
 10
91.79619310977304
 20
41.58546656105511
 30
0.0
 10
91.41225369704387
 20
40.98893107770019
 30
0.0
 10
91.03533899123306
 20
40.43114051956065
 30
0.0
 10
90.66706189402707
 20
39.85644358476337
 30
0.0
 10
90.2247566521237
 20
39.28145269505357
 30
0.0
 10
89.78935826248913
 20
38.66597999141952
 30
0.0
 10
89.3252607923869
 20
38.05155376181535
 30
0.0
 10
88.856994228792
 20
37.40416358020238
 30
0.0
 10
88.35872665990775
 20
36.75599696869347
 30
0.0
 10
87.85417910322168
 20
36.11913328802163
 30
0.0
 10
87.35461020057267
 20
35.48310033468471
 30
0.0
 10
86.83146113155082
 20
34.8553768987091
 30
0.0
 10
86.13351275143266
 20
33.99241845978263
 30
0.0
 10
85.40732494181924
 20
33.12901756371922
 30
0.0
 10
84.65905886744851
 20
32.24873921329974
 30
0.0
 10
84.05325122233309
 20
31.57158908568769
 30
0.0
 10
83.43309880289817
 20
30.87012649133902
 30
0.0
 10
82.78265855988565
 20
30.17007524623327
 30
0.0
 10
82.14320035847278
 20
29.45040879287819
 30
0.0
 10
81.45902819114647
 20
28.74682569825038
 30
0.0
 10
80.7707876137198
 20
28.00977940592986
 30
0.0
 10
80.03949190656145
 20
27.25929816411077
 30
0.0
 10
79.28911133541038
 20
26.48934572925477
 30
0.0
 10
78.5051965682313
 20
25.71440849896789
 30
0.0
 10
77.68387854694004
 20
24.92411215731383
 30
0.0
 10
76.84334779731117
 20
24.11295433446026
 30
0.0
 10
75.9804641605153
 20
23.28390815526105
 30
0.0
 10
75.08916965953416
 20
22.4590547525022
 30
0.0
 10
74.18164873182987
 20
21.62541195893275
 30
0.0
 10
73.26801278594618
 20
20.77322528932746
 30
0.0
 10
72.31380201645533
 20
19.95542564533259
 30
0.0
 10
71.36487468183317
 20
19.12162530802231
 30
0.0
 10
70.40769597889884
 20
18.30045100011723
 30
0.0
 10
69.11307681175138
 20
17.23221263970487
 30
0.0
 10
67.8357240913181
 20
16.14737617460449
 30
0.0
 10
66.53430219702194
 20
15.09606440208566
 30
0.0
 10
65.54225614015907
 20
14.3354506762069
 30
0.0
 10
64.54999236302461
 20
13.57856567991311
 30
0.0
 10
63.55372356782185
 20
12.82666559315992
 30
0.0
 10
62.2509568917966
 20
11.79562332573014
 30
0.0
 10
60.89541792811515
 20
10.83761766704949
 30
0.0
 10
59.55325194890282
 20
9.867288213174618
 30
0.0
 10
58.53445023269144
 20
9.160028007249688
 30
0.0
 10
57.50481888809489
 20
8.471379193590757
 30
0.0
 10
56.48007988049075
 20
7.777202101177272
 30
0.0
 10
55.44866769750057
 20
7.094779308014498
 30
0.0
 10
54.41556675466863
 20
6.416295378069981
 30
0.0
 10
53.36890188612786
 20
5.761028369724364
 30
0.0
 10
52.31802444183487
 20
5.11464566077946
 30
0.0
 10
51.26578057338715
 20
4.471794015396102
 30
0.0
 10
50.20057085845142
 20
3.851890170001759
 30
0.0
 10
49.13581555313407
 20
3.231833949015717
 30
0.0
 10
48.05878792072926
 20
2.634587736046745
 30
0.0
 10
46.96710824402706
 20
2.064698758415306
 30
0.0
 10
45.87983389651251
 20
1.486334725497085
 30
0.0
 10
44.77742739008539
 20
0.9370030640503124
 30
0.0
 10
43.6745970356478
 20
0.3873767325780486
 30
0.0
 10
42.55493398858512
 20
-0.1281612262004073
 30
0.0
 10
41.43978374843327
 20
-0.6546174695860607
 30
0.0
 10
40.31480573299851
 20
-1.161472267255603
 30
0.0
 10
39.18336969764447
 20
-1.656055156455949
 30
0.0
 10
38.04576858963893
 20
-2.140724306649799
 30
0.0
 10
36.89785455717099
 20
-2.605011137478797
 30
0.0
 10
35.74131888322629
 20
-3.053120271193199
 30
0.0
 10
34.57607036985833
 20
-3.48457862913587
 30
0.0
 10
33.40318917205298
 20
-3.902946260251339
 30
0.0
 10
32.21875431232579
 20
-4.294295154832595
 30
0.0
 10
31.03426435779566
 20
-4.698646258458727
 30
0.0
 10
29.8269892763865
 20
-5.042703898895273
 30
0.0
 10
28.61627379965848
 20
-5.394379903919999
 30
0.0
 10
27.39101986710679
 20
-5.712695375480581
 30
0.0
 10
26.17376590378218
 20
-6.005279882627446
 30
0.0
 10
24.99425399236133
 20
-6.262463715251188
 30
0.0
 10
23.89487812066182
 20
-6.48630052623711
 30
0.0
 10
22.873527763279
 20
-6.673587938077596
 30
0.0
 10
21.90911141773055
 20
-6.806137425320546
 30
0.0
 10
20.988476781163
 20
-6.938955469576347
 30
0.0
 10
19.84278294800612
 20
-7.051085940478874
 30
0.0
 10
18.75020204353861
 20
-7.14543456357164
 30
0.0
 10
17.71065397912785
 20
-7.202134689620721
 30
0.0
 10
16.97013744856646
 20
-7.227189688310376
 30
0.0
 10
16.25385482221686
 20
-7.227302626971355
 30
0.0
 10
15.55416855686209
 20
-7.222656735845434
 30
0.0
 10
14.8705795511872
 20
-7.212518206524465
 30
0.0
 10
14.20211692097428
 20
-7.186171411607711
 30
0.0
 10
13.54646947252292
 20
-7.141532184376187
 30
0.0
 10
12.90640001835186
 20
-7.072709460812399
 30
0.0
 10
12.28048147757788
 20
-7.006321303042018
 30
0.0
 10
11.68391137516211
 20
-6.926271543698848
 30
0.0
 10
11.13283881578564
 20
-6.832448016357517
 30
0.0
 10
10.59572326709946
 20
-6.758214931884443
 30
0.0
 10
10.067987676738
 20
-6.655484003715406
 30
0.0
 10
9.55618624129917
 20
-6.544281062307977
 30
0.0
 10
9.070721942028293
 20
-6.43080647720351
 30
0.0
 10
8.612977810992017
 20
-6.291460851926112
 30
0.0
 10
8.137576643739486
 20
-6.182460817001689
 30
0.0
 10
7.672074342614188
 20
-6.026156868370269
 30
0.0
 10
7.19538386208507
 20
-5.897011151390075
 30
0.0
 10
6.753365113955301
 20
-5.719497492200243
 30
0.0
 10
6.318089379686587
 20
-5.56285613205254
 30
0.0
 10
5.897104663104891
 20
-5.386327179241701
 30
0.0
 10
5.461677417986532
 20
-5.205794776319106
 30
0.0
 10
5.035495315559579
 20
-5.002038549878574
 30
0.0
 10
4.62528365829229
 20
-4.794783880507802
 30
0.0
 10
4.23959616166325
 20
-4.580185128592706
 30
0.0
 10
3.863074784303588
 20
-4.367528445135549
 30
0.0
 10
3.486435815204914
 20
-4.164500246202851
 30
0.0
 10
3.144660325635762
 20
-3.941926367925452
 30
0.0
 10
2.804872565826955
 20
-3.719795720313224
 30
0.0
 10
2.47955088169638
 20
-3.458538390603505
 30
0.0
 10
2.13518691869119
 20
-3.192797626297206
 30
0.0
 10
1.801372361286191
 20
-2.875414573935808
 30
0.0
 10
1.441106805198267
 20
-2.572155183263813
 30
0.0
 10
1.095877925898492
 20
-2.230222657416903
 30
0.0
 10
0.7612154803950943
 20
-1.890791927500968
 30
0.0
 10
0.5441440763580552
 20
-1.514289066035901
 30
0.0
 10
0.3590560447865876
 20
-1.138628119522034
 30
0.0
 10
0.1302486070939857
 20
-0.79613911365084
 30
0.0
 10
0.0122636198617437
 20
-0.3886811471751697
 30
0.0
 10
-0.0020538833088377
 20
-0.1239024790875252
 30
0.0
 10
-0.0000000000001388
 20
-0.0000000000000243
 30
0.0
  0
LINE
  5
70
330
1F
100
AcDbEntity
  8
0
  6
Continuous
 62
     7
370
    25
100
AcDbLine
 10
0.0
 20
19.05
 30
0.0
 11
-25.3397081107
 21
19.05
 31
0.0
  0
LINE
  5
71
330
1F
100
AcDbEntity
  8
0
  6
Continuous
 62
     7
370
    25
100
AcDbLine
 10
-25.3397081107
 20
-29.21
 30
0.0
 11
-25.3397081107
 21
85.09
 31
0.0
  0
LINE
  5
72
330
1F
100
AcDbEntity
  8
0
  6
Continuous
 62
     7
370
    25
100
AcDbLine
 10
-25.3397081107
 20
85.09
 30
0.0
 11
127.0602918893
 21
85.09
 31
0.0
  0
LINE
  5
73
330
1F
100
AcDbEntity
  8
0
  6
Continuous
 62
     7
370
    25
100
AcDbLine
 10
127.0602918893
 20
85.09
 30
0.0
 11
127.0602918893
 21
61.5557268875
 31
0.0
  0
LINE
  5
74
330
1F
100
AcDbEntity
  8
0
  6
Continuous
 62
     7
370
    25
100
AcDbLine
 10
127.0602918893
 20
61.5557268875
 30
0.0
 11
91.74607564
 21
61.5557268875
 31
0.0
  0
LINE
  5
75
330
1F
100
AcDbEntity
  8
0
  6
Continuous
 62
     7
370
    25
100
AcDbLine
 10
0.0
 20
19.05
 30
0.0
 11
0.0
 21
0.0
 31
0.0
  0
LINE
  5
76
330
1F
100
AcDbEntity
  8
0
  6
Continuous
 62
     7
370
    25
100
AcDbLine
 10
127.0602918893
 20
42.2292837238
 30
0.0
 11
127.0602918893
 21
-29.21
 31
0.0
  0
LINE
  5
77
330
1F
100
AcDbEntity
  8
0
  6
Continuous
 62
     7
370
    25
100
AcDbLine
 10
127.0602918893
 20
-29.21
 30
0.0
 11
-25.3397081107
 21
-29.21
 31
0.0
  0
LINE
  5
78
330
1F
100
AcDbEntity
  8
0
  6
Continuous
 62
     7
370
    25
100
AcDbLine
 10
92.1953790274
 20
42.2292837238
 30
0.0
 11
127.0602918893
 21
42.2292837238
 31
0.0
  0
MTEXT
  5
7A
330
1F
100
AcDbEntity
  8
0
  6
Continuous
 62
     7
100
AcDbMText
 10
-25.3397081107
 20
-30.2295663917
 30
0.0
 40
4.83362
 41
0.0
 71
     1
 72
     1
  1
SOLIDWORKS Educational Product.
  7
SLDTEXTSTYLE0
 73
     1
 44
1.0
  0
MTEXT
  5
7B
330
1F
100
AcDbEntity
  8
0
  6
Continuous
 62
     7
100
AcDbMText
 10
-25.3397081107
 20
-37.4799963917
 30
0.0
 40
4.83362
 41
0.0
 71
     1
 72
     1
  1
For Instructional Use Only.
  7
SLDTEXTSTYLE0
 73
     1
 44
1.0
  0
ENDSEC
  0
SECTION
  2
OBJECTS
  0
DICTIONARY
  5
C
330
0
100
AcDbDictionary
281
     1
  3
ACAD_GROUP
350
D
  3
ACAD_LAYOUT
350
1A
  3
ACAD_MLINESTYLE
350
17
  3
ACAD_PLOTSETTINGS
350
19
  3
ACAD_PLOTSTYLENAME
350
E
  3
ACAD_SCALELIST
350
47
  3
DWGPROPS
350
7C
  0
DICTIONARY
  5
D
102
{ACAD_REACTORS
330
C
102
}
330
C
100
AcDbDictionary
281
     1
  0
DICTIONARY
  5
1A
102
{ACAD_REACTORS
330
C
102
}
330
C
100
AcDbDictionary
281
     1
  3
Layout1
350
1E
  3
Layout2
350
26
  3
Model
350
22
  0
DICTIONARY
  5
17
102
{ACAD_REACTORS
330
C
102
}
330
C
100
AcDbDictionary
281
     1
  3
Standard
350
18
  0
DICTIONARY
  5
19
102
{ACAD_REACTORS
330
C
102
}
330
C
100
AcDbDictionary
281
     1
  0
ACDBDICTIONARYWDFLT
  5
E
102
{ACAD_REACTORS
330
C
102
}
330
C
100
AcDbDictionary
281
     1
  3
Normal
350
F
100
AcDbDictionaryWithDefault
340
F
  0
DICTIONARY
  5
47
102
{ACAD_REACTORS
330
C
102
}
330
C
100
AcDbDictionary
281
     1
  3
A0
350
48
  3
A1
350
49
  3
A2
350
4A
  3
A3
350
4B
  3
A4
350
4C
  3
A5
350
4D
  3
A6
350
4E
  3
A7
350
4F
  3
A8
350
50
  3
A9
350
51
  3
B0
350
52
  3
B1
350
53
  3
B2
350
54
  3
B3
350
55
  3
B4
350
56
  3
B5
350
57
  3
B6
350
58
  0
XRECORD
  5
7C
102
{ACAD_REACTORS
330
C
102
}
330
C
100
AcDbXrecord
280
     1
  1
DWGPROPS COOKIE
  2

  3

  4

  6

  7

  8
tfpie
  9

300
=
301
=
302
=
303
=
304
=
305
=
306
=
307
=
308
=
309
=
 40
0.0
 41
2461123.917706158
 42
2461123.917755672
  1

 90
        0
  0
LAYOUT
  5
1E
102
{ACAD_REACTORS
330
1A
102
}
330
1A
100
AcDbPlotSettings
  1

  2
none_device
  4

  6

 40
0.0
 41
0.0
 42
0.0
 43
0.0
 44
0.0
 45
0.0
 46
0.0
 47
0.0
 48
0.0
 49
0.0
140
0.0
141
0.0
142
1.0
143
1.0
 70
   688
 72
     1
 73
     0
 74
     5
  7

 75
    16
147
1.0
148
0.0
149
0.0
100
AcDbLayout
  1
Layout1
 70
     1
 71
     1
 10
0.0
 20
0.0
 11
420.0
 21
297.0
 12
0.0
 22
0.0
 32
0.0
 14
1.0000000000E+20
 24
1.0000000000E+20
 34
1.0000000000E+20
 15
-1.0000000000E+20
 25
-1.0000000000E+20
 35
-1.0000000000E+20
146
0.0
 13
0.0
 23
0.0
 33
0.0
 16
1.0
 26
0.0
 36
0.0
 17
0.0
 27
1.0
 37
0.0
 76
     0
330
1B
  0
LAYOUT
  5
26
102
{ACAD_REACTORS
330
1A
102
}
330
1A
100
AcDbPlotSettings
  1

  2
none_device
  4

  6

 40
0.0
 41
0.0
 42
0.0
 43
0.0
 44
0.0
 45
0.0
 46
0.0
 47
0.0
 48
0.0
 49
0.0
140
0.0
141
0.0
142
1.0
143
1.0
 70
   688
 72
     1
 73
     0
 74
     5
  7

 75
    16
147
1.0
148
0.0
149
0.0
100
AcDbLayout
  1
Layout2
 70
     1
 71
     2
 10
0.0
 20
0.0
 11
0.0
 21
0.0
 12
0.0
 22
0.0
 32
0.0
 14
0.0
 24
0.0
 34
0.0
 15
0.0
 25
0.0
 35
0.0
146
0.0
 13
0.0
 23
0.0
 33
0.0
 16
1.0
 26
0.0
 36
0.0
 17
0.0
 27
1.0
 37
0.0
 76
     0
330
23
  0
LAYOUT
  5
22
102
{ACAD_REACTORS
330
1A
102
}
330
1A
100
AcDbPlotSettings
  1

  2
none_device
  4
ANSI_A_(11.00_x_8.50_Inches)
  6

 40
6.35
 41
19.05
 42
6.35000508
 43
19.05000254
 44
279.4
 45
215.9
 46
41.038567681
 47
38.18889873
 48
0.0
 49
0.0
140
0.0
141
0.0
142
0.0714566929
143
1.0
 70
  1696
 72
     0
 73
     0
 74
     0
  7

 75
     0
147
0.0179189148
148
-1300.4909072572
149
0.0
100
AcDbLayout
  1
Model
 70
     1
 71
     0
 10
0.0
 20
0.0
 11
420.0
 21
297.0
 12
0.0
 22
0.0
 32
0.0
 14
-25.3397081107
 24
-29.21
 34
0.0
 15
127.0602918893
 25
85.09
 35
0.0
146
0.0
 13
0.0
 23
0.0
 33
0.0
 16
1.0
 26
0.0
 36
0.0
 17
0.0
 27
1.0
 37
0.0
 76
     0
330
1F
331
29
  0
MLINESTYLE
  5
18
102
{ACAD_REACTORS
330
17
102
}
330
17
100
AcDbMlineStyle
  2
Standard
 70
     0
  3

 62
   256
 51
90.0
 52
90.0
 71
     2
 49
0.5
 62
   256
  6
BYLAYER
 49
-0.5
 62
   256
  6
BYLAYER
  0
ACDBPLACEHOLDER
  5
F
102
{ACAD_REACTORS
330
E
102
}
330
E
  0
SCALE
  5
48
102
{ACAD_REACTORS
330
47
102
}
330
47
100
AcDbScale
 70
     0
300
1:1
140
1.0
141
1.0
290
     1
  0
SCALE
  5
49
102
{ACAD_REACTORS
330
47
102
}
330
47
100
AcDbScale
 70
     0
300
1:2
140
1.0
141
2.0
290
     0
  0
SCALE
  5
4A
102
{ACAD_REACTORS
330
47
102
}
330
47
100
AcDbScale
 70
     0
300
1:4
140
1.0
141
4.0
290
     0
  0
SCALE
  5
4B
102
{ACAD_REACTORS
330
47
102
}
330
47
100
AcDbScale
 70
     0
300
1:5
140
1.0
141
5.0
290
     0
  0
SCALE
  5
4C
102
{ACAD_REACTORS
330
47
102
}
330
47
100
AcDbScale
 70
     0
300
1:8
140
1.0
141
8.0
290
     0
  0
SCALE
  5
4D
102
{ACAD_REACTORS
330
47
102
}
330
47
100
AcDbScale
 70
     0
300
1:10
140
1.0
141
10.0
290
     0
  0
SCALE
  5
4E
102
{ACAD_REACTORS
330
47
102
}
330
47
100
AcDbScale
 70
     0
300
1:16
140
1.0
141
16.0
290
     0
  0
SCALE
  5
4F
102
{ACAD_REACTORS
330
47
102
}
330
47
100
AcDbScale
 70
     0
300
1:20
140
1.0
141
20.0
290
     0
  0
SCALE
  5
50
102
{ACAD_REACTORS
330
47
102
}
330
47
100
AcDbScale
 70
     0
300
1:30
140
1.0
141
30.0
290
     0
  0
SCALE
  5
51
102
{ACAD_REACTORS
330
47
102
}
330
47
100
AcDbScale
 70
     0
300
1:40
140
1.0
141
40.0
290
     0
  0
SCALE
  5
52
102
{ACAD_REACTORS
330
47
102
}
330
47
100
AcDbScale
 70
     0
300
1:50
140
1.0
141
50.0
290
     0
  0
SCALE
  5
53
102
{ACAD_REACTORS
330
47
102
}
330
47
100
AcDbScale
 70
     0
300
1:100
140
1.0
141
100.0
290
     0
  0
SCALE
  5
54
102
{ACAD_REACTORS
330
47
102
}
330
47
100
AcDbScale
 70
     0
300
2:1
140
2.0
141
1.0
290
     0
  0
SCALE
  5
55
102
{ACAD_REACTORS
330
47
102
}
330
47
100
AcDbScale
 70
     0
300
4:1
140
4.0
141
1.0
290
     0
  0
SCALE
  5
56
102
{ACAD_REACTORS
330
47
102
}
330
47
100
AcDbScale
 70
     0
300
8:1
140
8.0
141
1.0
290
     0
  0
SCALE
  5
57
102
{ACAD_REACTORS
330
47
102
}
330
47
100
AcDbScale
 70
     0
300
10:1
140
10.0
141
1.0
290
     0
  0
SCALE
  5
58
102
{ACAD_REACTORS
330
47
102
}
330
47
100
AcDbScale
 70
     0
300
100:1
140
100.0
141
1.0
290
     0
  0
ENDSEC
  0
EOF
