  0
SECTION
  2
HEADER
  9
$ACADVER
  1
AC1015
  9
$ACADMAINTVER
 70
     6
  9
$DWGCODEPAGE
  3
ANSI_1252
  9
$INSBASE
 10
0.0
 20
0.0
 30
0.0
  9
$EXTMIN
 10
-94.5464495605
 20
20.3353150767
 30
0.0
  9
$EXTMAX
 10
-63.2401079348
 20
41.3679513143
 30
0.0
  9
$LIMMIN
 10
0.0
 20
0.0
  9
$LIMMAX
 10
12.0
 20
9.0
  9
$ORTHOMODE
 70
     0
  9
$REGENMODE
 70
     1
  9
$FILLMODE
 70
     1
  9
$QTEXTMODE
 70
     0
  9
$MIRRTEXT
 70
     1
  9
$LTSCALE
 40
1.0
  9
$ATTMODE
 70
     1
  9
$TEXTSIZE
 40
0.1377952756
  9
$TRACEWID
 40
0.05
  9
$TEXTSTYLE
  7
Standard
  9
$CLAYER
  8
0
  9
$CELTYPE
  6
ByLayer
  9
$CECOLOR
 62
   256
  9
$CELTSCALE
 40
1.0
  9
$DISPSILH
 70
     0
  9
$DIMSCALE
 40
1.0
  9
$DIMASZ
 40
0.13
  9
$DIMEXO
 40
0.0
  9
$DIMDLI
 40
0.38
  9
$DIMRND
 40
0.0
  9
$DIMDLE
 40
0.0
  9
$DIMEXE
 40
0.125
  9
$DIMTP
 40
0.0
  9
$DIMTM
 40
0.0
  9
$DIMTXT
 40
0.1377952756
  9
$DIMCEN
 40
0.09
  9
$DIMTSZ
 40
0.0
  9
$DIMTOL
 70
     0
  9
$DIMLIM
 70
     0
  9
$DIMTIH
 70
     1
  9
$DIMTOH
 70
     1
  9
$DIMSE1
 70
     0
  9
$DIMSE2
 70
     0
  9
$DIMTAD
 70
     1
  9
$DIMZIN
 70
     1
  9
$DIMBLK
  1

  9
$DIMASO
 70
     1
  9
$DIMSHO
 70
     1
  9
$DIMPOST
  1

  9
$DIMAPOST
  1

  9
$DIMALT
 70
     0
  9
$DIMALTD
 70
     2
  9
$DIMALTF
 40
25.4
  9
$DIMLFAC
 40
1.0
  9
$DIMTOFL
 70
     0
  9
$DIMTVP
 40
0.0
  9
$DIMTIX
 70
     0
  9
$DIMSOXD
 70
     0
  9
$DIMSAH
 70
     0
  9
$DIMBLK1
  1

  9
$DIMBLK2
  1

  9
$DIMSTYLE
  2
Standard
  9
$DIMCLRD
 70
     0
  9
$DIMCLRE
 70
     0
  9
$DIMCLRT
 70
     0
  9
$DIMTFAC
 40
1.0
  9
$DIMGAP
 40
0.06
  9
$DIMJUST
 70
     0
  9
$DIMSD1
 70
     0
  9
$DIMSD2
 70
     0
  9
$DIMTOLJ
 70
     1
  9
$DIMTZIN
 70
     1
  9
$DIMALTZ
 70
     0
  9
$DIMALTTZ
 70
     0
  9
$DIMUPT
 70
     0
  9
$DIMDEC
 70
     2
  9
$DIMTDEC
 70
     2
  9
$DIMALTU
 70
     2
  9
$DIMALTTD
 70
     2
  9
$DIMTXSTY
  7
Standard
  9
$DIMAUNIT
 70
     0
  9
$DIMADEC
 70
     2
  9
$DIMALTRND
 40
0.0
  9
$DIMAZIN
 70
     0
  9
$DIMDSEP
 70
    46
  9
$DIMATFIT
 70
     3
  9
$DIMFRAC
 70
     0
  9
$DIMLDRBLK
  1

  9
$DIMLUNIT
 70
     2
  9
$DIMLWD
 70
    -2
  9
$DIMLWE
 70
    -2
  9
$DIMTMOVE
 70
     0
  9
$LUNITS
 70
     2
  9
$LUPREC
 70
     2
  9
$SKETCHINC
 40
0.1
  9
$FILLETRAD
 40
0.0
  9
$AUNITS
 70
     0
  9
$AUPREC
 70
     2
  9
$MENU
  1
.
  9
$ELEVATION
 40
0.0
  9
$PELEVATION
 40
0.0
  9
$THICKNESS
 40
0.0
  9
$LIMCHECK
 70
     0
  9
$CHAMFERA
 40
0.0
  9
$CHAMFERB
 40
0.0
  9
$CHAMFERC
 40
0.0
  9
$CHAMFERD
 40
0.0
  9
$SKPOLY
 70
     0
  9
$TDCREATE
 40
2461120.656543947
  9
$TDUCREATE
 40
2461120.948210614
  9
$TDUPDATE
 40
2461120.657211875
  9
$TDUUPDATE
 40
2461120.948878542
  9
$TDINDWG
 40
0.0000000116
  9
$TDUSRTIMER
 40
0.0000000116
  9
$USRTIMER
 70
     1
  9
$ANGBASE
 50
0.0
  9
$ANGDIR
 70
     0
  9
$PDMODE
 70
     0
  9
$PDSIZE
 40
-1.0
  9
$PLINEWID
 40
0.0
  9
$SPLFRAME
 70
     0
  9
$SPLINETYPE
 70
     6
  9
$SPLINESEGS
 70
     8
  9
$HANDSEED
  5
A1
  9
$SURFTAB1
 70
     6
  9
$SURFTAB2
 70
     6
  9
$SURFTYPE
 70
     6
  9
$SURFU
 70
     6
  9
$SURFV
 70
     6
  9
$UCSBASE
  2

  9
$UCSNAME
  2

  9
$UCSORG
 10
0.0
 20
0.0
 30
0.0
  9
$UCSXDIR
 10
1.0
 20
0.0
 30
0.0
  9
$UCSYDIR
 10
0.0
 20
1.0
 30
0.0
  9
$UCSORTHOREF
  2

  9
$UCSORTHOVIEW
 70
     0
  9
$UCSORGTOP
 10
0.0
 20
0.0
 30
0.0
  9
$UCSORGBOTTOM
 10
0.0
 20
0.0
 30
0.0
  9
$UCSORGLEFT
 10
0.0
 20
0.0
 30
0.0
  9
$UCSORGRIGHT
 10
0.0
 20
0.0
 30
0.0
  9
$UCSORGFRONT
 10
0.0
 20
0.0
 30
0.0
  9
$UCSORGBACK
 10
0.0
 20
0.0
 30
0.0
  9
$PUCSBASE
  2

  9
$PUCSNAME
  2

  9
$PUCSORG
 10
0.0
 20
0.0
 30
0.0
  9
$PUCSXDIR
 10
1.0
 20
0.0
 30
0.0
  9
$PUCSYDIR
 10
0.0
 20
1.0
 30
0.0
  9
$PUCSORTHOREF
  2

  9
$PUCSORTHOVIEW
 70
     0
  9
$PUCSORGTOP
 10
0.0
 20
0.0
 30
0.0
  9
$PUCSORGBOTTOM
 10
0.0
 20
0.0
 30
0.0
  9
$PUCSORGLEFT
 10
0.0
 20
0.0
 30
0.0
  9
$PUCSORGRIGHT
 10
0.0
 20
0.0
 30
0.0
  9
$PUCSORGFRONT
 10
0.0
 20
0.0
 30
0.0
  9
$PUCSORGBACK
 10
0.0
 20
0.0
 30
0.0
  9
$USERI1
 70
     0
  9
$USERI2
 70
     0
  9
$USERI3
 70
     0
  9
$USERI4
 70
     0
  9
$USERI5
 70
     0
  9
$USERR1
 40
0.0
  9
$USERR2
 40
0.0
  9
$USERR3
 40
0.0
  9
$USERR4
 40
0.0
  9
$USERR5
 40
0.0
  9
$WORLDVIEW
 70
     1
  9
$SHADEDGE
 70
     3
  9
$SHADEDIF
 70
    70
  9
$TILEMODE
 70
     1
  9
$MAXACTVP
 70
    64
  9
$PINSBASE
 10
0.0
 20
0.0
 30
0.0
  9
$PLIMCHECK
 70
     0
  9
$PEXTMIN
 10
1.0000000000E+20
 20
1.0000000000E+20
 30
1.0000000000E+20
  9
$PEXTMAX
 10
-1.0000000000E+20
 20
-1.0000000000E+20
 30
-1.0000000000E+20
  9
$PLIMMIN
 10
0.0
 20
0.0
  9
$PLIMMAX
 10
12.0
 20
9.0
  9
$UNITMODE
 70
     0
  9
$VISRETAIN
 70
     1
  9
$PLINEGEN
 70
     0
  9
$PSLTSCALE
 70
     1
  9
$TREEDEPTH
 70
  3020
  9
$CMLSTYLE
  2
Standard
  9
$CMLJUST
 70
     0
  9
$CMLSCALE
 40
1.0
  9
$PROXYGRAPHICS
 70
     1
  9
$MEASUREMENT
 70
     0
  9
$CELWEIGHT
370
    -1
  9
$ENDCAPS
280
     0
  9
$JOINSTYLE
280
     0
  9
$LWDISPLAY
290
     1
  9
$INSUNITS
 70
     1
  9
$HYPERLINKBASE
  1

  9
$STYLESHEET
  1

  9
$XEDIT
290
     1
  9
$CEPSNTYPE
380
     0
  9
$PSTYLEMODE
290
     1
  9
$FINGERPRINTGUID
  2
{f950d34a-bc1c-43c3-ab25-74d1193070c1}
  9
$VERSIONGUID
  2
{FAEB1C32-E019-11D5-929B-00C0DF256EC4}
  9
$EXTNAMES
290
     1
  9
$PSVPSCALE
 40
0.0
  9
$OLESTARTUP
290
     0
  0
ENDSEC
  0
SECTION
  2
CLASSES
  0
CLASS
  1
ACDBDICTIONARYWDFLT
  2
AcDbDictionaryWithDefault
  3
ObjectDBX Classes
 90
        0
280
     0
281
     0
  0
CLASS
  1
VISUALSTYLE
  2
AcDbVisualStyle
  3
ObjectDBX Classes
 90
     4095
280
     0
281
     0
  0
CLASS
  1
MATERIAL
  2
AcDbMaterial
  3
ObjectDBX Classes
 90
     1153
280
     0
281
     0
  0
CLASS
  1
SCALE
  2
AcDbScale
  3
ObjectDBX Classes
 90
     1153
280
     0
281
     0
  0
CLASS
  1
TABLESTYLE
  2
AcDbTableStyle
  3
ObjectDBX Classes
 90
     4095
280
     0
281
     0
  0
CLASS
  1
MLEADERSTYLE
  2
AcDbMLeaderStyle
  3
ACDB_MLEADERSTYLE_CLASS
 90
     4095
280
     0
281
     0
  0
CLASS
  1
SUN
  2
AcDbSun
  3
SCENEOE
 90
     1153
280
     0
281
     0
  0
CLASS
  1
ACDBPLACEHOLDER
  2
AcDbPlaceHolder
  3
ObjectDBX Classes
 90
        0
280
     0
281
     0
  0
CLASS
  1
LAYOUT
  2
AcDbLayout
  3
ObjectDBX Classes
 90
        0
280
     0
281
     0
  0
ENDSEC
  0
SECTION
  2
TABLES
  0
TABLE
  2
VPORT
  5
8
330
0
100
AcDbSymbolTable
 70
     1
  0
VPORT
  5
29
330
8
100
AcDbSymbolTableRecord
100
AcDbViewportTableRecord
  2
*Active
 70
     0
 10
0.0
 20
0.0
 11
1.0
 21
1.0
 12
-78.8932787476
 22
30.8516331955
 13
0.0
 23
0.0
 14
0.5
 24
0.5
 15
0.5
 25
0.5
 16
0.0
 26
0.0
 36
1.0
 17
0.0
 27
0.0
 37
0.0
 40
21.4532889624
 41
1.4884649395
 42
50.0
 43
0.0
 44
0.0
 50
0.0
 51
0.0
 71
     0
 72
   100
 73
     1
 74
     3
 75
     0
 76
     0
 77
     0
 78
     0
281
     0
 65
     1
110
0.0
120
0.0
130
0.0
111
1.0
121
0.0
131
0.0
112
0.0
122
1.0
132
0.0
 79
     0
146
0.0
  0
ENDTAB
  0
TABLE
  2
LTYPE
  5
5
330
0
100
AcDbSymbolTable
 70
     6
  0
LTYPE
  5
14
330
5
100
AcDbSymbolTableRecord
100
AcDbLinetypeTableRecord
  2
ByBlock
 70
     0
  3

 72
    65
 73
     0
 40
0.0
  0
LTYPE
  5
15
330
5
100
AcDbSymbolTableRecord
100
AcDbLinetypeTableRecord
  2
ByLayer
 70
     0
  3

 72
    65
 73
     0
 40
0.0
  0
LTYPE
  5
16
330
5
100
AcDbSymbolTableRecord
100
AcDbLinetypeTableRecord
  2
Continuous
 70
     0
  3
Solid line
 72
    65
 73
     0
 40
0.0
  0
LTYPE
  5
5E
330
5
100
AcDbSymbolTableRecord
100
AcDbLinetypeTableRecord
  2
HIDDEN
 70
     0
  3
Hidden __ __ __ __ __ __ __ __ __ __ __ __ __ __
 72
    65
 73
     2
 40
0.075
 49
0.05
 74
     0
 49
-0.025
 74
     0
  0
LTYPE
  5
5F
330
5
100
AcDbSymbolTableRecord
100
AcDbLinetypeTableRecord
  2
PHANTOM
 70
     0
  3
Phantom ______  __  __  ______  __  __  ______
 72
    65
 73
     6
 40
0.5
 49
0.25
 74
     0
 49
-0.05
 74
     0
 49
0.05
 74
     0
 49
-0.05
 74
     0
 49
0.05
 74
     0
 49
-0.05
 74
     0
  0
LTYPE
  5
60
330
5
100
AcDbSymbolTableRecord
100
AcDbLinetypeTableRecord
  2
CENTER
 70
     0
  3
Center ____ _ ____ _ ____ _ ____ _ ____ _ ____
 72
    65
 73
     4
 40
0.4
 49
0.25
 74
     0
 49
-0.05
 74
     0
 49
0.05
 74
     0
 49
-0.05
 74
     0
  0
LTYPE
  5
61
330
5
100
AcDbSymbolTableRecord
100
AcDbLinetypeTableRecord
  2
CENTERX2
 70
     0
  3
Center (2x) ________  __  ________  __  _____
 72
    65
 73
     4
 40
0.8
 49
0.5
 74
     0
 49
-0.1
 74
     0
 49
0.1
 74
     0
 49
-0.1
 74
     0
  0
LTYPE
  5
62
330
5
100
AcDbSymbolTableRecord
100
AcDbLinetypeTableRecord
  2
DOT2
 70
     0
  3
Dot (.5x) ........................................
 72
    65
 73
     2
 40
0.025
 49
0.0
 74
     0
 49
-0.025
 74
     0
  0
ENDTAB
  0
TABLE
  2
LAYER
  5
2
330
0
100
AcDbSymbolTable
 70
     1
  0
LAYER
  5
10
330
2
100
AcDbSymbolTableRecord
100
AcDbLayerTableRecord
  2
0
 70
     0
 62
     7
  6
Continuous
370
    -3
390
F
  0
ENDTAB
  0
TABLE
  2
STYLE
  5
3
330
0
100
AcDbSymbolTable
 70
     2
  0
STYLE
  5
11
330
3
100
AcDbSymbolTableRecord
100
AcDbTextStyleTableRecord
  2
Standard
 70
     0
 40
0.0
 41
1.0
 50
0.0
 71
     0
 42
0.1377952756
  3
txt
  4

  0
STYLE
  5
9D
330
3
100
AcDbSymbolTableRecord
100
AcDbTextStyleTableRecord
  2
SLDTEXTSTYLE0
 70
     0
 40
0.0
 41
0.7
 50
0.0
 71
     0
 42
0.1377952756
  3
TXT
  4

  0
ENDTAB
  0
TABLE
  2
VIEW
  5
6
330
0
100
AcDbSymbolTable
 70
     0
  0
ENDTAB
  0
TABLE
  2
UCS
  5
7
330
0
100
AcDbSymbolTable
 70
     0
  0
ENDTAB
  0
TABLE
  2
APPID
  5
9
330
0
100
AcDbSymbolTable
 70
     1
  0
APPID
  5
12
330
9
100
AcDbSymbolTableRecord
100
AcDbRegAppTableRecord
  2
ACAD
 70
     0
  0
ENDTAB
  0
TABLE
  2
DIMSTYLE
  5
A
330
0
100
AcDbSymbolTable
 70
     1
100
AcDbDimStyleTable
  0
DIMSTYLE
105
27
330
A
100
AcDbSymbolTableRecord
100
AcDbDimStyleTableRecord
  2
Standard
 70
     0
178
     0
340
11
  0
ENDTAB
  0
TABLE
  2
BLOCK_RECORD
  5
1
330
0
100
AcDbSymbolTable
 70
     1
  0
BLOCK_RECORD
  5
1F
330
1
100
AcDbSymbolTableRecord
100
AcDbBlockTableRecord
  2
*Model_Space
340
22
  0
BLOCK_RECORD
  5
1B
330
1
100
AcDbSymbolTableRecord
100
AcDbBlockTableRecord
  2
*Paper_Space
340
1E
  0
BLOCK_RECORD
  5
23
330
1
100
AcDbSymbolTableRecord
100
AcDbBlockTableRecord
  2
*Paper_Space0
340
26
  0
ENDTAB
  0
ENDSEC
  0
SECTION
  2
BLOCKS
  0
BLOCK
  5
20
330
1F
100
AcDbEntity
  8
0
100
AcDbBlockBegin
  2
*Model_Space
 70
     0
 10
0.0
 20
0.0
 30
0.0
  3
*Model_Space
  1

  0
ENDBLK
  5
21
330
1F
100
AcDbEntity
  8
0
100
AcDbBlockEnd
  0
BLOCK
  5
1C
330
1B
100
AcDbEntity
 67
     1
  8
0
100
AcDbBlockBegin
  2
*Paper_Space
 70
     0
 10
0.0
 20
0.0
 30
0.0
  3
*Paper_Space
  1

  0
ENDBLK
  5
1D
330
1B
100
AcDbEntity
 67
     1
  8
0
100
AcDbBlockEnd
  0
BLOCK
  5
24
330
23
100
AcDbEntity
  8
0
100
AcDbBlockBegin
  2
*Paper_Space0
 70
     0
 10
0.0
 20
0.0
 30
0.0
  3
*Paper_Space0
  1

  0
ENDBLK
  5
25
330
23
100
AcDbEntity
  8
0
100
AcDbBlockEnd
  0
ENDSEC
  0
SECTION
  2
ENTITIES
  0
CIRCLE
  5
63
330
1F
100
AcDbEntity
  8
0
  6
Continuous
 62
     7
100
AcDbCircle
 10
-92.8008606722
 20
36.2857287945
 30
0.0
 40
0.1181102362156494
  0
CIRCLE
  5
64
330
1F
100
AcDbEntity
  8
0
  6
Continuous
 62
     7
100
AcDbCircle
 10
-82.5000019431
 20
35.5499995975
 30
0.0
 40
0.1181102362204529
  0
CIRCLE
  5
65
330
1F
100
AcDbEntity
  8
0
  6
Continuous
 62
     7
100
AcDbCircle
 10
-70.2565202754
 20
35.4845694521
 30
0.0
 40
0.0071446182692533
  0
CIRCLE
  5
66
330
1F
100
AcDbEntity
  8
0
  6
Continuous
 62
     7
100
AcDbCircle
 10
-87.9741475001
 20
35.8882791059
 30
0.0
 40
0.1181102362204822
  0
CIRCLE
  5
67
330
1F
100
AcDbEntity
  8
0
  6
Continuous
 62
     7
100
AcDbCircle
 10
-88.4260776051
 20
35.7089204482
 30
0.0
 40
0.1181102362204822
  0
CIRCLE
  5
68
330
1F
100
AcDbEntity
  8
0
  6
Continuous
 62
     7
100
AcDbCircle
 10
-87.4913649303
 20
35.9459968507
 30
0.0
 40
0.1181102362204822
  0
CIRCLE
  5
69
330
1F
100
AcDbEntity
  8
0
  6
Continuous
 62
     7
100
AcDbCircle
 10
-87.9844099424
 20
35.5055979861
 30
0.0
 40
0.1181102362204801
  0
CIRCLE
  5
6A
330
1F
100
AcDbEntity
  8
0
  6
Continuous
 62
     7
100
AcDbCircle
 10
-87.506829593
 20
35.596852343
 30
0.0
 40
0.1181102362204822
  0
LINE
  5
6B
330
1F
100
AcDbEntity
  8
0
  6
CENTERX2
 62
     7
100
AcDbLine
 10
-70.2334375398
 20
35.495199903
 30
0.0
 11
-70.2796030111
 21
35.4739390011
 31
0.0
  0
LINE
  5
6C
330
1F
100
AcDbEntity
  8
0
  6
Continuous
 62
     7
100
AcDbLine
 10
-70.2605427587
 20
35.4163614328
 30
0.0
 11
-70.1207475923
 21
32.0805963619
 31
0.0
  0
LINE
  5
6D
330
1F
100
AcDbEntity
  8
0
  6
Continuous
 62
     7
100
AcDbLine
 10
-70.1207475923
 20
32.0805963619
 30
0.0
 11
-69.9809043463
 21
28.7448312902
 31
0.0
  0
LINE
  5
6E
330
1F
100
AcDbEntity
  8
0
  6
Continuous
 62
     7
100
AcDbLine
 10
-69.8844245739
 20
28.5756761401
 30
0.0
 11
-69.9295799568
 21
28.6880353876
 31
0.0
  0
LINE
  5
6F
330
1F
100
AcDbEntity
  8
0
  6
Continuous
 62
     7
100
AcDbLine
 10
-69.8844245739
 20
28.5756761401
 30
0.0
 11
-69.8446205043
 21
28.3518836465
 31
0.0
  0
LINE
  5
70
330
1F
100
AcDbEntity
  8
0
  6
Continuous
 62
     7
100
AcDbLine
 10
-69.8446205043
 20
28.3518836465
 30
0.0
 11
-69.8079670877
 21
28.078176729
 31
0.0
  0
LINE
  5
71
330
1F
100
AcDbEntity
  8
0
  6
Continuous
 62
     7
100
AcDbLine
 10
-69.8079670877
 20
28.078176729
 30
0.0
 11
-69.7521452106
 21
27.5183376956
 31
0.0
  0
LINE
  5
72
330
1F
100
AcDbEntity
  8
0
  6
Continuous
 62
     7
100
AcDbLine
 10
-69.7521452106
 20
27.5183376956
 30
0.0
 11
-69.6908277361
 21
26.9171313198
 31
0.0
  0
LINE
  5
73
330
1F
100
AcDbEntity
  8
0
  6
Continuous
 62
     7
100
AcDbLine
 10
-69.6908277361
 20
26.9171313198
 30
0.0
 11
-69.6250488491
 21
26.2808679269
 31
0.0
  0
LINE
  5
74
330
1F
100
AcDbEntity
  8
0
  6
Continuous
 62
     7
100
AcDbLine
 10
-69.6250488491
 20
26.2808679269
 30
0.0
 11
-69.5774282973
 21
25.7957095714
 31
0.0
  0
LINE
  5
75
330
1F
100
AcDbEntity
  8
0
  6
Continuous
 62
     7
100
AcDbLine
 10
-69.5774282973
 20
25.7957095714
 30
0.0
 11
-69.5570692899
 21
25.4535451317
 31
0.0
  0
LINE
  5
76
330
1F
100
AcDbEntity
  8
0
  6
Continuous
 62
     7
100
AcDbLine
 10
-69.5570692899
 20
25.4535451317
 30
0.0
 11
-69.5629737631
 21
25.141585466
 31
0.0
  0
LINE
  5
77
330
1F
100
AcDbEntity
  8
0
  6
Continuous
 62
     7
100
AcDbLine
 10
-69.5629737631
 20
25.141585466
 30
0.0
 11
-69.8699939633
 21
24.7835730655
 31
0.0
  0
LINE
  5
78
330
1F
100
AcDbEntity
  8
0
  6
Continuous
 62
     7
100
AcDbLine
 10
-68.1272984575
 20
25.1358132632
 30
0.0
 11
-68.1290421339
 21
25.0652482799
 31
0.0
  0
LINE
  5
79
330
1F
100
AcDbEntity
  8
0
  6
Continuous
 62
     7
100
AcDbLine
 10
-70.0723091023
 20
24.6311527482
 30
0.0
 11
-70.2499361213
 21
24.5002473604
 31
0.0
  0
LINE
  5
7A
330
1F
100
AcDbEntity
  8
0
  6
Continuous
 62
     7
100
AcDbLine
 10
-70.3442993526
 20
24.4756524332
 30
0.0
 11
-72.9216411138
 21
24.0165215475
 31
0.0
  0
LINE
  5
7B
330
1F
100
AcDbEntity
  8
0
  6
Continuous
 62
     7
100
AcDbLine
 10
-72.9216411138
 20
24.0165215475
 30
0.0
 11
-75.4916473779
 21
23.5600391994
 31
0.0
  0
LINE
  5
7C
330
1F
100
AcDbEntity
  8
0
  6
Continuous
 62
     7
100
AcDbLine
 10
-75.5526401598
 20
23.4812548757
 30
0.0
 11
-75.5526401603
 21
22.3214586039
 31
0.0
  0
LINE
  5
7D
330
1F
100
AcDbEntity
  8
0
  6
Continuous
 62
     7
100
AcDbLine
 10
-70.2565202754
 20
20.5473900521
 30
0.0
 11
-70.2796030111
 21
21.2683565758
 31
0.0
  0
SPLINE
  5
7E
330
1F
100
AcDbEntity
  8
0
  6
Continuous
 62
     7
100
AcDbSpline
210
0.0
220
0.0
230
1.0
 70
    11
 71
     3
 72
    19
 73
    15
 74
     0
 42
0.00000001
 43
0.00000001
 40
0.0
 40
0.0
 40
0.0
 40
0.0
 40
0.101917710987773
 40
0.1718326839291341
 40
0.2500000000000993
 40
0.3281673160710991
 40
0.3980822890124537
 40
0.5000000000000888
 40
0.6019177109877031
 40
0.6718326839290641
 40
0.7500000000000293
 40
0.8281673160710046
 40
0.8980822890123669
 40
1.0
 40
1.0
 40
1.0
 40
1.0
 10
-87.373254755758
 20
35.9458761315314
 30
0.0
 10
-87.37804908518062
 20
35.97122156327258
 30
0.0
 10
-87.38613229745397
 20
36.01395381774748
 30
0.0
 10
-87.43580273851225
 20
36.05484275163667
 30
0.0
 10
-87.4911315628772
 20
36.06896727505104
 30
0.0
 10
-87.54711249127342
 20
36.05495652020228
 30
0.0
 10
-87.5949455001662
 20
36.01416724359711
 30
0.0
 10
-87.61805166780272
 20
35.94612633596414
 30
0.0
 10
-87.595084636136
 20
35.878038337383
 30
0.0
 10
-87.54733510770426
 20
35.83715136683911
 30
0.0
 10
-87.49138293674088
 20
35.82302620630851
 30
0.0
 10
-87.43602535494317
 20
35.83703759827351
 30
0.0
 10
-87.38627143342376
 20
35.87782491153339
 30
0.0
 10
-87.37810088572526
 20
35.92054055320565
 30
0.0
 10
-87.373254755758
 20
35.9458761315314
 30
0.0
  0
SPLINE
  5
7F
330
1F
100
AcDbEntity
  8
0
  6
Continuous
 62
     7
100
AcDbSpline
210
0.0
220
0.0
230
1.0
 70
    11
 71
     3
 72
    19
 73
    15
 74
     0
 42
0.00000001
 43
0.00000001
 40
0.0
 40
0.0
 40
0.0
 40
0.0
 40
0.1019177109877056
 40
0.1718326839290943
 40
0.2500000000000484
 40
0.328167316071014
 40
0.3980822890124041
 40
0.5000000000000416
 40
0.6019177109876698
 40
0.6718326839290404
 40
0.7500000000000177
 40
0.8281673160710065
 40
0.8980822890123642
 40
1.0
 40
1.0
 40
1.0
 40
1.0
 10
-88.30796743052812
 20
35.70879972901809
 30
0.0
 10
-88.31276175995075
 20
35.73414516075927
 30
0.0
 10
-88.32084497222408
 20
35.7768774152342
 30
0.0
 10
-88.37051541328239
 20
35.81776634912335
 30
0.0
 10
-88.42584423764734
 20
35.83189087253776
 30
0.0
 10
-88.4818251660435
 20
35.81788011768895
 30
0.0
 10
-88.52965817493633
 20
35.77709084108383
 30
0.0
 10
-88.5527643425728
 20
35.70904993345084
 30
0.0
 10
-88.52979731090615
 20
35.64096193486971
 30
0.0
 10
-88.48204778247437
 20
35.60007496432581
 30
0.0
 10
-88.42609561151099
 20
35.5859498037952
 30
0.0
 10
-88.37073802971327
 20
35.59996119576021
 30
0.0
 10
-88.32098410819393
 20
35.64074850902011
 30
0.0
 10
-88.31281356049541
 20
35.68346415069237
 30
0.0
 10
-88.30796743052815
 20
35.7087997290181
 30
0.0
  0
SPLINE
  5
80
330
1F
100
AcDbEntity
  8
0
  6
Continuous
 62
     7
100
AcDbSpline
210
0.0
220
0.0
230
1.0
 70
    11
 71
     3
 72
    19
 73
    15
 74
     0
 42
0.00000001
 43
0.00000001
 40
0.0
 40
0.0
 40
0.0
 40
0.0
 40
0.1019177109877416
 40
0.1718326839291156
 40
0.2500000000000691
 40
0.3281673160710559
 40
0.3980822890124208
 40
0.5000000000000538
 40
0.6019177109876906
 40
0.67183268392904
 40
0.7500000000000355
 40
0.8281673160709963
 40
0.898082289012365
 40
1.0
 40
1.0
 40
1.0
 40
1.0
 10
-87.85603732561094
 20
35.88815838671336
 30
0.0
 10
-87.86083165503358
 20
35.91350381845455
 30
0.0
 10
-87.86891486730691
 20
35.95623607292946
 30
0.0
 10
-87.9185853083652
 20
35.9971250068186
 30
0.0
 10
-87.97391413273013
 20
36.01124953023303
 30
0.0
 10
-88.02989506112634
 20
35.99723877538422
 30
0.0
 10
-88.07772807001916
 20
35.95644949877909
 30
0.0
 10
-88.10083423765563
 20
35.8884085911461
 30
0.0
 10
-88.07786720598897
 20
35.820320592565
 30
0.0
 10
-88.0301176775572
 20
35.77943362202105
 30
0.0
 10
-87.97416550659379
 20
35.76530846149048
 30
0.0
 10
-87.91880792479606
 20
35.77931985345546
 30
0.0
 10
-87.8690540032767
 20
35.82010716671537
 30
0.0
 10
-87.86088345557822
 20
35.86282280838763
 30
0.0
 10
-87.85603732561094
 20
35.88815838671336
 30
0.0
  0
SPLINE
  5
81
330
1F
100
AcDbEntity
  8
0
  6
CENTERX2
 62
     7
100
AcDbSpline
210
0.0
220
0.0
230
1.0
 70
    11
 71
     3
 72
    19
 73
    15
 74
     0
 42
0.00000001
 43
0.00000001
 40
0.0
 40
0.0
 40
0.0
 40
0.0
 40
0.1019177109876905
 40
0.1718326839290405
 40
0.2500000000000301
 40
0.328167316071014
 40
0.3980822890124028
 40
0.5000000000000132
 40
0.6019177109876708
 40
0.6718326839290298
 40
0.7500000000000022
 40
0.828167316070986
 40
0.8980822890123348
 40
1.0
 40
1.0
 40
1.0
 40
1.0
 10
-82.50000194767092
 20
35.43188936132015
 30
0.0
 10
-82.47466142921407
 20
35.43670959254867
 30
0.0
 10
-82.43193745850867
 20
35.44483647512018
 30
0.0
 10
-82.39109931167229
 20
35.49454868078931
 30
0.0
 10
-82.37703134448502
 20
35.54989191223189
 30
0.0
 10
-82.39109930734921
 20
35.60585849169128
 30
0.0
 10
-82.43193745039875
 20
35.65364978690263
 30
0.0
 10
-82.50000193816346
 20
35.67668640123053
 30
0.0
 10
-82.56806642771758
 20
35.65364979218964
 30
0.0
 10
-82.60890457447934
 20
35.60585850015043
 30
0.0
 10
-82.62297254169084
 20
35.54989192178379
 30
0.0
 10
-82.60890457880241
 20
35.49454868924849
 30
0.0
 10
-82.56806643582749
 20
35.44483648040722
 30
0.0
 10
-82.52534246575337
 20
35.43670959451704
 30
0.0
 10
-82.50000194767091
 20
35.43188936132015
 30
0.0
  0
SPLINE
  5
82
330
1F
100
AcDbEntity
  8
0
  6
Continuous
 62
     7
100
AcDbSpline
210
0.0
220
0.0
230
1.0
 70
    11
 71
     3
 72
    19
 73
    15
 74
     0
 42
0.00000001
 43
0.00000001
 40
0.0
 40
0.0
 40
0.0
 40
0.0
 40
0.1019177109877656
 40
0.1718326839291305
 40
0.2500000000000956
 40
0.3281673160710722
 40
0.398082289012445
 40
0.5000000000000743
 40
0.6019177109876941
 40
0.6718326839290694
 40
0.7500000000000373
 40
0.8281673160710139
 40
0.8980822890123801
 40
1.0
 40
1.0
 40
1.0
 40
1.0
 10
-87.38871941848134
 20
35.59673162381529
 30
0.0
 10
-87.39351374790394
 20
35.62207705555647
 30
0.0
 10
-87.40159696017729
 20
35.66480931003137
 30
0.0
 10
-87.4512674012356
 20
35.70569824392057
 30
0.0
 10
-87.50659622560056
 20
35.71982276733495
 30
0.0
 10
-87.56257715399671
 20
35.70581201248615
 30
0.0
 10
-87.61041016288956
 20
35.66502273588103
 30
0.0
 10
-87.63351633052609
 20
35.59698182824805
 30
0.0
 10
-87.61054929885938
 20
35.5288938296669
 30
0.0
 10
-87.56279977042763
 20
35.48800685912303
 30
0.0
 10
-87.5068475994642
 20
35.47388169859239
 30
0.0
 10
-87.45149001766649
 20
35.4878930905574
 30
0.0
 10
-87.40173609614709
 20
35.5286804038173
 30
0.0
 10
-87.3935655484486
 20
35.57139604548955
 30
0.0
 10
-87.38871941848134
 20
35.59673162381529
 30
0.0
  0
SPLINE
  5
83
330
1F
100
AcDbEntity
  8
0
  6
Continuous
 62
     7
100
AcDbSpline
210
0.0
220
0.0
230
1.0
 70
    11
 71
     3
 72
    19
 73
    15
 74
     0
 42
0.00000001
 43
0.00000001
 40
0.0
 40
0.0
 40
0.0
 40
0.0
 40
0.1019177109877343
 40
0.1718326839291001
 40
0.2500000000000501
 40
0.3281673160710334
 40
0.3980822890124147
 40
0.5000000000000507
 40
0.601917710987685
 40
0.6718326839290469
 40
0.7499999999999954
 40
0.8281673160710005
 40
0.8980822890123676
 40
1.0
 40
1.0
 40
1.0
 40
1.0
 10
-87.86629976790772
 20
35.50547726686468
 30
0.0
 10
-87.87109409733033
 20
35.53082269860585
 30
0.0
 10
-87.87917730960366
 20
35.57355495308075
 30
0.0
 10
-87.928847750662
 20
35.61444388696994
 30
0.0
 10
-87.9841765750269
 20
35.62856841038433
 30
0.0
 10
-88.04015750342315
 20
35.61455765553555
 30
0.0
 10
-88.08799051231593
 20
35.57376837893041
 30
0.0
 10
-88.11109667995242
 20
35.50572747129743
 30
0.0
 10
-88.08812964828574
 20
35.4376394727163
 30
0.0
 10
-88.04038011985394
 20
35.39675250217239
 30
0.0
 10
-87.98442794889057
 20
35.38262734164178
 30
0.0
 10
-87.92907036709285
 20
35.39663873360679
 30
0.0
 10
-87.87931644557345
 20
35.43742604686667
 30
0.0
 10
-87.87114589787498
 20
35.48014168853894
 30
0.0
 10
-87.86629976790772
 20
35.50547726686468
 30
0.0
  0
SPLINE
  5
84
330
1F
100
AcDbEntity
  8
0
  6
CENTERX2
 62
     7
100
AcDbSpline
210
0.0
220
0.0
230
1.0
 70
     8
 71
     3
 72
    13
 73
     9
 74
     0
 42
0.00000001
 43
0.00000001
 40
0.0
 40
0.0
 40
0.0
 40
0.0
 40
0.2038354219753064
 40
0.3436653678579697
 40
0.5000000000000204
 40
0.6563346321419272
 40
0.7961645780247558
 40
1.0
 40
1.0
 40
1.0
 40
1.0
 10
-92.5518166936491
 20
37.33783718704571
 30
0.0
 10
-92.55214228081901
 20
37.36363066856048
 30
0.0
 10
-92.5526912189448
 20
37.40711833241796
 30
0.0
 10
-92.59447662273723
 20
37.45600220210249
 30
0.0
 10
-92.64664456344522
 20
37.47953923759811
 30
0.0
 10
-92.70372454121866
 20
37.47537243846573
 30
0.0
 10
-92.75976918441957
 20
37.44383435586838
 30
0.0
 10
-92.7752358256798
 20
37.4031863393242
 30
0.0
 10
-92.78440942780178
 20
37.37907711453854
 30
0.0
  0
SPLINE
  5
85
330
1F
100
AcDbEntity
  8
0
  6
CENTERX2
 62
     7
100
AcDbSpline
210
0.0
220
0.0
230
1.0
 70
     8
 71
     3
 72
     9
 73
     5
 74
     0
 42
0.00000001
 43
0.00000001
 40
0.0
 40
0.0
 40
0.0
 40
0.0
 40
0.5600000000000034
 40
0.9999999999999999
 40
0.9999999999999999
 40
0.9999999999999999
 40
0.9999999999999999
 10
-92.5518166936487
 20
37.33783718704564
 30
0.0
 10
-92.58377999644574
 20
37.14078504808158
 30
0.0
 10
-92.640857322869
 20
36.78890622850288
 30
0.0
 10
-92.67015502620067
 20
36.43367834039381
 30
0.0
 10
-92.68304601566659
 20
36.27737806962581
 30
0.0
  0
SPLINE
  5
86
330
1F
100
AcDbEntity
  8
0
  6
CENTERX2
 62
     7
100
AcDbSpline
210
0.0
220
0.0
230
1.0
 70
     8
 71
     3
 72
    13
 73
     9
 74
     0
 42
0.00000001
 43
0.00000001
 40
0.0
 40
0.0
 40
0.0
 40
0.0
 40
0.2038354219752987
 40
0.3436653678580124
 40
0.5000000000000013
 40
0.6563346321419815
 40
0.7961645780247013
 40
1.0
 40
1.0
 40
1.0
 40
1.0
 10
-92.91867532866367
 20
36.29407951940605
 30
0.0
 10
-92.91565537210914
 20
36.26846137040839
 30
0.0
 10
-92.91056374244938
 20
36.22526931618245
 30
0.0
 10
-92.86389748769386
 20
36.18102100149667
 30
0.0
 10
-92.8095550382732
 20
36.16306593901867
 30
0.0
 10
-92.75322329970048
 20
36.17317639434984
 30
0.0
 10
-92.70078230222768
 20
36.21039996845943
 30
0.0
 10
-92.6896492635511
 20
36.25244201515883
 30
0.0
 10
-92.68304601559905
 20
36.27737806962103
 30
0.0
  0
SPLINE
  5
87
330
1F
100
AcDbEntity
  8
0
  6
CENTERX2
 62
     7
100
AcDbSpline
210
0.0
220
0.0
230
1.0
 70
     8
 71
     3
 72
     9
 73
     5
 74
     0
 42
0.00000001
 43
0.00000001
 40
0.0
 40
0.0
 40
0.0
 40
0.0
 40
0.5599999999999773
 40
1.0
 40
1.0
 40
1.0
 40
1.0
 10
-92.78440942780216
 20
37.3790771145386
 30
0.0
 10
-92.81711234496079
 20
37.17746529058544
 30
0.0
 10
-92.8755104113155
 20
36.81744417638335
 30
0.0
 10
-92.90548604841034
 20
36.45399649793026
 30
0.0
 10
-92.91867532873202
 20
36.29407951941089
 30
0.0
  0
SPLINE
  5
88
330
1F
100
AcDbEntity
  8
0
  6
Continuous
 62
     7
100
AcDbSpline
210
0.0
220
0.0
230
1.0
 70
    11
 71
     3
 72
    19
 73
    15
 74
     0
 42
0.00000001
 43
0.00000001
 40
0.0
 40
0.0
 40
0.0
 40
0.0
 40
0.1019177109876659
 40
0.1718326839290467
 40
0.2500000000000193
 40
0.3281673160710151
 40
0.3980822890123777
 40
0.5000000000000093
 40
0.6019177109876409
 40
0.6718326839290113
 40
0.7500000000000071
 40
0.8281673160709797
 40
0.8980822890123683
 40
1.0
 40
1.0
 40
1.0
 40
1.0
 10
-91.84585169969739
 20
41.24984107812107
 30
0.0
 10
-91.84103146748473
 20
41.22450055985143
 30
0.0
 10
-91.83290458325389
 20
41.18177658946168
 30
0.0
 10
-91.78319237599861
 20
41.140938444556
 30
0.0
 10
-91.7278491440097
 20
41.12687047951815
 30
0.0
 10
-91.67188256509668
 20
41.14093844455602
 30
0.0
 10
-91.62409127147141
 20
41.18177658946166
 30
0.0
 10
-91.60105465978695
 20
41.24984107812107
 30
0.0
 10
-91.62409127147143
 20
41.31790556678048
 30
0.0
 10
-91.67188256509668
 20
41.35874371168614
 30
0.0
 10
-91.72784914400971
 20
41.37281167672401
 30
0.0
 10
-91.78319237599862
 20
41.35874371168613
 30
0.0
 10
-91.83290458325384
 20
41.3179055667805
 30
0.0
 10
-91.84103146748468
 20
41.27518159639072
 30
0.0
 10
-91.84585169969739
 20
41.24984107812107
 30
0.0
  0
SPLINE
  5
89
330
1F
100
AcDbEntity
  8
0
  6
Continuous
 62
     7
100
AcDbSpline
210
0.0
220
0.0
230
1.0
 70
    11
 71
     3
 72
    19
 73
    15
 74
     0
 42
0.00000001
 43
0.00000001
 40
0.0
 40
0.0
 40
0.0
 40
0.0
 40
0.1019177109876998
 40
0.1718326839290547
 40
0.2500000000000504
 40
0.3281673160710231
 40
0.398082289012378
 40
0.5000000000000284
 40
0.601917710987679
 40
0.6718326839290338
 40
0.7500000000000064
 40
0.8281673160710022
 40
0.8980822890123571
 40
1.0
 40
1.0
 40
1.0
 40
1.0
 10
-85.19585169581532
 20
39.60263774235934
 30
0.0
 10
-85.19103146360263
 20
39.57729722408969
 30
0.0
 10
-85.18290457937181
 20
39.53457325369995
 30
0.0
 10
-85.13319237211653
 20
39.49373510879425
 30
0.0
 10
-85.07784914012763
 20
39.47966714375641
 30
0.0
 10
-85.02188256121461
 20
39.49373510879429
 30
0.0
 10
-84.97409126758933
 20
39.53457325369991
 30
0.0
 10
-84.9510546559049
 20
39.60263774235933
 30
0.0
 10
-84.97409126758936
 20
39.67070223101877
 30
0.0
 10
-85.02188256121461
 20
39.71154037592439
 30
0.0
 10
-85.07784914012761
 20
39.72560834096226
 30
0.0
 10
-85.1331923721166
 20
39.7115403759244
 30
0.0
 10
-85.18290457937174
 20
39.67070223101874
 30
0.0
 10
-85.19103146360261
 20
39.62797826062901
 30
0.0
 10
-85.19585169581532
 20
39.60263774235934
 30
0.0
  0
SPLINE
  5
8A
330
1F
100
AcDbEntity
  8
0
  6
Continuous
 62
     7
100
AcDbSpline
210
0.0
220
0.0
230
1.0
 70
    11
 71
     3
 72
    19
 73
    15
 74
     0
 42
0.00000001
 43
0.00000001
 40
0.0
 40
0.0
 40
0.0
 40
0.0
 40
0.1019177109876683
 40
0.1718326839290459
 40
0.2500000000000266
 40
0.3281673160710074
 40
0.3980822890123669
 40
0.500000000000009
 40
0.6019177109876512
 40
0.6718326839290184
 40
0.7499999999999992
 40
0.8281673160709799
 40
0.8980822890123653
 40
1.0
 40
1.0
 40
1.0
 40
1.0
 10
-85.58395405208017
 20
39.71921830019519
 30
0.0
 10
-85.57913381986744
 20
39.69387778192553
 30
0.0
 10
-85.57100693563662
 20
39.65115381153579
 30
0.0
 10
-85.52129472838146
 20
39.61031566663019
 30
0.0
 10
-85.46595149639253
 20
39.59624770159231
 30
0.0
 10
-85.40998491747955
 20
39.61031566663018
 30
0.0
 10
-85.36219362385434
 20
39.65115381153581
 30
0.0
 10
-85.33915701216984
 20
39.71921830019517
 30
0.0
 10
-85.36219362385432
 20
39.78728278885458
 30
0.0
 10
-85.4099849174795
 20
39.82812093376019
 30
0.0
 10
-85.46595149639255
 20
39.84218889879808
 30
0.0
 10
-85.52129472838146
 20
39.82812093376019
 30
0.0
 10
-85.57100693563665
 20
39.78728278885459
 30
0.0
 10
-85.57913381986748
 20
39.74455881846484
 30
0.0
 10
-85.58395405208017
 20
39.71921830019519
 30
0.0
  0
SPLINE
  5
8B
330
1F
100
AcDbEntity
  8
0
  6
Continuous
 62
     7
100
AcDbSpline
210
0.0
220
0.0
230
1.0
 70
    11
 71
     3
 72
    19
 73
    15
 74
     0
 42
0.00000001
 43
0.00000001
 40
0.0
 40
0.0
 40
0.0
 40
0.0
 40
0.1019177109876464
 40
0.1718326839290336
 40
0.249999999999996
 40
0.3281673160709817
 40
0.3980822890123689
 40
0.5000000000000061
 40
0.6019177109876659
 40
0.6718326839290298
 40
0.7500000000000183
 40
0.8281673160709837
 40
0.8980822890123475
 40
0.9999999999999999
 40
0.9999999999999999
 40
0.9999999999999999
 40
0.9999999999999999
 10
-85.96893229803082
 20
39.84945919226223
 30
0.0
 10
-85.96411206581811
 20
39.82411867399257
 30
0.0
 10
-85.95598518158725
 20
39.78139470360281
 30
0.0
 10
-85.90627297433207
 20
39.74055655869714
 30
0.0
 10
-85.85092974234311
 20
39.72648859365928
 30
0.0
 10
-85.79496316343007
 20
39.74055655869714
 30
0.0
 10
-85.74717186980483
 20
39.78139470360281
 30
0.0
 10
-85.72413525812037
 20
39.84945919226221
 30
0.0
 10
-85.74717186980482
 20
39.91752368092167
 30
0.0
 10
-85.79496316343008
 20
39.95836182582729
 30
0.0
 10
-85.85092974234311
 20
39.97242979086518
 30
0.0
 10
-85.90627297433205
 20
39.95836182582729
 30
0.0
 10
-85.95598518158728
 20
39.91752368092166
 30
0.0
 10
-85.96411206581811
 20
39.87479971053189
 30
0.0
 10
-85.96893229803081
 20
39.84945919226222
 30
0.0
  0
SPLINE
  5
8C
330
1F
100
AcDbEntity
  8
0
  6
Continuous
 62
     7
100
AcDbSpline
210
0.0
220
0.0
230
1.0
 70
    11
 71
     3
 72
    19
 73
    15
 74
     0
 42
0.00000001
 43
0.00000001
 40
0.0
 40
0.0
 40
0.0
 40
0.0
 40
0.1019177109876219
 40
0.1718326839290128
 40
0.2499999999999882
 40
0.3281673160709866
 40
0.3980822890123594
 40
0.4999999999999908
 40
0.6019177109876448
 40
0.6718326839290099
 40
0.7500000000000054
 40
0.8281673160709778
 40
0.8980822890123611
 40
1.0
 40
1.0
 40
1.0
 40
1.0
 10
-86.35042815586066
 20
39.99328478038195
 30
0.0
 10
-86.34560792364795
 20
39.9679442621123
 30
0.0
 10
-86.33748103941709
 20
39.92522029172254
 30
0.0
 10
-86.28776883216197
 20
39.88438214681692
 30
0.0
 10
-86.23242560017299
 20
39.87031418177902
 30
0.0
 10
-86.17645902125993
 20
39.88438214681688
 30
0.0
 10
-86.12866772763473
 20
39.92522029172256
 30
0.0
 10
-86.10563111595025
 20
39.99328478038194
 30
0.0
 10
-86.1286677276347
 20
40.06134926904136
 30
0.0
 10
-86.17645902125997
 20
40.10218741394703
 30
0.0
 10
-86.232425600173
 20
40.11625537898487
 30
0.0
 10
-86.28776883216196
 20
40.10218741394701
 30
0.0
 10
-86.33748103941714
 20
40.06134926904138
 30
0.0
 10
-86.34560792364795
 20
40.01862529865161
 30
0.0
 10
-86.35042815586066
 20
39.99328478038195
 30
0.0
  0
SPLINE
  5
8D
330
1F
100
AcDbEntity
  8
0
  6
Continuous
 62
     7
100
AcDbSpline
210
0.0
220
0.0
230
1.0
 70
    11
 71
     3
 72
    19
 73
    15
 74
     0
 42
0.00000001
 43
0.00000001
 40
0.0
 40
0.0
 40
0.0
 40
0.0
 40
0.1019177109876584
 40
0.1718326839290057
 40
0.2500000000000334
 40
0.3281673160709918
 40
0.398082289012339
 40
0.4999999999999972
 40
0.6019177109876555
 40
0.6718326839290027
 40
0.7499999999999639
 40
0.8281673160709946
 40
0.8980822890123418
 40
1.0
 40
1.0
 40
1.0
 40
1.0
 10
-86.79407427313033
 20
39.70840899431831
 30
0.0
 10
-86.78925404091763
 20
39.68306847604865
 30
0.0
 10
-86.78112715668678
 20
39.6403445056589
 30
0.0
 10
-86.73141494943161
 20
39.59950636075325
 30
0.0
 10
-86.67607171744268
 20
39.58543839571541
 30
0.0
 10
-86.62010513852962
 20
39.59950636075325
 30
0.0
 10
-86.57231384490443
 20
39.64034450565892
 30
0.0
 10
-86.54927723321998
 20
39.7084089943183
 30
0.0
 10
-86.5723138449044
 20
39.77647348297773
 30
0.0
 10
-86.62010513852968
 20
39.81731162788338
 30
0.0
 10
-86.67607171744264
 20
39.83137959292123
 30
0.0
 10
-86.73141494943161
 20
39.81731162788339
 30
0.0
 10
-86.78112715668678
 20
39.77647348297771
 30
0.0
 10
-86.78925404091763
 20
39.73374951258797
 30
0.0
 10
-86.79407427313033
 20
39.70840899431831
 30
0.0
  0
SPLINE
  5
8E
330
1F
100
AcDbEntity
  8
0
  6
Continuous
 62
     7
100
AcDbSpline
210
0.0
220
0.0
230
1.0
 70
    11
 71
     3
 72
    19
 73
    15
 74
     0
 42
0.00000001
 43
0.00000001
 40
0.0
 40
0.0
 40
0.0
 40
0.0
 40
0.1019177109876526
 40
0.1718326839290109
 40
0.2500000000000105
 40
0.328167316070987
 40
0.3980822890123453
 40
0.5000000000000009
 40
0.6019177109876451
 40
0.671832683929019
 40
0.7499999999999926
 40
0.8281673160709893
 40
0.8980822890123632
 40
1.0
 40
1.0
 40
1.0
 40
1.0
 10
-86.40414256349182
 20
39.58459633028362
 30
0.0
 10
-86.39932233127911
 20
39.55925581201395
 30
0.0
 10
-86.39119544704825
 20
39.51653184162419
 30
0.0
 10
-86.34148323979309
 20
39.47569369671858
 30
0.0
 10
-86.28614000780415
 20
39.46162573168069
 30
0.0
 10
-86.2301734288911
 20
39.47569369671857
 30
0.0
 10
-86.18238213526587
 20
39.5165318416242
 30
0.0
 10
-86.15934552358144
 20
39.58459633028363
 30
0.0
 10
-86.18238213526585
 20
39.65266081894302
 30
0.0
 10
-86.23017342889113
 20
39.69349896384869
 30
0.0
 10
-86.28614000780415
 20
39.70756692888655
 30
0.0
 10
-86.34148323979309
 20
39.69349896384869
 30
0.0
 10
-86.39119544704825
 20
39.65266081894303
 30
0.0
 10
-86.39932233127915
 20
39.60993684855328
 30
0.0
 10
-86.40414256349185
 20
39.58459633028363
 30
0.0
  0
SPLINE
  5
8F
330
1F
100
AcDbEntity
  8
0
  6
Continuous
 62
     7
100
AcDbSpline
210
0.0
220
0.0
230
1.0
 70
    11
 71
     3
 72
    19
 73
    15
 74
     0
 42
0.00000001
 43
0.00000001
 40
0.0
 40
0.0
 40
0.0
 40
0.0
 40
0.1019177109876509
 40
0.1718326839290423
 40
0.2500000000000123
 40
0.3281673160709824
 40
0.3980822890123737
 40
0.5000000000000095
 40
0.6019177109876452
 40
0.6718326839290288
 40
0.7500000000000047
 40
0.8281673160709805
 40
0.8980822890123642
 40
1.0
 40
1.0
 40
1.0
 40
1.0
 10
-86.01156318661903
 20
39.47456759679313
 30
0.0
 10
-86.00674295440632
 20
39.44922707852346
 30
0.0
 10
-85.99861607017549
 20
39.40650310813371
 30
0.0
 10
-85.9489038629203
 20
39.36566496322807
 30
0.0
 10
-85.89356063093132
 20
39.35159699819021
 30
0.0
 10
-85.83759405201835
 20
39.36566496322806
 30
0.0
 10
-85.78980275839302
 20
39.40650310813371
 30
0.0
 10
-85.76676614670869
 20
39.47456759679314
 30
0.0
 10
-85.78980275839304
 20
39.54263208545254
 30
0.0
 10
-85.83759405201835
 20
39.58347023035818
 30
0.0
 10
-85.89356063093132
 20
39.59753819539606
 30
0.0
 10
-85.94890386292029
 20
39.58347023035816
 30
0.0
 10
-85.99861607017546
 20
39.54263208545255
 30
0.0
 10
-86.00674295440632
 20
39.49990811506279
 30
0.0
 10
-86.01156318661906
 20
39.47456759679314
 30
0.0
  0
SPLINE
  5
90
330
1F
100
AcDbEntity
  8
0
  6
Continuous
 62
     7
100
AcDbSpline
210
0.0
220
0.0
230
1.0
 70
    11
 71
     3
 72
    19
 73
    15
 74
     0
 42
0.00000001
 43
0.00000001
 40
0.0
 40
0.0
 40
0.0
 40
0.0
 40
0.1019177109876645
 40
0.1718326839290432
 40
0.2500000000000266
 40
0.32816731607101
 40
0.3980822890123706
 40
0.5000000000000107
 40
0.6019177109876676
 40
0.6718326839290165
 40
0.75
 40
0.8281673160709834
 40
0.8980822890123505
 40
1.0
 40
1.0
 40
1.0
 40
1.0
 10
-85.61669865743819
 20
39.37837537560873
 30
0.0
 10
-85.6118784252255
 20
39.35303485733908
 30
0.0
 10
-85.60375154099465
 20
39.31031088694934
 30
0.0
 10
-85.55403933373947
 20
39.26947274204368
 30
0.0
 10
-85.49869610175053
 20
39.25540477700582
 30
0.0
 10
-85.44272952283751
 20
39.26947274204368
 30
0.0
 10
-85.39493822921227
 20
39.31031088694934
 30
0.0
 10
-85.37190161752783
 20
39.37837537560873
 30
0.0
 10
-85.39493822921227
 20
39.44643986426812
 30
0.0
 10
-85.44272952283751
 20
39.48727800917378
 30
0.0
 10
-85.49869610175053
 20
39.50134597421164
 30
0.0
 10
-85.55403933373947
 20
39.48727800917377
 30
0.0
 10
-85.60375154099462
 20
39.44643986426815
 30
0.0
 10
-85.61187842522553
 20
39.40371589387839
 30
0.0
 10
-85.61669865743822
 20
39.37837537560873
 30
0.0
  0
SPLINE
  5
91
330
1F
100
AcDbEntity
  8
0
  6
Continuous
 62
     7
100
AcDbSpline
210
0.0
220
0.0
230
1.0
 70
    11
 71
     3
 72
    19
 73
    15
 74
     0
 42
0.00000001
 43
0.00000001
 40
0.0
 40
0.0
 40
0.0
 40
0.0
 40
0.1019177109876915
 40
0.1718326839290612
 40
0.2500000000000518
 40
0.3281673160710193
 40
0.398082289012389
 40
0.5000000000000328
 40
0.6019177109876709
 40
0.6718326839290367
 40
0.7500000000000085
 40
0.8281673160710036
 40
0.8980822890123693
 40
1.0
 40
1.0
 40
1.0
 40
1.0
 10
-85.21991248270206
 20
39.29606379111447
 30
0.0
 10
-85.21509225048933
 20
39.27072327284481
 30
0.0
 10
-85.2069653662585
 20
39.22799930245507
 30
0.0
 10
-85.15725315900336
 20
39.18716115754941
 30
0.0
 10
-85.10190992701438
 20
39.17309319251157
 30
0.0
 10
-85.04594334810136
 20
39.1871611575494
 30
0.0
 10
-84.9981520544761
 20
39.22799930245506
 30
0.0
 10
-84.97511544279165
 20
39.29606379111447
 30
0.0
 10
-84.99815205447611
 20
39.36412827977388
 30
0.0
 10
-85.04594334810135
 20
39.40496642467953
 30
0.0
 10
-85.10190992701435
 20
39.41903438971739
 30
0.0
 10
-85.15725315900333
 20
39.40496642467954
 30
0.0
 10
-85.20696536625849
 20
39.36412827977388
 30
0.0
 10
-85.21509225048938
 20
39.32140430938414
 30
0.0
 10
-85.21991248270206
 20
39.29606379111447
 30
0.0
  0
SPLINE
  5
92
330
1F
100
AcDbEntity
  8
0
  6
Continuous
 62
     7
100
AcDbSpline
210
0.0
220
0.0
230
1.0
 70
    11
 71
     3
 72
    19
 73
    15
 74
     0
 42
0.00000001
 43
0.00000001
 40
0.0
 40
0.0
 40
0.0
 40
0.0
 40
0.101917710987717
 40
0.1718326839290832
 40
0.2500000000000714
 40
0.3281673160710365
 40
0.3980822890124209
 40
0.5000000000000464
 40
0.6019177109876777
 40
0.6718326839290542
 40
0.7500000000000207
 40
0.8281673160710104
 40
0.8980822890123689
 40
1.0
 40
1.0
 40
1.0
 40
1.0
 10
-81.69703313797423
 20
39.17380945585436
 30
0.0
 10
-81.69221290576151
 20
39.1484689375847
 30
0.0
 10
-81.68408602153069
 20
39.10574496719499
 30
0.0
 10
-81.63437381427549
 20
39.06490682228929
 30
0.0
 10
-81.57903058228648
 20
39.05083885725143
 30
0.0
 10
-81.52306400337356
 20
39.06490682228932
 30
0.0
 10
-81.47527270974822
 20
39.10574496719494
 30
0.0
 10
-81.45223609806384
 20
39.17380945585436
 30
0.0
 10
-81.47527270974827
 20
39.24187394451379
 30
0.0
 10
-81.52306400337349
 20
39.28271208941941
 30
0.0
 10
-81.57903058228655
 20
39.29678005445729
 30
0.0
 10
-81.63437381427546
 20
39.28271208941941
 30
0.0
 10
-81.68408602153065
 20
39.24187394451378
 30
0.0
 10
-81.69221290576152
 20
39.19914997412402
 30
0.0
 10
-81.69703313797422
 20
39.17380945585436
 30
0.0
  0
LINE
  5
93
330
1F
100
AcDbEntity
  8
0
  6
Continuous
 62
     7
100
AcDbLine
 10
-63.2401079348
 20
20.8800753692
 30
0.0
 11
-74.7292318704
 21
20.3353150767
 31
0.0
  0
POINT
  5
94
330
1F
100
AcDbEntity
  8
0
  6
Continuous
 62
     7
100
AcDbPoint
 10
-80.0000340912
 20
35.00455785
 30
0.0
  0
POINT
  5
95
330
1F
100
AcDbEntity
  8
0
  6
Continuous
 62
     7
100
AcDbPoint
 10
-92.0142593013
 20
34.8057287945
 30
0.0
  0
POINT
  5
96
330
1F
100
AcDbEntity
  8
0
  6
Continuous
 62
     7
100
AcDbPoint
 10
-94.5464495605
 20
37.2840331108
 30
0.0
  0
POINT
  5
97
330
1F
100
AcDbEntity
  8
0
  6
Continuous
 62
     7
100
AcDbPoint
 10
-91.0142610372
 20
35.3857287945
 30
0.0
  0
POINT
  5
98
330
1F
100
AcDbEntity
  8
0
  6
Continuous
 62
     7
100
AcDbPoint
 10
-70.2565202754
 20
20.5473900521
 30
0.0
  0
POINT
  5
99
330
1F
100
AcDbEntity
  8
0
  6
Continuous
 62
     7
100
AcDbPoint
 10
-81.5789229018
 20
39.1738094559
 30
0.0
  0
POINT
  5
9A
330
1F
100
AcDbEntity
  8
0
  6
Continuous
 62
     7
100
AcDbPoint
 10
-70.2565202754
 20
35.4845694521
 30
0.0
  0
POINT
  5
9B
330
1F
100
AcDbEntity
  8
0
  6
Continuous
 62
     7
100
AcDbPoint
 10
-82.5000019431
 20
35.5499995975
 30
0.0
  0
POINT
  5
9C
330
1F
100
AcDbEntity
  8
0
  6
Continuous
 62
     7
100
AcDbPoint
 10
-70.2565202754
 20
20.5473900521
 30
0.0
  0
MTEXT
  5
9E
330
1F
100
AcDbEntity
  8
0
  6
Continuous
 62
     7
100
AcDbMText
 10
-94.5464495605
 20
20.2951746676
 30
0.0
 40
0.1903
 41
0.0
 71
     1
 72
     1
  1
SOLIDWORKS Educational Product.
  7
SLDTEXTSTYLE0
 73
     1
 44
1.0
  0
MTEXT
  5
9F
330
1F
100
AcDbEntity
  8
0
  6
Continuous
 62
     7
100
AcDbMText
 10
-94.5464495605
 20
20.0097246676
 30
0.0
 40
0.1903
 41
0.0
 71
     1
 72
     1
  1
For Instructional Use Only.
  7
SLDTEXTSTYLE0
 73
     1
 44
1.0
  0
ENDSEC
  0
SECTION
  2
OBJECTS
  0
DICTIONARY
  5
C
330
0
100
AcDbDictionary
281
     1
  3
ACAD_GROUP
350
D
  3
ACAD_LAYOUT
350
1A
  3
ACAD_MLINESTYLE
350
17
  3
ACAD_PLOTSETTINGS
350
19
  3
ACAD_PLOTSTYLENAME
350
E
  3
ACAD_SCALELIST
350
47
  3
DWGPROPS
350
A0
  0
DICTIONARY
  5
D
102
{ACAD_REACTORS
330
C
102
}
330
C
100
AcDbDictionary
281
     1
  0
DICTIONARY
  5
1A
102
{ACAD_REACTORS
330
C
102
}
330
C
100
AcDbDictionary
281
     1
  3
Layout1
350
1E
  3
Layout2
350
26
  3
Model
350
22
  0
DICTIONARY
  5
17
102
{ACAD_REACTORS
330
C
102
}
330
C
100
AcDbDictionary
281
     1
  3
Standard
350
18
  0
DICTIONARY
  5
19
102
{ACAD_REACTORS
330
C
102
}
330
C
100
AcDbDictionary
281
     1
  0
ACDBDICTIONARYWDFLT
  5
E
102
{ACAD_REACTORS
330
C
102
}
330
C
100
AcDbDictionary
281
     1
  3
Normal
350
F
100
AcDbDictionaryWithDefault
340
F
  0
DICTIONARY
  5
47
102
{ACAD_REACTORS
330
C
102
}
330
C
100
AcDbDictionary
281
     1
  3
A0
350
48
  3
A1
350
49
  3
A2
350
4A
  3
A3
350
4B
  3
A4
350
4C
  3
A5
350
4D
  3
A6
350
4E
  3
A7
350
4F
  3
A8
350
50
  3
A9
350
51
  3
B1
350
52
  3
B2
350
53
  3
B3
350
54
  3
B4
350
55
  3
B5
350
56
  3
B6
350
57
  3
B7
350
58
  0
XRECORD
  5
A0
102
{ACAD_REACTORS
330
C
102
}
330
C
100
AcDbXrecord
280
     1
  1
DWGPROPS COOKIE
  2

  3

  4

  6

  7

  8
xxori
  9

300
=
301
=
302
=
303
=
304
=
305
=
306
=
307
=
308
=
309
=
 40
0.0
 41
2461120.948210614
 42
2461120.948878542
  1

 90
        0
  0
LAYOUT
  5
1E
102
{ACAD_REACTORS
330
1A
102
}
330
1A
100
AcDbPlotSettings
  1

  2
none_device
  4

  6

 40
0.0
 41
0.0
 42
0.0
 43
0.0
 44
0.0
 45
0.0
 46
0.0
 47
0.0
 48
0.0
 49
0.0
140
0.0
141
0.0
142
1.0
143
1.0
 70
   688
 72
     0
 73
     0
 74
     5
  7

 75
    16
147
1.0
148
0.0
149
0.0
100
AcDbLayout
  1
Layout1
 70
     1
 71
     1
 10
0.0
 20
0.0
 11
12.0
 21
9.0
 12
0.0
 22
0.0
 32
0.0
 14
1.0000000000E+20
 24
1.0000000000E+20
 34
1.0000000000E+20
 15
-1.0000000000E+20
 25
-1.0000000000E+20
 35
-1.0000000000E+20
146
0.0
 13
0.0
 23
0.0
 33
0.0
 16
1.0
 26
0.0
 36
0.0
 17
0.0
 27
1.0
 37
0.0
 76
     0
330
1B
  0
LAYOUT
  5
26
102
{ACAD_REACTORS
330
1A
102
}
330
1A
100
AcDbPlotSettings
  1

  2
none_device
  4

  6

 40
0.0
 41
0.0
 42
0.0
 43
0.0
 44
0.0
 45
0.0
 46
0.0
 47
0.0
 48
0.0
 49
0.0
140
0.0
141
0.0
142
1.0
143
1.0
 70
   688
 72
     0
 73
     0
 74
     5
  7

 75
    16
147
1.0
148
0.0
149
0.0
100
AcDbLayout
  1
Layout2
 70
     1
 71
     2
 10
0.0
 20
0.0
 11
0.0
 21
0.0
 12
0.0
 22
0.0
 32
0.0
 14
0.0
 24
0.0
 34
0.0
 15
0.0
 25
0.0
 35
0.0
146
0.0
 13
0.0
 23
0.0
 33
0.0
 16
1.0
 26
0.0
 36
0.0
 17
0.0
 27
1.0
 37
0.0
 76
     0
330
23
  0
LAYOUT
  5
22
102
{ACAD_REACTORS
330
1A
102
}
330
1A
100
AcDbPlotSettings
  1

  2
none_device
  4
ANSI_A_(11.00_x_8.50_Inches)
  6

 40
6.35
 41
19.05
 42
6.35000508
 43
19.05000254
 44
279.4
 45
215.9
 46
830.4085845716
 47
-183.6884420945
 48
0.0
 49
0.0
140
0.0
141
0.0
142
0.347852845
143
1.0
 70
  1696
 72
     0
 73
     0
 74
     0
  7

 75
     0
147
0.5913241897
148
-39.4088153714
149
0.0
100
AcDbLayout
  1
Model
 70
     1
 71
     0
 10
0.0
 20
0.0
 11
12.0
 21
9.0
 12
0.0
 22
0.0
 32
0.0
 14
-94.5464495605
 24
20.3353150767
 34
0.0
 15
-63.2401079348
 25
41.3679513143
 35
0.0
146
0.0
 13
0.0
 23
0.0
 33
0.0
 16
1.0
 26
0.0
 36
0.0
 17
0.0
 27
1.0
 37
0.0
 76
     0
330
1F
331
29
  0
MLINESTYLE
  5
18
102
{ACAD_REACTORS
330
17
102
}
330
17
100
AcDbMlineStyle
  2
Standard
 70
     0
  3

 62
   256
 51
90.0
 52
90.0
 71
     2
 49
0.5
 62
   256
  6
BYLAYER
 49
-0.5
 62
   256
  6
BYLAYER
  0
ACDBPLACEHOLDER
  5
F
102
{ACAD_REACTORS
330
E
102
}
330
E
  0
SCALE
  5
48
102
{ACAD_REACTORS
330
47
102
}
330
47
100
AcDbScale
 70
     0
300
1:1
140
1.0
141
1.0
290
     1
  0
SCALE
  5
49
102
{ACAD_REACTORS
330
47
102
}
330
47
100
AcDbScale
 70
     0
300
1/128" = 1'-0"
140
0.0078125
141
12.0
290
     0
  0
SCALE
  5
4A
102
{ACAD_REACTORS
330
47
102
}
330
47
100
AcDbScale
 70
     0
300
1/64" = 1'-0"
140
0.015625
141
12.0
290
     0
  0
SCALE
  5
4B
102
{ACAD_REACTORS
330
47
102
}
330
47
100
AcDbScale
 70
     0
300
1/32" = 1'-0"
140
0.03125
141
12.0
290
     0
  0
SCALE
  5
4C
102
{ACAD_REACTORS
330
47
102
}
330
47
100
AcDbScale
 70
     0
300
1/16" = 1'-0"
140
0.0625
141
12.0
290
     0
  0
SCALE
  5
4D
102
{ACAD_REACTORS
330
47
102
}
330
47
100
AcDbScale
 70
     0
300
3/32" = 1'-0"
140
0.09375
141
12.0
290
     0
  0
SCALE
  5
4E
102
{ACAD_REACTORS
330
47
102
}
330
47
100
AcDbScale
 70
     0
300
1/8" = 1'-0"
140
0.125
141
12.0
290
     0
  0
SCALE
  5
4F
102
{ACAD_REACTORS
330
47
102
}
330
47
100
AcDbScale
 70
     0
300
3/16" = 1'-0"
140
0.1875
141
12.0
290
     0
  0
SCALE
  5
50
102
{ACAD_REACTORS
330
47
102
}
330
47
100
AcDbScale
 70
     0
300
1/4" = 1'-0"
140
0.25
141
12.0
290
     0
  0
SCALE
  5
51
102
{ACAD_REACTORS
330
47
102
}
330
47
100
AcDbScale
 70
     0
300
3/8" = 1'-0"
140
0.375
141
12.0
290
     0
  0
SCALE
  5
52
102
{ACAD_REACTORS
330
47
102
}
330
47
100
AcDbScale
 70
     0
300
1/2" = 1'-0"
140
0.5
141
12.0
290
     0
  0
SCALE
  5
53
102
{ACAD_REACTORS
330
47
102
}
330
47
100
AcDbScale
 70
     0
300
3/4" = 1'-0"
140
0.75
141
12.0
290
     0
  0
SCALE
  5
54
102
{ACAD_REACTORS
330
47
102
}
330
47
100
AcDbScale
 70
     0
300
1" = 1'-0"
140
1.0
141
12.0
290
     0
  0
SCALE
  5
55
102
{ACAD_REACTORS
330
47
102
}
330
47
100
AcDbScale
 70
     0
300
1-1/2" = 1'-0"
140
1.5
141
12.0
290
     0
  0
SCALE
  5
56
102
{ACAD_REACTORS
330
47
102
}
330
47
100
AcDbScale
 70
     0
300
3" = 1'-0"
140
3.0
141
12.0
290
     0
  0
SCALE
  5
57
102
{ACAD_REACTORS
330
47
102
}
330
47
100
AcDbScale
 70
     0
300
6" = 1'-0"
140
6.0
141
12.0
290
     0
  0
SCALE
  5
58
102
{ACAD_REACTORS
330
47
102
}
330
47
100
AcDbScale
 70
     0
300
1'-0" = 1'-0"
140
12.0
141
12.0
290
     0
  0
ENDSEC
  0
EOF
