  0
SECTION
  2
HEADER
  9
$ACADVER
  1
AC1015
  9
$ACADMAINTVER
 70
     6
  9
$DWGCODEPAGE
  3
ANSI_1252
  9
$INSBASE
 10
0.0
 20
0.0
 30
0.0
  9
$EXTMIN
 10
-4.8746631363
 20
-20.535795722
 30
0.0
  9
$EXTMAX
 10
3.0870088678
 20
-9.2778175407
 30
0.0
  9
$LIMMIN
 10
0.0
 20
0.0
  9
$LIMMAX
 10
12.0
 20
9.0
  9
$ORTHOMODE
 70
     0
  9
$REGENMODE
 70
     1
  9
$FILLMODE
 70
     1
  9
$QTEXTMODE
 70
     0
  9
$MIRRTEXT
 70
     1
  9
$LTSCALE
 40
1.0
  9
$ATTMODE
 70
     1
  9
$TEXTSIZE
 40
0.1377952756
  9
$TRACEWID
 40
0.05
  9
$TEXTSTYLE
  7
Standard
  9
$CLAYER
  8
0
  9
$CELTYPE
  6
ByLayer
  9
$CECOLOR
 62
   256
  9
$CELTSCALE
 40
1.0
  9
$DISPSILH
 70
     0
  9
$DIMSCALE
 40
1.0
  9
$DIMASZ
 40
0.13
  9
$DIMEXO
 40
0.0
  9
$DIMDLI
 40
0.38
  9
$DIMRND
 40
0.0
  9
$DIMDLE
 40
0.0
  9
$DIMEXE
 40
0.125
  9
$DIMTP
 40
0.0
  9
$DIMTM
 40
0.0
  9
$DIMTXT
 40
0.1377952756
  9
$DIMCEN
 40
0.09
  9
$DIMTSZ
 40
0.0
  9
$DIMTOL
 70
     0
  9
$DIMLIM
 70
     0
  9
$DIMTIH
 70
     1
  9
$DIMTOH
 70
     1
  9
$DIMSE1
 70
     0
  9
$DIMSE2
 70
     0
  9
$DIMTAD
 70
     1
  9
$DIMZIN
 70
     1
  9
$DIMBLK
  1

  9
$DIMASO
 70
     1
  9
$DIMSHO
 70
     1
  9
$DIMPOST
  1

  9
$DIMAPOST
  1

  9
$DIMALT
 70
     0
  9
$DIMALTD
 70
     2
  9
$DIMALTF
 40
25.4
  9
$DIMLFAC
 40
1.0
  9
$DIMTOFL
 70
     0
  9
$DIMTVP
 40
0.0
  9
$DIMTIX
 70
     0
  9
$DIMSOXD
 70
     0
  9
$DIMSAH
 70
     0
  9
$DIMBLK1
  1

  9
$DIMBLK2
  1

  9
$DIMSTYLE
  2
Standard
  9
$DIMCLRD
 70
     0
  9
$DIMCLRE
 70
     0
  9
$DIMCLRT
 70
     0
  9
$DIMTFAC
 40
1.0
  9
$DIMGAP
 40
0.06
  9
$DIMJUST
 70
     0
  9
$DIMSD1
 70
     0
  9
$DIMSD2
 70
     0
  9
$DIMTOLJ
 70
     1
  9
$DIMTZIN
 70
     1
  9
$DIMALTZ
 70
     0
  9
$DIMALTTZ
 70
     0
  9
$DIMUPT
 70
     0
  9
$DIMDEC
 70
     2
  9
$DIMTDEC
 70
     2
  9
$DIMALTU
 70
     2
  9
$DIMALTTD
 70
     2
  9
$DIMTXSTY
  7
Standard
  9
$DIMAUNIT
 70
     0
  9
$DIMADEC
 70
     2
  9
$DIMALTRND
 40
0.0
  9
$DIMAZIN
 70
     0
  9
$DIMDSEP
 70
    46
  9
$DIMATFIT
 70
     3
  9
$DIMFRAC
 70
     0
  9
$DIMLDRBLK
  1

  9
$DIMLUNIT
 70
     2
  9
$DIMLWD
 70
    -2
  9
$DIMLWE
 70
    -2
  9
$DIMTMOVE
 70
     0
  9
$LUNITS
 70
     2
  9
$LUPREC
 70
     2
  9
$SKETCHINC
 40
0.1
  9
$FILLETRAD
 40
0.0
  9
$AUNITS
 70
     0
  9
$AUPREC
 70
     2
  9
$MENU
  1
.
  9
$ELEVATION
 40
0.0
  9
$PELEVATION
 40
0.0
  9
$THICKNESS
 40
0.0
  9
$LIMCHECK
 70
     0
  9
$CHAMFERA
 40
0.0
  9
$CHAMFERB
 40
0.0
  9
$CHAMFERC
 40
0.0
  9
$CHAMFERD
 40
0.0
  9
$SKPOLY
 70
     0
  9
$TDCREATE
 40
2461306.563610093
  9
$TDUCREATE
 40
2461306.855276759
  9
$TDUPDATE
 40
2461306.5642111
  9
$TDUUPDATE
 40
2461306.855877767
  9
$TDINDWG
 40
0.0000000116
  9
$TDUSRTIMER
 40
0.0000000116
  9
$USRTIMER
 70
     1
  9
$ANGBASE
 50
0.0
  9
$ANGDIR
 70
     0
  9
$PDMODE
 70
     0
  9
$PDSIZE
 40
-1.0
  9
$PLINEWID
 40
0.0
  9
$SPLFRAME
 70
     0
  9
$SPLINETYPE
 70
     6
  9
$SPLINESEGS
 70
     8
  9
$HANDSEED
  5
2A3
  9
$SURFTAB1
 70
     6
  9
$SURFTAB2
 70
     6
  9
$SURFTYPE
 70
     6
  9
$SURFU
 70
     6
  9
$SURFV
 70
     6
  9
$UCSBASE
  2

  9
$UCSNAME
  2

  9
$UCSORG
 10
0.0
 20
0.0
 30
0.0
  9
$UCSXDIR
 10
1.0
 20
0.0
 30
0.0
  9
$UCSYDIR
 10
0.0
 20
1.0
 30
0.0
  9
$UCSORTHOREF
  2

  9
$UCSORTHOVIEW
 70
     0
  9
$UCSORGTOP
 10
0.0
 20
0.0
 30
0.0
  9
$UCSORGBOTTOM
 10
0.0
 20
0.0
 30
0.0
  9
$UCSORGLEFT
 10
0.0
 20
0.0
 30
0.0
  9
$UCSORGRIGHT
 10
0.0
 20
0.0
 30
0.0
  9
$UCSORGFRONT
 10
0.0
 20
0.0
 30
0.0
  9
$UCSORGBACK
 10
0.0
 20
0.0
 30
0.0
  9
$PUCSBASE
  2

  9
$PUCSNAME
  2

  9
$PUCSORG
 10
0.0
 20
0.0
 30
0.0
  9
$PUCSXDIR
 10
1.0
 20
0.0
 30
0.0
  9
$PUCSYDIR
 10
0.0
 20
1.0
 30
0.0
  9
$PUCSORTHOREF
  2

  9
$PUCSORTHOVIEW
 70
     0
  9
$PUCSORGTOP
 10
0.0
 20
0.0
 30
0.0
  9
$PUCSORGBOTTOM
 10
0.0
 20
0.0
 30
0.0
  9
$PUCSORGLEFT
 10
0.0
 20
0.0
 30
0.0
  9
$PUCSORGRIGHT
 10
0.0
 20
0.0
 30
0.0
  9
$PUCSORGFRONT
 10
0.0
 20
0.0
 30
0.0
  9
$PUCSORGBACK
 10
0.0
 20
0.0
 30
0.0
  9
$USERI1
 70
     0
  9
$USERI2
 70
     0
  9
$USERI3
 70
     0
  9
$USERI4
 70
     0
  9
$USERI5
 70
     0
  9
$USERR1
 40
0.0
  9
$USERR2
 40
0.0
  9
$USERR3
 40
0.0
  9
$USERR4
 40
0.0
  9
$USERR5
 40
0.0
  9
$WORLDVIEW
 70
     1
  9
$SHADEDGE
 70
     3
  9
$SHADEDIF
 70
    70
  9
$TILEMODE
 70
     1
  9
$MAXACTVP
 70
    64
  9
$PINSBASE
 10
0.0
 20
0.0
 30
0.0
  9
$PLIMCHECK
 70
     0
  9
$PEXTMIN
 10
-4.8746631363
 20
-20.535795722
 30
0.0
  9
$PEXTMAX
 10
3.0870088678
 20
-9.2778175407
 30
0.0
  9
$PLIMMIN
 10
-5.2264755258
 20
-20.8876075574
  9
$PLIMMAX
 10
10.2532452353
 20
-8.9260051512
  9
$UNITMODE
 70
     0
  9
$VISRETAIN
 70
     1
  9
$PLINEGEN
 70
     0
  9
$PSLTSCALE
 70
     1
  9
$TREEDEPTH
 70
  3020
  9
$CMLSTYLE
  2
Standard
  9
$CMLJUST
 70
     0
  9
$CMLSCALE
 40
1.0
  9
$PROXYGRAPHICS
 70
     1
  9
$MEASUREMENT
 70
     0
  9
$CELWEIGHT
370
    -1
  9
$ENDCAPS
280
     0
  9
$JOINSTYLE
280
     0
  9
$LWDISPLAY
290
     1
  9
$INSUNITS
 70
     1
  9
$HYPERLINKBASE
  1

  9
$STYLESHEET
  1

  9
$XEDIT
290
     1
  9
$CEPSNTYPE
380
     0
  9
$PSTYLEMODE
290
     1
  9
$FINGERPRINTGUID
  2
{1a73fa5a-fd00-43b6-9fd3-1e7007769993}
  9
$VERSIONGUID
  2
{FAEB1C32-E019-11D5-929B-00C0DF256EC4}
  9
$EXTNAMES
290
     1
  9
$PSVPSCALE
 40
0.0
  9
$OLESTARTUP
290
     0
  0
ENDSEC
  0
SECTION
  2
CLASSES
  0
CLASS
  1
ACDBDICTIONARYWDFLT
  2
AcDbDictionaryWithDefault
  3
ObjectDBX Classes
 90
        0
280
     0
281
     0
  0
CLASS
  1
VISUALSTYLE
  2
AcDbVisualStyle
  3
ObjectDBX Classes
 90
     4095
280
     0
281
     0
  0
CLASS
  1
MATERIAL
  2
AcDbMaterial
  3
ObjectDBX Classes
 90
     1153
280
     0
281
     0
  0
CLASS
  1
SCALE
  2
AcDbScale
  3
ObjectDBX Classes
 90
     1153
280
     0
281
     0
  0
CLASS
  1
TABLESTYLE
  2
AcDbTableStyle
  3
ObjectDBX Classes
 90
     4095
280
     0
281
     0
  0
CLASS
  1
MLEADERSTYLE
  2
AcDbMLeaderStyle
  3
ACDB_MLEADERSTYLE_CLASS
 90
     4095
280
     0
281
     0
  0
CLASS
  1
SUN
  2
AcDbSun
  3
SCENEOE
 90
     1153
280
     0
281
     0
  0
CLASS
  1
ACDBPLACEHOLDER
  2
AcDbPlaceHolder
  3
ObjectDBX Classes
 90
        0
280
     0
281
     0
  0
CLASS
  1
LAYOUT
  2
AcDbLayout
  3
ObjectDBX Classes
 90
        0
280
     0
281
     0
  0
ENDSEC
  0
SECTION
  2
TABLES
  0
TABLE
  2
VPORT
  5
8
330
0
100
AcDbSymbolTable
 70
     1
  0
VPORT
  5
29
330
8
100
AcDbSymbolTableRecord
100
AcDbViewportTableRecord
  2
*Active
 70
     0
 10
0.0
 20
0.0
 11
1.0
 21
1.0
 12
-0.8938271342
 22
-14.9068066313
 13
0.0
 23
0.0
 14
0.5
 24
0.5
 15
0.5
 25
0.5
 16
0.0
 26
0.0
 36
1.0
 17
0.0
 27
0.0
 37
0.0
 40
11.4831377449
 41
0.7072026501
 42
50.0
 43
0.0
 44
0.0
 50
0.0
 51
0.0
 71
     0
 72
   100
 73
     1
 74
     3
 75
     0
 76
     0
 77
     0
 78
     0
281
     0
 65
     1
110
0.0
120
0.0
130
0.0
111
1.0
121
0.0
131
0.0
112
0.0
122
1.0
132
0.0
 79
     0
146
0.0
  0
ENDTAB
  0
TABLE
  2
LTYPE
  5
5
330
0
100
AcDbSymbolTable
 70
     6
  0
LTYPE
  5
14
330
5
100
AcDbSymbolTableRecord
100
AcDbLinetypeTableRecord
  2
ByBlock
 70
     0
  3

 72
    65
 73
     0
 40
0.0
  0
LTYPE
  5
15
330
5
100
AcDbSymbolTableRecord
100
AcDbLinetypeTableRecord
  2
ByLayer
 70
     0
  3

 72
    65
 73
     0
 40
0.0
  0
LTYPE
  5
16
330
5
100
AcDbSymbolTableRecord
100
AcDbLinetypeTableRecord
  2
Continuous
 70
     0
  3
Solid line
 72
    65
 73
     0
 40
0.0
  0
LTYPE
  5
5E
330
5
100
AcDbSymbolTableRecord
100
AcDbLinetypeTableRecord
  2
HIDDEN
 70
     0
  3
Hidden __ __ __ __ __ __ __ __ __ __ __ __ __ __
 72
    65
 73
     2
 40
0.075
 49
0.05
 74
     0
 49
-0.025
 74
     0
  0
LTYPE
  5
5F
330
5
100
AcDbSymbolTableRecord
100
AcDbLinetypeTableRecord
  2
PHANTOM
 70
     0
  3
Phantom ______  __  __  ______  __  __  ______
 72
    65
 73
     6
 40
0.5
 49
0.25
 74
     0
 49
-0.05
 74
     0
 49
0.05
 74
     0
 49
-0.05
 74
     0
 49
0.05
 74
     0
 49
-0.05
 74
     0
  0
LTYPE
  5
60
330
5
100
AcDbSymbolTableRecord
100
AcDbLinetypeTableRecord
  2
CENTER
 70
     0
  3
Center ____ _ ____ _ ____ _ ____ _ ____ _ ____
 72
    65
 73
     4
 40
0.4
 49
0.25
 74
     0
 49
-0.05
 74
     0
 49
0.05
 74
     0
 49
-0.05
 74
     0
  0
LTYPE
  5
61
330
5
100
AcDbSymbolTableRecord
100
AcDbLinetypeTableRecord
  2
CENTERX2
 70
     0
  3
Center (2x) ________  __  ________  __  _____
 72
    65
 73
     4
 40
0.8
 49
0.5
 74
     0
 49
-0.1
 74
     0
 49
0.1
 74
     0
 49
-0.1
 74
     0
  0
LTYPE
  5
62
330
5
100
AcDbSymbolTableRecord
100
AcDbLinetypeTableRecord
  2
DOT2
 70
     0
  3
Dot (.5x) ........................................
 72
    65
 73
     2
 40
0.025
 49
0.0
 74
     0
 49
-0.025
 74
     0
  0
ENDTAB
  0
TABLE
  2
LAYER
  5
2
330
0
100
AcDbSymbolTable
 70
     1
  0
LAYER
  5
10
330
2
100
AcDbSymbolTableRecord
100
AcDbLayerTableRecord
  2
0
 70
     0
 62
     7
  6
Continuous
370
    -3
390
F
  0
ENDTAB
  0
TABLE
  2
STYLE
  5
3
330
0
100
AcDbSymbolTable
 70
     2
  0
STYLE
  5
11
330
3
100
AcDbSymbolTableRecord
100
AcDbTextStyleTableRecord
  2
Standard
 70
     0
 40
0.0
 41
1.0
 50
0.0
 71
     0
 42
0.1377952756
  3
txt
  4

  0
STYLE
  5
29D
330
3
100
AcDbSymbolTableRecord
100
AcDbTextStyleTableRecord
  2
SLDTEXTSTYLE0
 70
     0
 40
0.0
 41
0.7
 50
0.0
 71
     0
 42
0.1377952756
  3
TXT
  4

  0
ENDTAB
  0
TABLE
  2
VIEW
  5
6
330
0
100
AcDbSymbolTable
 70
     0
  0
ENDTAB
  0
TABLE
  2
UCS
  5
7
330
0
100
AcDbSymbolTable
 70
     0
  0
ENDTAB
  0
TABLE
  2
APPID
  5
9
330
0
100
AcDbSymbolTable
 70
     1
  0
APPID
  5
12
330
9
100
AcDbSymbolTableRecord
100
AcDbRegAppTableRecord
  2
ACAD
 70
     0
  0
ENDTAB
  0
TABLE
  2
DIMSTYLE
  5
A
330
0
100
AcDbSymbolTable
 70
     1
100
AcDbDimStyleTable
  0
DIMSTYLE
105
27
330
A
100
AcDbSymbolTableRecord
100
AcDbDimStyleTableRecord
  2
Standard
 70
     0
178
     0
340
11
  0
ENDTAB
  0
TABLE
  2
BLOCK_RECORD
  5
1
330
0
100
AcDbSymbolTable
 70
     1
  0
BLOCK_RECORD
  5
1F
330
1
100
AcDbSymbolTableRecord
100
AcDbBlockTableRecord
  2
*Model_Space
340
22
  0
BLOCK_RECORD
  5
1B
330
1
100
AcDbSymbolTableRecord
100
AcDbBlockTableRecord
  2
*Paper_Space
340
1E
  0
BLOCK_RECORD
  5
23
330
1
100
AcDbSymbolTableRecord
100
AcDbBlockTableRecord
  2
*Paper_Space0
340
26
  0
ENDTAB
  0
ENDSEC
  0
SECTION
  2
BLOCKS
  0
BLOCK
  5
20
330
1F
100
AcDbEntity
  8
0
100
AcDbBlockBegin
  2
*Model_Space
 70
     0
 10
0.0
 20
0.0
 30
0.0
  3
*Model_Space
  1

  0
ENDBLK
  5
21
330
1F
100
AcDbEntity
  8
0
100
AcDbBlockEnd
  0
BLOCK
  5
1C
330
1B
100
AcDbEntity
 67
     1
  8
0
100
AcDbBlockBegin
  2
*Paper_Space
 70
     0
 10
0.0
 20
0.0
 30
0.0
  3
*Paper_Space
  1

  0
ENDBLK
  5
1D
330
1B
100
AcDbEntity
 67
     1
  8
0
100
AcDbBlockEnd
  0
BLOCK
  5
24
330
23
100
AcDbEntity
  8
0
100
AcDbBlockBegin
  2
*Paper_Space0
 70
     0
 10
0.0
 20
0.0
 30
0.0
  3
*Paper_Space0
  1

  0
ENDBLK
  5
25
330
23
100
AcDbEntity
  8
0
100
AcDbBlockEnd
  0
ENDSEC
  0
SECTION
  2
ENTITIES
  0
SPLINE
  5
63
330
1F
100
AcDbEntity
  8
0
  6
Continuous
 62
     7
370
    25
100
AcDbSpline
210
0.0
220
0.0
230
1.0
 70
     8
 71
     3
 72
    14
 73
    10
 74
     0
 42
0.00000001
 43
0.00000001
 40
0.0
 40
0.0
 40
0.0
 40
0.0
 40
0.1388419411311686
 40
0.2763816485022335
 40
0.413605383668929
 40
0.5515061878189224
 40
0.6977617313748627
 40
0.846918718533353
 40
1.0
 40
1.0
 40
1.0
 40
1.0
 10
0.0989718510859792
 20
-9.277817540679845
 30
0.0
 10
0.0966880672245893
 20
-9.389566653434239
 30
0.0
 10
0.0921419196895486
 20
-9.612016755687876
 30
0.0
 10
0.1206683192329107
 20
-9.94416666005102
 30
0.0
 10
0.1753761047692844
 20
-10.27195781163142
 30
0.0
 10
0.2599154688490772
 20
-10.60075325946583
 30
0.0
 10
0.3757531685962168
 20
-10.92994221013945
 30
0.0
 10
0.5224918968962151
 20
-11.26026262348953
 30
0.0
 10
0.6431992845107034
 20
-11.47150570478386
 30
0.0
 10
0.7043366171938631
 20
-11.57849864691724
 30
0.0
  0
SPLINE
  5
65
330
1F
100
AcDbEntity
  8
0
  6
Continuous
 62
     7
370
    25
100
AcDbSpline
210
0.0
220
0.0
230
1.0
 70
     8
 71
     3
 72
    16
 73
    12
 74
     0
 42
0.00000001
 43
0.00000001
 40
0.0
 40
0.0
 40
0.0
 40
0.0
 40
0.0935960416284904
 40
0.1838889927724453
 40
0.2724595367738278
 40
0.3606536733993889
 40
0.4495518882886373
 40
0.539972860553356
 40
0.6864721772690618
 40
0.8395613590433599
 40
1.0
 40
1.0
 40
1.0
 40
1.0
 10
0.7541244010859741
 20
-9.277817540679838
 30
0.0
 10
0.7501555530083076
 20
-9.355664692936976
 30
0.0
 10
0.7423579211558212
 20
-9.508611699772906
 30
0.0
 10
0.7612192698315274
 20
-9.735144987788326
 30
0.0
 10
0.8005368814504686
 20
-9.954104464703805
 30
0.0
 10
0.860031625367575
 20
-10.16730190115401
 30
0.0
 10
0.9368174711745368
 20
-10.37641396553467
 30
0.0
 10
1.047010213239856
 20
-10.62426572936397
 30
0.0
 10
1.198388599002555
 20
-10.91157070177558
 30
0.0
 10
1.392628634255428
 20
-11.24140704567077
 30
0.0
 10
1.527808264219548
 20
-11.46450806002433
 30
0.0
 10
1.596982463585826
 20
-11.57867344167101
 30
0.0
  0
SPLINE
  5
66
330
1F
100
AcDbEntity
  8
0
  6
Continuous
 62
     7
370
    25
100
AcDbSpline
210
0.0
220
0.0
230
1.0
 70
     8
 71
     3
 72
    11
 73
     7
 74
     0
 42
0.00000001
 43
0.00000001
 40
0.0
 40
0.0
 40
0.0
 40
0.0
 40
0.2545177239644078
 40
0.4969793890025836
 40
0.7476854702861384
 40
0.9999999999999999
 40
0.9999999999999999
 40
0.9999999999999999
 40
0.9999999999999999
 10
1.832288928733753
 20
-11.99861702311234
 30
0.0
 10
1.811667781170468
 20
-11.96336170426363
 30
0.0
 10
1.771402273696553
 20
-11.89452104928839
 30
0.0
 10
1.712118009600471
 20
-11.7902059187143
 30
0.0
 10
1.654031491426329
 20
-11.6856206533398
 30
0.0
 10
1.616043032265946
 20
-11.61439645443814
 30
0.0
 10
1.596988067125252
 20
-11.57867048246557
 30
0.0
  0
SPLINE
  5
6A
330
1F
100
AcDbEntity
  8
0
  6
Continuous
 62
     7
370
    25
100
AcDbSpline
210
0.0
220
0.0
230
1.0
 70
     8
 71
     3
 72
    18
 73
    14
 74
     0
 42
0.00000001
 43
0.00000001
 40
0.0
 40
0.0
 40
0.0
 40
0.0
 40
0.066143208500623
 40
0.1318459179842222
 40
0.1975867264503278
 40
0.2638117642572786
 40
0.368429368966627
 40
0.4728925916457228
 40
0.5770086665848978
 40
0.682020489987266
 40
0.7868015169468158
 40
0.8912181696257909
 40
1.0
 40
1.0
 40
1.0
 40
1.0
 10
3.028423376286551
 20
-14.5898081645228
 30
0.0
 10
3.026661038822017
 20
-14.53060290429907
 30
0.0
 10
3.023148100667418
 20
-14.41258667768046
 30
0.0
 10
2.998891948341576
 20
-14.23710390177915
 30
0.0
 10
2.960806705456505
 20
-14.06415983257858
 30
0.0
 10
2.897169646689419
 20
-13.86197256192404
 30
0.0
 10
2.802613969585404
 20
-13.63403030796894
 30
0.0
 10
2.674612984040126
 20
-13.38445162018049
 30
0.0
 10
2.533970641792765
 20
-13.14151857579383
 30
0.0
 10
2.387665567201646
 20
-12.90167943564983
 30
0.0
 10
2.239366223341862
 20
-12.6627569272585
 30
0.0
 10
2.088345892797531
 20
-12.42155238402224
 30
0.0
 10
1.988843161708129
 20
-12.25874561069628
 30
0.0
 10
1.938073151245917
 20
-12.17567551307603
 30
0.0
  0
SPLINE
  5
6E
330
1F
100
AcDbEntity
  8
0
  6
Continuous
 62
     7
370
    25
100
AcDbSpline
210
0.0
220
0.0
230
1.0
 70
     8
 71
     3
 72
    22
 73
    18
 74
     0
 42
0.00000001
 43
0.00000001
 40
0.0
 40
0.0
 40
0.0
 40
0.0
 40
0.0616353768179045
 40
0.1161054753360705
 40
0.164189937530834
 40
0.2204159528637234
 40
0.27504928609671
 40
0.3287627141254359
 40
0.4124512599954111
 40
0.4961781591733962
 40
0.5824636234222114
 40
0.6644840621179475
 40
0.7320457237929637
 40
0.7985261399153584
 40
0.8652064814687412
 40
0.9340532988099499
 40
1.0
 40
1.0
 40
1.0
 40
1.0
 10
1.458476419886402
 20
-12.65527224443555
 30
0.0
 10
1.484338285610241
 20
-12.69150507018457
 30
0.0
 10
1.533055505621973
 20
-12.75975855825504
 30
0.0
 10
1.601486080507065
 20
-12.85660790326852
 30
0.0
 10
1.667177098903264
 20
-12.95060745721861
 30
0.0
 10
1.732194011842022
 20
-13.04521892067807
 30
0.0
 10
1.798428306705525
 20
-13.14392017915616
 30
0.0
 10
1.873971064833794
 20
-13.26024450634144
 30
0.0
 10
1.95772749955908
 20
-13.39626492276356
 30
0.0
 10
2.047818369560511
 20
-13.55588426810462
 30
0.0
 10
2.129643067595097
 20
-13.71857945883456
 30
0.0
 10
2.197697832426406
 20
-13.87485775193426
 30
0.0
 10
2.251755684212823
 20
-14.02132501507882
 30
0.0
 10
2.293880884549509
 20
-14.16014964004406
 30
0.0
 10
2.32723639462029
 20
-14.30224327600997
 30
0.0
 10
2.353492764520351
 20
-14.44550676066995
 30
0.0
 10
2.363267509216235
 20
-14.54240260931241
 30
0.0
 10
2.368049728529836
 20
-14.58980816446526
 30
0.0
  0
SPLINE
  5
72
330
1F
100
AcDbEntity
  8
0
  6
Continuous
 62
     7
370
    25
100
AcDbSpline
210
0.0
220
0.0
230
1.0
 70
     8
 71
     3
 72
    15
 73
    11
 74
     0
 42
0.00000001
 43
0.00000001
 40
0.0
 40
0.0
 40
0.0
 40
0.0
 40
0.1032575374673326
 40
0.2072625212064313
 40
0.3038554418218865
 40
0.4065229433691369
 40
0.5152693874606076
 40
0.676674119707191
 40
0.8378118711884308
 40
0.9999999999999999
 40
0.9999999999999999
 40
0.9999999999999999
 40
0.9999999999999999
 10
0.7043366171947328
 20
-11.57849864691667
 30
0.0
 10
0.7252567986105769
 20
-11.61055191345734
 30
0.0
 10
0.7672485955359636
 20
-11.67489046925741
 30
0.0
 10
0.8299947496741388
 20
-11.76843179360862
 30
0.0
 10
0.8933282230924386
 20
-11.86130933022627
 30
0.0
 10
0.9583158790045294
 20
-11.95518320122587
 30
0.0
 10
1.037670784354867
 20
-12.06832733990027
 30
0.0
 10
1.130307568692456
 20
-12.19862601689686
 30
0.0
 10
1.235112391486197
 20
-12.34457630638816
 30
0.0
 10
1.305154895721908
 20
-12.4418308075167
 30
0.0
 10
1.340289920140548
 20
-12.49061603170679
 30
0.0
  0
SPLINE
  5
73
330
1F
100
AcDbEntity
  8
0
  6
Continuous
 62
     7
370
    25
100
AcDbSpline
210
0.0
220
0.0
230
1.0
 70
     8
 71
     3
 72
    14
 73
    10
 74
     0
 42
0.00000001
 43
0.00000001
 40
0.0
 40
0.0
 40
0.0
 40
0.0
 40
0.1388419411311684
 40
0.2763816485022336
 40
0.4136053836689289
 40
0.551506187818922
 40
0.6977617313748623
 40
0.8469187185333522
 40
0.9999999999999999
 40
0.9999999999999999
 40
0.9999999999999999
 40
0.9999999999999999
 10
-1.012269713673289
 20
-9.33547840178496
 30
0.0
 10
-1.014553497534678
 20
-9.447227514539355
 30
0.0
 10
-1.019099645069718
 20
-9.669677616792995
 30
0.0
 10
-0.9905732455263628
 20
-10.00182752115612
 30
0.0
 10
-0.9358654599899874
 20
-10.32961867273655
 30
0.0
 10
-0.8513260959101948
 20
-10.65841412057094
 30
0.0
 10
-0.7354883961630555
 20
-10.98760307124457
 30
0.0
 10
-0.5887496678630576
 20
-11.31792348459464
 30
0.0
 10
-0.4680422802485661
 20
-11.52916656588898
 30
0.0
 10
-0.4069049475654047
 20
-11.63615950802235
 30
0.0
  0
SPLINE
  5
75
330
1F
100
AcDbEntity
  8
0
  6
Continuous
 62
     7
370
    25
100
AcDbSpline
210
0.0
220
0.0
230
1.0
 70
     8
 71
     3
 72
    16
 73
    12
 74
     0
 42
0.00000001
 43
0.00000001
 40
0.0
 40
0.0
 40
0.0
 40
0.0
 40
0.0935960416284905
 40
0.1838889927724461
 40
0.2724595367738268
 40
0.3606536733993899
 40
0.4495518882886378
 40
0.5399728605533581
 40
0.686472177269062
 40
0.8395613590433613
 40
1.0
 40
1.0
 40
1.0
 40
1.0
 10
-0.357117163673298
 20
-9.335478401784956
 30
0.0
 10
-0.3610860117509589
 20
-9.413325554042096
 30
0.0
 10
-0.3688836436034343
 20
-9.566272560878025
 30
0.0
 10
-0.350022294927758
 20
-9.792805848893444
 30
0.0
 10
-0.3107046833087935
 20
-10.01176532580892
 30
0.0
 10
-0.251209939391693
 20
-10.22496276225913
 30
0.0
 10
-0.1744240935847385
 20
-10.43407482663979
 30
0.0
 10
-0.0642313515194015
 20
-10.68192659046909
 30
0.0
 10
0.0871470342432767
 20
-10.9692315628807
 30
0.0
 10
0.2813870694961692
 20
-11.29906790677588
 30
0.0
 10
0.416566699460281
 20
-11.52216892112944
 30
0.0
 10
0.4857408988265539
 20
-11.63633430277612
 30
0.0
  0
SPLINE
  5
76
330
1F
100
AcDbEntity
  8
0
  6
Continuous
 62
     7
370
    25
100
AcDbSpline
210
0.0
220
0.0
230
1.0
 70
     8
 71
     3
 72
    11
 73
     7
 74
     0
 42
0.00000001
 43
0.00000001
 40
0.0
 40
0.0
 40
0.0
 40
0.0
 40
0.2551785152823003
 40
0.4980552225574702
 40
0.7478287506735728
 40
1.0
 40
1.0
 40
1.0
 40
1.0
 10
0.726452252013119
 20
-12.06545796988449
 30
0.0
 10
0.7052937189584243
 20
-12.02934436855864
 30
0.0
 10
0.6639966768548317
 20
-11.9588581533465
 30
0.0
 10
0.6033303676127422
 20
-11.85224751500628
 30
0.0
 10
0.5439676030886929
 20
-11.74546672148159
 30
0.0
 10
0.5052152408428833
 20
-11.67282546863446
 30
0.0
 10
0.4857465023659799
 20
-11.63633134357068
 30
0.0
  0
SPLINE
  5
7A
330
1F
100
AcDbEntity
  8
0
  6
Continuous
 62
     7
370
    25
100
AcDbSpline
210
0.0
220
0.0
230
1.0
 70
     8
 71
     3
 72
    18
 73
    14
 74
     0
 42
0.00000001
 43
0.00000001
 40
0.0
 40
0.0
 40
0.0
 40
0.0
 40
0.0664058011301582
 40
0.1323693544349444
 40
0.1983711579775553
 40
0.2648591132814484
 40
0.3693088096796638
 40
0.4736617305811526
 40
0.5774788844262907
 40
0.6824323604404938
 40
0.7864948677188824
 40
0.8912792946714233
 40
1.0
 40
1.0
 40
1.0
 40
1.0
 10
1.917181811527293
 20
-14.64746902562791
 30
0.0
 10
1.915419474615495
 20
-14.58826376560786
 30
0.0
 10
1.911906537562688
 20
-14.47024753939525
 30
0.0
 10
1.887650377013953
 20
-14.2947647604639
 30
0.0
 10
1.849565165426686
 20
-14.12182070279621
 30
0.0
 10
1.786084229764414
 20
-13.9201298595302
 30
0.0
 10
1.691977958965457
 20
-13.69307703724123
 30
0.0
 10
1.564859190116759
 20
-13.44487121947388
 30
0.0
 10
1.425118822784399
 20
-13.2031797590067
 30
0.0
 10
1.279944788164632
 20
-12.96507491166504
 30
0.0
 10
1.132475875494635
 20
-12.72737492112758
 30
0.0
 10
0.9822289586124388
 20
-12.48744717785506
 30
0.0
 10
0.8829099529498805
 20
-12.32509216280956
 30
0.0
 10
0.8323349047868756
 20
-12.24241802958948
 30
0.0
  0
SPLINE
  5
7E
330
1F
100
AcDbEntity
  8
0
  6
Continuous
 62
     7
370
    25
100
AcDbSpline
210
0.0
220
0.0
230
1.0
 70
     8
 71
     3
 72
    22
 73
    18
 74
     0
 42
0.00000001
 43
0.00000001
 40
0.0
 40
0.0
 40
0.0
 40
0.0
 40
0.0606831415942427
 40
0.1143435095775188
 40
0.1623435562070253
 40
0.2179589445071216
 40
0.2722305468366614
 40
0.3255082482663058
 40
0.4096025545448064
 40
0.4937354000857229
 40
0.5804392157930273
 40
0.662857327149538
 40
0.7307465587106948
 40
0.797549302345467
 40
0.8645529407413046
 40
0.9337335589920592
 40
0.9999999999999999
 40
0.9999999999999999
 40
0.9999999999999999
 40
0.9999999999999999
 10
0.3533149608207939
 20
-12.72143797355554
 30
0.0
 10
0.3786456208405651
 20
-12.75694517223555
 30
0.0
 10
0.4263754596472357
 20
-12.82385037202705
 30
0.0
 10
0.4936855543184155
 20
-12.91916585800907
 30
0.0
 10
0.55841032329967
 20
-13.0118461065614
 30
0.0
 10
0.6226552282084488
 20
-13.10539432900493
 30
0.0
 10
0.6879809439524567
 20
-13.2027956968552
 30
0.0
 10
0.7629919516592215
 20
-13.31833146353335
 30
0.0
 10
0.8464859210535988
 20
-13.45392580121922
 30
0.0
 10
0.9365768086187891
 20
-13.61354512439119
 30
0.0
 10
1.018401501850139
 20
-13.77624032118383
 30
0.0
 10
1.086456267875416
 20
-13.93251861277647
 30
0.0
 10
1.140514119403295
 20
-14.07898587624736
 30
0.0
 10
1.18263931980363
 20
-14.21781050113226
 30
0.0
 10
1.215994829857315
 20
-14.35990413711976
 30
0.0
 10
1.242251199761965
 20
-14.50316762177394
 30
0.0
 10
1.252025944457256
 20
-14.60006347041715
 30
0.0
 10
1.256808163770568
 20
-14.64746902557038
 30
0.0
  0
SPLINE
  5
82
330
1F
100
AcDbEntity
  8
0
  6
Continuous
 62
     7
370
    25
100
AcDbSpline
210
0.0
220
0.0
230
1.0
 70
     8
 71
     3
 72
    15
 73
    11
 74
     0
 42
0.00000001
 43
0.00000001
 40
0.0
 40
0.0
 40
0.0
 40
0.0
 40
0.1022963905259435
 40
0.2053332699071291
 40
0.3010270794989587
 40
0.402738926306495
 40
0.5104731313431854
 40
0.6734853848505148
 40
0.8368984476038249
 40
0.9999999999999999
 40
0.9999999999999999
 40
0.9999999999999999
 40
0.9999999999999999
 10
-0.4069049475645393
 20
-11.63615950802178
 30
0.0
 10
-0.3859847661091478
 20
-11.66821277453487
 30
0.0
 10
-0.3439929691043784
 20
-11.73255133027958
 30
0.0
 10
-0.281246815550612
 20
-11.8260926550384
 30
0.0
 10
-0.2179133400175693
 20
-11.91897019018101
 30
0.0
 10
-0.152925692527816
 20
-12.01284406705523
 30
0.0
 10
-0.0729025786092867
 20
-12.12694085283343
 30
0.0
 10
0.0212366127306928
 20
-12.2593323640251
 30
0.0
 10
0.1280905805698901
 20
-12.40809895301404
 30
0.0
 10
0.1994898110920788
 20
-12.50723441408588
 30
0.0
 10
0.2351553672348869
 20
-12.55675485466684
 30
0.0
  0
SPLINE
  5
83
330
1F
100
AcDbEntity
  8
0
  6
Continuous
 62
     7
370
    25
100
AcDbSpline
210
0.0
220
0.0
230
1.0
 70
     8
 71
     3
 72
    15
 73
    11
 74
     0
 42
0.00000001
 43
0.00000001
 40
0.0
 40
0.0
 40
0.0
 40
0.0
 40
0.1381526731458206
 40
0.2760367255697917
 40
0.4138977492533784
 40
0.5522212540727375
 40
0.6617201444362978
 40
0.7724438191068
 40
0.8849766019188646
 40
1.0
 40
1.0
 40
1.0
 40
1.0
 10
-2.355081696369818
 20
-9.345533624730333
 30
0.0
 10
-2.354584064059337
 20
-9.46841281518329
 30
0.0
 10
-2.353589767022621
 20
-9.713932272758312
 30
0.0
 10
-2.32350193639449
 20
-10.08111956683229
 30
0.0
 10
-2.268751466632097
 20
-10.44551178494017
 30
0.0
 10
-2.190559739277932
 20
-10.77985928368506
 30
0.0
 10
-2.09426104060237
 20
-11.08406872922086
 30
0.0
 10
-1.984373107909523
 20
-11.35901330246416
 30
0.0
 10
-1.853309059680309
 20
-11.63025030653712
 30
0.0
 10
-1.747775325732792
 20
-11.80301118201554
 30
0.0
 10
-1.694430922415832
 20
-11.89033705853096
 30
0.0
  0
SPLINE
  5
85
330
1F
100
AcDbEntity
  8
0
  6
Continuous
 62
     7
370
    25
100
AcDbSpline
210
0.0
220
0.0
230
1.0
 70
     8
 71
     3
 72
    15
 73
    11
 74
     0
 42
0.00000001
 43
0.00000001
 40
0.0
 40
0.0
 40
0.0
 40
0.0
 40
0.1096912003339397
 40
0.215978729792923
 40
0.3211065803269195
 40
0.4269629195539223
 40
0.5350540442460219
 40
0.681865565936153
 40
0.8363785149918653
 40
1.0
 40
1.0
 40
1.0
 40
1.0
 10
-1.442493108345978
 20
-9.345533624730326
 30
0.0
 10
-1.441927847477617
 20
-9.446076462641924
 30
0.0
 10
-1.440814865543072
 20
-9.644042337350323
 30
0.0
 10
-1.398623563968628
 20
-9.935885283833123
 30
0.0
 10
-1.330131227146864
 20
-10.21854204290963
 30
0.0
 10
-1.23583994065864
 20
-10.49545616427596
 30
0.0
 10
-1.107137429552669
 20
-10.79990983771755
 30
0.0
 10
-0.9394643641942864
 20
-11.13546724754079
 30
0.0
 10
-0.7330655473670288
 20
-11.50787107552837
 30
0.0
 10
-0.588143940718629
 20
-11.76057214682833
 30
0.0
 10
-0.5136085055358499
 20
-11.89054023617054
 30
0.0
  0
SPLINE
  5
8A
330
1F
100
AcDbEntity
  8
0
  6
Continuous
 62
     7
370
    25
100
AcDbSpline
210
0.0
220
0.0
230
1.0
 70
     8
 71
     3
 72
    23
 73
    19
 74
     0
 42
0.00000001
 43
0.00000001
 40
0.0
 40
0.0
 40
0.0
 40
0.0
 40
0.0047751181773164
 40
0.0718634296143139
 40
0.1449822989739407
 40
0.2182764854518481
 40
0.2933531819229899
 40
0.3629749657373253
 40
0.4326401181555714
 40
0.5029143319852066
 40
0.5651246793845743
 40
0.6273802728269183
 40
0.6898258953199857
 40
0.7522667374320219
 40
0.814155255796105
 40
0.8757779289460472
 40
0.9375794866939693
 40
1.0
 40
1.0
 40
1.0
 40
1.0
 10
-0.3883086784577576
 20
-12.11776593574836
 30
0.0
 10
-0.386115464065508
 20
-12.12165137338934
 30
0.0
 10
-0.3531085515130111
 20
-12.18012550200043
 30
0.0
 10
-0.285701706394304
 20
-12.29763416627521
 30
0.0
 10
-0.1850105498459161
 20
-12.46984712290269
 30
0.0
 10
-0.0797110413514521
 20
-12.64800823423104
 30
0.0
 10
0.0240578208291659
 20
-12.82327823124914
 30
0.0
 10
0.1252361992570819
 20
-12.99613988270381
 30
0.0
 10
0.2228999724808819
 20
-13.16585397951847
 30
0.0
 10
0.3148580579117903
 20
-13.33085356974934
 30
0.0
 10
0.3992861890222665
 20
-13.49206995558271
 30
0.0
 10
0.4746623429412172
 20
-13.64966630418391
 30
0.0
 10
0.54237109697477
 20
-13.81098254819309
 30
0.0
 10
0.6000379055370842
 20
-13.9758186636702
 30
0.0
 10
0.6459803250431688
 20
-14.14357491419767
 30
0.0
 10
0.6773075765705869
 20
-14.31405671176511
 30
0.0
 10
0.6942424764855487
 20
-14.48719425100274
 30
0.0
 10
0.6934628707283541
 20
-14.60332351213527
 30
0.0
 10
0.6930711255970136
 20
-14.66167745864607
 30
0.0
  0
SPLINE
  5
8E
330
1F
100
AcDbEntity
  8
0
  6
Continuous
 62
     7
370
    25
100
AcDbSpline
210
0.0
220
0.0
230
1.0
 70
     8
 71
     3
 72
    19
 73
    15
 74
     0
 42
0.00000001
 43
0.00000001
 40
0.0
 40
0.0
 40
0.0
 40
0.0
 40
0.0572061611180155
 40
0.1022861718699251
 40
0.1497286181577462
 40
0.1983766631686105
 40
0.247438839560702
 40
0.2973444390629103
 40
0.3461738174191026
 40
0.4751525399525044
 40
0.603866110751436
 40
0.7374179073365802
 40
0.8702908479915834
 40
1.0
 40
1.0
 40
1.0
 40
1.0
 10
-0.2248455463870002
 20
-14.66167745858906
 30
0.0
 10
-0.2302249249891953
 20
-14.62245040027245
 30
0.0
 10
-0.239843400228644
 20
-14.55231135317494
 30
0.0
 10
-0.2537058074255891
 20
-14.44962292555192
 30
0.0
 10
-0.2677240818417065
 20
-14.35288605916264
 30
0.0
 10
-0.2895062119438221
 20
-14.25472183415792
 30
0.0
 10
-0.3169771042082203
 20
-14.15629194904769
 30
0.0
 10
-0.3479087441014899
 20
-14.05876712673952
 30
0.0
 10
-0.4004027478726799
 20
-13.91013863410564
 30
0.0
 10
-0.4841786755841197
 20
-13.71485591701361
 30
0.0
 10
-0.6118896418742398
 20
-13.47583114591328
 30
0.0
 10
-0.7545817173210059
 20
-13.24240104589093
 30
0.0
 10
-0.9070147602670908
 20
-13.01446274986482
 30
0.0
 10
-1.010919637654481
 20
-12.86535765355369
 30
0.0
 10
-1.062246113876653
 20
-12.79170337116726
 30
0.0
  0
SPLINE
  5
92
330
1F
100
AcDbEntity
  8
0
  6
Continuous
 62
     7
370
    25
100
AcDbSpline
210
0.0
220
0.0
230
1.0
 70
     8
 71
     3
 72
    15
 73
    11
 74
     0
 42
0.00000001
 43
0.00000001
 40
0.0
 40
0.0
 40
0.0
 40
0.0
 40
0.119529875400398
 40
0.2321692689272579
 40
0.3543775170135062
 40
0.474634688396801
 40
0.5840755749779439
 40
0.6827009210394633
 40
0.8472524224926256
 40
1.0
 40
1.0
 40
1.0
 40
1.0
 10
-1.179212591661857
 20
-12.62582713647786
 30
0.0
 10
-1.199907255743142
 20
-12.59663917523929
 30
0.0
 10
-1.240103608448712
 20
-12.53994583728059
 30
0.0
 10
-1.301528177410959
 20
-12.4534600696717
 30
0.0
 10
-1.363110220355824
 20
-12.36681908652695
 30
0.0
 10
-1.423951853509912
 20
-12.28082673436796
 30
0.0
 10
-1.480537770949877
 20
-12.20047107352675
 30
0.0
 10
-1.544485637113278
 20
-12.10908386323033
 30
0.0
 10
-1.615424702158625
 20
-12.00676580574939
 30
0.0
 10
-1.668756856690136
 20
-11.92817204543092
 30
0.0
 10
-1.694430922415837
 20
-11.89033705853096
 30
0.0
  0
SPLINE
  5
94
330
1F
100
AcDbEntity
  8
0
  6
Continuous
 62
     7
370
    25
100
AcDbSpline
210
0.0
220
0.0
230
1.0
 70
    24
 71
     3
 72
     9
 73
     5
 74
     0
 42
0.00000001
 43
0.00000001
 40
0.0
 40
0.0
 40
0.0
 40
0.0
 40
0.5598226446349692
 40
1.0
 40
1.0
 40
1.0
 40
1.0
 10
-1.267079107806143
 20
-12.71369365262214
 30
0.0
 10
-1.266001165399649
 20
-12.71261571021565
 30
0.0
 10
-1.264075658425566
 20
-12.71069020324157
 30
0.0
 10
-1.26041713050518
 20
-12.70703167532118
 30
0.0
 10
-1.258806729360655
 20
-12.70542127417665
 30
0.0
  0
SPLINE
  5
95
330
1F
100
AcDbEntity
  8
0
  6
Continuous
 62
     7
370
    25
100
AcDbSpline
210
0.0
220
0.0
230
1.0
 70
    24
 71
     3
 72
     9
 73
     5
 74
     0
 42
0.00000001
 43
0.00000001
 40
0.0
 40
0.0
 40
0.0
 40
0.0
 40
0.5598226446349537
 40
0.9999999999999999
 40
0.9999999999999999
 40
0.9999999999999999
 40
0.9999999999999999
 10
-1.125657751568846
 20
-12.85511500885944
 30
0.0
 10
-1.124579809162355
 20
-12.85403706645295
 30
0.0
 10
-1.122654302188277
 20
-12.85211155947887
 30
0.0
 10
-1.118995774267882
 20
-12.84845303155848
 30
0.0
 10
-1.117385373123354
 20
-12.84684263041395
 30
0.0
  0
SPLINE
  5
97
330
1F
100
AcDbEntity
  8
0
  6
Continuous
 62
     7
370
    25
100
AcDbSpline
210
0.0
220
0.0
230
1.0
 70
     8
 71
     3
 72
    15
 73
    11
 74
     0
 42
0.00000001
 43
0.00000001
 40
0.0
 40
0.0
 40
0.0
 40
0.0
 40
0.1134051231147102
 40
0.2232198514507445
 40
0.3312321818904679
 40
0.438980182488964
 40
0.547720428331934
 40
0.6932051640801041
 40
0.8436230293508262
 40
1.0
 40
1.0
 40
1.0
 40
1.0
 10
-1.902989442158271
 20
-14.82903259035221
 30
0.0
 10
-1.901357916534423
 20
-14.72697075412325
 30
0.0
 10
-1.898146519223694
 20
-14.52607834912339
 30
0.0
 10
-1.931281883945859
 20
-14.22930103047061
 30
0.0
 10
-1.989673984604624
 20
-13.94207131348211
 30
0.0
 10
-2.073230873008702
 20
-13.6620806842579
 30
0.0
 10
-2.189741693816494
 20
-13.35785128285826
 30
0.0
 10
-2.344715233417594
 20
-13.02823936014026
 30
0.0
 10
-2.539128426520348
 20
-12.6707813905927
 30
0.0
 10
-2.681144162266463
 20
-12.43421104273673
 30
0.0
 10
-2.753531269024314
 20
-12.31362832747618
 30
0.0
  0
SPLINE
  5
9B
330
1F
100
AcDbEntity
  8
0
  6
Continuous
 62
     7
370
    25
100
AcDbSpline
210
0.0
220
0.0
230
1.0
 70
     8
 71
     3
 72
     9
 73
     5
 74
     0
 42
0.00000001
 43
0.00000001
 40
0.0
 40
0.0
 40
0.0
 40
0.0
 40
0.5501592219350565
 40
1.0
 40
1.0
 40
1.0
 40
1.0
 10
-2.860924671041422
 20
-12.1381790172189
 30
0.0
 10
-2.942123983134358
 20
-12.00739879982021
 30
0.0
 10
-3.089716368857415
 20
-11.76968540307171
 30
0.0
 10
-3.235158162255726
 20
-11.53065058761428
 30
0.0
 10
-3.300583811761183
 20
-11.42312298024429
 30
0.0
  0
SPLINE
  5
9C
330
1F
100
AcDbEntity
  8
0
  6
Continuous
 62
     7
370
    25
100
AcDbSpline
210
0.0
220
0.0
230
1.0
 70
     8
 71
     3
 72
    17
 73
    13
 74
     0
 42
0.00000001
 43
0.00000001
 40
0.0
 40
0.0
 40
0.0
 40
0.0
 40
0.0852819098984438
 40
0.1699467652466647
 40
0.2546051987276762
 40
0.3398734127373884
 40
0.4504654080669462
 40
0.5605020471172674
 40
0.6711559789732179
 40
0.7813324763642298
 40
0.8900114061688579
 40
1.0
 40
1.0
 40
1.0
 40
1.0
 10
-3.96181090126352
 20
-9.516497646525368
 30
0.0
 10
-3.96358855271309
 20
-9.574757943874628
 30
0.0
 10
-3.967130993471628
 20
-9.69085699804222
 30
0.0
 10
-3.954011974067012
 20
-9.864587405121375
 30
0.0
 10
-3.926902920216219
 20
-10.03655415360251
 30
0.0
 10
-3.880326126203207
 20
-10.22264835048786
 30
0.0
 10
-3.813175703112412
 20
-10.4207735232755
 30
0.0
 10
-3.724666387860478
 20
-10.62920425523666
 30
0.0
 10
-3.625123700261737
 20
-10.83218735858685
 30
0.0
 10
-3.519229180340366
 20
-11.03081913677737
 30
0.0
 10
-3.410797816445214
 20
-11.22754256596137
 30
0.0
 10
-3.337468210838038
 20
-11.35766971890326
 30
0.0
 10
-3.300583811761201
 20
-11.4231229802443
 30
0.0
  0
SPLINE
  5
A0
330
1F
100
AcDbEntity
  8
0
  6
Continuous
 62
     7
370
    25
100
AcDbSpline
210
0.0
220
0.0
230
1.0
 70
     8
 71
     3
 72
    23
 73
    19
 74
     0
 42
0.00000001
 43
0.00000001
 40
0.0
 40
0.0
 40
0.0
 40
0.0
 40
0.0739019728868526
 40
0.1442878226852748
 40
0.2098071731303829
 40
0.2793369957900542
 40
0.3487749704346024
 40
0.4573879603762115
 40
0.5653228851129386
 40
0.6726063313875221
 40
0.7641094471171351
 40
0.856382357382305
 40
0.879734777551334
 40
0.9032041607986788
 40
0.9200481957531258
 40
0.9338655081896933
 40
0.9605161095195609
 40
1.0
 40
1.0
 40
1.0
 40
1.0
 10
-2.230137070570833
 20
-11.50739141674623
 30
0.0
 10
-2.261449929793049
 20
-11.46268494395541
 30
0.0
 10
-2.322585838656286
 20
-11.37539905202392
 30
0.0
 10
-2.410643171979931
 20
-11.24789205052984
 30
0.0
 10
-2.495820140481089
 20
-11.12232611097479
 30
0.0
 10
-2.579022936085074
 20
-10.99627548850504
 30
0.0
 10
-2.676793742235809
 20
-10.84173921433124
 30
0.0
 10
-2.783361743705503
 20
-10.65926737844534
 30
0.0
 10
-2.892071245079299
 20
-10.44605193695768
 30
0.0
 10
-2.979324538180181
 20
-10.2366350426638
 30
0.0
 10
-3.044224171347925
 20
-10.03155224500925
 30
0.0
 10
-3.080919651445164
 20
-9.882778906786722
 30
0.0
 10
-3.09764653460072
 20
-9.781392467978286
 30
0.0
 10
-3.103452050788789
 20
-9.734721863606687
 30
0.0
 10
-3.107651101011153
 20
-9.694963896330798
 30
0.0
 10
-3.111909804883582
 20
-9.65284980050879
 30
0.0
 10
-3.117899245445946
 20
-9.594104545218245
 30
0.0
 10
-3.1228361608896
 20
-9.54550985275364
 30
0.0
 10
-3.125783618764496
 20
-9.51649764652536
 30
0.0
  0
SPLINE
  5
A4
330
1F
100
AcDbEntity
  8
0
  6
Continuous
 62
     7
370
    25
100
AcDbSpline
210
0.0
220
0.0
230
1.0
 70
     8
 71
     3
 72
    16
 73
    12
 74
     0
 42
0.00000001
 43
0.00000001
 40
0.0
 40
0.0
 40
0.0
 40
0.0
 40
0.1061962336943633
 40
0.2150477171803774
 40
0.3253569680077779
 40
0.4369374572545291
 40
0.5496165324905811
 40
0.6611920254307145
 40
0.7735227469210167
 40
0.8864882859355778
 40
1.0
 40
1.0
 40
1.0
 40
1.0
 10
-1.173718692158288
 20
-14.82903259035221
 30
0.0
 10
-1.174571265720733
 20
-14.71086232599937
 30
0.0
 10
-1.176297729946008
 20
-14.47156715795398
 30
0.0
 10
-1.213018903089652
 20
-14.11108902139888
 30
0.0
 10
-1.271604960896488
 20
-13.74774732965421
 30
0.0
 10
-1.355096942768458
 20
-13.38481265654847
 30
0.0
 10
-1.461758780386231
 20
-13.02658927098024
 30
0.0
 10
-1.591017864090351
 20
-12.67495695413314
 30
0.0
 10
-1.742653096213875
 20
-12.3321193917856
 30
0.0
 10
-1.915359433830945
 20
-11.99673282694419
 30
0.0
 10
-2.048904328003262
 20
-11.78303929955811
 30
0.0
 10
-2.115837804261759
 20
-11.67593486302732
 30
0.0
  0
SPLINE
  5
A6
330
1F
100
AcDbEntity
  8
0
  6
Continuous
 62
     7
370
    25
100
AcDbSpline
210
0.0
220
0.0
230
1.0
 70
    24
 71
     3
 72
     9
 73
     5
 74
     0
 42
0.00000001
 43
0.00000001
 40
0.0
 40
0.0
 40
0.0
 40
0.0
 40
0.5603194205070847
 40
1.0
 40
1.0
 40
1.0
 40
1.0
 10
-2.004037947305377
 20
-11.56413500595747
 30
0.0
 10
-2.01225743554191
 20
-11.57235449419401
 30
0.0
 10
-2.026926725835462
 20
-11.58702378448757
 30
0.0
 10
-2.044011103559531
 20
-11.60410816221163
 30
0.0
 10
-2.051522772657526
 20
-11.61161983130962
 30
0.0
  0
SPLINE
  5
A7
330
1F
100
AcDbEntity
  8
0
  6
Continuous
 62
     7
370
    25
100
AcDbSpline
210
0.0
220
0.0
230
1.0
 70
    24
 71
     3
 72
     9
 73
     5
 74
     0
 42
0.00000001
 43
0.00000001
 40
0.0
 40
0.0
 40
0.0
 40
0.0
 40
0.5603194205069922
 40
1.0
 40
1.0
 40
1.0
 40
1.0
 10
-2.145459303542686
 20
-11.42271364972016
 30
0.0
 10
-2.15367879177922
 20
-11.4309331379567
 30
0.0
 10
-2.168348082072773
 20
-11.44560242825026
 30
0.0
 10
-2.185432459796847
 20
-11.46268680597432
 30
0.0
 10
-2.192944128894845
 20
-11.47019847507231
 30
0.0
  0
SPLINE
  5
A9
330
1F
100
AcDbEntity
  8
0
  6
Continuous
 62
     7
370
    25
100
AcDbSpline
210
0.0
220
0.0
230
1.0
 70
     8
 71
     3
 72
    15
 73
    11
 74
     0
 42
0.00000001
 43
0.00000001
 40
0.0
 40
0.0
 40
0.0
 40
0.0
 40
0.1147443170662938
 40
0.2260013673273854
 40
0.3352887534403065
 40
0.4439278188730403
 40
0.5530184674557272
 40
0.6979805130457506
 40
0.846652451160594
 40
1.0
 40
1.0
 40
1.0
 40
1.0
 10
-4.340898394418889
 20
-9.345209802491386
 30
0.0
 10
-4.341886081594079
 20
-9.449545418163636
 30
0.0
 10
-4.34383143852148
 20
-9.655045720102335
 30
0.0
 10
-4.31117388235952
 20
-9.958598657518719
 30
0.0
 10
-4.254773114407854
 20
-10.25263182589726
 30
0.0
 10
-4.174552340234872
 20
-10.53909028524557
 30
0.0
 10
-4.062946270066051
 20
-10.84943733588115
 30
0.0
 10
-3.914387399431781
 20
-11.18422252972884
 30
0.0
 10
-3.727518089466558
 20
-11.54507061505764
 30
0.0
 10
-3.58944641388624
 20
-11.78227655439328
 30
0.0
 10
-3.519341821537207
 20
-11.90271563510988
 30
0.0
  0
SPLINE
  5
AD
330
1F
100
AcDbEntity
  8
0
  6
Continuous
 62
     7
370
    25
100
AcDbSpline
210
0.0
220
0.0
230
1.0
 70
     8
 71
     3
 72
    10
 73
     6
 74
     0
 42
0.00000001
 43
0.00000001
 40
0.0
 40
0.0
 40
0.0
 40
0.0
 40
0.2701242010291363
 40
0.5477407187696736
 40
1.0
 40
1.0
 40
1.0
 40
1.0
 10
-3.413406636096564
 20
-12.07962316223331
 30
0.0
 10
-3.355323388629568
 20
-12.17482347501525
 30
0.0
 10
-3.237545864087746
 20
-12.36786462997881
 30
0.0
 10
-3.019571270257279
 20
-12.7184853889622
 30
0.0
 10
-2.864121662794737
 20
-12.97662563069222
 30
0.0
 10
-2.767799072242104
 20
-13.1365793109568
 30
0.0
  0
SPLINE
  5
AE
330
1F
100
AcDbEntity
  8
0
  6
Continuous
 62
     7
370
    25
100
AcDbSpline
210
0.0
220
0.0
230
1.0
 70
     8
 71
     3
 72
    15
 73
    11
 74
     0
 42
0.00000001
 43
0.00000001
 40
0.0
 40
0.0
 40
0.0
 40
0.0
 40
0.1473891260704216
 40
0.2920688109260755
 40
0.438906318407361
 40
0.5533353762394114
 40
0.6672767093597564
 40
0.7808125101816715
 40
0.8928568106394003
 40
0.9999999999999999
 40
0.9999999999999999
 40
0.9999999999999999
 40
0.9999999999999999
 10
-2.328462838039441
 20
-14.56930513634377
 30
0.0
 10
-2.32878791653059
 20
-14.49469373481544
 30
0.0
 10
-2.329432097623856
 20
-14.34684250652676
 30
0.0
 10
-2.362055843689653
 20
-14.12654684694396
 30
0.0
 10
-2.414067585819492
 20
-13.92766251714707
 30
0.0
 10
-2.476557651073917
 20
-13.74837260326439
 30
0.0
 10
-2.542597490193067
 20
-13.58850236125595
 30
0.0
 10
-2.615025494346867
 20
-13.43278891266881
 30
0.0
 10
-2.690595385825443
 20
-13.28243472155359
 30
0.0
 10
-2.742449787857547
 20
-13.18446693461776
 30
0.0
 10
-2.767797247334871
 20
-13.13657833862351
 30
0.0
  0
SPLINE
  5
B2
330
1F
100
AcDbEntity
  8
0
  6
Continuous
 62
     7
370
    25
100
AcDbSpline
210
0.0
220
0.0
230
1.0
 70
     8
 71
     3
 72
    20
 73
    16
 74
     0
 42
0.00000001
 43
0.00000001
 40
0.0
 40
0.0
 40
0.0
 40
0.0
 40
0.0496754085942883
 40
0.0969900005712509
 40
0.2472851033418754
 40
0.3970726082782057
 40
0.546590713505915
 40
0.6737065036953861
 40
0.8012621816331099
 40
0.8567717766488676
 40
0.9118119132222435
 40
0.9329708869731702
 40
0.9477421997905457
 40
0.9667922549397662
 40
1.0
 40
1.0
 40
1.0
 40
1.0
 10
-3.417967946703135
 20
-13.1365796674372
 30
0.0
 10
-3.404226515699073
 20
-13.15827605122545
 30
0.0
 10
-3.377396713214328
 20
-13.20063770129668
 30
0.0
 10
-3.31047094677306
 20
-13.30956517075302
 30
0.0
 10
-3.220324068961671
 20
-13.46498095765751
 30
0.0
 10
-3.114384853819202
 20
-13.67201037792694
 30
0.0
 10
-3.027194361184347
 20
-13.87475784367176
 30
0.0
 10
-2.960468073650917
 20
-14.07295677358152
 30
0.0
 10
-2.91927509150571
 20
-14.22807407555663
 30
0.0
 10
-2.894292388160546
 20
-14.34864776209427
 30
0.0
 10
-2.88409673589606
 20
-14.4160078491538
 30
0.0
 10
-2.878519084230569
 20
-14.46270638753312
 30
0.0
 10
-2.875324713089487
 20
-14.49095058280309
 30
0.0
 10
-2.871500722014425
 20
-14.52539211272929
 30
0.0
 10
-2.868509897305759
 20
-14.55224267580711
 30
0.0
 10
-2.866609347645285
 20
-14.56930513633622
 30
0.0
  0
SPLINE
  5
B3
330
1F
100
AcDbEntity
  8
0
  6
Continuous
 62
     7
370
    25
100
AcDbSpline
210
0.0
220
0.0
230
1.0
 70
     8
 71
     3
 72
     9
 73
     5
 74
     0
 42
0.00000001
 43
0.00000001
 40
0.0
 40
0.0
 40
0.0
 40
0.0
 40
0.5543881723617029
 40
1.0
 40
1.0
 40
1.0
 40
1.0
 10
-3.818790227395863
 20
-12.48500675350576
 30
0.0
 10
-3.745816946251316
 20
-12.60609078681876
 30
0.0
 10
-3.614188450582516
 20
-12.82450098990298
 30
0.0
 10
-3.478452799106982
 20
-13.04038074066819
 30
0.0
 10
-3.417967387377294
 20
-13.13657931095677
 30
0.0
  0
SPLINE
  5
B7
330
1F
100
AcDbEntity
  8
0
  6
Continuous
 62
     7
370
    25
100
AcDbSpline
210
0.0
220
0.0
230
1.0
 70
     8
 71
     3
 72
    15
 73
    11
 74
     0
 42
0.00000001
 43
0.00000001
 40
0.0
 40
0.0
 40
0.0
 40
0.0
 40
0.112546509591546
 40
0.2227925430071262
 40
0.3319221184564894
 40
0.4409567113837387
 40
0.5507421891863484
 40
0.696731320065137
 40
0.8462478490398934
 40
1.0
 40
1.0
 40
1.0
 40
1.0
 10
-4.840898394418899
 20
-9.345209802491397
 30
0.0
 10
-4.841476922573629
 20
-9.463174480950691
 30
0.0
 10
-4.842622153636426
 20
-9.69669261309309
 30
0.0
 10
-4.805984786159708
 20
-10.04308744177805
 30
0.0
 10
-4.743663456273841
 20
-10.38167200172981
 30
0.0
 10
-4.655219103602937
 20
-10.71395699482579
 30
0.0
 10
-4.531962054541619
 20
-11.07592749236773
 30
0.0
 10
-4.367219980122705
 20
-11.46757466622832
 30
0.0
 10
-4.158803226598449
 20
-11.88980550690409
 30
0.0
 10
-4.002518784321028
 20
-12.16642004923023
 30
0.0
 10
-3.923285184705945
 20
-12.30665899800207
 30
0.0
  0
SPLINE
  5
B9
330
1F
100
AcDbEntity
  8
0
  6
Continuous
 62
     7
370
    25
100
AcDbSpline
210
0.0
220
0.0
230
1.0
 70
    24
 71
     3
 72
     9
 73
     5
 74
     0
 42
0.00000001
 43
0.00000001
 40
0.0
 40
0.0
 40
0.0
 40
0.0
 40
0.5599137314596796
 40
1.0
 40
1.0
 40
1.0
 40
1.0
 10
-3.995813592476344
 20
-12.66203011861312
 30
0.0
 10
-3.983598789770243
 20
-12.64981531590702
 30
0.0
 10
-3.961783281380662
 20
-12.62799980751744
 30
0.0
 10
-3.935798796746558
 20
-12.60201532288334
 30
0.0
 10
-3.924363381863992
 20
-12.59057990800077
 30
0.0
  0
SPLINE
  5
BA
330
1F
100
AcDbEntity
  8
0
  6
Continuous
 62
     7
370
    25
100
AcDbSpline
210
0.0
220
0.0
230
1.0
 70
    24
 71
     3
 72
     9
 73
     5
 74
     0
 42
0.00000001
 43
0.00000001
 40
0.0
 40
0.0
 40
0.0
 40
0.0
 40
0.559913731459647
 40
1.0
 40
1.0
 40
1.0
 40
1.0
 10
-4.137234948713649
 20
-12.52060876237581
 30
0.0
 10
-4.125020146007554
 20
-12.50839395966971
 30
0.0
 10
-4.103204637617979
 20
-12.48657845128012
 30
0.0
 10
-4.077220152983879
 20
-12.46059396664603
 30
0.0
 10
-4.065784738101315
 20
-12.44915855176347
 30
0.0
  0
SPLINE
  5
BE
330
1F
100
AcDbEntity
  8
0
  6
Continuous
 62
     7
370
    25
100
AcDbSpline
210
0.0
220
0.0
230
1.0
 70
     8
 71
     3
 72
    22
 73
    18
 74
     0
 42
0.00000001
 43
0.00000001
 40
0.0
 40
0.0
 40
0.0
 40
0.0
 40
0.061635376817908
 40
0.1161054753360752
 40
0.1641899375308384
 40
0.220415952863727
 40
0.2750492860967124
 40
0.3287627141254396
 40
0.4124512599954123
 40
0.4961781591733967
 40
0.5824636234222121
 40
0.6644840621179469
 40
0.7320457237929616
 40
0.7985261399153558
 40
0.8652064814687402
 40
0.9340532988099473
 40
1.0
 40
1.0
 40
1.0
 40
1.0
 10
1.725683642714164
 20
-18.40914519083485
 30
0.0
 10
1.699821776990322
 20
-18.44537801658388
 30
0.0
 10
1.651104556978583
 20
-18.51363150465435
 30
0.0
 10
1.582673982093494
 20
-18.61048084966783
 30
0.0
 10
1.516982963697292
 20
-18.70448040361792
 30
0.0
 10
1.451966050758543
 20
-18.79909186707738
 30
0.0
 10
1.385731755895034
 20
-18.89779312555547
 30
0.0
 10
1.310188997766772
 20
-19.01411745274075
 30
0.0
 10
1.226432563041484
 20
-19.15013786916289
 30
0.0
 10
1.136341693040062
 20
-19.30975721450394
 30
0.0
 10
1.05451699500547
 20
-19.47245240523388
 30
0.0
 10
0.9864622301741771
 20
-19.62873069833358
 30
0.0
 10
0.9324043783877545
 20
-19.77519796147813
 30
0.0
 10
0.8902791780510698
 20
-19.91402258644338
 30
0.0
 10
0.8569236679802908
 20
-20.05611622240929
 30
0.0
 10
0.830667298080226
 20
-20.19937970706928
 30
0.0
 10
0.8208925533843445
 20
-20.29627555571174
 30
0.0
 10
0.8161103340707437
 20
-20.34368111086458
 30
0.0
  0
SPLINE
  5
C2
330
1F
100
AcDbEntity
  8
0
  6
Continuous
 62
     7
370
    25
100
AcDbSpline
210
0.0
220
0.0
230
1.0
 70
     8
 71
     3
 72
    18
 73
    14
 74
     0
 42
0.00000001
 43
0.00000001
 40
0.0
 40
0.0
 40
0.0
 40
0.0
 40
0.0661432085006201
 40
0.1318459179842194
 40
0.197586726450325
 40
0.2638117642572749
 40
0.3684293689666242
 40
0.4728925916457201
 40
0.5770086665848952
 40
0.6820204899872633
 40
0.7868015169468147
 40
0.8912181696257897
 40
1.0
 40
1.0
 40
1.0
 40
1.0
 10
0.1557366863140104
 20
-20.34368111092212
 30
0.0
 10
0.157499023778552
 20
-20.28447585069839
 30
0.0
 10
0.1610119619331672
 20
-20.16645962407978
 30
0.0
 10
0.1852681142590001
 20
-19.99097684817848
 30
0.0
 10
0.2233533571440768
 20
-19.81803277897792
 30
0.0
 10
0.2869904159111472
 20
-19.61584550832336
 30
0.0
 10
0.3815460930151727
 20
-19.38790325436826
 30
0.0
 10
0.5095470785604326
 20
-19.1383245665798
 30
0.0
 10
0.6501894208078021
 20
-18.89539152219315
 30
0.0
 10
0.7964944953989022
 20
-18.65555238204914
 30
0.0
 10
0.9447938392587046
 20
-18.41662987365782
 30
0.0
 10
1.09581416980302
 20
-18.17542533042155
 30
0.0
 10
1.195316900892421
 20
-18.01261855709559
 30
0.0
 10
1.246086911354632
 20
-17.92954845947534
 30
0.0
  0
SPLINE
  5
C6
330
1F
100
AcDbEntity
  8
0
  6
Continuous
 62
     7
370
    25
100
AcDbSpline
210
0.0
220
0.0
230
1.0
 70
     8
 71
     3
 72
    11
 73
     7
 74
     0
 42
0.00000001
 43
0.00000001
 40
0.0
 40
0.0
 40
0.0
 40
0.0
 40
0.2545177239643928
 40
0.496979389002571
 40
0.747685470286124
 40
0.9999999999999999
 40
0.9999999999999999
 40
0.9999999999999999
 40
0.9999999999999999
 10
1.351871133866805
 20
-17.75248996951165
 30
0.0
 10
1.372492281430083
 20
-17.71723465066294
 30
0.0
 10
1.41275778890399
 20
-17.64839399568769
 30
0.0
 10
1.472042053000074
 20
-17.54407886511361
 30
0.0
 10
1.530128571174213
 20
-17.43949359973911
 30
0.0
 10
1.568117030334594
 20
-17.36826940083745
 30
0.0
 10
1.587171995475288
 20
-17.33254342886487
 30
0.0
  0
SPLINE
  5
C7
330
1F
100
AcDbEntity
  8
0
  6
Continuous
 62
     7
370
    25
100
AcDbSpline
210
0.0
220
0.0
230
1.0
 70
     8
 71
     3
 72
    16
 73
    12
 74
     0
 42
0.00000001
 43
0.00000001
 40
0.0
 40
0.0
 40
0.0
 40
0.0
 40
0.0935960416284902
 40
0.1838889927724462
 40
0.2724595367738279
 40
0.3606536733993889
 40
0.4495518882886377
 40
0.539972860553357
 40
0.6864721772690618
 40
0.8395613590433605
 40
1.0
 40
1.0
 40
1.0
 40
1.0
 10
2.430035661514544
 20
-15.03169048707913
 30
0.0
 10
2.434004509592206
 20
-15.10953763933627
 30
0.0
 10
2.441802141444681
 20
-15.2624846461722
 30
0.0
 10
2.422940792769003
 20
-15.48901793418761
 30
0.0
 10
2.383623181150042
 20
-15.70797741110309
 30
0.0
 10
2.324128437232957
 20
-15.92117484755331
 30
0.0
 10
2.247342591425982
 20
-16.13028691193396
 30
0.0
 10
2.137149849360673
 20
-16.37813867576327
 30
0.0
 10
1.985771463597984
 20
-16.66544364817489
 30
0.0
 10
1.7915314283451
 20
-16.99527999207006
 30
0.0
 10
1.656351798380987
 20
-17.21838100642362
 30
0.0
 10
1.587177599014714
 20
-17.33254638807031
 30
0.0
  0
SPLINE
  5
C9
330
1F
100
AcDbEntity
  8
0
  6
Continuous
 62
     7
370
    25
100
AcDbSpline
210
0.0
220
0.0
230
1.0
 70
     8
 71
     3
 72
    14
 73
    10
 74
     0
 42
0.00000001
 43
0.00000001
 40
0.0
 40
0.0
 40
0.0
 40
0.0
 40
0.1388419411311682
 40
0.2763816485022333
 40
0.4136053836689293
 40
0.551506187818921
 40
0.6977617313748634
 40
0.8469187185333525
 40
1.0
 40
1.0
 40
1.0
 40
1.0
 10
3.085188211514539
 20
-15.03169048707912
 30
0.0
 10
3.087471995375928
 20
-15.14343959983352
 30
0.0
 10
3.092018142910967
 20
-15.36588970208716
 30
0.0
 10
3.063491743367622
 20
-15.6980396064503
 30
0.0
 10
3.008783957831237
 20
-16.02583075803071
 30
0.0
 10
2.924244593751468
 20
-16.35462620586511
 30
0.0
 10
2.808406894004317
 20
-16.68381515653873
 30
0.0
 10
2.661668165704326
 20
-17.01413556988882
 30
0.0
 10
2.540960778089837
 20
-17.22537865118316
 30
0.0
 10
2.479823445406677
 20
-17.33237159331653
 30
0.0
  0
SPLINE
  5
CA
330
1F
100
AcDbEntity
  8
0
  6
Continuous
 62
     7
370
    25
100
AcDbSpline
210
0.0
220
0.0
230
1.0
 70
     8
 71
     3
 72
    15
 73
    11
 74
     0
 42
0.00000001
 43
0.00000001
 40
0.0
 40
0.0
 40
0.0
 40
0.0
 40
0.103257537467334
 40
0.2072625212064347
 40
0.30385544182189
 40
0.4065229433691423
 40
0.5152693874606149
 40
0.6766741197071965
 40
0.8378118711884359
 40
1.0
 40
1.0
 40
1.0
 40
1.0
 10
2.479823445405807
 20
-17.33237159331596
 30
0.0
 10
2.458903263989966
 20
-17.36442485985663
 30
0.0
 10
2.416911467064582
 20
-17.42876341565671
 30
0.0
 10
2.354165312926406
 20
-17.52230474000791
 30
0.0
 10
2.290831839508106
 20
-17.61518227662557
 30
0.0
 10
2.225844183596015
 20
-17.70905614762517
 30
0.0
 10
2.146489278245678
 20
-17.82220028629957
 30
0.0
 10
2.053852493908092
 20
-17.95249896329616
 30
0.0
 10
1.949047671114359
 20
-18.09844925278746
 30
0.0
 10
1.879005166878648
 20
-18.19570375391601
 30
0.0
 10
1.843870142460009
 20
-18.24448897810609
 30
0.0
  0
SPLINE
  5
CE
330
1F
100
AcDbEntity
  8
0
  6
Continuous
 62
     7
370
    25
100
AcDbSpline
210
0.0
220
0.0
230
1.0
 70
     8
 71
     3
 72
    22
 73
    18
 74
     0
 42
0.00000001
 43
0.00000001
 40
0.0
 40
0.0
 40
0.0
 40
0.0
 40
0.0606831415942454
 40
0.1143435095775222
 40
0.1623435562070286
 40
0.2179589445071237
 40
0.2722305468366634
 40
0.3255082482663085
 40
0.4096025545448078
 40
0.4937354000857242
 40
0.5804392157930294
 40
0.6628573271495409
 40
0.7307465587106967
 40
0.7975493023454687
 40
0.8645529407413063
 40
0.9337335589920605
 40
1.0
 40
1.0
 40
1.0
 40
1.0
 10
0.5220758060779116
 20
-18.45420276990136
 30
0.0
 10
0.4967451460581388
 20
-18.48970996858137
 30
0.0
 10
0.4490153072514654
 20
-18.55661516837286
 30
0.0
 10
0.3817052125802864
 20
-18.65193065435489
 30
0.0
 10
0.3169804435990306
 20
-18.74461090290723
 30
0.0
 10
0.2527355386902576
 20
-18.83815912535075
 30
0.0
 10
0.187409822946248
 20
-18.93556049320102
 30
0.0
 10
0.1123988152394847
 20
-19.05109625987917
 30
0.0
 10
0.0289048458451117
 20
-19.18669059756505
 30
0.0
 10
-0.0611860417200803
 20
-19.34630992073702
 30
0.0
 10
-0.1430107349514288
 20
-19.50900511752966
 30
0.0
 10
-0.2110655009767057
 20
-19.6652834091223
 30
0.0
 10
-0.2651233525045834
 20
-19.81175067259319
 30
0.0
 10
-0.3072485529049269
 20
-19.95057529747808
 30
0.0
 10
-0.3406040629585783
 20
-20.0926689334656
 30
0.0
 10
-0.3668604328632507
 20
-20.23593241811977
 30
0.0
 10
-0.3766351775585391
 20
-20.33282826676298
 30
0.0
 10
-0.3814173968718493
 20
-20.3802338219162
 30
0.0
  0
SPLINE
  5
D2
330
1F
100
AcDbEntity
  8
0
  6
Continuous
 62
     7
370
    25
100
AcDbSpline
210
0.0
220
0.0
230
1.0
 70
     8
 71
     3
 72
    18
 73
    14
 74
     0
 42
0.00000001
 43
0.00000001
 40
0.0
 40
0.0
 40
0.0
 40
0.0
 40
0.066405801130155
 40
0.1323693544349428
 40
0.1983711579775529
 40
0.2648591132814469
 40
0.369308809679661
 40
0.4736617305811511
 40
0.5774788844262875
 40
0.682432360440491
 40
0.7864948677188798
 40
0.8912792946714195
 40
1.0
 40
1.0
 40
1.0
 40
1.0
 10
-1.041791044628583
 20
-20.38023382197374
 30
0.0
 10
-1.040028707716782
 20
-20.3210285619537
 30
0.0
 10
-1.036515770663967
 20
-20.20301233574109
 30
0.0
 10
-1.012259610115233
 20
-20.02752955680974
 30
0.0
 10
-0.9741743985279816
 20
-19.85458549914204
 30
0.0
 10
-0.9106934628656881
 20
-19.65289465587604
 30
0.0
 10
-0.8165871920667516
 20
-19.42584183358706
 30
0.0
 10
-0.6894684232180475
 20
-19.17763601581971
 30
0.0
 10
-0.5497280558856988
 20
-18.93594455535254
 30
0.0
 10
-0.4045540212659312
 20
-18.69783970801086
 30
0.0
 10
-0.2570851085959323
 20
-18.46013971747342
 30
0.0
 10
-0.1068381917137473
 20
-18.22021197420088
 30
0.0
 10
-0.0075191860511834
 20
-18.05785695915538
 30
0.0
 10
0.0430558621118256
 20
-17.97518282593531
 30
0.0
  0
SPLINE
  5
D6
330
1F
100
AcDbEntity
  8
0
  6
Continuous
 62
     7
370
    25
100
AcDbSpline
210
0.0
220
0.0
230
1.0
 70
     8
 71
     3
 72
    11
 73
     7
 74
     0
 42
0.00000001
 43
0.00000001
 40
0.0
 40
0.0
 40
0.0
 40
0.0
 40
0.255178515282299
 40
0.4980552225574681
 40
0.7478287506735658
 40
1.0
 40
1.0
 40
1.0
 40
1.0
 10
0.1489385148855778
 20
-17.79822276623032
 30
0.0
 10
0.1700970479402704
 20
-17.76210916490446
 30
0.0
 10
0.2113940900438595
 20
-17.69162294969233
 30
0.0
 10
0.2720603992859509
 20
-17.5850123113521
 30
0.0
 10
0.3314231638099968
 20
-17.47823151782741
 30
0.0
 10
0.370175526055802
 20
-17.40559026498028
 30
0.0
 10
0.3896442645327037
 20
-17.3690961399165
 30
0.0
  0
SPLINE
  5
D7
330
1F
100
AcDbEntity
  8
0
  6
Continuous
 62
     7
370
    25
100
AcDbSpline
210
0.0
220
0.0
230
1.0
 70
     8
 71
     3
 72
    16
 73
    12
 74
     0
 42
0.00000001
 43
0.00000001
 40
0.0
 40
0.0
 40
0.0
 40
0.0
 40
0.0935960416284903
 40
0.1838889927724448
 40
0.2724595367738279
 40
0.360653673399389
 40
0.4495518882886388
 40
0.539972860553356
 40
0.6864721772690618
 40
0.8395613590433609
 40
1.0
 40
1.0
 40
1.0
 40
1.0
 10
1.232507930571969
 20
-15.06824319813076
 30
0.0
 10
1.236476778649629
 20
-15.1460903503879
 30
0.0
 10
1.244274410502105
 20
-15.29903735722383
 30
0.0
 10
1.225413061826429
 20
-15.52557064523925
 30
0.0
 10
1.186095450207461
 20
-15.74453012215473
 30
0.0
 10
1.126600706290377
 20
-15.95772755860495
 30
0.0
 10
1.049814860483404
 20
-16.16683962298559
 30
0.0
 10
0.9396221184180906
 20
-16.4146913868149
 30
0.0
 10
0.7882437326554061
 20
-16.70199635922651
 30
0.0
 10
0.5940036974025144
 20
-17.03183270312169
 30
0.0
 10
0.4588240674384029
 20
-17.25493371747525
 30
0.0
 10
0.3896498680721297
 20
-17.36909909912194
 30
0.0
  0
SPLINE
  5
D9
330
1F
100
AcDbEntity
  8
0
  6
Continuous
 62
     7
370
    25
100
AcDbSpline
210
0.0
220
0.0
230
1.0
 70
     8
 71
     3
 72
    14
 73
    10
 74
     0
 42
0.00000001
 43
0.00000001
 40
0.0
 40
0.0
 40
0.0
 40
0.0
 40
0.1388419411311684
 40
0.2763816485022336
 40
0.4136053836689298
 40
0.5515061878189216
 40
0.6977617313748633
 40
0.8469187185333524
 40
1.0
 40
1.0
 40
1.0
 40
1.0
 10
1.887660480571955
 20
-15.06824319813076
 30
0.0
 10
1.889944264433346
 20
-15.17999231088516
 30
0.0
 10
1.894490411968389
 20
-15.40244241313879
 30
0.0
 10
1.865964012425035
 20
-15.73459231750194
 30
0.0
 10
1.811256226888654
 20
-16.06238346908235
 30
0.0
 10
1.726716862808884
 20
-16.39117891691674
 30
0.0
 10
1.610879163061732
 20
-16.72036786759037
 30
0.0
 10
1.464140434761741
 20
-17.05068828094045
 30
0.0
 10
1.343433047147253
 20
-17.26193136223479
 30
0.0
 10
1.282295714464093
 20
-17.36892430436816
 30
0.0
  0
SPLINE
  5
DA
330
1F
100
AcDbEntity
  8
0
  6
Continuous
 62
     7
370
    25
100
AcDbSpline
210
0.0
220
0.0
230
1.0
 70
     8
 71
     3
 72
    15
 73
    11
 74
     0
 42
0.00000001
 43
0.00000001
 40
0.0
 40
0.0
 40
0.0
 40
0.0
 40
0.102296390525945
 40
0.2053332699071284
 40
0.3010270794989606
 40
0.4027389263064973
 40
0.5104731313431897
 40
0.6734853848505175
 40
0.8368984476038299
 40
1.0
 40
1.0
 40
1.0
 40
1.0
 10
1.282295714463223
 20
-17.36892430436759
 30
0.0
 10
1.261375533007832
 20
-17.40097757088067
 30
0.0
 10
1.219383736003066
 20
-17.46531612662538
 30
0.0
 10
1.156637582449311
 20
-17.55885745138423
 30
0.0
 10
1.09330410691626
 20
-17.65173498652682
 30
0.0
 10
1.028316459426508
 20
-17.74560886340105
 30
0.0
 10
0.9482933455079801
 20
-17.85970564917925
 30
0.0
 10
0.8541541541680037
 20
-17.99209716037091
 30
0.0
 10
0.7473001863288083
 20
-18.14086374935986
 30
0.0
 10
0.675900955806621
 20
-18.23999921043169
 30
0.0
 10
0.6402353996638143
 20
-18.28951965101266
 30
0.0
  0
SPLINE
  5
DE
330
1F
100
AcDbEntity
  8
0
  6
Continuous
 62
     7
370
    25
100
AcDbSpline
210
0.0
220
0.0
230
1.0
 70
     8
 71
     3
 72
    19
 73
    15
 74
     0
 42
0.00000001
 43
0.00000001
 40
0.0
 40
0.0
 40
0.0
 40
0.0
 40
0.0572061611180159
 40
0.1022861718699244
 40
0.1497286181577436
 40
0.1983766631686096
 40
0.2474388395607009
 40
0.2973444390629091
 40
0.3461738174191012
 40
0.4751525399525028
 40
0.603866110751434
 40
0.7374179073365775
 40
0.87029084799158
 40
1.0
 40
1.0
 40
1.0
 40
1.0
 10
-1.513543472261445
 20
-20.35097875794938
 30
0.0
 10
-1.508164093659246
 20
-20.31175169963278
 30
0.0
 10
-1.498545618419792
 20
-20.24161265253526
 30
0.0
 10
-1.484683211222844
 20
-20.13892422491226
 30
0.0
 10
-1.470664936806744
 20
-20.04218735852297
 30
0.0
 10
-1.448882806704608
 20
-19.94402313351825
 30
0.0
 10
-1.421411914440228
 20
-19.84559324840802
 30
0.0
 10
-1.390480274546954
 20
-19.74806842609985
 30
0.0
 10
-1.337986270775766
 20
-19.59943993346596
 30
0.0
 10
-1.25421034306433
 20
-19.40415721637394
 30
0.0
 10
-1.126499376774214
 20
-19.1651324452736
 30
0.0
 10
-0.983807301327452
 20
-18.93170234525125
 30
0.0
 10
-0.831374258381371
 20
-18.70376404922514
 30
0.0
 10
-0.7274693809939784
 20
-18.554658952914
 30
0.0
 10
-0.6761429047718055
 20
-18.48100467052758
 30
0.0
  0
SPLINE
  5
E2
330
1F
100
AcDbEntity
  8
0
  6
Continuous
 62
     7
370
    25
100
AcDbSpline
210
0.0
220
0.0
230
1.0
 70
     8
 71
     3
 72
    23
 73
    19
 74
     0
 42
0.00000001
 43
0.00000001
 40
0.0
 40
0.0
 40
0.0
 40
0.0
 40
0.0047751181773208
 40
0.0718634296143172
 40
0.1449822989739422
 40
0.2182764854518507
 40
0.2933531819229922
 40
0.3629749657373281
 40
0.4326401181555724
 40
0.5029143319852096
 40
0.5651246793845766
 40
0.6273802728269202
 40
0.6898258953199874
 40
0.7522667374320231
 40
0.8141552557961068
 40
0.8757779289460476
 40
0.9375794866939711
 40
1.0
 40
1.0
 40
1.0
 40
1.0
 10
-1.350080340190705
 20
-17.80706723510868
 30
0.0
 10
-1.35227355458296
 20
-17.81095267274966
 30
0.0
 10
-1.385280467135517
 20
-17.86942680136073
 30
0.0
 10
-1.45268731225414
 20
-17.98693546563554
 30
0.0
 10
-1.553378468802554
 20
-18.15914842226302
 30
0.0
 10
-1.658677977297007
 20
-18.33730953359137
 30
0.0
 10
-1.762446839477629
 20
-18.51257953060948
 30
0.0
 10
-1.863625217905545
 20
-18.68544118206414
 30
0.0
 10
-1.961288991129332
 20
-18.8551552788788
 30
0.0
 10
-2.053247076560258
 20
-19.02015486910967
 30
0.0
 10
-2.137675207670717
 20
-19.18137125494305
 30
0.0
 10
-2.21305136158967
 20
-19.33896760354424
 30
0.0
 10
-2.280760115623226
 20
-19.50028384755342
 30
0.0
 10
-2.338426924185525
 20
-19.66511996303053
 30
0.0
 10
-2.384369343691617
 20
-19.83287621355801
 30
0.0
 10
-2.415696595219021
 20
-20.00335801112545
 30
0.0
 10
-2.432631495133983
 20
-20.17649555036308
 30
0.0
 10
-2.431851889376796
 20
-20.29262481149561
 30
0.0
 10
-2.431460144245459
 20
-20.35097875800641
 30
0.0
  0
SPLINE
  5
E7
330
1F
100
AcDbEntity
  8
0
  6
Continuous
 62
     7
370
    25
100
AcDbSpline
210
0.0
220
0.0
230
1.0
 70
     8
 71
     3
 72
    15
 73
    11
 74
     0
 42
0.00000001
 43
0.00000001
 40
0.0
 40
0.0
 40
0.0
 40
0.0
 40
0.1096912003339395
 40
0.2159787297929237
 40
0.3211065803269192
 40
0.4269629195539226
 40
0.5350540442460228
 40
0.6818655659361514
 40
0.8363785149918657
 40
1.0
 40
1.0
 40
1.0
 40
1.0
 10
-0.2958959103025277
 20
-15.03483492409063
 30
0.0
 10
-0.2964611711708915
 20
-15.13537776200222
 30
0.0
 10
-0.2975741531054424
 20
-15.33334363671062
 30
0.0
 10
-0.3397654546798727
 20
-15.62518658319343
 30
0.0
 10
-0.4082577915016275
 20
-15.90784334226993
 30
0.0
 10
-0.5025490779898544
 20
-16.18475746363627
 30
0.0
 10
-0.6312515890958185
 20
-16.48921113707786
 30
0.0
 10
-0.7989246544541883
 20
-16.82476854690111
 30
0.0
 10
-1.005323471281448
 20
-17.19717237488868
 30
0.0
 10
-1.150245077929842
 20
-17.44987344618865
 30
0.0
 10
-1.224780513112617
 20
-17.57984153553086
 30
0.0
  0
SPLINE
  5
E9
330
1F
100
AcDbEntity
  8
0
  6
Continuous
 62
     7
370
    25
100
AcDbSpline
210
0.0
220
0.0
230
1.0
 70
     8
 71
     3
 72
    15
 73
    11
 74
     0
 42
0.00000001
 43
0.00000001
 40
0.0
 40
0.0
 40
0.0
 40
0.0
 40
0.1381526731458216
 40
0.2760367255697924
 40
0.4138977492533795
 40
0.5522212540727391
 40
0.6617201444362991
 40
0.7724438191068024
 40
0.8849766019188663
 40
1.0
 40
1.0
 40
1.0
 40
1.0
 10
0.6166926777213253
 20
-15.03483492409062
 30
0.0
 10
0.616195045410838
 20
-15.15771411454358
 30
0.0
 10
0.6152007483741121
 20
-15.40323357211861
 30
0.0
 10
0.5851129177460084
 20
-15.77042086619258
 30
0.0
 10
0.5303624479836005
 20
-16.13481308430047
 30
0.0
 10
0.4521707206294442
 20
-16.46916058304535
 30
0.0
 10
0.3558720219538853
 20
-16.77337002858116
 30
0.0
 10
0.2459840892610448
 20
-17.04831460182446
 30
0.0
 10
0.1149200410318331
 20
-17.31955160589742
 30
0.0
 10
0.009386307084322
 20
-17.49231248137585
 30
0.0
 10
-0.0439580962326344
 20
-17.57963835789127
 30
0.0
  0
SPLINE
  5
EA
330
1F
100
AcDbEntity
  8
0
  6
Continuous
 62
     7
370
    25
100
AcDbSpline
210
0.0
220
0.0
230
1.0
 70
     8
 71
     3
 72
    15
 73
    11
 74
     0
 42
0.00000001
 43
0.00000001
 40
0.0
 40
0.0
 40
0.0
 40
0.0
 40
0.1195298754003834
 40
0.232169268927244
 40
0.3543775170134901
 40
0.4746346883967895
 40
0.584075574977933
 40
0.6827009210394502
 40
0.8472524224926152
 40
1.0
 40
1.0
 40
1.0
 40
1.0
 10
-0.5591764269865921
 20
-18.31512843583817
 30
0.0
 10
-0.5384817629053137
 20
-18.2859404745996
 30
0.0
 10
-0.4982854101997551
 20
-18.2292471366409
 30
0.0
 10
-0.4368608412375068
 20
-18.14276136903202
 30
0.0
 10
-0.3752787982926465
 20
-18.05612038588726
 30
0.0
 10
-0.3144371651385597
 20
-17.97012803372827
 30
0.0
 10
-0.2578512476985934
 20
-17.88977237288706
 30
0.0
 10
-0.1939033815351979
 20
-17.79838516259064
 30
0.0
 10
-0.1229643164898507
 20
-17.69606710510968
 30
0.0
 10
-0.0696321619583344
 20
-17.61747334479123
 30
0.0
 10
-0.04395809623263
 20
-17.57963835789127
 30
0.0
  0
SPLINE
  5
EB
330
1F
100
AcDbEntity
  8
0
  6
Continuous
 62
     7
370
    25
100
AcDbSpline
210
0.0
220
0.0
230
1.0
 70
    24
 71
     3
 72
     9
 73
     5
 74
     0
 42
0.00000001
 43
0.00000001
 40
0.0
 40
0.0
 40
0.0
 40
0.0
 40
0.5598226446349477
 40
1.0
 40
1.0
 40
1.0
 40
1.0
 10
-0.4713099108423152
 20
-18.40299495198244
 30
0.0
 10
-0.4723878532487998
 20
-18.40191700957595
 30
0.0
 10
-0.4743133602228656
 20
-18.39999150260187
 30
0.0
 10
-0.4779718881432701
 20
-18.39633297468148
 30
0.0
 10
-0.4795822892878031
 20
-18.39472257353696
 30
0.0
  0
SPLINE
  5
ED
330
1F
100
AcDbEntity
  8
0
  6
Continuous
 62
     7
370
    25
100
AcDbSpline
210
0.0
220
0.0
230
1.0
 70
    24
 71
     3
 72
     9
 73
     5
 74
     0
 42
0.00000001
 43
0.00000001
 40
0.0
 40
0.0
 40
0.0
 40
0.0
 40
0.5598226446350003
 40
0.9999999999999999
 40
0.9999999999999999
 40
0.9999999999999999
 40
0.9999999999999999
 10
-0.6127312670796119
 20
-18.54441630821976
 30
0.0
 10
-0.613809209486103
 20
-18.54333836581326
 30
0.0
 10
-0.61573471646018
 20
-18.54141285883918
 30
0.0
 10
-0.6193932443805755
 20
-18.53775433091879
 30
0.0
 10
-0.6210036455251042
 20
-18.53614392977427
 30
0.0
  0
SPLINE
  5
F1
330
1F
100
AcDbEntity
  8
0
  6
Continuous
 62
     7
370
    25
100
AcDbSpline
210
0.0
220
0.0
230
1.0
 70
     8
 71
     3
 72
    23
 73
    19
 74
     0
 42
0.00000001
 43
0.00000001
 40
0.0
 40
0.0
 40
0.0
 40
0.0
 40
0.0739019728868543
 40
0.1442878226852759
 40
0.2098071731303856
 40
0.2793369957900566
 40
0.3487749704346045
 40
0.457387960376214
 40
0.5653228851129369
 40
0.6726063313875222
 40
0.7641094471171335
 40
0.8563823573823034
 40
0.8797347775513323
 40
0.9032041607986762
 40
0.920048195753123
 40
0.9338655081896915
 40
0.9605161095195595
 40
0.9999999999999999
 40
0.9999999999999999
 40
0.9999999999999999
 40
0.9999999999999999
 10
-2.062235969357682
 20
-18.27897875123174
 30
0.0
 10
-2.093548828579906
 20
-18.32368522402256
 30
0.0
 10
-2.154684737443157
 20
-18.41097111595405
 30
0.0
 10
-2.24274207076679
 20
-18.53847811744812
 30
0.0
 10
-2.327919039267957
 20
-18.66404405700318
 30
0.0
 10
-2.411121834871941
 20
-18.79009467947293
 30
0.0
 10
-2.508892641022675
 20
-18.94463095364674
 30
0.0
 10
-2.61546064249238
 20
-19.12710278953262
 30
0.0
 10
-2.724170143866147
 20
-19.3403182310203
 30
0.0
 10
-2.811423436967047
 20
-19.54973512531417
 30
0.0
 10
-2.876323070134782
 20
-19.75481792296872
 30
0.0
 10
-2.913018550232001
 20
-19.90359126119126
 30
0.0
 10
-2.929745433387587
 20
-20.00497769999969
 30
0.0
 10
-2.935550949575641
 20
-20.05164830437128
 30
0.0
 10
-2.939749999798008
 20
-20.09140627164717
 30
0.0
 10
-2.944008703670435
 20
-20.13352036746918
 30
0.0
 10
-2.949998144232799
 20
-20.19226562275973
 30
0.0
 10
-2.954935059676455
 20
-20.24086031522433
 30
0.0
 10
-2.957882517551349
 20
-20.26987252145262
 30
0.0
  0
SPLINE
  5
F5
330
1F
100
AcDbEntity
  8
0
  6
Continuous
 62
     7
370
    25
100
AcDbSpline
210
0.0
220
0.0
230
1.0
 70
     8
 71
     3
 72
    17
 73
    13
 74
     0
 42
0.00000001
 43
0.00000001
 40
0.0
 40
0.0
 40
0.0
 40
0.0
 40
0.0852819098984477
 40
0.1699467652466671
 40
0.2546051987276798
 40
0.3398734127373922
 40
0.4504654080669512
 40
0.5605020471172691
 40
0.671155978973219
 40
0.781332476364237
 40
0.8900114061688643
 40
1.0
 40
1.0
 40
1.0
 40
1.0
 10
-3.793909800050364
 20
-20.26987252145262
 30
0.0
 10
-3.795687451499937
 20
-20.21161222410336
 30
0.0
 10
-3.799229892258484
 20
-20.09551316993576
 30
0.0
 10
-3.786110872853865
 20
-19.9217827628566
 30
0.0
 10
-3.759001819003073
 20
-19.74981601437547
 30
0.0
 10
-3.71242502499006
 20
-19.56372181749012
 30
0.0
 10
-3.645274601899263
 20
-19.36559664470248
 30
0.0
 10
-3.556765286647351
 20
-19.15716591274132
 30
0.0
 10
-3.45722259904861
 20
-18.95418280939113
 30
0.0
 10
-3.351328079127216
 20
-18.75555103120061
 30
0.0
 10
-3.242896715232073
 20
-18.55882760201661
 30
0.0
 10
-3.169567109624893
 20
-18.42870044907472
 30
0.0
 10
-3.132682710548054
 20
-18.36324718773369
 30
0.0
  0
SPLINE
  5
F6
330
1F
100
AcDbEntity
  8
0
  6
Continuous
 62
     7
370
    25
100
AcDbSpline
210
0.0
220
0.0
230
1.0
 70
     8
 71
     3
 72
     9
 73
     5
 74
     0
 42
0.00000001
 43
0.00000001
 40
0.0
 40
0.0
 40
0.0
 40
0.0
 40
0.5501592219350613
 40
1.0
 40
1.0
 40
1.0
 40
1.0
 10
-2.693023569828293
 20
-17.64819115075908
 30
0.0
 10
-2.774222881921229
 20
-17.77897136815778
 30
0.0
 10
-2.921815267644286
 20
-18.01668476490628
 30
0.0
 10
-3.067257061042592
 20
-18.25571958036371
 30
0.0
 10
-3.132682710548046
 20
-18.3632471877337
 30
0.0
  0
SPLINE
  5
FA
330
1F
100
AcDbEntity
  8
0
  6
Continuous
 62
     7
370
    25
100
AcDbSpline
210
0.0
220
0.0
230
1.0
 70
     8
 71
     3
 72
    15
 73
    11
 74
     0
 42
0.00000001
 43
0.00000001
 40
0.0
 40
0.0
 40
0.0
 40
0.0
 40
0.113405123114711
 40
0.2232198514507449
 40
0.3312321818904675
 40
0.4389801824889637
 40
0.547720428331933
 40
0.6932051640801011
 40
0.8436230293508252
 40
1.0
 40
1.0
 40
1.0
 40
1.0
 10
-1.735088340945164
 20
-14.95733757762576
 30
0.0
 10
-1.733456815321311
 20
-15.05939941385473
 30
0.0
 10
-1.730245418010573
 20
-15.2602918188546
 30
0.0
 10
-1.763380782732753
 20
-15.55706913750736
 30
0.0
 10
-1.821772883391501
 20
-15.84429885449587
 30
0.0
 10
-1.905329771795582
 20
-16.12428948372007
 30
0.0
 10
-2.021840592603374
 20
-16.42851888511971
 30
0.0
 10
-2.176814132204467
 20
-16.75813080783771
 30
0.0
 10
-2.371227325307213
 20
-17.11558877738528
 30
0.0
 10
-2.513243061053331
 20
-17.35215912524125
 30
0.0
 10
-2.585630167811185
 20
-17.4727418405018
 30
0.0
  0
SPLINE
  5
FC
330
1F
100
AcDbEntity
  8
0
  6
Continuous
 62
     7
370
    25
100
AcDbSpline
210
0.0
220
0.0
230
1.0
 70
     8
 71
     3
 72
    16
 73
    12
 74
     0
 42
0.00000001
 43
0.00000001
 40
0.0
 40
0.0
 40
0.0
 40
0.0
 40
0.106196233694363
 40
0.215047717180376
 40
0.3253569680077766
 40
0.4369374572545279
 40
0.5496165324905797
 40
0.6611920254307118
 40
0.7735227469210143
 40
0.8864882859355752
 40
1.0
 40
1.0
 40
1.0
 40
1.0
 10
-1.005817590945172
 20
-14.95733757762576
 30
0.0
 10
-1.006670164507618
 20
-15.07550784197859
 30
0.0
 10
-1.008396628732893
 20
-15.31480301002398
 30
0.0
 10
-1.045117801876531
 20
-15.67528114657909
 30
0.0
 10
-1.103703859683363
 20
-16.03862283832375
 30
0.0
 10
-1.18719584155533
 20
-16.40155751142948
 30
0.0
 10
-1.293857679173094
 20
-16.75978089699774
 30
0.0
 10
-1.423116762877221
 20
-17.11141321384481
 30
0.0
 10
-1.574751995000737
 20
-17.45425077619237
 30
0.0
 10
-1.747458332617802
 20
-17.78963734103379
 30
0.0
 10
-1.881003226790128
 20
-18.00333086841987
 30
0.0
 10
-1.94793670304863
 20
-18.11043530495066
 30
0.0
  0
SPLINE
  5
FD
330
1F
100
AcDbEntity
  8
0
  6
Continuous
 62
     7
370
    25
100
AcDbSpline
210
0.0
220
0.0
230
1.0
 70
    24
 71
     3
 72
     9
 73
     5
 74
     0
 42
0.00000001
 43
0.00000001
 40
0.0
 40
0.0
 40
0.0
 40
0.0
 40
0.5603194205070782
 40
1.0
 40
1.0
 40
1.0
 40
1.0
 10
-1.83613684609223
 20
-18.22223516202052
 30
0.0
 10
-1.84435633432876
 20
-18.21401567378399
 30
0.0
 10
-1.859025624622305
 20
-18.19934638349043
 30
0.0
 10
-1.87611000234639
 20
-18.18226200576635
 30
0.0
 10
-1.883621671444393
 20
-18.17475033666835
 30
0.0
  0
SPLINE
  5
FF
330
1F
100
AcDbEntity
  8
0
  6
Continuous
 62
     7
370
    25
100
AcDbSpline
210
0.0
220
0.0
230
1.0
 70
    24
 71
     3
 72
     9
 73
     5
 74
     0
 42
0.00000001
 43
0.00000001
 40
0.0
 40
0.0
 40
0.0
 40
0.0
 40
0.5603194205071376
 40
0.9999999999999999
 40
0.9999999999999999
 40
0.9999999999999999
 40
0.9999999999999999
 10
-1.977558202329536
 20
-18.36365651825783
 30
0.0
 10
-1.985777690566072
 20
-18.35543703002129
 30
0.0
 10
-2.000446980859628
 20
-18.34076773972774
 30
0.0
 10
-2.0175313585837
 20
-18.32368336200366
 30
0.0
 10
-2.025043027681694
 20
-18.31617169290567
 30
0.0
  0
SPLINE
  5
103
330
1F
100
AcDbEntity
  8
0
  6
Continuous
 62
     7
370
    25
100
AcDbSpline
210
0.0
220
0.0
230
1.0
 70
     8
 71
     3
 72
     9
 73
     5
 74
     0
 42
0.00000001
 43
0.00000001
 40
0.0
 40
0.0
 40
0.0
 40
0.0
 40
0.55438817236171
 40
1.0
 40
1.0
 40
1.0
 40
1.0
 10
-3.384335746923884
 20
-18.08032188588127
 30
0.0
 10
-3.457309028068422
 20
-18.20140591919428
 30
0.0
 10
-3.588937523737207
 20
-18.4198161222785
 30
0.0
 10
-3.724673175212733
 20
-18.63569587304371
 30
0.0
 10
-3.785158586942419
 20
-18.7318944433323
 30
0.0
  0
SPLINE
  5
104
330
1F
100
AcDbEntity
  8
0
  6
Continuous
 62
     7
370
    25
100
AcDbSpline
210
0.0
220
0.0
230
1.0
 70
     8
 71
     3
 72
    20
 73
    16
 74
     0
 42
0.00000001
 43
0.00000001
 40
0.0
 40
0.0
 40
0.0
 40
0.0
 40
0.0496754085942891
 40
0.0969900005712532
 40
0.2472851033418783
 40
0.3970726082782092
 40
0.5465907135059159
 40
0.6737065036953889
 40
0.801262181633116
 40
0.856771776648871
 40
0.9118119132222464
 40
0.932970886973176
 40
0.9477421997905489
 40
0.9667922549397722
 40
1.0
 40
1.0
 40
1.0
 40
1.0
 10
-3.785158027616578
 20
-18.73189479981273
 30
0.0
 10
-3.798899458620643
 20
-18.75359118360098
 30
0.0
 10
-3.825729261105396
 20
-18.79595283367221
 30
0.0
 10
-3.892655027546657
 20
-18.90488030312853
 30
0.0
 10
-3.982801905358054
 20
-19.06029609003303
 30
0.0
 10
-4.088741120500512
 20
-19.26732551030247
 30
0.0
 10
-4.175931613135344
 20
-19.47007297604729
 30
0.0
 10
-4.24265790066878
 20
-19.66827190595706
 30
0.0
 10
-4.283850882813979
 20
-19.82338920793216
 30
0.0
 10
-4.308833586159152
 20
-19.94396289446981
 30
0.0
 10
-4.319029238423625
 20
-20.01132298152933
 30
0.0
 10
-4.324606890089116
 20
-20.05802151990865
 30
0.0
 10
-4.3278012612302
 20
-20.08626571517863
 30
0.0
 10
-4.33162525230526
 20
-20.12070724510481
 30
0.0
 10
-4.33461607701392
 20
-20.14755780818263
 30
0.0
 10
-4.336516626674392
 20
-20.16462026871174
 30
0.0
  0
SPLINE
  5
108
330
1F
100
AcDbEntity
  8
0
  6
Continuous
 62
     7
370
    25
100
AcDbSpline
210
0.0
220
0.0
230
1.0
 70
     8
 71
     3
 72
    15
 73
    11
 74
     0
 42
0.00000001
 43
0.00000001
 40
0.0
 40
0.0
 40
0.0
 40
0.0
 40
0.1473891260704151
 40
0.2920688109260705
 40
0.4389063184073568
 40
0.5533353762394092
 40
0.667276709359754
 40
0.7808125101816688
 40
0.8928568106393983
 40
1.0
 40
1.0
 40
1.0
 40
1.0
 10
-4.874663136280237
 20
-20.16462026871931
 30
0.0
 10
-4.874338057789091
 20
-20.09000886719098
 30
0.0
 10
-4.87369387669583
 20
-19.94215763890231
 30
0.0
 10
-4.84107013063004
 20
-19.72186197931951
 30
0.0
 10
-4.789058388500214
 20
-19.52297764952263
 30
0.0
 10
-4.726568323245785
 20
-19.34368773563994
 30
0.0
 10
-4.660528484126645
 20
-19.18381749363149
 30
0.0
 10
-4.588100479972857
 20
-19.02810404504435
 30
0.0
 10
-4.512530588494279
 20
-18.87774985392913
 30
0.0
 10
-4.460676186462168
 20
-18.77978206699331
 30
0.0
 10
-4.435328726984841
 20
-18.73189347099905
 30
0.0
  0
SPLINE
  5
109
330
1F
100
AcDbEntity
  8
0
  6
Continuous
 62
     7
370
    25
100
AcDbSpline
210
0.0
220
0.0
230
1.0
 70
     8
 71
     3
 72
    10
 73
     6
 74
     0
 42
0.00000001
 43
0.00000001
 40
0.0
 40
0.0
 40
0.0
 40
0.0
 40
0.2701242010291393
 40
0.5477407187696751
 40
1.0
 40
1.0
 40
1.0
 40
1.0
 10
-3.789719338223175
 20
-17.67493829460884
 30
0.0
 10
-3.847802585690175
 20
-17.77013860739078
 30
0.0
 10
-3.965580110232005
 20
-17.96317976235435
 30
0.0
 10
-4.183554704062455
 20
-18.31380052133772
 30
0.0
 10
-4.339004311524995
 20
-18.57194076306776
 30
0.0
 10
-4.435326902077626
 20
-18.73189444333235
 30
0.0
  0
SPLINE
  5
10D
330
1F
100
AcDbEntity
  8
0
  6
Continuous
 62
     7
370
    25
100
AcDbSpline
210
0.0
220
0.0
230
1.0
 70
     8
 71
     3
 72
    15
 73
    11
 74
     0
 42
0.00000001
 43
0.00000001
 40
0.0
 40
0.0
 40
0.0
 40
0.0
 40
0.1147443170662942
 40
0.2260013673273857
 40
0.3352887534403045
 40
0.4439278188730385
 40
0.5530184674557255
 40
0.6979805130457484
 40
0.8466524511605904
 40
1.0
 40
1.0
 40
1.0
 40
1.0
 10
-2.862227579900946
 20
-14.94052493486688
 30
0.0
 10
-2.861239892725751
 20
-15.04486055053913
 30
0.0
 10
-2.859294535798341
 20
-15.25036085247783
 30
0.0
 10
-2.891952091960289
 20
-15.55391378989422
 30
0.0
 10
-2.94835285991196
 20
-15.84794695827275
 30
0.0
 10
-3.028573634084915
 20
-16.13440541762107
 30
0.0
 10
-3.14017970425373
 20
-16.44475246825666
 30
0.0
 10
-3.288738574888002
 20
-16.77953766210434
 30
0.0
 10
-3.475607884853193
 20
-17.14038574743316
 30
0.0
 10
-3.613679560433519
 20
-17.3775916867688
 30
0.0
 10
-3.683784152782557
 20
-17.4980307674854
 30
0.0
  0
SPLINE
  5
10F
330
1F
100
AcDbEntity
  8
0
  6
Continuous
 62
     7
370
    25
100
AcDbSpline
210
0.0
220
0.0
230
1.0
 70
     8
 71
     3
 72
    15
 73
    11
 74
     0
 42
0.00000001
 43
0.00000001
 40
0.0
 40
0.0
 40
0.0
 40
0.0
 40
0.1125465095915461
 40
0.2227925430071263
 40
0.3319221184564883
 40
0.440956711383738
 40
0.5507421891863477
 40
0.6967313200651362
 40
0.8462478490398947
 40
1.0
 40
1.0
 40
1.0
 40
1.0
 10
-2.362227579900936
 20
-14.94052493486689
 30
0.0
 10
-2.361649051746203
 20
-15.05848961332618
 30
0.0
 10
-2.360503820683402
 20
-15.29200774546858
 30
0.0
 10
-2.397141188160109
 20
-15.63840257415354
 30
0.0
 10
-2.459462518045966
 20
-15.9769871341053
 30
0.0
 10
-2.547906870716851
 20
-16.30927212720129
 30
0.0
 10
-2.67116391977817
 20
-16.67124262474321
 30
0.0
 10
-2.835905994197064
 20
-17.06288979860383
 30
0.0
 10
-3.044322747721325
 20
-17.48512063927959
 30
0.0
 10
-3.200607189998727
 20
-17.76173518160573
 30
0.0
 10
-3.279840789613802
 20
-17.90197413037758
 30
0.0
  0
SPLINE
  5
111
330
1F
100
AcDbEntity
  8
0
  6
Continuous
 62
     7
370
    25
100
AcDbSpline
210
0.0
220
0.0
230
1.0
 70
    24
 71
     3
 72
     9
 73
     5
 74
     0
 42
0.00000001
 43
0.00000001
 40
0.0
 40
0.0
 40
0.0
 40
0.0
 40
0.5599137314597217
 40
1.0
 40
1.0
 40
1.0
 40
1.0
 10
-3.207312381843386
 20
-18.25734525098863
 30
0.0
 10
-3.219527184549487
 20
-18.24513044828253
 30
0.0
 10
-3.241342692939066
 20
-18.22331493989294
 30
0.0
 10
-3.267327177573171
 20
-18.19733045525885
 30
0.0
 10
-3.278762592455737
 20
-18.18589504037628
 30
0.0
  0
SPLINE
  5
112
330
1F
100
AcDbEntity
  8
0
  6
Continuous
 62
     7
370
    25
100
AcDbSpline
210
0.0
220
0.0
230
1.0
 70
    24
 71
     3
 72
     9
 73
     5
 74
     0
 42
0.00000001
 43
0.00000001
 40
0.0
 40
0.0
 40
0.0
 40
0.0
 40
0.5599137314596521
 40
1.0
 40
1.0
 40
1.0
 40
1.0
 10
-3.065891025606098
 20
-18.11592389475132
 30
0.0
 10
-3.078105828312197
 20
-18.10370909204521
 30
0.0
 10
-3.099921336701778
 20
-18.08189358365562
 30
0.0
 10
-3.125905821335868
 20
-18.05590909902154
 30
0.0
 10
-3.137341236218428
 20
-18.04447368413897
 30
0.0
  0
LINE
  5
113
330
1F
100
AcDbEntity
  8
0
  6
Continuous
 62
     7
370
    25
100
AcDbLine
 10
0.0989718511
 20
-9.2778175407
 30
0.0
 11
0.7541244011
 21
-9.2778175407
 31
0.0
  0
LINE
  5
114
330
1F
100
AcDbEntity
  8
0
  6
Continuous
 62
     7
370
    25
100
AcDbLine
 10
1.8994082379
 20
-11.931497714
 30
0.0
 11
1.8322889287
 21
-11.9986170231
 31
0.0
  0
LINE
  5
115
330
1F
100
AcDbEntity
  8
0
  6
Continuous
 62
     7
370
    25
100
AcDbLine
 10
1.8994082379
 20
-11.931497714
 30
0.0
 11
2.0408295941
 21
-12.0729190702
 31
0.0
  0
LINE
  5
116
330
1F
100
AcDbEntity
  8
0
  6
Continuous
 62
     7
370
    25
100
AcDbLine
 10
2.0408295941
 20
-12.0729190702
 30
0.0
 11
1.9380731512
 21
-12.1756755131
 31
0.0
  0
LINE
  5
117
330
1F
100
AcDbEntity
  8
0
  6
Continuous
 62
     7
370
    25
100
AcDbLine
 10
3.024429881
 20
-14.7453700645
 30
0.0
 11
3.0284233763
 21
-14.5898081645
 31
0.0
  0
LINE
  5
118
330
1F
100
AcDbEntity
  8
0
  6
Continuous
 62
     7
370
    25
100
AcDbLine
 10
3.024429881
 20
-14.7453700645
 30
0.0
 11
2.3692773316
 21
-14.7453700645
 31
0.0
  0
LINE
  5
119
330
1F
100
AcDbEntity
  8
0
  6
Continuous
 62
     7
370
    25
100
AcDbLine
 10
2.3692773316
 20
-14.7453700645
 30
0.0
 11
2.3680497285
 21
-14.5898081645
 31
0.0
  0
LINE
  5
11A
330
1F
100
AcDbEntity
  8
0
  6
Continuous
 62
     7
370
    25
100
AcDbLine
 10
1.4584764199
 20
-12.6552722444
 30
0.0
 11
1.3826840565
 21
-12.7310646079
 31
0.0
  0
LINE
  5
11B
330
1F
100
AcDbEntity
  8
0
  6
Continuous
 62
     7
370
    25
100
AcDbLine
 10
1.2412627002
 20
-12.5896432516
 30
0.0
 11
1.3826840565
 21
-12.7310646079
 31
0.0
  0
LINE
  5
11C
330
1F
100
AcDbEntity
  8
0
  6
Continuous
 62
     7
370
    25
100
AcDbLine
 10
1.3402899201
 20
-12.4906160317
 30
0.0
 11
1.2412627002
 21
-12.5896432516
 31
0.0
  0
LINE
  5
11D
330
1F
100
AcDbEntity
  8
0
  6
Continuous
 62
     7
370
    25
100
AcDbLine
 10
-1.0122697137
 20
-9.3354784018
 30
0.0
 11
-0.3571171637
 21
-9.3354784018
 31
0.0
  0
LINE
  5
11E
330
1F
100
AcDbEntity
  8
0
  6
Continuous
 62
     7
370
    25
100
AcDbLine
 10
0.830370054
 20
-11.9615401679
 30
0.0
 11
0.726452252
 21
-12.0654579699
 31
0.0
  0
LINE
  5
11F
330
1F
100
AcDbEntity
  8
0
  6
Continuous
 62
     7
370
    25
100
AcDbLine
 10
0.830370054
 20
-11.9615401679
 30
0.0
 11
0.9717914102
 21
-12.1029615242
 31
0.0
  0
LINE
  5
120
330
1F
100
AcDbEntity
  8
0
  6
Continuous
 62
     7
370
    25
100
AcDbLine
 10
0.9717914102
 20
-12.1029615242
 30
0.0
 11
0.8323349048
 21
-12.2424180296
 31
0.0
  0
LINE
  5
121
330
1F
100
AcDbEntity
  8
0
  6
Continuous
 62
     7
370
    25
100
AcDbLine
 10
1.9131883162
 20
-14.8030309256
 30
0.0
 11
1.9171818115
 21
-14.6474690256
 31
0.0
  0
LINE
  5
122
330
1F
100
AcDbEntity
  8
0
  6
Continuous
 62
     7
370
    25
100
AcDbLine
 10
1.9131883162
 20
-14.8030309256
 30
0.0
 11
1.2580357669
 21
-14.8030309256
 31
0.0
  0
LINE
  5
123
330
1F
100
AcDbEntity
  8
0
  6
Continuous
 62
     7
370
    25
100
AcDbLine
 10
1.2580357669
 20
-14.8030309256
 30
0.0
 11
1.2568081638
 21
-14.6474690256
 31
0.0
  0
LINE
  5
124
330
1F
100
AcDbEntity
  8
0
  6
Continuous
 62
     7
370
    25
100
AcDbLine
 10
0.3533149608
 20
-12.7214379736
 30
0.0
 11
0.2542930109
 21
-12.8204599235
 31
0.0
  0
LINE
  5
125
330
1F
100
AcDbEntity
  8
0
  6
Continuous
 62
     7
370
    25
100
AcDbLine
 10
0.1128716546
 20
-12.6790385673
 30
0.0
 11
0.2542930109
 21
-12.8204599235
 31
0.0
  0
LINE
  5
126
330
1F
100
AcDbEntity
  8
0
  6
Continuous
 62
     7
370
    25
100
AcDbLine
 10
0.2351553672
 20
-12.5567548547
 30
0.0
 11
0.1128716546
 21
-12.6790385673
 31
0.0
  0
LINE
  5
127
330
1F
100
AcDbEntity
  8
0
  6
Continuous
 62
     7
370
    25
100
AcDbLine
 10
-1.4424931083
 20
-9.3455336247
 30
0.0
 11
-2.3550816964
 21
-9.3455336247
 31
0.0
  0
LINE
  5
128
330
1F
100
AcDbEntity
  8
0
  6
Continuous
 62
     7
370
    25
100
AcDbLine
 10
-0.5136046842
 20
-11.8905381822
 30
0.0
 11
-0.4891566718
 21
-11.9357712166
 31
0.0
  0
LINE
  5
129
330
1F
100
AcDbEntity
  8
0
  6
Continuous
 62
     7
370
    25
100
AcDbLine
 10
-0.4226248711
 20
-11.8692394159
 30
0.0
 11
-0.4891566718
 21
-11.9357712166
 31
0.0
  0
LINE
  5
12A
330
1F
100
AcDbEntity
  8
0
  6
Continuous
 62
     7
370
    25
100
AcDbLine
 10
-0.4226248711
 20
-11.8692394159
 30
0.0
 11
-0.2812035149
 21
-12.0106607721
 31
0.0
  0
LINE
  5
12B
330
1F
100
AcDbEntity
  8
0
  6
Continuous
 62
     7
370
    25
100
AcDbLine
 10
-0.2812035149
 20
-12.0106607721
 30
0.0
 11
-0.3883086785
 21
-12.1177659357
 31
0.0
  0
LINE
  5
12C
330
1F
100
AcDbEntity
  8
0
  6
Continuous
 62
     7
370
    25
100
AcDbLine
 10
0.6930711256
 20
-14.6616774586
 30
0.0
 11
0.6808189425
 21
-14.8130861486
 31
0.0
  0
LINE
  5
12D
330
1F
100
AcDbEntity
  8
0
  6
Continuous
 62
     7
370
    25
100
AcDbLine
 10
0.6808189425
 20
-14.8130861486
 30
0.0
 11
-0.2314805084
 21
-14.8130861486
 31
0.0
  0
LINE
  5
12E
330
1F
100
AcDbEntity
  8
0
  6
Continuous
 62
     7
370
    25
100
AcDbLine
 10
-0.2314805084
 20
-14.8130861486
 30
0.0
 11
-0.2248455464
 21
-14.6616774586
 31
0.0
  0
LINE
  5
12F
330
1F
100
AcDbEntity
  8
0
  6
Continuous
 62
     7
370
    25
100
AcDbLine
 10
-1.0622461139
 20
-12.7917033712
 30
0.0
 11
-1.1173853731
 21
-12.8468426304
 31
0.0
  0
LINE
  5
131
330
1F
100
AcDbEntity
  8
0
  6
Continuous
 62
     7
370
    25
100
AcDbLine
 10
-1.1792125917
 20
-12.6258271365
 30
0.0
 11
-1.2588067294
 21
-12.7054212742
 31
0.0
  0
LINE
  5
132
330
1F
100
AcDbEntity
  8
0
  6
Continuous
 62
     7
370
    25
100
AcDbLine
 10
-1.2670791078
 20
-12.7136936526
 30
0.0
 11
-1.1256577516
 21
-12.8551150089
 31
0.0
  0
LINE
  5
133
330
1F
100
AcDbEntity
  8
0
  6
Continuous
 62
     7
370
    25
100
AcDbLine
 10
-1.9029894422
 20
-14.8290325904
 30
0.0
 11
-1.1737186922
 21
-14.8290325904
 31
0.0
  0
LINE
  5
134
330
1F
100
AcDbEntity
  8
0
  6
Continuous
 62
     7
370
    25
100
AcDbLine
 10
-2.8608280059
 20
-12.4209250646
 30
0.0
 11
-2.7535312689
 21
-12.3136283276
 31
0.0
  0
LINE
  5
135
330
1F
100
AcDbEntity
  8
0
  6
Continuous
 62
     7
370
    25
100
AcDbLine
 10
-2.8608280059
 20
-12.4209250646
 30
0.0
 11
-3.0022493622
 21
-12.2795037084
 31
0.0
  0
LINE
  5
136
330
1F
100
AcDbEntity
  8
0
  6
Continuous
 62
     7
370
    25
100
AcDbLine
 10
-3.0022493622
 20
-12.2795037084
 30
0.0
 11
-2.860924671
 21
-12.1381790172
 31
0.0
  0
LINE
  5
137
330
1F
100
AcDbEntity
  8
0
  6
Continuous
 62
     7
370
    25
100
AcDbLine
 10
-3.9618109013
 20
-9.5164976465
 30
0.0
 11
-3.9488358973
 21
-9.3614800665
 31
0.0
  0
LINE
  5
138
330
1F
100
AcDbEntity
  8
0
  6
Continuous
 62
     7
370
    25
100
AcDbLine
 10
-3.9488358973
 20
-9.3614800665
 30
0.0
 11
-3.118211033
 21
-9.3614800665
 31
0.0
  0
LINE
  5
139
330
1F
100
AcDbEntity
  8
0
  6
Continuous
 62
     7
370
    25
100
AcDbLine
 10
-3.1257836188
 20
-9.5164976465
 30
0.0
 11
-3.118211033
 21
-9.3614800665
 31
0.0
  0
LINE
  5
13A
330
1F
100
AcDbEntity
  8
0
  6
Continuous
 62
     7
370
    25
100
AcDbLine
 10
-2.2301370706
 20
-11.5073914167
 30
0.0
 11
-2.1929441289
 21
-11.4701984751
 31
0.0
  0
LINE
  5
13C
330
1F
100
AcDbEntity
  8
0
  6
Continuous
 62
     7
370
    25
100
AcDbLine
 10
-2.1158378043
 20
-11.675934863
 30
0.0
 11
-2.0515227727
 21
-11.6116198313
 31
0.0
  0
LINE
  5
13D
330
1F
100
AcDbEntity
  8
0
  6
Continuous
 62
     7
370
    25
100
AcDbLine
 10
-2.0040379473
 20
-11.564135006
 30
0.0
 11
-2.1454593035
 21
-11.4227136497
 31
0.0
  0
LINE
  5
13E
330
1F
100
AcDbEntity
  8
0
  6
Continuous
 62
     7
370
    25
100
AcDbLine
 10
-4.3408983944
 20
-9.3452098025
 30
0.0
 11
-4.8408983944
 21
-9.3452098025
 31
0.0
  0
LINE
  5
13F
330
1F
100
AcDbEntity
  8
0
  6
Continuous
 62
     7
370
    25
100
AcDbLine
 10
-3.5193418215
 20
-11.9027156352
 30
0.0
 11
-3.3276102996
 21
-11.7109841133
 31
0.0
  0
LINE
  5
140
330
1F
100
AcDbEntity
  8
0
  6
Continuous
 62
     7
370
    25
100
AcDbLine
 10
-3.3276102996
 20
-11.7109841133
 30
0.0
 11
-3.1861889434
 21
-11.8524054695
 31
0.0
  0
LINE
  5
141
330
1F
100
AcDbEntity
  8
0
  6
Continuous
 62
     7
370
    25
100
AcDbLine
 10
-3.4134066361
 20
-12.0796231622
 30
0.0
 11
-3.1861889434
 21
-11.8524054695
 31
0.0
  0
LINE
  5
142
330
1F
100
AcDbEntity
  8
0
  6
Continuous
 62
     7
370
    25
100
AcDbLine
 10
-2.328462838
 20
-14.5693051363
 30
0.0
 11
-2.3511180687
 21
-14.8127623263
 31
0.0
  0
LINE
  5
143
330
1F
100
AcDbEntity
  8
0
  6
Continuous
 62
     7
370
    25
100
AcDbLine
 10
-2.8512765353
 20
-14.8127623263
 30
0.0
 11
-2.3511180687
 21
-14.8127623263
 31
0.0
  0
LINE
  5
144
330
1F
100
AcDbEntity
  8
0
  6
Continuous
 62
     7
370
    25
100
AcDbLine
 10
-2.8666093476
 20
-14.5693051363
 30
0.0
 11
-2.8512765353
 21
-14.8127623263
 31
0.0
  0
LINE
  5
145
330
1F
100
AcDbEntity
  8
0
  6
Continuous
 62
     7
370
    25
100
AcDbLine
 10
-3.9243633819
 20
-12.590579908
 30
0.0
 11
-3.8187902274
 21
-12.4850067535
 31
0.0
  0
LINE
  5
147
330
1F
100
AcDbEntity
  8
0
  6
Continuous
 62
     7
370
    25
100
AcDbLine
 10
-4.0657847381
 20
-12.4491585518
 30
0.0
 11
-3.9232851845
 21
-12.3066589982
 31
0.0
  0
LINE
  5
148
330
1F
100
AcDbEntity
  8
0
  6
Continuous
 62
     7
370
    25
100
AcDbLine
 10
-4.1372349487
 20
-12.5206087624
 30
0.0
 11
-3.9958135925
 21
-12.6620301186
 31
0.0
  0
LINE
  5
149
330
1F
100
AcDbEntity
  8
0
  6
Continuous
 62
     7
370
    25
100
AcDbLine
 10
1.8438701425
 20
-18.2444889781
 30
0.0
 11
1.9428973624
 21
-18.343516198
 31
0.0
  0
LINE
  5
14A
330
1F
100
AcDbEntity
  8
0
  6
Continuous
 62
     7
370
    25
100
AcDbLine
 10
1.9428973624
 20
-18.343516198
 30
0.0
 11
1.8014760061
 21
-18.4849375543
 31
0.0
  0
LINE
  5
14B
330
1F
100
AcDbEntity
  8
0
  6
Continuous
 62
     7
370
    25
100
AcDbLine
 10
1.7256836427
 20
-18.4091451908
 30
0.0
 11
1.8014760061
 21
-18.4849375543
 31
0.0
  0
LINE
  5
14C
330
1F
100
AcDbEntity
  8
0
  6
Continuous
 62
     7
370
    25
100
AcDbLine
 10
0.814882731
 20
-20.4992430109
 30
0.0
 11
0.8161103341
 21
-20.3436811109
 31
0.0
  0
LINE
  5
14D
330
1F
100
AcDbEntity
  8
0
  6
Continuous
 62
     7
370
    25
100
AcDbLine
 10
0.1597301816
 20
-20.4992430109
 30
0.0
 11
0.814882731
 21
-20.4992430109
 31
0.0
  0
LINE
  5
14E
330
1F
100
AcDbEntity
  8
0
  6
Continuous
 62
     7
370
    25
100
AcDbLine
 10
0.1597301816
 20
-20.4992430109
 30
0.0
 11
0.1557366863
 21
-20.3436811109
 31
0.0
  0
LINE
  5
14F
330
1F
100
AcDbEntity
  8
0
  6
Continuous
 62
     7
370
    25
100
AcDbLine
 10
1.1433304685
 20
-17.8267920166
 30
0.0
 11
1.2460869114
 21
-17.9295484595
 31
0.0
  0
LINE
  5
150
330
1F
100
AcDbEntity
  8
0
  6
Continuous
 62
     7
370
    25
100
AcDbLine
 10
1.2847518247
 20
-17.6853706604
 30
0.0
 11
1.1433304685
 21
-17.8267920166
 31
0.0
  0
LINE
  5
151
330
1F
100
AcDbEntity
  8
0
  6
Continuous
 62
     7
370
    25
100
AcDbLine
 10
1.2847518247
 20
-17.6853706604
 30
0.0
 11
1.3518711339
 21
-17.7524899695
 31
0.0
  0
LINE
  5
152
330
1F
100
AcDbEntity
  8
0
  6
Continuous
 62
     7
370
    25
100
AcDbLine
 10
3.0851882115
 20
-15.0316904871
 30
0.0
 11
2.4300356615
 21
-15.0316904871
 31
0.0
  0
LINE
  5
153
330
1F
100
AcDbEntity
  8
0
  6
Continuous
 62
     7
370
    25
100
AcDbLine
 10
0.6402353997
 20
-18.289519651
 30
0.0
 11
0.7625191123
 21
-18.4118033636
 31
0.0
  0
LINE
  5
154
330
1F
100
AcDbEntity
  8
0
  6
Continuous
 62
     7
370
    25
100
AcDbLine
 10
0.7625191123
 20
-18.4118033636
 30
0.0
 11
0.621097756
 21
-18.5532247198
 31
0.0
  0
LINE
  5
155
330
1F
100
AcDbEntity
  8
0
  6
Continuous
 62
     7
370
    25
100
AcDbLine
 10
0.5220758061
 20
-18.4542027699
 30
0.0
 11
0.621097756
 21
-18.5532247198
 31
0.0
  0
LINE
  5
156
330
1F
100
AcDbEntity
  8
0
  6
Continuous
 62
     7
370
    25
100
AcDbLine
 10
-0.382645
 20
-20.535795722
 30
0.0
 11
-0.3814173969
 21
-20.3802338219
 31
0.0
  0
LINE
  5
157
330
1F
100
AcDbEntity
  8
0
  6
Continuous
 62
     7
370
    25
100
AcDbLine
 10
-1.0377975494
 20
-20.535795722
 30
0.0
 11
-0.382645
 21
-20.535795722
 31
0.0
  0
LINE
  5
158
330
1F
100
AcDbEntity
  8
0
  6
Continuous
 62
     7
370
    25
100
AcDbLine
 10
-1.0377975494
 20
-20.535795722
 30
0.0
 11
-1.0417910446
 21
-20.380233822
 31
0.0
  0
LINE
  5
159
330
1F
100
AcDbEntity
  8
0
  6
Continuous
 62
     7
370
    25
100
AcDbLine
 10
-0.0964006433
 20
-17.8357263205
 30
0.0
 11
0.0430558621
 21
-17.9751828259
 31
0.0
  0
LINE
  5
15A
330
1F
100
AcDbEntity
  8
0
  6
Continuous
 62
     7
370
    25
100
AcDbLine
 10
0.0450207129
 20
-17.6943049643
 30
0.0
 11
-0.0964006433
 21
-17.8357263205
 31
0.0
  0
LINE
  5
15B
330
1F
100
AcDbEntity
  8
0
  6
Continuous
 62
     7
370
    25
100
AcDbLine
 10
0.0450207129
 20
-17.6943049643
 30
0.0
 11
0.1489385149
 21
-17.7982227662
 31
0.0
  0
LINE
  5
15C
330
1F
100
AcDbEntity
  8
0
  6
Continuous
 62
     7
370
    25
100
AcDbLine
 10
1.8876604806
 20
-15.0682431981
 30
0.0
 11
1.2325079306
 21
-15.0682431981
 31
0.0
  0
LINE
  5
15D
330
1F
100
AcDbEntity
  8
0
  6
Continuous
 62
     7
370
    25
100
AcDbLine
 10
-0.559176427
 20
-18.3151284358
 30
0.0
 11
-0.4795822893
 21
-18.3947225735
 31
0.0
  0
LINE
  5
15F
330
1F
100
AcDbEntity
  8
0
  6
Continuous
 62
     7
370
    25
100
AcDbLine
 10
-0.6761429048
 20
-18.4810046705
 30
0.0
 11
-0.6210036455
 21
-18.5361439298
 31
0.0
  0
LINE
  5
160
330
1F
100
AcDbEntity
  8
0
  6
Continuous
 62
     7
370
    25
100
AcDbLine
 10
-1.5069085103
 20
-20.5023874479
 30
0.0
 11
-1.5135434723
 21
-20.3509787579
 31
0.0
  0
LINE
  5
161
330
1F
100
AcDbEntity
  8
0
  6
Continuous
 62
     7
370
    25
100
AcDbLine
 10
-2.4192079612
 20
-20.5023874479
 30
0.0
 11
-1.5069085103
 21
-20.5023874479
 31
0.0
  0
LINE
  5
162
330
1F
100
AcDbEntity
  8
0
  6
Continuous
 62
     7
370
    25
100
AcDbLine
 10
-2.4314601442
 20
-20.350978758
 30
0.0
 11
-2.4192079612
 21
-20.5023874479
 31
0.0
  0
LINE
  5
163
330
1F
100
AcDbEntity
  8
0
  6
Continuous
 62
     7
370
    25
100
AcDbLine
 10
-1.4571855038
 20
-17.6999620715
 30
0.0
 11
-1.3500803402
 21
-17.8070672351
 31
0.0
  0
LINE
  5
164
330
1F
100
AcDbEntity
  8
0
  6
Continuous
 62
     7
370
    25
100
AcDbLine
 10
-1.3157641476
 20
-17.5585407153
 30
0.0
 11
-1.4571855038
 21
-17.6999620715
 31
0.0
  0
LINE
  5
165
330
1F
100
AcDbEntity
  8
0
  6
Continuous
 62
     7
370
    25
100
AcDbLine
 10
-1.3157641476
 20
-17.5585407153
 30
0.0
 11
-1.2492323468
 21
-17.625072516
 31
0.0
  0
LINE
  5
166
330
1F
100
AcDbEntity
  8
0
  6
Continuous
 62
     7
370
    25
100
AcDbLine
 10
-1.2247843344
 20
-17.5798394816
 30
0.0
 11
-1.2492323468
 21
-17.625072516
 31
0.0
  0
LINE
  5
167
330
1F
100
AcDbEntity
  8
0
  6
Continuous
 62
     7
370
    25
100
AcDbLine
 10
-0.2958959103
 20
-15.0348349241
 30
0.0
 11
0.6166926777
 21
-15.0348349241
 31
0.0
  0
LINE
  5
168
330
1F
100
AcDbEntity
  8
0
  6
Continuous
 62
     7
370
    25
100
AcDbLine
 10
-0.4713099108
 20
-18.402994952
 30
0.0
 11
-0.6127312671
 21
-18.5444163082
 31
0.0
  0
LINE
  5
169
330
1F
100
AcDbEntity
  8
0
  6
Continuous
 62
     7
370
    25
100
AcDbLine
 10
-1.9479367031
 20
-18.110435305
 30
0.0
 11
-1.8836216714
 21
-18.1747503367
 31
0.0
  0
LINE
  5
16B
330
1F
100
AcDbEntity
  8
0
  6
Continuous
 62
     7
370
    25
100
AcDbLine
 10
-2.0622359694
 20
-18.2789787512
 30
0.0
 11
-2.0250430277
 21
-18.3161716929
 31
0.0
  0
LINE
  5
16C
330
1F
100
AcDbEntity
  8
0
  6
Continuous
 62
     7
370
    25
100
AcDbLine
 10
-2.9578825176
 20
-20.2698725215
 30
0.0
 11
-2.9503099317
 21
-20.4248901015
 31
0.0
  0
LINE
  5
16D
330
1F
100
AcDbEntity
  8
0
  6
Continuous
 62
     7
370
    25
100
AcDbLine
 10
-3.780934796
 20
-20.4248901015
 30
0.0
 11
-2.9503099317
 21
-20.4248901015
 31
0.0
  0
LINE
  5
16E
330
1F
100
AcDbEntity
  8
0
  6
Continuous
 62
     7
370
    25
100
AcDbLine
 10
-3.7939098001
 20
-20.2698725215
 30
0.0
 11
-3.780934796
 21
-20.4248901015
 31
0.0
  0
LINE
  5
16F
330
1F
100
AcDbEntity
  8
0
  6
Continuous
 62
     7
370
    25
100
AcDbLine
 10
-2.834348261
 20
-17.5068664596
 30
0.0
 11
-2.6930235698
 21
-17.6481911508
 31
0.0
  0
LINE
  5
170
330
1F
100
AcDbEntity
  8
0
  6
Continuous
 62
     7
370
    25
100
AcDbLine
 10
-2.6929269047
 20
-17.3654451034
 30
0.0
 11
-2.834348261
 21
-17.5068664596
 31
0.0
  0
LINE
  5
171
330
1F
100
AcDbEntity
  8
0
  6
Continuous
 62
     7
370
    25
100
AcDbLine
 10
-2.6929269047
 20
-17.3654451034
 30
0.0
 11
-2.5856301677
 21
-17.4727418404
 31
0.0
  0
LINE
  5
172
330
1F
100
AcDbEntity
  8
0
  6
Continuous
 62
     7
370
    25
100
AcDbLine
 10
-1.7350883409
 20
-14.9573375776
 30
0.0
 11
-1.0058175909
 21
-14.9573375776
 31
0.0
  0
LINE
  5
173
330
1F
100
AcDbEntity
  8
0
  6
Continuous
 62
     7
370
    25
100
AcDbLine
 10
-1.8361368461
 20
-18.222235162
 30
0.0
 11
-1.9775582023
 21
-18.3636565183
 31
0.0
  0
LINE
  5
174
330
1F
100
AcDbEntity
  8
0
  6
Continuous
 62
     7
370
    25
100
AcDbLine
 10
-3.1373412362
 20
-18.0444736841
 30
0.0
 11
-3.2798407898
 21
-17.9019741306
 31
0.0
  0
LINE
  5
176
330
1F
100
AcDbEntity
  8
0
  6
Continuous
 62
     7
370
    25
100
AcDbLine
 10
-3.2787625925
 20
-18.1858950404
 30
0.0
 11
-3.3843357469
 21
-18.0803218859
 31
0.0
  0
LINE
  5
177
330
1F
100
AcDbEntity
  8
0
  6
Continuous
 62
     7
370
    25
100
AcDbLine
 10
-4.3365166267
 20
-20.1646202687
 30
0.0
 11
-4.351849439
 21
-20.4080774587
 31
0.0
  0
LINE
  5
178
330
1F
100
AcDbEntity
  8
0
  6
Continuous
 62
     7
370
    25
100
AcDbLine
 10
-4.351849439
 20
-20.4080774587
 30
0.0
 11
-4.8520079057
 21
-20.4080774587
 31
0.0
  0
LINE
  5
179
330
1F
100
AcDbEntity
  8
0
  6
Continuous
 62
     7
370
    25
100
AcDbLine
 10
-4.8746631363
 20
-20.1646202687
 30
0.0
 11
-4.8520079057
 21
-20.4080774587
 31
0.0
  0
LINE
  5
17A
330
1F
100
AcDbEntity
  8
0
  6
Continuous
 62
     7
370
    25
100
AcDbLine
 10
-3.7897193382
 20
-17.6749382946
 30
0.0
 11
-4.0169370309
 21
-17.4477206019
 31
0.0
  0
LINE
  5
17B
330
1F
100
AcDbEntity
  8
0
  6
Continuous
 62
     7
370
    25
100
AcDbLine
 10
-3.8755156747
 20
-17.3062992456
 30
0.0
 11
-4.0169370309
 21
-17.4477206019
 31
0.0
  0
LINE
  5
17C
330
1F
100
AcDbEntity
  8
0
  6
Continuous
 62
     7
370
    25
100
AcDbLine
 10
-3.6837841528
 20
-17.4980307675
 30
0.0
 11
-3.8755156747
 21
-17.3062992456
 31
0.0
  0
LINE
  5
17D
330
1F
100
AcDbEntity
  8
0
  6
Continuous
 62
     7
370
    25
100
AcDbLine
 10
-2.8622275799
 20
-14.9405249349
 30
0.0
 11
-2.3622275799
 21
-14.9405249349
 31
0.0
  0
LINE
  5
17E
330
1F
100
AcDbEntity
  8
0
  6
Continuous
 62
     7
370
    25
100
AcDbLine
 10
-3.0658910256
 20
-18.1159238948
 30
0.0
 11
-3.2073123818
 21
-18.257345251
 31
0.0
  0
MTEXT
  5
2A0
330
1F
100
AcDbEntity
  8
0
  6
Continuous
 62
     7
100
AcDbMText
 10
-4.8746631363
 20
-20.5759361311
 30
0.0
 40
0.1903
 41
0.0
 71
     1
 72
     1
  1
SOLIDWORKS Educational Product.
  7
SLDTEXTSTYLE0
 73
     1
 44
1.0
  0
MTEXT
  5
2A1
330
1F
100
AcDbEntity
  8
0
  6
Continuous
 62
     7
100
AcDbMText
 10
-4.8746631363
 20
-20.8613861311
 30
0.0
 40
0.1903
 41
0.0
 71
     1
 72
     1
  1
For Instructional Use Only.
  7
SLDTEXTSTYLE0
 73
     1
 44
1.0
  0
SPLINE
  5
17F
330
1B
100
AcDbEntity
 67
     1
  8
0
  6
Continuous
 62
     7
370
    25
100
AcDbSpline
210
0.0
220
0.0
230
1.0
 70
     8
 71
     3
 72
    14
 73
    10
 74
     0
 42
0.00000001
 43
0.00000001
 40
0.0
 40
0.0
 40
0.0
 40
0.0
 40
0.1388419411311688
 40
0.2763816485022336
 40
0.4136053836689291
 40
0.5515061878189226
 40
0.6977617313748615
 40
0.8469187185333528
 40
1.0
 40
1.0
 40
1.0
 40
1.0
 10
0.0989718510859836
 20
-9.277817540679848
 30
0.0
 10
0.096688067224596
 20
-9.389566653434246
 30
0.0
 10
0.0921419196895597
 20
-9.612016755687883
 30
0.0
 10
0.1206683192329147
 20
-9.94416666005102
 30
0.0
 10
0.1753761047692834
 20
-10.27195781163143
 30
0.0
 10
0.2599154688490766
 20
-10.60075325946583
 30
0.0
 10
0.375753168596218
 20
-10.92994221013945
 30
0.0
 10
0.5224918968962144
 20
-11.26026262348953
 30
0.0
 10
0.6431992845107032
 20
-11.47150570478386
 30
0.0
 10
0.7043366171938629
 20
-11.57849864691724
 30
0.0
  0
SPLINE
  5
181
330
1B
100
AcDbEntity
 67
     1
  8
0
  6
Continuous
 62
     7
370
    25
100
AcDbSpline
210
0.0
220
0.0
230
1.0
 70
     8
 71
     3
 72
    16
 73
    12
 74
     0
 42
0.00000001
 43
0.00000001
 40
0.0
 40
0.0
 40
0.0
 40
0.0
 40
0.0935960416284896
 40
0.1838889927724454
 40
0.2724595367738266
 40
0.3606536733993878
 40
0.449551888288637
 40
0.5399728605533548
 40
0.6864721772690616
 40
0.8395613590433598
 40
1.0
 40
1.0
 40
1.0
 40
1.0
 10
0.7541244010859783
 20
-9.277817540679841
 30
0.0
 10
0.7501555530083122
 20
-9.355664692936982
 30
0.0
 10
0.7423579211558263
 20
-9.508611699772912
 30
0.0
 10
0.7612192698315288
 20
-9.735144987788328
 30
0.0
 10
0.8005368814504825
 20
-9.954104464703805
 30
0.0
 10
0.8600316253675724
 20
-10.16730190115402
 30
0.0
 10
0.9368174711745348
 20
-10.37641396553467
 30
0.0
 10
1.047010213239866
 20
-10.62426572936398
 30
0.0
 10
1.198388599002549
 20
-10.91157070177559
 30
0.0
 10
1.392628634255437
 20
-11.24140704567077
 30
0.0
 10
1.527808264219551
 20
-11.46450806002433
 30
0.0
 10
1.596982463585826
 20
-11.57867344167101
 30
0.0
  0
SPLINE
  5
182
330
1B
100
AcDbEntity
 67
     1
  8
0
  6
Continuous
 62
     7
370
    25
100
AcDbSpline
210
0.0
220
0.0
230
1.0
 70
     8
 71
     3
 72
    11
 73
     7
 74
     0
 42
0.00000001
 43
0.00000001
 40
0.0
 40
0.0
 40
0.0
 40
0.0
 40
0.2545177239644162
 40
0.496979389002592
 40
0.7476854702861467
 40
1.0
 40
1.0
 40
1.0
 40
1.0
 10
1.832288928733757
 20
-11.99861702311234
 30
0.0
 10
1.811667781170472
 20
-11.96336170426364
 30
0.0
 10
1.771402273696554
 20
-11.89452104928839
 30
0.0
 10
1.712118009600471
 20
-11.7902059187143
 30
0.0
 10
1.654031491426329
 20
-11.6856206533398
 30
0.0
 10
1.616043032265946
 20
-11.61439645443814
 30
0.0
 10
1.596988067125252
 20
-11.57867048246557
 30
0.0
  0
SPLINE
  5
186
330
1B
100
AcDbEntity
 67
     1
  8
0
  6
Continuous
 62
     7
370
    25
100
AcDbSpline
210
0.0
220
0.0
230
1.0
 70
     8
 71
     3
 72
    18
 73
    14
 74
     0
 42
0.00000001
 43
0.00000001
 40
0.0
 40
0.0
 40
0.0
 40
0.0
 40
0.0661432085006246
 40
0.1318459179842238
 40
0.1975867264503294
 40
0.2638117642572802
 40
0.3684293689666286
 40
0.4728925916457244
 40
0.5770086665848995
 40
0.6820204899872677
 40
0.7868015169468174
 40
0.8912181696257926
 40
1.0
 40
1.0
 40
1.0
 40
1.0
 10
3.028423376286551
 20
-14.5898081645228
 30
0.0
 10
3.026661038822018
 20
-14.53060290429908
 30
0.0
 10
3.023148100667417
 20
-14.41258667768046
 30
0.0
 10
2.998891948341577
 20
-14.23710390177914
 30
0.0
 10
2.960806705456506
 20
-14.06415983257858
 30
0.0
 10
2.897169646689419
 20
-13.86197256192403
 30
0.0
 10
2.802613969585403
 20
-13.63403030796894
 30
0.0
 10
2.674612984040125
 20
-13.38445162018048
 30
0.0
 10
2.533970641792765
 20
-13.14151857579383
 30
0.0
 10
2.387665567201646
 20
-12.90167943564982
 30
0.0
 10
2.239366223341862
 20
-12.6627569272585
 30
0.0
 10
2.088345892797532
 20
-12.42155238402224
 30
0.0
 10
1.988843161708132
 20
-12.25874561069628
 30
0.0
 10
1.938073151245922
 20
-12.17567551307604
 30
0.0
  0
SPLINE
  5
18A
330
1B
100
AcDbEntity
 67
     1
  8
0
  6
Continuous
 62
     7
370
    25
100
AcDbSpline
210
0.0
220
0.0
230
1.0
 70
     8
 71
     3
 72
    22
 73
    18
 74
     0
 42
0.00000001
 43
0.00000001
 40
0.0
 40
0.0
 40
0.0
 40
0.0
 40
0.0616353768179025
 40
0.1161054753360686
 40
0.1641899375308321
 40
0.2204159528637216
 40
0.2750492860967083
 40
0.3287627141254342
 40
0.4124512599954095
 40
0.4961781591733947
 40
0.5824636234222099
 40
0.6644840621179462
 40
0.7320457237929624
 40
0.7985261399153571
 40
0.86520648146874
 40
0.9340532988099487
 40
1.0
 40
1.0
 40
1.0
 40
1.0
 10
1.458476419886406
 20
-12.65527224443555
 30
0.0
 10
1.484338285610243
 20
-12.69150507018457
 30
0.0
 10
1.533055505621974
 20
-12.75975855825504
 30
0.0
 10
1.601486080507066
 20
-12.85660790326852
 30
0.0
 10
1.667177098903264
 20
-12.95060745721861
 30
0.0
 10
1.732194011842022
 20
-13.04521892067807
 30
0.0
 10
1.798428306705526
 20
-13.14392017915616
 30
0.0
 10
1.873971064833794
 20
-13.26024450634144
 30
0.0
 10
1.95772749955908
 20
-13.39626492276356
 30
0.0
 10
2.047818369560511
 20
-13.55588426810462
 30
0.0
 10
2.129643067595099
 20
-13.71857945883457
 30
0.0
 10
2.197697832426405
 20
-13.87485775193426
 30
0.0
 10
2.251755684212825
 20
-14.02132501507882
 30
0.0
 10
2.293880884549508
 20
-14.16014964004405
 30
0.0
 10
2.327236394620291
 20
-14.30224327600997
 30
0.0
 10
2.353492764520352
 20
-14.44550676066996
 30
0.0
 10
2.363267509216235
 20
-14.54240260931241
 30
0.0
 10
2.368049728529836
 20
-14.58980816446526
 30
0.0
  0
SPLINE
  5
18E
330
1B
100
AcDbEntity
 67
     1
  8
0
  6
Continuous
 62
     7
370
    25
100
AcDbSpline
210
0.0
220
0.0
230
1.0
 70
     8
 71
     3
 72
    15
 73
    11
 74
     0
 42
0.00000001
 43
0.00000001
 40
0.0
 40
0.0
 40
0.0
 40
0.0
 40
0.1032575374673288
 40
0.2072625212064275
 40
0.3038554418218826
 40
0.4065229433691331
 40
0.5152693874606037
 40
0.6766741197071872
 40
0.837811871188427
 40
1.0
 40
1.0
 40
1.0
 40
1.0
 10
0.7043366171947371
 20
-11.57849864691667
 30
0.0
 10
0.7252567986105796
 20
-11.61055191345734
 30
0.0
 10
0.7672485955359639
 20
-11.67489046925742
 30
0.0
 10
0.8299947496741381
 20
-11.76843179360861
 30
0.0
 10
0.8933282230924385
 20
-11.86130933022627
 30
0.0
 10
0.9583158790045295
 20
-11.95518320122587
 30
0.0
 10
1.037670784354867
 20
-12.06832733990027
 30
0.0
 10
1.130307568692456
 20
-12.19862601689686
 30
0.0
 10
1.235112391486197
 20
-12.34457630638816
 30
0.0
 10
1.305154895721911
 20
-12.44183080751671
 30
0.0
 10
1.340289920140553
 20
-12.49061603170679
 30
0.0
  0
SPLINE
  5
18F
330
1B
100
AcDbEntity
 67
     1
  8
0
  6
Continuous
 62
     7
370
    25
100
AcDbSpline
210
0.0
220
0.0
230
1.0
 70
     8
 71
     3
 72
    14
 73
    10
 74
     0
 42
0.00000001
 43
0.00000001
 40
0.0
 40
0.0
 40
0.0
 40
0.0
 40
0.1388419411311684
 40
0.2763816485022336
 40
0.4136053836689289
 40
0.551506187818922
 40
0.6977617313748623
 40
0.8469187185333522
 40
0.9999999999999999
 40
0.9999999999999999
 40
0.9999999999999999
 40
0.9999999999999999
 10
-1.012269713673289
 20
-9.335478401784963
 30
0.0
 10
-1.014553497534678
 20
-9.44722751453936
 30
0.0
 10
-1.019099645069718
 20
-9.669677616792999
 30
0.0
 10
-0.9905732455263628
 20
-10.00182752115613
 30
0.0
 10
-0.9358654599899874
 20
-10.32961867273655
 30
0.0
 10
-0.8513260959101948
 20
-10.65841412057094
 30
0.0
 10
-0.7354883961630555
 20
-10.98760307124457
 30
0.0
 10
-0.5887496678630576
 20
-11.31792348459465
 30
0.0
 10
-0.4680422802485661
 20
-11.52916656588899
 30
0.0
 10
-0.4069049475654047
 20
-11.63615950802236
 30
0.0
  0
SPLINE
  5
191
330
1B
100
AcDbEntity
 67
     1
  8
0
  6
Continuous
 62
     7
370
    25
100
AcDbSpline
210
0.0
220
0.0
230
1.0
 70
     8
 71
     3
 72
    16
 73
    12
 74
     0
 42
0.00000001
 43
0.00000001
 40
0.0
 40
0.0
 40
0.0
 40
0.0
 40
0.0935960416284906
 40
0.1838889927724456
 40
0.2724595367738286
 40
0.3606536733993893
 40
0.4495518882886381
 40
0.5399728605533585
 40
0.6864721772690641
 40
0.8395613590433627
 40
1.0
 40
1.0
 40
1.0
 40
1.0
 10
-0.357117163673298
 20
-9.33547840178496
 30
0.0
 10
-0.3610860117509597
 20
-9.413325554042098
 30
0.0
 10
-0.3688836436034365
 20
-9.566272560878026
 30
0.0
 10
-0.3500222949277496
 20
-9.79280584889345
 30
0.0
 10
-0.3107046833087974
 20
-10.01176532580893
 30
0.0
 10
-0.2512099393916907
 20
-10.22496276225914
 30
0.0
 10
-0.1744240935847393
 20
-10.43407482663979
 30
0.0
 10
-0.0642313515194014
 20
-10.6819265904691
 30
0.0
 10
0.0871470342432819
 20
-10.9692315628807
 30
0.0
 10
0.2813870694961681
 20
-11.29906790677589
 30
0.0
 10
0.4165666994602776
 20
-11.52216892112944
 30
0.0
 10
0.4857408988265494
 20
-11.63633430277613
 30
0.0
  0
SPLINE
  5
192
330
1B
100
AcDbEntity
 67
     1
  8
0
  6
Continuous
 62
     7
370
    25
100
AcDbSpline
210
0.0
220
0.0
230
1.0
 70
     8
 71
     3
 72
    11
 73
     7
 74
     0
 42
0.00000001
 43
0.00000001
 40
0.0
 40
0.0
 40
0.0
 40
0.0
 40
0.2551785152823085
 40
0.4980552225574782
 40
0.7478287506735808
 40
1.0
 40
1.0
 40
1.0
 40
1.0
 10
0.7264522520131188
 20
-12.06545796988449
 30
0.0
 10
0.7052937189584227
 20
-12.02934436855864
 30
0.0
 10
0.6639966768548274
 20
-11.9588581533465
 30
0.0
 10
0.6033303676127376
 20
-11.85224751500628
 30
0.0
 10
0.5439676030886894
 20
-11.74546672148159
 30
0.0
 10
0.5052152408428788
 20
-11.67282546863446
 30
0.0
 10
0.4857465023659754
 20
-11.63633134357069
 30
0.0
  0
SPLINE
  5
196
330
1B
100
AcDbEntity
 67
     1
  8
0
  6
Continuous
 62
     7
370
    25
100
AcDbSpline
210
0.0
220
0.0
230
1.0
 70
     8
 71
     3
 72
    18
 73
    14
 74
     0
 42
0.00000001
 43
0.00000001
 40
0.0
 40
0.0
 40
0.0
 40
0.0
 40
0.06640580113016
 40
0.1323693544349462
 40
0.1983711579775564
 40
0.2648591132814505
 40
0.3693088096796648
 40
0.4736617305811551
 40
0.5774788844262916
 40
0.6824323604404964
 40
0.7864948677188834
 40
0.8912792946714244
 40
1.0
 40
1.0
 40
1.0
 40
1.0
 10
1.917181811527293
 20
-14.64746902562791
 30
0.0
 10
1.915419474615491
 20
-14.58826376560786
 30
0.0
 10
1.911906537562678
 20
-14.47024753939525
 30
0.0
 10
1.887650377013942
 20
-14.2947647604639
 30
0.0
 10
1.849565165426693
 20
-14.12182070279621
 30
0.0
 10
1.786084229764398
 20
-13.9201298595302
 30
0.0
 10
1.691977958965465
 20
-13.69307703724122
 30
0.0
 10
1.564859190116745
 20
-13.44487121947389
 30
0.0
 10
1.425118822784403
 20
-13.20317975900669
 30
0.0
 10
1.27994478816462
 20
-12.96507491166505
 30
0.0
 10
1.132475875494638
 20
-12.72737492112758
 30
0.0
 10
0.9822289586124389
 20
-12.48744717785506
 30
0.0
 10
0.8829099529498804
 20
-12.32509216280956
 30
0.0
 10
0.8323349047868757
 20
-12.24241802958949
 30
0.0
  0
SPLINE
  5
19A
330
1B
100
AcDbEntity
 67
     1
  8
0
  6
Continuous
 62
     7
370
    25
100
AcDbSpline
210
0.0
220
0.0
230
1.0
 70
     8
 71
     3
 72
    22
 73
    18
 74
     0
 42
0.00000001
 43
0.00000001
 40
0.0
 40
0.0
 40
0.0
 40
0.0
 40
0.0606831415942399
 40
0.114343509577516
 40
0.1623435562070226
 40
0.2179589445071189
 40
0.2722305468366586
 40
0.3255082482663031
 40
0.4096025545448037
 40
0.4937354000857212
 40
0.5804392157930238
 40
0.6628573271495363
 40
0.7307465587106932
 40
0.7975493023454653
 40
0.864552940741302
 40
0.9337335589920572
 40
1.0
 40
1.0
 40
1.0
 40
1.0
 10
0.3533149608207939
 20
-12.72143797355555
 30
0.0
 10
0.3786456208405636
 20
-12.75694517223555
 30
0.0
 10
0.4263754596472323
 20
-12.82385037202704
 30
0.0
 10
0.4936855543184116
 20
-12.91916585800907
 30
0.0
 10
0.5584103232996654
 20
-13.0118461065614
 30
0.0
 10
0.6226552282084445
 20
-13.10539432900493
 30
0.0
 10
0.6879809439524521
 20
-13.2027956968552
 30
0.0
 10
0.7629919516592175
 20
-13.31833146353335
 30
0.0
 10
0.8464859210535925
 20
-13.45392580121923
 30
0.0
 10
0.936576808618793
 20
-13.61354512439119
 30
0.0
 10
1.018401501850125
 20
-13.77624032118384
 30
0.0
 10
1.086456267875419
 20
-13.93251861277647
 30
0.0
 10
1.140514119403293
 20
-14.07898587624736
 30
0.0
 10
1.182639319803634
 20
-14.21781050113225
 30
0.0
 10
1.2159948298573
 20
-14.35990413711977
 30
0.0
 10
1.242251199761969
 20
-14.50316762177394
 30
0.0
 10
1.252025944457257
 20
-14.60006347041716
 30
0.0
 10
1.256808163770568
 20
-14.64746902557038
 30
0.0
  0
SPLINE
  5
19E
330
1B
100
AcDbEntity
 67
     1
  8
0
  6
Continuous
 62
     7
370
    25
100
AcDbSpline
210
0.0
220
0.0
230
1.0
 70
     8
 71
     3
 72
    15
 73
    11
 74
     0
 42
0.00000001
 43
0.00000001
 40
0.0
 40
0.0
 40
0.0
 40
0.0
 40
0.1022963905259381
 40
0.2053332699071237
 40
0.3010270794989534
 40
0.4027389263064896
 40
0.51047313134318
 40
0.6734853848505093
 40
0.8368984476038196
 40
0.9999999999999999
 40
0.9999999999999999
 40
0.9999999999999999
 40
0.9999999999999999
 10
-0.4069049475645393
 20
-11.63615950802179
 30
0.0
 10
-0.3859847661091493
 20
-11.66821277453487
 30
0.0
 10
-0.3439929691043822
 20
-11.73255133027958
 30
0.0
 10
-0.2812468155506163
 20
-11.8260926550384
 30
0.0
 10
-0.2179133400175738
 20
-11.91897019018101
 30
0.0
 10
-0.1529256925278203
 20
-12.01284406705523
 30
0.0
 10
-0.0729025786092911
 20
-12.12694085283344
 30
0.0
 10
0.0212366127306886
 20
-12.25933236402509
 30
0.0
 10
0.1280905805698865
 20
-12.40809895301404
 30
0.0
 10
0.1994898110920773
 20
-12.50723441408588
 30
0.0
 10
0.2351553672348869
 20
-12.55675485466685
 30
0.0
  0
SPLINE
  5
19F
330
1B
100
AcDbEntity
 67
     1
  8
0
  6
Continuous
 62
     7
370
    25
100
AcDbSpline
210
0.0
220
0.0
230
1.0
 70
     8
 71
     3
 72
    15
 73
    11
 74
     0
 42
0.00000001
 43
0.00000001
 40
0.0
 40
0.0
 40
0.0
 40
0.0
 40
0.1381526731458198
 40
0.2760367255697908
 40
0.4138977492533772
 40
0.5522212540727364
 40
0.6617201444362972
 40
0.7724438191067995
 40
0.8849766019188654
 40
1.0
 40
1.0
 40
1.0
 40
1.0
 10
-2.35508169636981
 20
-9.345533624730335
 30
0.0
 10
-2.354584064059323
 20
-9.468412815183294
 30
0.0
 10
-2.3535897670226
 20
-9.713932272758312
 30
0.0
 10
-2.323501936394478
 20
-10.08111956683228
 30
0.0
 10
-2.268751466632089
 20
-10.44551178494017
 30
0.0
 10
-2.190559739277924
 20
-10.77985928368506
 30
0.0
 10
-2.094261040602357
 20
-11.08406872922086
 30
0.0
 10
-1.984373107909509
 20
-11.35901330246417
 30
0.0
 10
-1.853309059680297
 20
-11.63025030653712
 30
0.0
 10
-1.747775325732779
 20
-11.80301118201554
 30
0.0
 10
-1.694430922415819
 20
-11.89033705853096
 30
0.0
  0
SPLINE
  5
1A1
330
1B
100
AcDbEntity
 67
     1
  8
0
  6
Continuous
 62
     7
370
    25
100
AcDbSpline
210
0.0
220
0.0
230
1.0
 70
     8
 71
     3
 72
    15
 73
    11
 74
     0
 42
0.00000001
 43
0.00000001
 40
0.0
 40
0.0
 40
0.0
 40
0.0
 40
0.1096912003339399
 40
0.2159787297929212
 40
0.3211065803269194
 40
0.4269629195539212
 40
0.5350540442460214
 40
0.6818655659361534
 40
0.8363785149918652
 40
1.0
 40
1.0
 40
1.0
 40
1.0
 10
-1.44249310834597
 20
-9.345533624730331
 30
0.0
 10
-1.441927847477603
 20
-9.446076462641928
 30
0.0
 10
-1.440814865543048
 20
-9.644042337350324
 30
0.0
 10
-1.398623563968626
 20
-9.935885283833127
 30
0.0
 10
-1.33013122714684
 20
-10.21854204290962
 30
0.0
 10
-1.235839940658636
 20
-10.49545616427597
 30
0.0
 10
-1.107137429552653
 20
-10.79990983771756
 30
0.0
 10
-0.93946436419427
 20
-11.1354672475408
 30
0.0
 10
-0.7330655473670096
 20
-11.50787107552837
 30
0.0
 10
-0.5881439407186139
 20
-11.76057214682833
 30
0.0
 10
-0.5136085055358368
 20
-11.89054023617054
 30
0.0
  0
SPLINE
  5
1A6
330
1B
100
AcDbEntity
 67
     1
  8
0
  6
Continuous
 62
     7
370
    25
100
AcDbSpline
210
0.0
220
0.0
230
1.0
 70
     8
 71
     3
 72
    23
 73
    19
 74
     0
 42
0.00000001
 43
0.00000001
 40
0.0
 40
0.0
 40
0.0
 40
0.0
 40
0.0047751181773159
 40
0.0718634296143126
 40
0.1449822989739393
 40
0.2182764854518472
 40
0.2933531819229889
 40
0.3629749657373227
 40
0.4326401181555702
 40
0.5029143319852054
 40
0.5651246793845731
 40
0.627380272826917
 40
0.6898258953199851
 40
0.7522667374320212
 40
0.8141552557961043
 40
0.8757779289460458
 40
0.9375794866939678
 40
1.0
 40
1.0
 40
1.0
 40
1.0
 10
-0.3883086784577576
 20
-12.11776593574836
 30
0.0
 10
-0.386115464065505
 20
-12.12165137338934
 30
0.0
 10
-0.3531085515129597
 20
-12.18012550200041
 30
0.0
 10
-0.2857017063943152
 20
-12.29763416627521
 30
0.0
 10
-0.185010549845901
 20
-12.46984712290268
 30
0.0
 10
-0.0797110413514465
 20
-12.64800823423104
 30
0.0
 10
0.0240578208291777
 20
-12.82327823124914
 30
0.0
 10
0.1252361992570785
 20
-12.99613988270381
 30
0.0
 10
0.222899972480893
 20
-13.16585397951846
 30
0.0
 10
0.3148580579117985
 20
-13.33085356974934
 30
0.0
 10
0.3992861890222751
 20
-13.49206995558271
 30
0.0
 10
0.4746623429412261
 20
-13.64966630418391
 30
0.0
 10
0.5423710969747791
 20
-13.81098254819308
 30
0.0
 10
0.6000379055370885
 20
-13.97581866367019
 30
0.0
 10
0.6459803250431925
 20
-14.14357491419766
 30
0.0
 10
0.6773075765705923
 20
-14.31405671176511
 30
0.0
 10
0.6942424764855587
 20
-14.48719425100274
 30
0.0
 10
0.6934628707283633
 20
-14.60332351213527
 30
0.0
 10
0.6930711255970222
 20
-14.66167745864607
 30
0.0
  0
SPLINE
  5
1AA
330
1B
100
AcDbEntity
 67
     1
  8
0
  6
Continuous
 62
     7
370
    25
100
AcDbSpline
210
0.0
220
0.0
230
1.0
 70
     8
 71
     3
 72
    19
 73
    15
 74
     0
 42
0.00000001
 43
0.00000001
 40
0.0
 40
0.0
 40
0.0
 40
0.0
 40
0.0572061611180176
 40
0.1022861718699273
 40
0.1497286181577483
 40
0.1983766631686126
 40
0.2474388395607042
 40
0.2973444390629125
 40
0.3461738174191048
 40
0.4751525399525067
 40
0.6038661107514384
 40
0.7374179073365825
 40
0.8702908479915858
 40
1.0
 40
1.0
 40
1.0
 40
1.0
 10
-0.2248455463869914
 20
-14.66167745858906
 30
0.0
 10
-0.2302249249891866
 20
-14.62245040027245
 30
0.0
 10
-0.2398434002286348
 20
-14.55231135317493
 30
0.0
 10
-0.2537058074255804
 20
-14.44962292555192
 30
0.0
 10
-0.2677240818416978
 20
-14.35288605916263
 30
0.0
 10
-0.2895062119438133
 20
-14.25472183415792
 30
0.0
 10
-0.3169771042082116
 20
-14.1562919490477
 30
0.0
 10
-0.3479087441014812
 20
-14.05876712673952
 30
0.0
 10
-0.400402747872671
 20
-13.91013863410563
 30
0.0
 10
-0.4841786755841109
 20
-13.7148559170136
 30
0.0
 10
-0.6118896418742308
 20
-13.47583114591328
 30
0.0
 10
-0.7545817173209979
 20
-13.24240104589093
 30
0.0
 10
-0.9070147602670801
 20
-13.01446274986482
 30
0.0
 10
-1.010919637654472
 20
-12.86535765355369
 30
0.0
 10
-1.062246113876644
 20
-12.79170337116727
 30
0.0
  0
SPLINE
  5
1AE
330
1B
100
AcDbEntity
 67
     1
  8
0
  6
Continuous
 62
     7
370
    25
100
AcDbSpline
210
0.0
220
0.0
230
1.0
 70
     8
 71
     3
 72
    15
 73
    11
 74
     0
 42
0.00000001
 43
0.00000001
 40
0.0
 40
0.0
 40
0.0
 40
0.0
 40
0.1195298754004063
 40
0.2321692689272665
 40
0.3543775170135152
 40
0.4746346883968102
 40
0.5840755749779535
 40
0.6827009210394713
 40
0.8472524224926367
 40
1.0
 40
1.0
 40
1.0
 40
1.0
 10
-1.179212591661849
 20
-12.62582713647786
 30
0.0
 10
-1.199907255743133
 20
-12.59663917523929
 30
0.0
 10
-1.2401036084487
 20
-12.53994583728057
 30
0.0
 10
-1.301528177410951
 20
-12.45346006967169
 30
0.0
 10
-1.363110220355815
 20
-12.36681908652694
 30
0.0
 10
-1.423951853509904
 20
-12.28082673436795
 30
0.0
 10
-1.480537770949868
 20
-12.20047107352674
 30
0.0
 10
-1.54448563711327
 20
-12.10908386323033
 30
0.0
 10
-1.615424702158619
 20
-12.00676580574938
 30
0.0
 10
-1.668756856690126
 20
-11.92817204543092
 30
0.0
 10
-1.694430922415824
 20
-11.89033705853097
 30
0.0
  0
SPLINE
  5
1B0
330
1B
100
AcDbEntity
 67
     1
  8
0
  6
Continuous
 62
     7
370
    25
100
AcDbSpline
210
0.0
220
0.0
230
1.0
 70
    24
 71
     3
 72
     9
 73
     5
 74
     0
 42
0.00000001
 43
0.00000001
 40
0.0
 40
0.0
 40
0.0
 40
0.0
 40
0.5598226446349021
 40
1.0
 40
1.0
 40
1.0
 40
1.0
 10
-1.267079107806134
 20
-12.71369365262214
 30
0.0
 10
-1.26600116539964
 20
-12.71261571021565
 30
0.0
 10
-1.264075658425559
 20
-12.71069020324157
 30
0.0
 10
-1.260417130505168
 20
-12.70703167532118
 30
0.0
 10
-1.258806729360642
 20
-12.70542127417665
 30
0.0
  0
SPLINE
  5
1B1
330
1B
100
AcDbEntity
 67
     1
  8
0
  6
Continuous
 62
     7
370
    25
100
AcDbSpline
210
0.0
220
0.0
230
1.0
 70
    24
 71
     3
 72
     9
 73
     5
 74
     0
 42
0.00000001
 43
0.00000001
 40
0.0
 40
0.0
 40
0.0
 40
0.0
 40
0.5598226446350266
 40
1.0
 40
1.0
 40
1.0
 40
1.0
 10
-1.125657751568842
 20
-12.85511500885944
 30
0.0
 10
-1.124579809162349
 20
-12.85403706645295
 30
0.0
 10
-1.122654302188269
 20
-12.85211155947887
 30
0.0
 10
-1.118995774267873
 20
-12.84845303155848
 30
0.0
 10
-1.117385373123345
 20
-12.84684263041395
 30
0.0
  0
SPLINE
  5
1B3
330
1B
100
AcDbEntity
 67
     1
  8
0
  6
Continuous
 62
     7
370
    25
100
AcDbSpline
210
0.0
220
0.0
230
1.0
 70
     8
 71
     3
 72
    15
 73
    11
 74
     0
 42
0.00000001
 43
0.00000001
 40
0.0
 40
0.0
 40
0.0
 40
0.0
 40
0.1134051231147101
 40
0.2232198514507444
 40
0.331232181890468
 40
0.4389801824889636
 40
0.547720428331934
 40
0.6932051640801035
 40
0.8436230293508262
 40
1.0
 40
1.0
 40
1.0
 40
1.0
 10
-1.902989442158275
 20
-14.82903259035221
 30
0.0
 10
-1.901357916534427
 20
-14.72697075412325
 30
0.0
 10
-1.898146519223699
 20
-14.52607834912338
 30
0.0
 10
-1.931281883945861
 20
-14.22930103047061
 30
0.0
 10
-1.989673984604636
 20
-13.94207131348212
 30
0.0
 10
-2.073230873008703
 20
-13.6620806842579
 30
0.0
 10
-2.189741693816506
 20
-13.35785128285826
 30
0.0
 10
-2.344715233417595
 20
-13.02823936014027
 30
0.0
 10
-2.539128426520359
 20
-12.6707813905927
 30
0.0
 10
-2.681144162266471
 20
-12.43421104273673
 30
0.0
 10
-2.753531269024323
 20
-12.31362832747618
 30
0.0
  0
SPLINE
  5
1B7
330
1B
100
AcDbEntity
 67
     1
  8
0
  6
Continuous
 62
     7
370
    25
100
AcDbSpline
210
0.0
220
0.0
230
1.0
 70
     8
 71
     3
 72
     9
 73
     5
 74
     0
 42
0.00000001
 43
0.00000001
 40
0.0
 40
0.0
 40
0.0
 40
0.0
 40
0.5501592219350555
 40
1.0
 40
1.0
 40
1.0
 40
1.0
 10
-2.86092467104143
 20
-12.1381790172189
 30
0.0
 10
-2.942123983134366
 20
-12.0073987998202
 30
0.0
 10
-3.089716368857424
 20
-11.76968540307171
 30
0.0
 10
-3.235158162255735
 20
-11.53065058761428
 30
0.0
 10
-3.300583811761192
 20
-11.42312298024429
 30
0.0
  0
SPLINE
  5
1B8
330
1B
100
AcDbEntity
 67
     1
  8
0
  6
Continuous
 62
     7
370
    25
100
AcDbSpline
210
0.0
220
0.0
230
1.0
 70
     8
 71
     3
 72
    17
 73
    13
 74
     0
 42
0.00000001
 43
0.00000001
 40
0.0
 40
0.0
 40
0.0
 40
0.0
 40
0.0852819098984444
 40
0.1699467652466654
 40
0.2546051987276771
 40
0.3398734127373895
 40
0.4504654080669475
 40
0.5605020471172688
 40
0.6711559789732195
 40
0.7813324763642316
 40
0.8900114061688599
 40
1.0
 40
1.0
 40
1.0
 40
1.0
 10
-3.961810901263529
 20
-9.516497646525368
 30
0.0
 10
-3.963588552713094
 20
-9.574757943874625
 30
0.0
 10
-3.967130993471626
 20
-9.69085699804222
 30
0.0
 10
-3.954011974067012
 20
-9.864587405121375
 30
0.0
 10
-3.92690292021622
 20
-10.03655415360251
 30
0.0
 10
-3.880326126203204
 20
-10.22264835048785
 30
0.0
 10
-3.813175703112412
 20
-10.4207735232755
 30
0.0
 10
-3.724666387860478
 20
-10.62920425523666
 30
0.0
 10
-3.625123700261737
 20
-10.83218735858685
 30
0.0
 10
-3.519229180340366
 20
-11.03081913677737
 30
0.0
 10
-3.410797816445213
 20
-11.22754256596136
 30
0.0
 10
-3.337468210838044
 20
-11.35766971890326
 30
0.0
 10
-3.300583811761209
 20
-11.4231229802443
 30
0.0
  0
SPLINE
  5
1BC
330
1B
100
AcDbEntity
 67
     1
  8
0
  6
Continuous
 62
     7
370
    25
100
AcDbSpline
210
0.0
220
0.0
230
1.0
 70
     8
 71
     3
 72
    23
 73
    19
 74
     0
 42
0.00000001
 43
0.00000001
 40
0.0
 40
0.0
 40
0.0
 40
0.0
 40
0.0739019728868498
 40
0.1442878226852711
 40
0.2098071731303806
 40
0.2793369957900522
 40
0.3487749704345996
 40
0.457387960376209
 40
0.5653228851129365
 40
0.6726063313875204
 40
0.7641094471171337
 40
0.8563823573823038
 40
0.8797347775513329
 40
0.9032041607986779
 40
0.9200481957531249
 40
0.9338655081896925
 40
0.9605161095195602
 40
1.0
 40
1.0
 40
1.0
 40
1.0
 10
-2.230137070570846
 20
-11.50739141674623
 30
0.0
 10
-2.261449929793059
 20
-11.46268494395541
 30
0.0
 10
-2.32258583865629
 20
-11.37539905202391
 30
0.0
 10
-2.41064317197993
 20
-11.24789205052984
 30
0.0
 10
-2.495820140481094
 20
-11.12232611097479
 30
0.0
 10
-2.579022936085079
 20
-10.99627548850505
 30
0.0
 10
-2.676793742235807
 20
-10.84173921433123
 30
0.0
 10
-2.783361743705504
 20
-10.65926737844534
 30
0.0
 10
-2.892071245079299
 20
-10.44605193695767
 30
0.0
 10
-2.979324538180179
 20
-10.2366350426638
 30
0.0
 10
-3.044224171347926
 20
-10.03155224500926
 30
0.0
 10
-3.080919651445162
 20
-9.882778906786719
 30
0.0
 10
-3.09764653460072
 20
-9.781392467978286
 30
0.0
 10
-3.103452050788789
 20
-9.734721863606687
 30
0.0
 10
-3.107651101011153
 20
-9.694963896330798
 30
0.0
 10
-3.111909804883583
 20
-9.652849800508791
 30
0.0
 10
-3.117899245445944
 20
-9.594104545218242
 30
0.0
 10
-3.122836160889605
 20
-9.54550985275364
 30
0.0
 10
-3.125783618764505
 20
-9.516497646525362
 30
0.0
  0
SPLINE
  5
1C0
330
1B
100
AcDbEntity
 67
     1
  8
0
  6
Continuous
 62
     7
370
    25
100
AcDbSpline
210
0.0
220
0.0
230
1.0
 70
     8
 71
     3
 72
    16
 73
    12
 74
     0
 42
0.00000001
 43
0.00000001
 40
0.0
 40
0.0
 40
0.0
 40
0.0
 40
0.1061962336943633
 40
0.2150477171803776
 40
0.3253569680077784
 40
0.436937457254529
 40
0.5496165324905811
 40
0.6611920254307145
 40
0.7735227469210181
 40
0.8864882859355776
 40
0.9999999999999999
 40
0.9999999999999999
 40
0.9999999999999999
 40
0.9999999999999999
 10
-1.173718692158296
 20
-14.82903259035221
 30
0.0
 10
-1.174571265720742
 20
-14.71086232599937
 30
0.0
 10
-1.176297729946016
 20
-14.47156715795398
 30
0.0
 10
-1.213018903089664
 20
-14.11108902139888
 30
0.0
 10
-1.27160496089651
 20
-13.74774732965422
 30
0.0
 10
-1.355096942768464
 20
-13.38481265654848
 30
0.0
 10
-1.46175878038624
 20
-13.02658927098024
 30
0.0
 10
-1.591017864090361
 20
-12.67495695413314
 30
0.0
 10
-1.742653096213885
 20
-12.3321193917856
 30
0.0
 10
-1.915359433830943
 20
-11.99673282694418
 30
0.0
 10
-2.048904328003264
 20
-11.78303929955811
 30
0.0
 10
-2.115837804261763
 20
-11.67593486302732
 30
0.0
  0
SPLINE
  5
1C2
330
1B
100
AcDbEntity
 67
     1
  8
0
  6
Continuous
 62
     7
370
    25
100
AcDbSpline
210
0.0
220
0.0
230
1.0
 70
    24
 71
     3
 72
     9
 73
     5
 74
     0
 42
0.00000001
 43
0.00000001
 40
0.0
 40
0.0
 40
0.0
 40
0.0
 40
0.5603194205071084
 40
0.9999999999999999
 40
0.9999999999999999
 40
0.9999999999999999
 40
0.9999999999999999
 10
-2.004037947305385
 20
-11.56413500595747
 30
0.0
 10
-2.012257435541915
 20
-11.57235449419401
 30
0.0
 10
-2.026926725835462
 20
-11.58702378448756
 30
0.0
 10
-2.044011103559538
 20
-11.60410816221163
 30
0.0
 10
-2.051522772657535
 20
-11.61161983130962
 30
0.0
  0
SPLINE
  5
1C3
330
1B
100
AcDbEntity
 67
     1
  8
0
  6
Continuous
 62
     7
370
    25
100
AcDbSpline
210
0.0
220
0.0
230
1.0
 70
    24
 71
     3
 72
     9
 73
     5
 74
     0
 42
0.00000001
 43
0.00000001
 40
0.0
 40
0.0
 40
0.0
 40
0.0
 40
0.5603194205070622
 40
1.0
 40
1.0
 40
1.0
 40
1.0
 10
-2.145459303542695
 20
-11.42271364972016
 30
0.0
 10
-2.153678791779225
 20
-11.4309331379567
 30
0.0
 10
-2.168348082072773
 20
-11.44560242825025
 30
0.0
 10
-2.18543245979685
 20
-11.46268680597431
 30
0.0
 10
-2.192944128894849
 20
-11.47019847507231
 30
0.0
  0
SPLINE
  5
1C5
330
1B
100
AcDbEntity
 67
     1
  8
0
  6
Continuous
 62
     7
370
    25
100
AcDbSpline
210
0.0
220
0.0
230
1.0
 70
     8
 71
     3
 72
    15
 73
    11
 74
     0
 42
0.00000001
 43
0.00000001
 40
0.0
 40
0.0
 40
0.0
 40
0.0
 40
0.1147443170662938
 40
0.2260013673273854
 40
0.3352887534403064
 40
0.4439278188730401
 40
0.5530184674557262
 40
0.69798051304575
 40
0.8466524511605934
 40
1.0
 40
1.0
 40
1.0
 40
1.0
 10
-4.340898394418875
 20
-9.345209802491388
 30
0.0
 10
-4.341886081594067
 20
-9.44954541816364
 30
0.0
 10
-4.343831438521469
 20
-9.655045720102335
 30
0.0
 10
-4.3111738823595
 20
-9.958598657518719
 30
0.0
 10
-4.254773114407835
 20
-10.25263182589726
 30
0.0
 10
-4.174552340234866
 20
-10.53909028524557
 30
0.0
 10
-4.062946270066044
 20
-10.84943733588115
 30
0.0
 10
-3.914387399431756
 20
-11.18422252972884
 30
0.0
 10
-3.727518089466555
 20
-11.54507061505764
 30
0.0
 10
-3.589446413886227
 20
-11.78227655439328
 30
0.0
 10
-3.51934182153719
 20
-11.90271563510988
 30
0.0
  0
SPLINE
  5
1C9
330
1B
100
AcDbEntity
 67
     1
  8
0
  6
Continuous
 62
     7
370
    25
100
AcDbSpline
210
0.0
220
0.0
230
1.0
 70
     8
 71
     3
 72
    10
 73
     6
 74
     0
 42
0.00000001
 43
0.00000001
 40
0.0
 40
0.0
 40
0.0
 40
0.0
 40
0.2701242010291363
 40
0.5477407187696736
 40
1.0
 40
1.0
 40
1.0
 40
1.0
 10
-3.413406636096547
 20
-12.07962316223332
 30
0.0
 10
-3.355323388629551
 20
-12.17482347501525
 30
0.0
 10
-3.237545864087728
 20
-12.36786462997882
 30
0.0
 10
-3.019571270257262
 20
-12.71848538896221
 30
0.0
 10
-2.86412166279472
 20
-12.97662563069223
 30
0.0
 10
-2.767799072242087
 20
-13.1365793109568
 30
0.0
  0
SPLINE
  5
1CA
330
1B
100
AcDbEntity
 67
     1
  8
0
  6
Continuous
 62
     7
370
    25
100
AcDbSpline
210
0.0
220
0.0
230
1.0
 70
     8
 71
     3
 72
    15
 73
    11
 74
     0
 42
0.00000001
 43
0.00000001
 40
0.0
 40
0.0
 40
0.0
 40
0.0
 40
0.1473891260704276
 40
0.2920688109260817
 40
0.4389063184073672
 40
0.5533353762394176
 40
0.6672767093597627
 40
0.780812510181678
 40
0.8928568106394068
 40
1.0
 40
1.0
 40
1.0
 40
1.0
 10
-2.328462838039423
 20
-14.56930513634377
 30
0.0
 10
-2.328787916530576
 20
-14.49469373481544
 30
0.0
 10
-2.329432097623849
 20
-14.34684250652675
 30
0.0
 10
-2.362055843689644
 20
-14.12654684694397
 30
0.0
 10
-2.414067585819484
 20
-13.92766251714707
 30
0.0
 10
-2.476557651073907
 20
-13.74837260326438
 30
0.0
 10
-2.54259749019306
 20
-13.58850236125595
 30
0.0
 10
-2.615025494346856
 20
-13.43278891266879
 30
0.0
 10
-2.690595385825433
 20
-13.28243472155359
 30
0.0
 10
-2.742449787857533
 20
-13.18446693461776
 30
0.0
 10
-2.767797247334854
 20
-13.13657833862351
 30
0.0
  0
SPLINE
  5
1CE
330
1B
100
AcDbEntity
 67
     1
  8
0
  6
Continuous
 62
     7
370
    25
100
AcDbSpline
210
0.0
220
0.0
230
1.0
 70
     8
 71
     3
 72
    20
 73
    16
 74
     0
 42
0.00000001
 43
0.00000001
 40
0.0
 40
0.0
 40
0.0
 40
0.0
 40
0.0496754085942817
 40
0.0969900005712444
 40
0.2472851033418689
 40
0.3970726082781992
 40
0.5465907135059085
 40
0.6737065036953797
 40
0.8012621816331036
 40
0.8567717766488613
 40
0.9118119132222372
 40
0.9329708869731653
 40
0.9477421997905395
 40
0.9667922549397614
 40
1.0
 40
1.0
 40
1.0
 40
1.0
 10
-3.417967946703117
 20
-13.1365796674372
 30
0.0
 10
-3.404226515699059
 20
-13.15827605122546
 30
0.0
 10
-3.377396713214318
 20
-13.20063770129669
 30
0.0
 10
-3.310470946773049
 20
-13.309565170753
 30
0.0
 10
-3.220324068961663
 20
-13.4649809576575
 30
0.0
 10
-3.114384853819194
 20
-13.67201037792694
 30
0.0
 10
-3.027194361184338
 20
-13.87475784367176
 30
0.0
 10
-2.960468073650909
 20
-14.07295677358151
 30
0.0
 10
-2.919275091505702
 20
-14.22807407555662
 30
0.0
 10
-2.894292388160538
 20
-14.34864776209427
 30
0.0
 10
-2.884096735896051
 20
-14.4160078491538
 30
0.0
 10
-2.878519084230561
 20
-14.46270638753311
 30
0.0
 10
-2.875324713089478
 20
-14.49095058280309
 30
0.0
 10
-2.871500722014418
 20
-14.52539211272929
 30
0.0
 10
-2.868509897305745
 20
-14.55224267580711
 30
0.0
 10
-2.866609347645268
 20
-14.56930513633622
 30
0.0
  0
SPLINE
  5
1CF
330
1B
100
AcDbEntity
 67
     1
  8
0
  6
Continuous
 62
     7
370
    25
100
AcDbSpline
210
0.0
220
0.0
230
1.0
 70
     8
 71
     3
 72
     9
 73
     5
 74
     0
 42
0.00000001
 43
0.00000001
 40
0.0
 40
0.0
 40
0.0
 40
0.0
 40
0.5543881723617096
 40
1.0
 40
1.0
 40
1.0
 40
1.0
 10
-3.818790227395851
 20
-12.48500675350576
 30
0.0
 10
-3.7458169462513
 20
-12.60609078681877
 30
0.0
 10
-3.614188450582495
 20
-12.82450098990298
 30
0.0
 10
-3.478452799106962
 20
-13.04038074066819
 30
0.0
 10
-3.417967387377277
 20
-13.13657931095677
 30
0.0
  0
SPLINE
  5
1D3
330
1B
100
AcDbEntity
 67
     1
  8
0
  6
Continuous
 62
     7
370
    25
100
AcDbSpline
210
0.0
220
0.0
230
1.0
 70
     8
 71
     3
 72
    15
 73
    11
 74
     0
 42
0.00000001
 43
0.00000001
 40
0.0
 40
0.0
 40
0.0
 40
0.0
 40
0.1125465095915466
 40
0.2227925430071259
 40
0.3319221184564897
 40
0.4409567113837386
 40
0.5507421891863488
 40
0.6967313200651366
 40
0.8462478490398941
 40
0.9999999999999999
 40
0.9999999999999999
 40
0.9999999999999999
 40
0.9999999999999999
 10
-4.840898394418886
 20
-9.345209802491395
 30
0.0
 10
-4.841476922573614
 20
-9.463174480950691
 30
0.0
 10
-4.842622153636404
 20
-9.696692613093086
 30
0.0
 10
-4.805984786159698
 20
-10.04308744177805
 30
0.0
 10
-4.743663456273823
 20
-10.38167200172981
 30
0.0
 10
-4.65521910360293
 20
-10.7139569948258
 30
0.0
 10
-4.531962054541603
 20
-11.07592749236773
 30
0.0
 10
-4.367219980122695
 20
-11.46757466622832
 30
0.0
 10
-4.158803226598423
 20
-11.88980550690408
 30
0.0
 10
-4.00251878432101
 20
-12.16642004923023
 30
0.0
 10
-3.923285184705932
 20
-12.30665899800207
 30
0.0
  0
SPLINE
  5
1D5
330
1B
100
AcDbEntity
 67
     1
  8
0
  6
Continuous
 62
     7
370
    25
100
AcDbSpline
210
0.0
220
0.0
230
1.0
 70
    24
 71
     3
 72
     9
 73
     5
 74
     0
 42
0.00000001
 43
0.00000001
 40
0.0
 40
0.0
 40
0.0
 40
0.0
 40
0.5599137314597047
 40
1.0
 40
1.0
 40
1.0
 40
1.0
 10
-3.995813592476332
 20
-12.66203011861313
 30
0.0
 10
-3.983598789770229
 20
-12.64981531590703
 30
0.0
 10
-3.961783281380645
 20
-12.62799980751744
 30
0.0
 10
-3.935798796746541
 20
-12.60201532288334
 30
0.0
 10
-3.924363381863975
 20
-12.59057990800078
 30
0.0
  0
SPLINE
  5
1D6
330
1B
100
AcDbEntity
 67
     1
  8
0
  6
Continuous
 62
     7
370
    25
100
AcDbSpline
210
0.0
220
0.0
230
1.0
 70
    24
 71
     3
 72
     9
 73
     5
 74
     0
 42
0.00000001
 43
0.00000001
 40
0.0
 40
0.0
 40
0.0
 40
0.0
 40
0.5599137314596636
 40
1.0
 40
1.0
 40
1.0
 40
1.0
 10
-4.137234948713636
 20
-12.52060876237582
 30
0.0
 10
-4.125020146007543
 20
-12.50839395966971
 30
0.0
 10
-4.103204637617973
 20
-12.48657845128013
 30
0.0
 10
-4.077220152983868
 20
-12.46059396664604
 30
0.0
 10
-4.065784738101302
 20
-12.44915855176348
 30
0.0
  0
SPLINE
  5
1DA
330
1B
100
AcDbEntity
 67
     1
  8
0
  6
Continuous
 62
     7
370
    25
100
AcDbSpline
210
0.0
220
0.0
230
1.0
 70
     8
 71
     3
 72
    22
 73
    18
 74
     0
 42
0.00000001
 43
0.00000001
 40
0.0
 40
0.0
 40
0.0
 40
0.0
 40
0.0616353768179079
 40
0.116105475336075
 40
0.164189937530838
 40
0.2204159528637266
 40
0.2750492860967119
 40
0.328762714125439
 40
0.4124512599954115
 40
0.4961781591733957
 40
0.5824636234222109
 40
0.6644840621179456
 40
0.7320457237929603
 40
0.7985261399153543
 40
0.8652064814687385
 40
0.9340532988099455
 40
1.0
 40
1.0
 40
1.0
 40
1.0
 10
1.725683642714164
 20
-18.40914519083485
 30
0.0
 10
1.699821776990322
 20
-18.44537801658387
 30
0.0
 10
1.651104556978582
 20
-18.51363150465435
 30
0.0
 10
1.582673982093495
 20
-18.61048084966783
 30
0.0
 10
1.516982963697292
 20
-18.70448040361792
 30
0.0
 10
1.451966050758543
 20
-18.79909186707738
 30
0.0
 10
1.385731755895034
 20
-18.89779312555548
 30
0.0
 10
1.310188997766772
 20
-19.01411745274075
 30
0.0
 10
1.226432563041484
 20
-19.15013786916288
 30
0.0
 10
1.136341693040062
 20
-19.30975721450393
 30
0.0
 10
1.054516995005469
 20
-19.47245240523389
 30
0.0
 10
0.9864622301741773
 20
-19.62873069833358
 30
0.0
 10
0.9324043783877546
 20
-19.77519796147814
 30
0.0
 10
0.8902791780510695
 20
-19.91402258644337
 30
0.0
 10
0.8569236679802902
 20
-20.05611622240929
 30
0.0
 10
0.8306672980802259
 20
-20.19937970706928
 30
0.0
 10
0.8208925533843442
 20
-20.29627555571174
 30
0.0
 10
0.8161103340707436
 20
-20.34368111086459
 30
0.0
  0
SPLINE
  5
1DE
330
1B
100
AcDbEntity
 67
     1
  8
0
  6
Continuous
 62
     7
370
    25
100
AcDbSpline
210
0.0
220
0.0
230
1.0
 70
     8
 71
     3
 72
    18
 73
    14
 74
     0
 42
0.00000001
 43
0.00000001
 40
0.0
 40
0.0
 40
0.0
 40
0.0
 40
0.0661432085006203
 40
0.1318459179842196
 40
0.1975867264503254
 40
0.2638117642572753
 40
0.3684293689666246
 40
0.4728925916457206
 40
0.5770086665848958
 40
0.682020489987264
 40
0.7868015169468154
 40
0.8912181696257905
 40
1.0
 40
1.0
 40
1.0
 40
1.0
 10
0.1557366863140016
 20
-20.34368111092212
 30
0.0
 10
0.157499023778547
 20
-20.2844758506984
 30
0.0
 10
0.1610119619331696
 20
-20.16645962407979
 30
0.0
 10
0.1852681142589996
 20
-19.99097684817848
 30
0.0
 10
0.2233533571440768
 20
-19.81803277897792
 30
0.0
 10
0.2869904159111473
 20
-19.61584550832336
 30
0.0
 10
0.3815460930151726
 20
-19.38790325436827
 30
0.0
 10
0.5095470785604321
 20
-19.1383245665798
 30
0.0
 10
0.6501894208078025
 20
-18.89539152219316
 30
0.0
 10
0.7964944953989025
 20
-18.65555238204914
 30
0.0
 10
0.9447938392587042
 20
-18.41662987365783
 30
0.0
 10
1.095814169803021
 20
-18.17542533042156
 30
0.0
 10
1.195316900892418
 20
-18.01261855709559
 30
0.0
 10
1.246086911354628
 20
-17.92954845947534
 30
0.0
  0
SPLINE
  5
1E2
330
1B
100
AcDbEntity
 67
     1
  8
0
  6
Continuous
 62
     7
370
    25
100
AcDbSpline
210
0.0
220
0.0
230
1.0
 70
     8
 71
     3
 72
    11
 73
     7
 74
     0
 42
0.00000001
 43
0.00000001
 40
0.0
 40
0.0
 40
0.0
 40
0.0
 40
0.2545177239643938
 40
0.496979389002573
 40
0.747685470286127
 40
1.0
 40
1.0
 40
1.0
 40
1.0
 10
1.351871133866805
 20
-17.75248996951165
 30
0.0
 10
1.372492281430083
 20
-17.71723465066294
 30
0.0
 10
1.41275778890399
 20
-17.6483939956877
 30
0.0
 10
1.472042053000074
 20
-17.54407886511361
 30
0.0
 10
1.530128571174212
 20
-17.4394935997391
 30
0.0
 10
1.568117030334595
 20
-17.36826940083744
 30
0.0
 10
1.587171995475288
 20
-17.33254342886487
 30
0.0
  0
SPLINE
  5
1E3
330
1B
100
AcDbEntity
 67
     1
  8
0
  6
Continuous
 62
     7
370
    25
100
AcDbSpline
210
0.0
220
0.0
230
1.0
 70
     8
 71
     3
 72
    16
 73
    12
 74
     0
 42
0.00000001
 43
0.00000001
 40
0.0
 40
0.0
 40
0.0
 40
0.0
 40
0.0935960416284901
 40
0.1838889927724461
 40
0.2724595367738278
 40
0.3606536733993891
 40
0.4495518882886381
 40
0.5399728605533566
 40
0.6864721772690612
 40
0.8395613590433605
 40
1.0
 40
1.0
 40
1.0
 40
1.0
 10
2.430035661514544
 20
-15.03169048707913
 30
0.0
 10
2.434004509592206
 20
-15.10953763933627
 30
0.0
 10
2.441802141444681
 20
-15.2624846461722
 30
0.0
 10
2.422940792769003
 20
-15.48901793418761
 30
0.0
 10
2.383623181150044
 20
-15.70797741110309
 30
0.0
 10
2.324128437232951
 20
-15.92117484755331
 30
0.0
 10
2.247342591425986
 20
-16.13028691193396
 30
0.0
 10
2.137149849360672
 20
-16.37813867576328
 30
0.0
 10
1.985771463597983
 20
-16.66544364817488
 30
0.0
 10
1.7915314283451
 20
-16.99527999207007
 30
0.0
 10
1.656351798380987
 20
-17.21838100642362
 30
0.0
 10
1.587177599014714
 20
-17.33254638807032
 30
0.0
  0
SPLINE
  5
1E5
330
1B
100
AcDbEntity
 67
     1
  8
0
  6
Continuous
 62
     7
370
    25
100
AcDbSpline
210
0.0
220
0.0
230
1.0
 70
     8
 71
     3
 72
    14
 73
    10
 74
     0
 42
0.00000001
 43
0.00000001
 40
0.0
 40
0.0
 40
0.0
 40
0.0
 40
0.1388419411311682
 40
0.2763816485022333
 40
0.4136053836689295
 40
0.5515061878189216
 40
0.6977617313748641
 40
0.8469187185333524
 40
1.0
 40
1.0
 40
1.0
 40
1.0
 10
3.085188211514539
 20
-15.03169048707912
 30
0.0
 10
3.087471995375928
 20
-15.14343959983352
 30
0.0
 10
3.092018142910967
 20
-15.36588970208716
 30
0.0
 10
3.063491743367618
 20
-15.69803960645029
 30
0.0
 10
3.00878395783124
 20
-16.02583075803071
 30
0.0
 10
2.924244593751462
 20
-16.35462620586511
 30
0.0
 10
2.808406894004312
 20
-16.68381515653873
 30
0.0
 10
2.661668165704326
 20
-17.01413556988881
 30
0.0
 10
2.540960778089838
 20
-17.22537865118315
 30
0.0
 10
2.479823445406677
 20
-17.33237159331653
 30
0.0
  0
SPLINE
  5
1E6
330
1B
100
AcDbEntity
 67
     1
  8
0
  6
Continuous
 62
     7
370
    25
100
AcDbSpline
210
0.0
220
0.0
230
1.0
 70
     8
 71
     3
 72
    15
 73
    11
 74
     0
 42
0.00000001
 43
0.00000001
 40
0.0
 40
0.0
 40
0.0
 40
0.0
 40
0.1032575374673318
 40
0.2072625212064324
 40
0.3038554418218877
 40
0.40652294336914
 40
0.5152693874606125
 40
0.676674119707194
 40
0.8378118711884335
 40
0.9999999999999999
 40
0.9999999999999999
 40
0.9999999999999999
 40
0.9999999999999999
 10
2.479823445405803
 20
-17.33237159331596
 30
0.0
 10
2.458903263989963
 20
-17.36442485985663
 30
0.0
 10
2.416911467064582
 20
-17.42876341565671
 30
0.0
 10
2.354165312926406
 20
-17.52230474000791
 30
0.0
 10
2.290831839508106
 20
-17.61518227662556
 30
0.0
 10
2.225844183596016
 20
-17.70905614762518
 30
0.0
 10
2.146489278245678
 20
-17.82220028629957
 30
0.0
 10
2.053852493908092
 20
-17.95249896329617
 30
0.0
 10
1.949047671114358
 20
-18.09844925278746
 30
0.0
 10
1.879005166878646
 20
-18.195703753916
 30
0.0
 10
1.843870142460005
 20
-18.24448897810609
 30
0.0
  0
SPLINE
  5
1EA
330
1B
100
AcDbEntity
 67
     1
  8
0
  6
Continuous
 62
     7
370
    25
100
AcDbSpline
210
0.0
220
0.0
230
1.0
 70
     8
 71
     3
 72
    22
 73
    18
 74
     0
 42
0.00000001
 43
0.00000001
 40
0.0
 40
0.0
 40
0.0
 40
0.0
 40
0.0606831415942446
 40
0.1143435095775215
 40
0.162343556207028
 40
0.2179589445071231
 40
0.2722305468366628
 40
0.325508248266308
 40
0.4096025545448074
 40
0.4937354000857239
 40
0.580439215793029
 40
0.6628573271495406
 40
0.7307465587106964
 40
0.7975493023454685
 40
0.8645529407413062
 40
0.9337335589920603
 40
1.0
 40
1.0
 40
1.0
 40
1.0
 10
0.5220758060779115
 20
-18.45420276990136
 30
0.0
 10
0.4967451460581386
 20
-18.48970996858137
 30
0.0
 10
0.449015307251465
 20
-18.55661516837286
 30
0.0
 10
0.3817052125802863
 20
-18.65193065435489
 30
0.0
 10
0.3169804435990306
 20
-18.74461090290723
 30
0.0
 10
0.2527355386902574
 20
-18.83815912535075
 30
0.0
 10
0.187409822946248
 20
-18.93556049320102
 30
0.0
 10
0.1123988152394847
 20
-19.05109625987918
 30
0.0
 10
0.0289048458451117
 20
-19.18669059756505
 30
0.0
 10
-0.0611860417200803
 20
-19.34630992073702
 30
0.0
 10
-0.1430107349514287
 20
-19.50900511752966
 30
0.0
 10
-0.2110655009767058
 20
-19.6652834091223
 30
0.0
 10
-0.2651233525045832
 20
-19.81175067259318
 30
0.0
 10
-0.307248552904927
 20
-19.95057529747808
 30
0.0
 10
-0.3406040629585781
 20
-20.0926689334656
 30
0.0
 10
-0.3668604328632508
 20
-20.23593241811977
 30
0.0
 10
-0.376635177558539
 20
-20.33282826676298
 30
0.0
 10
-0.3814173968718493
 20
-20.3802338219162
 30
0.0
  0
SPLINE
  5
1EE
330
1B
100
AcDbEntity
 67
     1
  8
0
  6
Continuous
 62
     7
370
    25
100
AcDbSpline
210
0.0
220
0.0
230
1.0
 70
     8
 71
     3
 72
    18
 73
    14
 74
     0
 42
0.00000001
 43
0.00000001
 40
0.0
 40
0.0
 40
0.0
 40
0.0
 40
0.0664058011301552
 40
0.132369354434943
 40
0.1983711579775531
 40
0.2648591132814472
 40
0.3693088096796613
 40
0.4736617305811515
 40
0.5774788844262879
 40
0.6824323604404916
 40
0.7864948677188803
 40
0.8912792946714201
 40
1.0
 40
1.0
 40
1.0
 40
1.0
 10
-1.041791044628591
 20
-20.38023382197374
 30
0.0
 10
-1.040028707716787
 20
-20.3210285619537
 30
0.0
 10
-1.036515770663964
 20
-20.20301233574109
 30
0.0
 10
-1.012259610115233
 20
-20.02752955680974
 30
0.0
 10
-0.9741743985279816
 20
-19.85458549914204
 30
0.0
 10
-0.910693462865688
 20
-19.65289465587604
 30
0.0
 10
-0.8165871920667517
 20
-19.42584183358706
 30
0.0
 10
-0.6894684232180476
 20
-19.17763601581971
 30
0.0
 10
-0.5497280558856984
 20
-18.93594455535253
 30
0.0
 10
-0.4045540212659314
 20
-18.69783970801087
 30
0.0
 10
-0.257085108595932
 20
-18.46013971747341
 30
0.0
 10
-0.1068381917137479
 20
-18.22021197420088
 30
0.0
 10
-0.0075191860511834
 20
-18.05785695915538
 30
0.0
 10
0.0430558621118256
 20
-17.97518282593531
 30
0.0
  0
SPLINE
  5
1F2
330
1B
100
AcDbEntity
 67
     1
  8
0
  6
Continuous
 62
     7
370
    25
100
AcDbSpline
210
0.0
220
0.0
230
1.0
 70
     8
 71
     3
 72
    11
 73
     7
 74
     0
 42
0.00000001
 43
0.00000001
 40
0.0
 40
0.0
 40
0.0
 40
0.0
 40
0.2551785152823062
 40
0.4980552225574743
 40
0.7478287506735708
 40
1.0
 40
1.0
 40
1.0
 40
1.0
 10
0.1489385148855734
 20
-17.79822276623032
 30
0.0
 10
0.1700970479402677
 20
-17.76210916490446
 30
0.0
 10
0.2113940900438593
 20
-17.69162294969232
 30
0.0
 10
0.2720603992859508
 20
-17.5850123113521
 30
0.0
 10
0.3314231638099961
 20
-17.4782315178274
 30
0.0
 10
0.3701755260558018
 20
-17.40559026498028
 30
0.0
 10
0.3896442645327036
 20
-17.3690961399165
 30
0.0
  0
SPLINE
  5
1F3
330
1B
100
AcDbEntity
 67
     1
  8
0
  6
Continuous
 62
     7
370
    25
100
AcDbSpline
210
0.0
220
0.0
230
1.0
 70
     8
 71
     3
 72
    16
 73
    12
 74
     0
 42
0.00000001
 43
0.00000001
 40
0.0
 40
0.0
 40
0.0
 40
0.0
 40
0.0935960416284904
 40
0.1838889927724449
 40
0.2724595367738288
 40
0.3606536733993905
 40
0.4495518882886397
 40
0.5399728605533568
 40
0.6864721772690618
 40
0.8395613590433608
 40
1.0
 40
1.0
 40
1.0
 40
1.0
 10
1.232507930571969
 20
-15.06824319813076
 30
0.0
 10
1.23647677864963
 20
-15.1460903503879
 30
0.0
 10
1.244274410502105
 20
-15.29903735722383
 30
0.0
 10
1.225413061826428
 20
-15.52557064523926
 30
0.0
 10
1.186095450207464
 20
-15.74453012215473
 30
0.0
 10
1.126600706290371
 20
-15.95772755860495
 30
0.0
 10
1.049814860483406
 20
-16.1668396229856
 30
0.0
 10
0.93962211841809
 20
-16.41469138681491
 30
0.0
 10
0.7882437326554063
 20
-16.70199635922652
 30
0.0
 10
0.5940036974025141
 20
-17.03183270312169
 30
0.0
 10
0.4588240674384028
 20
-17.25493371747525
 30
0.0
 10
0.3896498680721299
 20
-17.36909909912194
 30
0.0
  0
SPLINE
  5
1F5
330
1B
100
AcDbEntity
 67
     1
  8
0
  6
Continuous
 62
     7
370
    25
100
AcDbSpline
210
0.0
220
0.0
230
1.0
 70
     8
 71
     3
 72
    14
 73
    10
 74
     0
 42
0.00000001
 43
0.00000001
 40
0.0
 40
0.0
 40
0.0
 40
0.0
 40
0.1388419411311684
 40
0.2763816485022337
 40
0.4136053836689305
 40
0.5515061878189224
 40
0.6977617313748632
 40
0.8469187185333524
 40
1.0
 40
1.0
 40
1.0
 40
1.0
 10
1.88766048057195
 20
-15.06824319813076
 30
0.0
 10
1.889944264433342
 20
-15.17999231088516
 30
0.0
 10
1.894490411968386
 20
-15.4024424131388
 30
0.0
 10
1.865964012425028
 20
-15.73459231750194
 30
0.0
 10
1.811256226888656
 20
-16.06238346908235
 30
0.0
 10
1.726716862808884
 20
-16.39117891691675
 30
0.0
 10
1.610879163061732
 20
-16.72036786759038
 30
0.0
 10
1.464140434761742
 20
-17.05068828094045
 30
0.0
 10
1.343433047147253
 20
-17.26193136223479
 30
0.0
 10
1.282295714464093
 20
-17.36892430436816
 30
0.0
  0
SPLINE
  5
1F6
330
1B
100
AcDbEntity
 67
     1
  8
0
  6
Continuous
 62
     7
370
    25
100
AcDbSpline
210
0.0
220
0.0
230
1.0
 70
     8
 71
     3
 72
    15
 73
    11
 74
     0
 42
0.00000001
 43
0.00000001
 40
0.0
 40
0.0
 40
0.0
 40
0.0
 40
0.1022963905259434
 40
0.2053332699071267
 40
0.301027079498959
 40
0.4027389263064956
 40
0.5104731313431881
 40
0.6734853848505158
 40
0.8368984476038283
 40
1.0
 40
1.0
 40
1.0
 40
1.0
 10
1.282295714463223
 20
-17.3689243043676
 30
0.0
 10
1.261375533007832
 20
-17.40097757088067
 30
0.0
 10
1.219383736003065
 20
-17.46531612662539
 30
0.0
 10
1.156637582449311
 20
-17.55885745138423
 30
0.0
 10
1.093304106916261
 20
-17.65173498652683
 30
0.0
 10
1.028316459426508
 20
-17.74560886340105
 30
0.0
 10
0.9482933455079796
 20
-17.85970564917924
 30
0.0
 10
0.8541541541680036
 20
-17.99209716037091
 30
0.0
 10
0.7473001863288077
 20
-18.14086374935986
 30
0.0
 10
0.6759009558066206
 20
-18.23999921043169
 30
0.0
 10
0.6402353996638142
 20
-18.28951965101266
 30
0.0
  0
SPLINE
  5
1FA
330
1B
100
AcDbEntity
 67
     1
  8
0
  6
Continuous
 62
     7
370
    25
100
AcDbSpline
210
0.0
220
0.0
230
1.0
 70
     8
 71
     3
 72
    19
 73
    15
 74
     0
 42
0.00000001
 43
0.00000001
 40
0.0
 40
0.0
 40
0.0
 40
0.0
 40
0.0572061611180159
 40
0.1022861718699264
 40
0.1497286181577484
 40
0.1983766631686115
 40
0.2474388395607028
 40
0.2973444390629109
 40
0.346173817419103
 40
0.4751525399525056
 40
0.6038661107514368
 40
0.7374179073365803
 40
0.8702908479915827
 40
0.9999999999999999
 40
0.9999999999999999
 40
0.9999999999999999
 40
0.9999999999999999
 10
-1.513543472261454
 20
-20.35097875794938
 30
0.0
 10
-1.508164093659254
 20
-20.31175169963277
 30
0.0
 10
-1.498545618419799
 20
-20.24161265253526
 30
0.0
 10
-1.484683211222856
 20
-20.13892422491225
 30
0.0
 10
-1.470664936806739
 20
-20.04218735852297
 30
0.0
 10
-1.44888280670462
 20
-19.94402313351825
 30
0.0
 10
-1.421411914440237
 20
-19.84559324840802
 30
0.0
 10
-1.390480274546963
 20
-19.74806842609985
 30
0.0
 10
-1.337986270775774
 20
-19.59943993346595
 30
0.0
 10
-1.254210343064333
 20
-19.40415721637393
 30
0.0
 10
-1.126499376774219
 20
-19.1651324452736
 30
0.0
 10
-0.9838073013274562
 20
-18.93170234525125
 30
0.0
 10
-0.8313742583813764
 20
-18.70376404922514
 30
0.0
 10
-0.7274693809939855
 20
-18.554658952914
 30
0.0
 10
-0.6761429047718143
 20
-18.48100467052758
 30
0.0
  0
SPLINE
  5
1FE
330
1B
100
AcDbEntity
 67
     1
  8
0
  6
Continuous
 62
     7
370
    25
100
AcDbSpline
210
0.0
220
0.0
230
1.0
 70
     8
 71
     3
 72
    23
 73
    19
 74
     0
 42
0.00000001
 43
0.00000001
 40
0.0
 40
0.0
 40
0.0
 40
0.0
 40
0.0047751181773195
 40
0.0718634296143166
 40
0.1449822989739415
 40
0.2182764854518507
 40
0.2933531819229921
 40
0.3629749657373263
 40
0.4326401181555721
 40
0.5029143319852079
 40
0.5651246793845746
 40
0.6273802728269182
 40
0.6898258953199862
 40
0.7522667374320218
 40
0.8141552557961055
 40
0.875777928946046
 40
0.9375794866939695
 40
1.0
 40
1.0
 40
1.0
 40
1.0
 10
-1.350080340190705
 20
-17.80706723510868
 30
0.0
 10
-1.35227355458296
 20
-17.81095267274966
 30
0.0
 10
-1.385280467135528
 20
-17.86942680136075
 30
0.0
 10
-1.452687312254147
 20
-17.98693546563553
 30
0.0
 10
-1.553378468802564
 20
-18.15914842226302
 30
0.0
 10
-1.658677977297015
 20
-18.33730953359137
 30
0.0
 10
-1.76244683947764
 20
-18.51257953060946
 30
0.0
 10
-1.863625217905542
 20
-18.68544118206414
 30
0.0
 10
-1.961288991129344
 20
-18.85515527887879
 30
0.0
 10
-2.053247076560255
 20
-19.02015486910967
 30
0.0
 10
-2.137675207670717
 20
-19.18137125494304
 30
0.0
 10
-2.213051361589671
 20
-19.33896760354424
 30
0.0
 10
-2.280760115623226
 20
-19.50028384755342
 30
0.0
 10
-2.338426924185522
 20
-19.66511996303054
 30
0.0
 10
-2.384369343691629
 20
-19.832876213558
 30
0.0
 10
-2.415696595219028
 20
-20.00335801112545
 30
0.0
 10
-2.432631495133992
 20
-20.17649555036307
 30
0.0
 10
-2.431851889376805
 20
-20.29262481149561
 30
0.0
 10
-2.431460144245467
 20
-20.35097875800641
 30
0.0
  0
SPLINE
  5
203
330
1B
100
AcDbEntity
 67
     1
  8
0
  6
Continuous
 62
     7
370
    25
100
AcDbSpline
210
0.0
220
0.0
230
1.0
 70
     8
 71
     3
 72
    15
 73
    11
 74
     0
 42
0.00000001
 43
0.00000001
 40
0.0
 40
0.0
 40
0.0
 40
0.0
 40
0.1096912003339394
 40
0.2159787297929235
 40
0.3211065803269195
 40
0.4269629195539218
 40
0.5350540442460231
 40
0.6818655659361526
 40
0.836378514991865
 40
1.0
 40
1.0
 40
1.0
 40
1.0
 10
-0.2958959103025364
 20
-15.03483492409063
 30
0.0
 10
-0.2964611711708987
 20
-15.13537776200222
 30
0.0
 10
-0.2975741531054464
 20
-15.33334363671063
 30
0.0
 10
-0.3397654546798751
 20
-15.62518658319343
 30
0.0
 10
-0.4082577915016405
 20
-15.90784334226993
 30
0.0
 10
-0.5025490779898496
 20
-16.18475746363627
 30
0.0
 10
-0.6312515890958309
 20
-16.48921113707787
 30
0.0
 10
-0.798924654454202
 20
-16.8247685469011
 30
0.0
 10
-1.00532347128145
 20
-17.19717237488869
 30
0.0
 10
-1.150245077929848
 20
-17.44987344618864
 30
0.0
 10
-1.224780513112626
 20
-17.57984153553086
 30
0.0
  0
SPLINE
  5
205
330
1B
100
AcDbEntity
 67
     1
  8
0
  6
Continuous
 62
     7
370
    25
100
AcDbSpline
210
0.0
220
0.0
230
1.0
 70
     8
 71
     3
 72
    15
 73
    11
 74
     0
 42
0.00000001
 43
0.00000001
 40
0.0
 40
0.0
 40
0.0
 40
0.0
 40
0.1381526731458215
 40
0.2760367255697926
 40
0.4138977492533796
 40
0.5522212540727396
 40
0.6617201444362989
 40
0.7724438191068009
 40
0.8849766019188663
 40
1.0
 40
1.0
 40
1.0
 40
1.0
 10
0.6166926777213209
 20
-15.03483492409062
 30
0.0
 10
0.6161950454108365
 20
-15.15771411454358
 30
0.0
 10
0.6152007483741163
 20
-15.40323357211861
 30
0.0
 10
0.5851129177459959
 20
-15.77042086619258
 30
0.0
 10
0.5303624479835947
 20
-16.13481308430048
 30
0.0
 10
0.4521707206294291
 20
-16.46916058304535
 30
0.0
 10
0.3558720219538754
 20
-16.77337002858116
 30
0.0
 10
0.2459840892610487
 20
-17.04831460182447
 30
0.0
 10
0.1149200410318219
 20
-17.31955160589742
 30
0.0
 10
0.0093863070843122
 20
-17.49231248137584
 30
0.0
 10
-0.0439580962326431
 20
-17.57963835789127
 30
0.0
  0
SPLINE
  5
206
330
1B
100
AcDbEntity
 67
     1
  8
0
  6
Continuous
 62
     7
370
    25
100
AcDbSpline
210
0.0
220
0.0
230
1.0
 70
     8
 71
     3
 72
    15
 73
    11
 74
     0
 42
0.00000001
 43
0.00000001
 40
0.0
 40
0.0
 40
0.0
 40
0.0
 40
0.1195298754003894
 40
0.2321692689272499
 40
0.354377517013496
 40
0.4746346883967953
 40
0.5840755749779389
 40
0.6827009210394541
 40
0.847252422492622
 40
1.0
 40
1.0
 40
1.0
 40
1.0
 10
-0.5591764269865964
 20
-18.31512843583817
 30
0.0
 10
-0.5384817629053182
 20
-18.28594047459959
 30
0.0
 10
-0.498285410199761
 20
-18.22924713664088
 30
0.0
 10
-0.4368608412375109
 20
-18.14276136903201
 30
0.0
 10
-0.375278798292651
 20
-18.05612038588725
 30
0.0
 10
-0.314437165138564
 20
-17.97012803372826
 30
0.0
 10
-0.2578512476985984
 20
-17.88977237288706
 30
0.0
 10
-0.1939033815352015
 20
-17.79838516259064
 30
0.0
 10
-0.1229643164898512
 20
-17.69606710510968
 30
0.0
 10
-0.0696321619583369
 20
-17.61747334479122
 30
0.0
 10
-0.0439580962326344
 20
-17.57963835789127
 30
0.0
  0
SPLINE
  5
207
330
1B
100
AcDbEntity
 67
     1
  8
0
  6
Continuous
 62
     7
370
    25
100
AcDbSpline
210
0.0
220
0.0
230
1.0
 70
    24
 71
     3
 72
     9
 73
     5
 74
     0
 42
0.00000001
 43
0.00000001
 40
0.0
 40
0.0
 40
0.0
 40
0.0
 40
0.559822644634974
 40
1.0
 40
1.0
 40
1.0
 40
1.0
 10
-0.4713099108423239
 20
-18.40299495198244
 30
0.0
 10
-0.4723878532488108
 20
-18.40191700957595
 30
0.0
 10
-0.4743133602228806
 20
-18.39999150260187
 30
0.0
 10
-0.477971888143281
 20
-18.39633297468148
 30
0.0
 10
-0.4795822892878118
 20
-18.39472257353696
 30
0.0
  0
SPLINE
  5
209
330
1B
100
AcDbEntity
 67
     1
  8
0
  6
Continuous
 62
     7
370
    25
100
AcDbSpline
210
0.0
220
0.0
230
1.0
 70
    24
 71
     3
 72
     9
 73
     5
 74
     0
 42
0.00000001
 43
0.00000001
 40
0.0
 40
0.0
 40
0.0
 40
0.0
 40
0.5598226446349331
 40
1.0
 40
1.0
 40
1.0
 40
1.0
 10
-0.6127312670796163
 20
-18.54441630821976
 30
0.0
 10
-0.6138092094861071
 20
-18.54333836581326
 30
0.0
 10
-0.6157347164601839
 20
-18.54141285883918
 30
0.0
 10
-0.6193932443805825
 20
-18.53775433091879
 30
0.0
 10
-0.6210036455251129
 20
-18.53614392977427
 30
0.0
  0
SPLINE
  5
20D
330
1B
100
AcDbEntity
 67
     1
  8
0
  6
Continuous
 62
     7
370
    25
100
AcDbSpline
210
0.0
220
0.0
230
1.0
 70
     8
 71
     3
 72
    23
 73
    19
 74
     0
 42
0.00000001
 43
0.00000001
 40
0.0
 40
0.0
 40
0.0
 40
0.0
 40
0.0739019728868498
 40
0.1442878226852727
 40
0.2098071731303814
 40
0.2793369957900526
 40
0.3487749704346006
 40
0.4573879603762104
 40
0.5653228851129344
 40
0.6726063313875191
 40
0.7641094471171307
 40
0.8563823573823008
 40
0.8797347775513298
 40
0.9032041607986756
 40
0.9200481957531225
 40
0.933865508189689
 40
0.9605161095195575
 40
1.0
 40
1.0
 40
1.0
 40
1.0
 10
-2.0622359693577
 20
-18.27897875123175
 30
0.0
 10
-2.09354882857992
 20
-18.32368522402256
 30
0.0
 10
-2.154684737443165
 20
-18.41097111595404
 30
0.0
 10
-2.242742070766805
 20
-18.53847811744812
 30
0.0
 10
-2.327919039267964
 20
-18.66404405700318
 30
0.0
 10
-2.411121834871949
 20
-18.79009467947292
 30
0.0
 10
-2.508892641022682
 20
-18.94463095364673
 30
0.0
 10
-2.61546064249239
 20
-19.12710278953262
 30
0.0
 10
-2.724170143866155
 20
-19.34031823102029
 30
0.0
 10
-2.811423436967054
 20
-19.54973512531416
 30
0.0
 10
-2.876323070134793
 20
-19.75481792296872
 30
0.0
 10
-2.913018550232007
 20
-19.90359126119125
 30
0.0
 10
-2.929745433387597
 20
-20.00497769999969
 30
0.0
 10
-2.935550949575649
 20
-20.05164830437128
 30
0.0
 10
-2.939749999798019
 20
-20.09140627164718
 30
0.0
 10
-2.944008703670442
 20
-20.13352036746917
 30
0.0
 10
-2.949998144232822
 20
-20.19226562275973
 30
0.0
 10
-2.954935059676473
 20
-20.24086031522433
 30
0.0
 10
-2.957882517551367
 20
-20.26987252145262
 30
0.0
  0
SPLINE
  5
211
330
1B
100
AcDbEntity
 67
     1
  8
0
  6
Continuous
 62
     7
370
    25
100
AcDbSpline
210
0.0
220
0.0
230
1.0
 70
     8
 71
     3
 72
    17
 73
    13
 74
     0
 42
0.00000001
 43
0.00000001
 40
0.0
 40
0.0
 40
0.0
 40
0.0
 40
0.0852819098984499
 40
0.1699467652466694
 40
0.2546051987276823
 40
0.3398734127373937
 40
0.4504654080669543
 40
0.5605020471172724
 40
0.6711559789732222
 40
0.7813324763642403
 40
0.8900114061688659
 40
1.0
 40
1.0
 40
1.0
 40
1.0
 10
-3.793909800050383
 20
-20.26987252145262
 30
0.0
 10
-3.795687451499951
 20
-20.21161222410336
 30
0.0
 10
-3.79922989225849
 20
-20.09551316993576
 30
0.0
 10
-3.786110872853875
 20
-19.9217827628566
 30
0.0
 10
-3.759001819003079
 20
-19.74981601437547
 30
0.0
 10
-3.712425024990083
 20
-19.56372181749011
 30
0.0
 10
-3.64527460189927
 20
-19.36559664470249
 30
0.0
 10
-3.556765286647361
 20
-19.15716591274131
 30
0.0
 10
-3.457222599048619
 20
-18.95418280939112
 30
0.0
 10
-3.351328079127223
 20
-18.75555103120061
 30
0.0
 10
-3.242896715232096
 20
-18.55882760201661
 30
0.0
 10
-3.169567109624906
 20
-18.42870044907473
 30
0.0
 10
-3.132682710548063
 20
-18.3632471877337
 30
0.0
  0
SPLINE
  5
212
330
1B
100
AcDbEntity
 67
     1
  8
0
  6
Continuous
 62
     7
370
    25
100
AcDbSpline
210
0.0
220
0.0
230
1.0
 70
     8
 71
     3
 72
     9
 73
     5
 74
     0
 42
0.00000001
 43
0.00000001
 40
0.0
 40
0.0
 40
0.0
 40
0.0
 40
0.5501592219350613
 40
1.0
 40
1.0
 40
1.0
 40
1.0
 10
-2.69302356982831
 20
-17.64819115075909
 30
0.0
 10
-2.774222881921247
 20
-17.77897136815778
 30
0.0
 10
-2.921815267644304
 20
-18.01668476490628
 30
0.0
 10
-3.067257061042609
 20
-18.25571958036372
 30
0.0
 10
-3.132682710548063
 20
-18.3632471877337
 30
0.0
  0
SPLINE
  5
216
330
1B
100
AcDbEntity
 67
     1
  8
0
  6
Continuous
 62
     7
370
    25
100
AcDbSpline
210
0.0
220
0.0
230
1.0
 70
     8
 71
     3
 72
    15
 73
    11
 74
     0
 42
0.00000001
 43
0.00000001
 40
0.0
 40
0.0
 40
0.0
 40
0.0
 40
0.113405123114711
 40
0.2232198514507445
 40
0.3312321818904672
 40
0.4389801824889626
 40
0.5477204283319326
 40
0.6932051640801027
 40
0.8436230293508261
 40
1.0
 40
1.0
 40
1.0
 40
1.0
 10
-1.735088340945177
 20
-14.95733757762577
 30
0.0
 10
-1.733456815321326
 20
-15.05939941385473
 30
0.0
 10
-1.730245418010593
 20
-15.2602918188546
 30
0.0
 10
-1.763380782732765
 20
-15.55706913750737
 30
0.0
 10
-1.821772883391513
 20
-15.84429885449587
 30
0.0
 10
-1.905329771795596
 20
-16.12428948372007
 30
0.0
 10
-2.021840592603386
 20
-16.42851888511972
 30
0.0
 10
-2.17681413220449
 20
-16.7581308078377
 30
0.0
 10
-2.371227325307235
 20
-17.11558877738528
 30
0.0
 10
-2.51324306105335
 20
-17.35215912524125
 30
0.0
 10
-2.585630167811202
 20
-17.4727418405018
 30
0.0
  0
SPLINE
  5
218
330
1B
100
AcDbEntity
 67
     1
  8
0
  6
Continuous
 62
     7
370
    25
100
AcDbSpline
210
0.0
220
0.0
230
1.0
 70
     8
 71
     3
 72
    16
 73
    12
 74
     0
 42
0.00000001
 43
0.00000001
 40
0.0
 40
0.0
 40
0.0
 40
0.0
 40
0.1061962336943629
 40
0.2150477171803759
 40
0.3253569680077762
 40
0.4369374572545277
 40
0.5496165324905788
 40
0.6611920254307113
 40
0.7735227469210155
 40
0.8864882859355758
 40
1.0
 40
1.0
 40
1.0
 40
1.0
 10
-1.005817590945189
 20
-14.95733757762576
 30
0.0
 10
-1.006670164507635
 20
-15.0755078419786
 30
0.0
 10
-1.00839662873291
 20
-15.31480301002398
 30
0.0
 10
-1.045117801876551
 20
-15.67528114657909
 30
0.0
 10
-1.103703859683373
 20
-16.03862283832375
 30
0.0
 10
-1.187195841555352
 20
-16.40155751142948
 30
0.0
 10
-1.2938576791731
 20
-16.75978089699773
 30
0.0
 10
-1.423116762877229
 20
-17.11141321384483
 30
0.0
 10
-1.574751995000755
 20
-17.45425077619236
 30
0.0
 10
-1.74745833261782
 20
-17.78963734103379
 30
0.0
 10
-1.881003226790143
 20
-18.00333086841986
 30
0.0
 10
-1.947936703048643
 20
-18.11043530495066
 30
0.0
  0
SPLINE
  5
219
330
1B
100
AcDbEntity
 67
     1
  8
0
  6
Continuous
 62
     7
370
    25
100
AcDbSpline
210
0.0
220
0.0
230
1.0
 70
    24
 71
     3
 72
     9
 73
     5
 74
     0
 42
0.00000001
 43
0.00000001
 40
0.0
 40
0.0
 40
0.0
 40
0.0
 40
0.5603194205070549
 40
1.0
 40
1.0
 40
1.0
 40
1.0
 10
-1.836136846092248
 20
-18.22223516202052
 30
0.0
 10
-1.84435633432877
 20
-18.21401567378398
 30
0.0
 10
-1.859025624622305
 20
-18.19934638349043
 30
0.0
 10
-1.8761100023464
 20
-18.18226200576635
 30
0.0
 10
-1.883621671444406
 20
-18.17475033666835
 30
0.0
  0
SPLINE
  5
21B
330
1B
100
AcDbEntity
 67
     1
  8
0
  6
Continuous
 62
     7
370
    25
100
AcDbSpline
210
0.0
220
0.0
230
1.0
 70
    24
 71
     3
 72
     9
 73
     5
 74
     0
 42
0.00000001
 43
0.00000001
 40
0.0
 40
0.0
 40
0.0
 40
0.0
 40
0.5603194205071377
 40
1.0
 40
1.0
 40
1.0
 40
1.0
 10
-1.977558202329553
 20
-18.36365651825783
 30
0.0
 10
-1.985777690566087
 20
-18.35543703002129
 30
0.0
 10
-2.00044698085964
 20
-18.34076773972773
 30
0.0
 10
-2.017531358583712
 20
-18.32368336200366
 30
0.0
 10
-2.025043027681707
 20
-18.31617169290567
 30
0.0
  0
SPLINE
  5
21F
330
1B
100
AcDbEntity
 67
     1
  8
0
  6
Continuous
 62
     7
370
    25
100
AcDbSpline
210
0.0
220
0.0
230
1.0
 70
     8
 71
     3
 72
     9
 73
     5
 74
     0
 42
0.00000001
 43
0.00000001
 40
0.0
 40
0.0
 40
0.0
 40
0.0
 40
0.5543881723617103
 40
1.0
 40
1.0
 40
1.0
 40
1.0
 10
-3.384335746923905
 20
-18.08032188588127
 30
0.0
 10
-3.457309028068444
 20
-18.20140591919428
 30
0.0
 10
-3.588937523737229
 20
-18.4198161222785
 30
0.0
 10
-3.724673175212754
 20
-18.63569587304372
 30
0.0
 10
-3.785158586942436
 20
-18.7318944433323
 30
0.0
  0
SPLINE
  5
220
330
1B
100
AcDbEntity
 67
     1
  8
0
  6
Continuous
 62
     7
370
    25
100
AcDbSpline
210
0.0
220
0.0
230
1.0
 70
     8
 71
     3
 72
    20
 73
    16
 74
     0
 42
0.00000001
 43
0.00000001
 40
0.0
 40
0.0
 40
0.0
 40
0.0
 40
0.0496754085942816
 40
0.0969900005712458
 40
0.2472851033418715
 40
0.3970726082782031
 40
0.5465907135059104
 40
0.6737065036953839
 40
0.8012621816331088
 40
0.8567717766488698
 40
0.9118119132222453
 40
0.9329708869731724
 40
0.9477421997905481
 40
0.9667922549397687
 40
1.0
 40
1.0
 40
1.0
 40
1.0
 10
-3.785158027616596
 20
-18.73189479981274
 30
0.0
 10
-3.798899458620658
 20
-18.75359118360099
 30
0.0
 10
-3.825729261105406
 20
-18.79595283367221
 30
0.0
 10
-3.892655027546669
 20
-18.90488030312854
 30
0.0
 10
-3.982801905358061
 20
-19.06029609003302
 30
0.0
 10
-4.088741120500521
 20
-19.26732551030247
 30
0.0
 10
-4.175931613135353
 20
-19.47007297604728
 30
0.0
 10
-4.242657900668789
 20
-19.66827190595705
 30
0.0
 10
-4.283850882813991
 20
-19.82338920793216
 30
0.0
 10
-4.308833586159159
 20
-19.9439628944698
 30
0.0
 10
-4.319029238423632
 20
-20.01132298152933
 30
0.0
 10
-4.324606890089126
 20
-20.05802151990865
 30
0.0
 10
-4.327801261230208
 20
-20.08626571517863
 30
0.0
 10
-4.331625252305268
 20
-20.12070724510481
 30
0.0
 10
-4.334616077013935
 20
-20.14755780818263
 30
0.0
 10
-4.33651662667441
 20
-20.16462026871174
 30
0.0
  0
SPLINE
  5
224
330
1B
100
AcDbEntity
 67
     1
  8
0
  6
Continuous
 62
     7
370
    25
100
AcDbSpline
210
0.0
220
0.0
230
1.0
 70
     8
 71
     3
 72
    15
 73
    11
 74
     0
 42
0.00000001
 43
0.00000001
 40
0.0
 40
0.0
 40
0.0
 40
0.0
 40
0.1473891260704218
 40
0.2920688109260751
 40
0.4389063184073621
 40
0.5533353762394138
 40
0.6672767093597604
 40
0.7808125101816757
 40
0.8928568106394057
 40
1.0
 40
1.0
 40
1.0
 40
1.0
 10
-4.874663136280254
 20
-20.16462026871931
 30
0.0
 10
-4.874338057789104
 20
-20.09000886719098
 30
0.0
 10
-4.873693876695836
 20
-19.9421576389023
 30
0.0
 10
-4.84107013063005
 20
-19.72186197931951
 30
0.0
 10
-4.789058388500225
 20
-19.52297764952262
 30
0.0
 10
-4.726568323245793
 20
-19.34368773563993
 30
0.0
 10
-4.660528484126653
 20
-19.18381749363149
 30
0.0
 10
-4.588100479972866
 20
-19.02810404504434
 30
0.0
 10
-4.512530588494289
 20
-18.87774985392913
 30
0.0
 10
-4.460676186462183
 20
-18.77978206699331
 30
0.0
 10
-4.435328726984858
 20
-18.73189347099906
 30
0.0
  0
SPLINE
  5
225
330
1B
100
AcDbEntity
 67
     1
  8
0
  6
Continuous
 62
     7
370
    25
100
AcDbSpline
210
0.0
220
0.0
230
1.0
 70
     8
 71
     3
 72
    10
 73
     6
 74
     0
 42
0.00000001
 43
0.00000001
 40
0.0
 40
0.0
 40
0.0
 40
0.0
 40
0.2701242010291406
 40
0.5477407187696786
 40
1.0
 40
1.0
 40
1.0
 40
1.0
 10
-3.789719338223192
 20
-17.67493829460884
 30
0.0
 10
-3.847802585690192
 20
-17.77013860739078
 30
0.0
 10
-3.965580110232021
 20
-17.96317976235435
 30
0.0
 10
-4.183554704062486
 20
-18.31380052133773
 30
0.0
 10
-4.339004311525017
 20
-18.57194076306776
 30
0.0
 10
-4.435326902077643
 20
-18.73189444333235
 30
0.0
  0
SPLINE
  5
229
330
1B
100
AcDbEntity
 67
     1
  8
0
  6
Continuous
 62
     7
370
    25
100
AcDbSpline
210
0.0
220
0.0
230
1.0
 70
     8
 71
     3
 72
    15
 73
    11
 74
     0
 42
0.00000001
 43
0.00000001
 40
0.0
 40
0.0
 40
0.0
 40
0.0
 40
0.1147443170662941
 40
0.2260013673273851
 40
0.3352887534403068
 40
0.4439278188730396
 40
0.5530184674557258
 40
0.6979805130457493
 40
0.8466524511605891
 40
1.0
 40
1.0
 40
1.0
 40
1.0
 10
-2.862227579900964
 20
-14.94052493486688
 30
0.0
 10
-2.861239892725765
 20
-15.04486055053913
 30
0.0
 10
-2.859294535798349
 20
-15.25036085247783
 30
0.0
 10
-2.891952091960318
 20
-15.55391378989422
 30
0.0
 10
-2.948352859911971
 20
-15.84794695827276
 30
0.0
 10
-3.02857363408494
 20
-16.13440541762108
 30
0.0
 10
-3.140179704253751
 20
-16.44475246825665
 30
0.0
 10
-3.288738574888023
 20
-16.77953766210435
 30
0.0
 10
-3.475607884853211
 20
-17.14038574743316
 30
0.0
 10
-3.613679560433538
 20
-17.3775916867688
 30
0.0
 10
-3.683784152782575
 20
-17.49803076748541
 30
0.0
  0
SPLINE
  5
22B
330
1B
100
AcDbEntity
 67
     1
  8
0
  6
Continuous
 62
     7
370
    25
100
AcDbSpline
210
0.0
220
0.0
230
1.0
 70
     8
 71
     3
 72
    15
 73
    11
 74
     0
 42
0.00000001
 43
0.00000001
 40
0.0
 40
0.0
 40
0.0
 40
0.0
 40
0.1125465095915468
 40
0.2227925430071251
 40
0.3319221184564886
 40
0.4409567113837369
 40
0.550742189186347
 40
0.6967313200651355
 40
0.8462478490398934
 40
1.0
 40
1.0
 40
1.0
 40
1.0
 10
-2.362227579900953
 20
-14.94052493486689
 30
0.0
 10
-2.361649051746226
 20
-15.05848961332619
 30
0.0
 10
-2.360503820683435
 20
-15.29200774546858
 30
0.0
 10
-2.397141188160116
 20
-15.63840257415354
 30
0.0
 10
-2.459462518045985
 20
-15.9769871341053
 30
0.0
 10
-2.547906870716868
 20
-16.30927212720129
 30
0.0
 10
-2.671163919778189
 20
-16.67124262474323
 30
0.0
 10
-2.835905994197083
 20
-17.06288979860383
 30
0.0
 10
-3.044322747721335
 20
-17.4851206392796
 30
0.0
 10
-3.200607189998745
 20
-17.76173518160574
 30
0.0
 10
-3.279840789613824
 20
-17.90197413037759
 30
0.0
  0
SPLINE
  5
22D
330
1B
100
AcDbEntity
 67
     1
  8
0
  6
Continuous
 62
     7
370
    25
100
AcDbSpline
210
0.0
220
0.0
230
1.0
 70
    24
 71
     3
 72
     9
 73
     5
 74
     0
 42
0.00000001
 43
0.00000001
 40
0.0
 40
0.0
 40
0.0
 40
0.0
 40
0.5599137314596329
 40
1.0
 40
1.0
 40
1.0
 40
1.0
 10
-3.207312381843403
 20
-18.25734525098864
 30
0.0
 10
-3.219527184549503
 20
-18.24513044828253
 30
0.0
 10
-3.241342692939084
 20
-18.22331493989294
 30
0.0
 10
-3.267327177573187
 20
-18.19733045525885
 30
0.0
 10
-3.278762592455755
 20
-18.18589504037629
 30
0.0
  0
SPLINE
  5
22E
330
1B
100
AcDbEntity
 67
     1
  8
0
  6
Continuous
 62
     7
370
    25
100
AcDbSpline
210
0.0
220
0.0
230
1.0
 70
    24
 71
     3
 72
     9
 73
     5
 74
     0
 42
0.00000001
 43
0.00000001
 40
0.0
 40
0.0
 40
0.0
 40
0.0
 40
0.5599137314596333
 40
1.0
 40
1.0
 40
1.0
 40
1.0
 10
-3.06589102560612
 20
-18.11592389475133
 30
0.0
 10
-3.078105828312222
 20
-18.10370909204521
 30
0.0
 10
-3.099921336701808
 20
-18.08189358365562
 30
0.0
 10
-3.125905821335888
 20
-18.05590909902154
 30
0.0
 10
-3.137341236218446
 20
-18.04447368413898
 30
0.0
  0
LINE
  5
22F
330
1B
100
AcDbEntity
 67
     1
  8
0
  6
Continuous
 62
     7
370
    25
100
AcDbLine
 10
0.0989718511
 20
-9.2778175407
 30
0.0
 11
0.7541244011
 21
-9.2778175407
 31
0.0
  0
LINE
  5
230
330
1B
100
AcDbEntity
 67
     1
  8
0
  6
Continuous
 62
     7
370
    25
100
AcDbLine
 10
1.8994082379
 20
-11.931497714
 30
0.0
 11
1.8322889287
 21
-11.9986170231
 31
0.0
  0
LINE
  5
231
330
1B
100
AcDbEntity
 67
     1
  8
0
  6
Continuous
 62
     7
370
    25
100
AcDbLine
 10
1.8994082379
 20
-11.931497714
 30
0.0
 11
2.0408295941
 21
-12.0729190702
 31
0.0
  0
LINE
  5
232
330
1B
100
AcDbEntity
 67
     1
  8
0
  6
Continuous
 62
     7
370
    25
100
AcDbLine
 10
2.0408295941
 20
-12.0729190702
 30
0.0
 11
1.9380731512
 21
-12.1756755131
 31
0.0
  0
LINE
  5
233
330
1B
100
AcDbEntity
 67
     1
  8
0
  6
Continuous
 62
     7
370
    25
100
AcDbLine
 10
3.024429881
 20
-14.7453700645
 30
0.0
 11
3.0284233763
 21
-14.5898081645
 31
0.0
  0
LINE
  5
234
330
1B
100
AcDbEntity
 67
     1
  8
0
  6
Continuous
 62
     7
370
    25
100
AcDbLine
 10
3.024429881
 20
-14.7453700645
 30
0.0
 11
2.3692773316
 21
-14.7453700645
 31
0.0
  0
LINE
  5
235
330
1B
100
AcDbEntity
 67
     1
  8
0
  6
Continuous
 62
     7
370
    25
100
AcDbLine
 10
2.3692773316
 20
-14.7453700645
 30
0.0
 11
2.3680497285
 21
-14.5898081645
 31
0.0
  0
LINE
  5
236
330
1B
100
AcDbEntity
 67
     1
  8
0
  6
Continuous
 62
     7
370
    25
100
AcDbLine
 10
1.4584764199
 20
-12.6552722444
 30
0.0
 11
1.3826840565
 21
-12.7310646079
 31
0.0
  0
LINE
  5
237
330
1B
100
AcDbEntity
 67
     1
  8
0
  6
Continuous
 62
     7
370
    25
100
AcDbLine
 10
1.2412627002
 20
-12.5896432516
 30
0.0
 11
1.3826840565
 21
-12.7310646079
 31
0.0
  0
LINE
  5
238
330
1B
100
AcDbEntity
 67
     1
  8
0
  6
Continuous
 62
     7
370
    25
100
AcDbLine
 10
1.3402899201
 20
-12.4906160317
 30
0.0
 11
1.2412627002
 21
-12.5896432516
 31
0.0
  0
LINE
  5
239
330
1B
100
AcDbEntity
 67
     1
  8
0
  6
Continuous
 62
     7
370
    25
100
AcDbLine
 10
-1.0122697137
 20
-9.3354784018
 30
0.0
 11
-0.3571171637
 21
-9.3354784018
 31
0.0
  0
LINE
  5
23A
330
1B
100
AcDbEntity
 67
     1
  8
0
  6
Continuous
 62
     7
370
    25
100
AcDbLine
 10
0.830370054
 20
-11.9615401679
 30
0.0
 11
0.726452252
 21
-12.0654579699
 31
0.0
  0
LINE
  5
23B
330
1B
100
AcDbEntity
 67
     1
  8
0
  6
Continuous
 62
     7
370
    25
100
AcDbLine
 10
0.830370054
 20
-11.9615401679
 30
0.0
 11
0.9717914102
 21
-12.1029615242
 31
0.0
  0
LINE
  5
23C
330
1B
100
AcDbEntity
 67
     1
  8
0
  6
Continuous
 62
     7
370
    25
100
AcDbLine
 10
0.9717914102
 20
-12.1029615242
 30
0.0
 11
0.8323349048
 21
-12.2424180296
 31
0.0
  0
LINE
  5
23D
330
1B
100
AcDbEntity
 67
     1
  8
0
  6
Continuous
 62
     7
370
    25
100
AcDbLine
 10
1.9131883162
 20
-14.8030309256
 30
0.0
 11
1.9171818115
 21
-14.6474690256
 31
0.0
  0
LINE
  5
23E
330
1B
100
AcDbEntity
 67
     1
  8
0
  6
Continuous
 62
     7
370
    25
100
AcDbLine
 10
1.9131883162
 20
-14.8030309256
 30
0.0
 11
1.2580357669
 21
-14.8030309256
 31
0.0
  0
LINE
  5
23F
330
1B
100
AcDbEntity
 67
     1
  8
0
  6
Continuous
 62
     7
370
    25
100
AcDbLine
 10
1.2580357669
 20
-14.8030309256
 30
0.0
 11
1.2568081638
 21
-14.6474690256
 31
0.0
  0
LINE
  5
240
330
1B
100
AcDbEntity
 67
     1
  8
0
  6
Continuous
 62
     7
370
    25
100
AcDbLine
 10
0.3533149608
 20
-12.7214379736
 30
0.0
 11
0.2542930109
 21
-12.8204599235
 31
0.0
  0
LINE
  5
241
330
1B
100
AcDbEntity
 67
     1
  8
0
  6
Continuous
 62
     7
370
    25
100
AcDbLine
 10
0.1128716546
 20
-12.6790385673
 30
0.0
 11
0.2542930109
 21
-12.8204599235
 31
0.0
  0
LINE
  5
242
330
1B
100
AcDbEntity
 67
     1
  8
0
  6
Continuous
 62
     7
370
    25
100
AcDbLine
 10
0.2351553672
 20
-12.5567548547
 30
0.0
 11
0.1128716546
 21
-12.6790385673
 31
0.0
  0
LINE
  5
243
330
1B
100
AcDbEntity
 67
     1
  8
0
  6
Continuous
 62
     7
370
    25
100
AcDbLine
 10
-1.4424931083
 20
-9.3455336247
 30
0.0
 11
-2.3550816964
 21
-9.3455336247
 31
0.0
  0
LINE
  5
244
330
1B
100
AcDbEntity
 67
     1
  8
0
  6
Continuous
 62
     7
370
    25
100
AcDbLine
 10
-0.5136046842
 20
-11.8905381822
 30
0.0
 11
-0.4891566718
 21
-11.9357712166
 31
0.0
  0
LINE
  5
245
330
1B
100
AcDbEntity
 67
     1
  8
0
  6
Continuous
 62
     7
370
    25
100
AcDbLine
 10
-0.4226248711
 20
-11.8692394159
 30
0.0
 11
-0.4891566718
 21
-11.9357712166
 31
0.0
  0
LINE
  5
246
330
1B
100
AcDbEntity
 67
     1
  8
0
  6
Continuous
 62
     7
370
    25
100
AcDbLine
 10
-0.4226248711
 20
-11.8692394159
 30
0.0
 11
-0.2812035149
 21
-12.0106607721
 31
0.0
  0
LINE
  5
247
330
1B
100
AcDbEntity
 67
     1
  8
0
  6
Continuous
 62
     7
370
    25
100
AcDbLine
 10
-0.2812035149
 20
-12.0106607721
 30
0.0
 11
-0.3883086785
 21
-12.1177659357
 31
0.0
  0
LINE
  5
248
330
1B
100
AcDbEntity
 67
     1
  8
0
  6
Continuous
 62
     7
370
    25
100
AcDbLine
 10
0.6930711256
 20
-14.6616774586
 30
0.0
 11
0.6808189425
 21
-14.8130861486
 31
0.0
  0
LINE
  5
249
330
1B
100
AcDbEntity
 67
     1
  8
0
  6
Continuous
 62
     7
370
    25
100
AcDbLine
 10
0.6808189425
 20
-14.8130861486
 30
0.0
 11
-0.2314805084
 21
-14.8130861486
 31
0.0
  0
LINE
  5
24A
330
1B
100
AcDbEntity
 67
     1
  8
0
  6
Continuous
 62
     7
370
    25
100
AcDbLine
 10
-0.2314805084
 20
-14.8130861486
 30
0.0
 11
-0.2248455464
 21
-14.6616774586
 31
0.0
  0
LINE
  5
24B
330
1B
100
AcDbEntity
 67
     1
  8
0
  6
Continuous
 62
     7
370
    25
100
AcDbLine
 10
-1.0622461139
 20
-12.7917033712
 30
0.0
 11
-1.1173853731
 21
-12.8468426304
 31
0.0
  0
LINE
  5
24C
330
1B
100
AcDbEntity
 67
     1
  8
0
  6
Continuous
 62
     7
370
    25
100
AcDbLine
 10
-1.2588067294
 20
-12.7054212742
 30
0.0
 11
-1.1173853731
 21
-12.8468426304
 31
0.0
  0
LINE
  5
24D
330
1B
100
AcDbEntity
 67
     1
  8
0
  6
Continuous
 62
     7
370
    25
100
AcDbLine
 10
-1.1792125917
 20
-12.6258271365
 30
0.0
 11
-1.2588067294
 21
-12.7054212742
 31
0.0
  0
LINE
  5
24E
330
1B
100
AcDbEntity
 67
     1
  8
0
  6
Continuous
 62
     7
370
    25
100
AcDbLine
 10
-1.2670791078
 20
-12.7136936526
 30
0.0
 11
-1.1256577516
 21
-12.8551150089
 31
0.0
  0
LINE
  5
24F
330
1B
100
AcDbEntity
 67
     1
  8
0
  6
Continuous
 62
     7
370
    25
100
AcDbLine
 10
-1.9029894422
 20
-14.8290325904
 30
0.0
 11
-1.1737186922
 21
-14.8290325904
 31
0.0
  0
LINE
  5
250
330
1B
100
AcDbEntity
 67
     1
  8
0
  6
Continuous
 62
     7
370
    25
100
AcDbLine
 10
-2.8608280059
 20
-12.4209250646
 30
0.0
 11
-2.7535312689
 21
-12.3136283276
 31
0.0
  0
LINE
  5
251
330
1B
100
AcDbEntity
 67
     1
  8
0
  6
Continuous
 62
     7
370
    25
100
AcDbLine
 10
-2.8608280059
 20
-12.4209250646
 30
0.0
 11
-3.0022493622
 21
-12.2795037084
 31
0.0
  0
LINE
  5
252
330
1B
100
AcDbEntity
 67
     1
  8
0
  6
Continuous
 62
     7
370
    25
100
AcDbLine
 10
-3.0022493622
 20
-12.2795037084
 30
0.0
 11
-2.860924671
 21
-12.1381790172
 31
0.0
  0
LINE
  5
253
330
1B
100
AcDbEntity
 67
     1
  8
0
  6
Continuous
 62
     7
370
    25
100
AcDbLine
 10
-3.9618109013
 20
-9.5164976465
 30
0.0
 11
-3.9488358973
 21
-9.3614800665
 31
0.0
  0
LINE
  5
254
330
1B
100
AcDbEntity
 67
     1
  8
0
  6
Continuous
 62
     7
370
    25
100
AcDbLine
 10
-3.9488358973
 20
-9.3614800665
 30
0.0
 11
-3.118211033
 21
-9.3614800665
 31
0.0
  0
LINE
  5
255
330
1B
100
AcDbEntity
 67
     1
  8
0
  6
Continuous
 62
     7
370
    25
100
AcDbLine
 10
-3.1257836188
 20
-9.5164976465
 30
0.0
 11
-3.118211033
 21
-9.3614800665
 31
0.0
  0
LINE
  5
256
330
1B
100
AcDbEntity
 67
     1
  8
0
  6
Continuous
 62
     7
370
    25
100
AcDbLine
 10
-2.2301370706
 20
-11.5073914167
 30
0.0
 11
-2.1929441289
 21
-11.4701984751
 31
0.0
  0
LINE
  5
257
330
1B
100
AcDbEntity
 67
     1
  8
0
  6
Continuous
 62
     7
370
    25
100
AcDbLine
 10
-2.0515227727
 20
-11.6116198313
 30
0.0
 11
-2.1929441289
 21
-11.4701984751
 31
0.0
  0
LINE
  5
258
330
1B
100
AcDbEntity
 67
     1
  8
0
  6
Continuous
 62
     7
370
    25
100
AcDbLine
 10
-2.1158378043
 20
-11.675934863
 30
0.0
 11
-2.0515227727
 21
-11.6116198313
 31
0.0
  0
LINE
  5
259
330
1B
100
AcDbEntity
 67
     1
  8
0
  6
Continuous
 62
     7
370
    25
100
AcDbLine
 10
-2.0040379473
 20
-11.564135006
 30
0.0
 11
-2.1454593035
 21
-11.4227136497
 31
0.0
  0
LINE
  5
25A
330
1B
100
AcDbEntity
 67
     1
  8
0
  6
Continuous
 62
     7
370
    25
100
AcDbLine
 10
-4.3408983944
 20
-9.3452098025
 30
0.0
 11
-4.8408983944
 21
-9.3452098025
 31
0.0
  0
LINE
  5
25B
330
1B
100
AcDbEntity
 67
     1
  8
0
  6
Continuous
 62
     7
370
    25
100
AcDbLine
 10
-3.5193418215
 20
-11.9027156352
 30
0.0
 11
-3.3276102996
 21
-11.7109841133
 31
0.0
  0
LINE
  5
25C
330
1B
100
AcDbEntity
 67
     1
  8
0
  6
Continuous
 62
     7
370
    25
100
AcDbLine
 10
-3.3276102996
 20
-11.7109841133
 30
0.0
 11
-3.1861889434
 21
-11.8524054695
 31
0.0
  0
LINE
  5
25D
330
1B
100
AcDbEntity
 67
     1
  8
0
  6
Continuous
 62
     7
370
    25
100
AcDbLine
 10
-3.4134066361
 20
-12.0796231622
 30
0.0
 11
-3.1861889434
 21
-11.8524054695
 31
0.0
  0
LINE
  5
25E
330
1B
100
AcDbEntity
 67
     1
  8
0
  6
Continuous
 62
     7
370
    25
100
AcDbLine
 10
-2.328462838
 20
-14.5693051363
 30
0.0
 11
-2.3511180687
 21
-14.8127623263
 31
0.0
  0
LINE
  5
25F
330
1B
100
AcDbEntity
 67
     1
  8
0
  6
Continuous
 62
     7
370
    25
100
AcDbLine
 10
-2.8512765353
 20
-14.8127623263
 30
0.0
 11
-2.3511180687
 21
-14.8127623263
 31
0.0
  0
LINE
  5
260
330
1B
100
AcDbEntity
 67
     1
  8
0
  6
Continuous
 62
     7
370
    25
100
AcDbLine
 10
-2.8666093476
 20
-14.5693051363
 30
0.0
 11
-2.8512765353
 21
-14.8127623263
 31
0.0
  0
LINE
  5
261
330
1B
100
AcDbEntity
 67
     1
  8
0
  6
Continuous
 62
     7
370
    25
100
AcDbLine
 10
-3.9243633819
 20
-12.590579908
 30
0.0
 11
-3.8187902274
 21
-12.4850067535
 31
0.0
  0
LINE
  5
262
330
1B
100
AcDbEntity
 67
     1
  8
0
  6
Continuous
 62
     7
370
    25
100
AcDbLine
 10
-4.0657847381
 20
-12.4491585518
 30
0.0
 11
-3.9243633819
 21
-12.590579908
 31
0.0
  0
LINE
  5
263
330
1B
100
AcDbEntity
 67
     1
  8
0
  6
Continuous
 62
     7
370
    25
100
AcDbLine
 10
-4.0657847381
 20
-12.4491585518
 30
0.0
 11
-3.9232851845
 21
-12.3066589982
 31
0.0
  0
LINE
  5
264
330
1B
100
AcDbEntity
 67
     1
  8
0
  6
Continuous
 62
     7
370
    25
100
AcDbLine
 10
-4.1372349487
 20
-12.5206087624
 30
0.0
 11
-3.9958135925
 21
-12.6620301186
 31
0.0
  0
LINE
  5
265
330
1B
100
AcDbEntity
 67
     1
  8
0
  6
Continuous
 62
     7
370
    25
100
AcDbLine
 10
1.8438701425
 20
-18.2444889781
 30
0.0
 11
1.9428973624
 21
-18.343516198
 31
0.0
  0
LINE
  5
266
330
1B
100
AcDbEntity
 67
     1
  8
0
  6
Continuous
 62
     7
370
    25
100
AcDbLine
 10
1.9428973624
 20
-18.343516198
 30
0.0
 11
1.8014760061
 21
-18.4849375543
 31
0.0
  0
LINE
  5
267
330
1B
100
AcDbEntity
 67
     1
  8
0
  6
Continuous
 62
     7
370
    25
100
AcDbLine
 10
1.7256836427
 20
-18.4091451908
 30
0.0
 11
1.8014760061
 21
-18.4849375543
 31
0.0
  0
LINE
  5
268
330
1B
100
AcDbEntity
 67
     1
  8
0
  6
Continuous
 62
     7
370
    25
100
AcDbLine
 10
0.814882731
 20
-20.4992430109
 30
0.0
 11
0.8161103341
 21
-20.3436811109
 31
0.0
  0
LINE
  5
269
330
1B
100
AcDbEntity
 67
     1
  8
0
  6
Continuous
 62
     7
370
    25
100
AcDbLine
 10
0.1597301816
 20
-20.4992430109
 30
0.0
 11
0.814882731
 21
-20.4992430109
 31
0.0
  0
LINE
  5
26A
330
1B
100
AcDbEntity
 67
     1
  8
0
  6
Continuous
 62
     7
370
    25
100
AcDbLine
 10
0.1597301816
 20
-20.4992430109
 30
0.0
 11
0.1557366863
 21
-20.3436811109
 31
0.0
  0
LINE
  5
26B
330
1B
100
AcDbEntity
 67
     1
  8
0
  6
Continuous
 62
     7
370
    25
100
AcDbLine
 10
1.1433304685
 20
-17.8267920166
 30
0.0
 11
1.2460869114
 21
-17.9295484595
 31
0.0
  0
LINE
  5
26C
330
1B
100
AcDbEntity
 67
     1
  8
0
  6
Continuous
 62
     7
370
    25
100
AcDbLine
 10
1.2847518247
 20
-17.6853706604
 30
0.0
 11
1.1433304685
 21
-17.8267920166
 31
0.0
  0
LINE
  5
26D
330
1B
100
AcDbEntity
 67
     1
  8
0
  6
Continuous
 62
     7
370
    25
100
AcDbLine
 10
1.2847518247
 20
-17.6853706604
 30
0.0
 11
1.3518711339
 21
-17.7524899695
 31
0.0
  0
LINE
  5
26E
330
1B
100
AcDbEntity
 67
     1
  8
0
  6
Continuous
 62
     7
370
    25
100
AcDbLine
 10
3.0851882115
 20
-15.0316904871
 30
0.0
 11
2.4300356615
 21
-15.0316904871
 31
0.0
  0
LINE
  5
26F
330
1B
100
AcDbEntity
 67
     1
  8
0
  6
Continuous
 62
     7
370
    25
100
AcDbLine
 10
0.6402353997
 20
-18.289519651
 30
0.0
 11
0.7625191123
 21
-18.4118033636
 31
0.0
  0
LINE
  5
270
330
1B
100
AcDbEntity
 67
     1
  8
0
  6
Continuous
 62
     7
370
    25
100
AcDbLine
 10
0.7625191123
 20
-18.4118033636
 30
0.0
 11
0.621097756
 21
-18.5532247198
 31
0.0
  0
LINE
  5
271
330
1B
100
AcDbEntity
 67
     1
  8
0
  6
Continuous
 62
     7
370
    25
100
AcDbLine
 10
0.5220758061
 20
-18.4542027699
 30
0.0
 11
0.621097756
 21
-18.5532247198
 31
0.0
  0
LINE
  5
272
330
1B
100
AcDbEntity
 67
     1
  8
0
  6
Continuous
 62
     7
370
    25
100
AcDbLine
 10
-0.382645
 20
-20.535795722
 30
0.0
 11
-0.3814173969
 21
-20.3802338219
 31
0.0
  0
LINE
  5
273
330
1B
100
AcDbEntity
 67
     1
  8
0
  6
Continuous
 62
     7
370
    25
100
AcDbLine
 10
-1.0377975494
 20
-20.535795722
 30
0.0
 11
-0.382645
 21
-20.535795722
 31
0.0
  0
LINE
  5
274
330
1B
100
AcDbEntity
 67
     1
  8
0
  6
Continuous
 62
     7
370
    25
100
AcDbLine
 10
-1.0377975494
 20
-20.535795722
 30
0.0
 11
-1.0417910446
 21
-20.380233822
 31
0.0
  0
LINE
  5
275
330
1B
100
AcDbEntity
 67
     1
  8
0
  6
Continuous
 62
     7
370
    25
100
AcDbLine
 10
-0.0964006433
 20
-17.8357263205
 30
0.0
 11
0.0430558621
 21
-17.9751828259
 31
0.0
  0
LINE
  5
276
330
1B
100
AcDbEntity
 67
     1
  8
0
  6
Continuous
 62
     7
370
    25
100
AcDbLine
 10
0.0450207129
 20
-17.6943049643
 30
0.0
 11
-0.0964006433
 21
-17.8357263205
 31
0.0
  0
LINE
  5
277
330
1B
100
AcDbEntity
 67
     1
  8
0
  6
Continuous
 62
     7
370
    25
100
AcDbLine
 10
0.0450207129
 20
-17.6943049643
 30
0.0
 11
0.1489385149
 21
-17.7982227662
 31
0.0
  0
LINE
  5
278
330
1B
100
AcDbEntity
 67
     1
  8
0
  6
Continuous
 62
     7
370
    25
100
AcDbLine
 10
1.8876604806
 20
-15.0682431981
 30
0.0
 11
1.2325079306
 21
-15.0682431981
 31
0.0
  0
LINE
  5
279
330
1B
100
AcDbEntity
 67
     1
  8
0
  6
Continuous
 62
     7
370
    25
100
AcDbLine
 10
-0.559176427
 20
-18.3151284358
 30
0.0
 11
-0.4795822893
 21
-18.3947225735
 31
0.0
  0
LINE
  5
27A
330
1B
100
AcDbEntity
 67
     1
  8
0
  6
Continuous
 62
     7
370
    25
100
AcDbLine
 10
-0.4795822893
 20
-18.3947225735
 30
0.0
 11
-0.6210036455
 21
-18.5361439298
 31
0.0
  0
LINE
  5
27B
330
1B
100
AcDbEntity
 67
     1
  8
0
  6
Continuous
 62
     7
370
    25
100
AcDbLine
 10
-0.6761429048
 20
-18.4810046705
 30
0.0
 11
-0.6210036455
 21
-18.5361439298
 31
0.0
  0
LINE
  5
27C
330
1B
100
AcDbEntity
 67
     1
  8
0
  6
Continuous
 62
     7
370
    25
100
AcDbLine
 10
-1.5069085103
 20
-20.5023874479
 30
0.0
 11
-1.5135434723
 21
-20.3509787579
 31
0.0
  0
LINE
  5
27D
330
1B
100
AcDbEntity
 67
     1
  8
0
  6
Continuous
 62
     7
370
    25
100
AcDbLine
 10
-2.4192079612
 20
-20.5023874479
 30
0.0
 11
-1.5069085103
 21
-20.5023874479
 31
0.0
  0
LINE
  5
27E
330
1B
100
AcDbEntity
 67
     1
  8
0
  6
Continuous
 62
     7
370
    25
100
AcDbLine
 10
-2.4314601442
 20
-20.350978758
 30
0.0
 11
-2.4192079612
 21
-20.5023874479
 31
0.0
  0
LINE
  5
27F
330
1B
100
AcDbEntity
 67
     1
  8
0
  6
Continuous
 62
     7
370
    25
100
AcDbLine
 10
-1.4571855038
 20
-17.6999620715
 30
0.0
 11
-1.3500803402
 21
-17.8070672351
 31
0.0
  0
LINE
  5
280
330
1B
100
AcDbEntity
 67
     1
  8
0
  6
Continuous
 62
     7
370
    25
100
AcDbLine
 10
-1.3157641476
 20
-17.5585407153
 30
0.0
 11
-1.4571855038
 21
-17.6999620715
 31
0.0
  0
LINE
  5
281
330
1B
100
AcDbEntity
 67
     1
  8
0
  6
Continuous
 62
     7
370
    25
100
AcDbLine
 10
-1.3157641476
 20
-17.5585407153
 30
0.0
 11
-1.2492323468
 21
-17.625072516
 31
0.0
  0
LINE
  5
282
330
1B
100
AcDbEntity
 67
     1
  8
0
  6
Continuous
 62
     7
370
    25
100
AcDbLine
 10
-1.2247843344
 20
-17.5798394816
 30
0.0
 11
-1.2492323468
 21
-17.625072516
 31
0.0
  0
LINE
  5
283
330
1B
100
AcDbEntity
 67
     1
  8
0
  6
Continuous
 62
     7
370
    25
100
AcDbLine
 10
-0.2958959103
 20
-15.0348349241
 30
0.0
 11
0.6166926777
 21
-15.0348349241
 31
0.0
  0
LINE
  5
284
330
1B
100
AcDbEntity
 67
     1
  8
0
  6
Continuous
 62
     7
370
    25
100
AcDbLine
 10
-0.4713099108
 20
-18.402994952
 30
0.0
 11
-0.6127312671
 21
-18.5444163082
 31
0.0
  0
LINE
  5
285
330
1B
100
AcDbEntity
 67
     1
  8
0
  6
Continuous
 62
     7
370
    25
100
AcDbLine
 10
-1.9479367031
 20
-18.110435305
 30
0.0
 11
-1.8836216714
 21
-18.1747503367
 31
0.0
  0
LINE
  5
286
330
1B
100
AcDbEntity
 67
     1
  8
0
  6
Continuous
 62
     7
370
    25
100
AcDbLine
 10
-1.8836216714
 20
-18.1747503367
 30
0.0
 11
-2.0250430277
 21
-18.3161716929
 31
0.0
  0
LINE
  5
287
330
1B
100
AcDbEntity
 67
     1
  8
0
  6
Continuous
 62
     7
370
    25
100
AcDbLine
 10
-2.0622359694
 20
-18.2789787512
 30
0.0
 11
-2.0250430277
 21
-18.3161716929
 31
0.0
  0
LINE
  5
288
330
1B
100
AcDbEntity
 67
     1
  8
0
  6
Continuous
 62
     7
370
    25
100
AcDbLine
 10
-2.9578825176
 20
-20.2698725215
 30
0.0
 11
-2.9503099317
 21
-20.4248901015
 31
0.0
  0
LINE
  5
289
330
1B
100
AcDbEntity
 67
     1
  8
0
  6
Continuous
 62
     7
370
    25
100
AcDbLine
 10
-3.780934796
 20
-20.4248901015
 30
0.0
 11
-2.9503099317
 21
-20.4248901015
 31
0.0
  0
LINE
  5
28A
330
1B
100
AcDbEntity
 67
     1
  8
0
  6
Continuous
 62
     7
370
    25
100
AcDbLine
 10
-3.7939098001
 20
-20.2698725215
 30
0.0
 11
-3.780934796
 21
-20.4248901015
 31
0.0
  0
LINE
  5
28B
330
1B
100
AcDbEntity
 67
     1
  8
0
  6
Continuous
 62
     7
370
    25
100
AcDbLine
 10
-2.834348261
 20
-17.5068664596
 30
0.0
 11
-2.6930235698
 21
-17.6481911508
 31
0.0
  0
LINE
  5
28C
330
1B
100
AcDbEntity
 67
     1
  8
0
  6
Continuous
 62
     7
370
    25
100
AcDbLine
 10
-2.6929269047
 20
-17.3654451034
 30
0.0
 11
-2.834348261
 21
-17.5068664596
 31
0.0
  0
LINE
  5
28D
330
1B
100
AcDbEntity
 67
     1
  8
0
  6
Continuous
 62
     7
370
    25
100
AcDbLine
 10
-2.6929269047
 20
-17.3654451034
 30
0.0
 11
-2.5856301677
 21
-17.4727418404
 31
0.0
  0
LINE
  5
28E
330
1B
100
AcDbEntity
 67
     1
  8
0
  6
Continuous
 62
     7
370
    25
100
AcDbLine
 10
-1.7350883409
 20
-14.9573375776
 30
0.0
 11
-1.0058175909
 21
-14.9573375776
 31
0.0
  0
LINE
  5
28F
330
1B
100
AcDbEntity
 67
     1
  8
0
  6
Continuous
 62
     7
370
    25
100
AcDbLine
 10
-1.8361368461
 20
-18.222235162
 30
0.0
 11
-1.9775582023
 21
-18.3636565183
 31
0.0
  0
LINE
  5
290
330
1B
100
AcDbEntity
 67
     1
  8
0
  6
Continuous
 62
     7
370
    25
100
AcDbLine
 10
-3.1373412362
 20
-18.0444736841
 30
0.0
 11
-3.2798407898
 21
-17.9019741306
 31
0.0
  0
LINE
  5
291
330
1B
100
AcDbEntity
 67
     1
  8
0
  6
Continuous
 62
     7
370
    25
100
AcDbLine
 10
-3.1373412362
 20
-18.0444736841
 30
0.0
 11
-3.2787625925
 21
-18.1858950404
 31
0.0
  0
LINE
  5
292
330
1B
100
AcDbEntity
 67
     1
  8
0
  6
Continuous
 62
     7
370
    25
100
AcDbLine
 10
-3.2787625925
 20
-18.1858950404
 30
0.0
 11
-3.3843357469
 21
-18.0803218859
 31
0.0
  0
LINE
  5
293
330
1B
100
AcDbEntity
 67
     1
  8
0
  6
Continuous
 62
     7
370
    25
100
AcDbLine
 10
-4.3365166267
 20
-20.1646202687
 30
0.0
 11
-4.351849439
 21
-20.4080774587
 31
0.0
  0
LINE
  5
294
330
1B
100
AcDbEntity
 67
     1
  8
0
  6
Continuous
 62
     7
370
    25
100
AcDbLine
 10
-4.351849439
 20
-20.4080774587
 30
0.0
 11
-4.8520079057
 21
-20.4080774587
 31
0.0
  0
LINE
  5
295
330
1B
100
AcDbEntity
 67
     1
  8
0
  6
Continuous
 62
     7
370
    25
100
AcDbLine
 10
-4.8746631363
 20
-20.1646202687
 30
0.0
 11
-4.8520079057
 21
-20.4080774587
 31
0.0
  0
LINE
  5
296
330
1B
100
AcDbEntity
 67
     1
  8
0
  6
Continuous
 62
     7
370
    25
100
AcDbLine
 10
-3.7897193382
 20
-17.6749382946
 30
0.0
 11
-4.0169370309
 21
-17.4477206019
 31
0.0
  0
LINE
  5
297
330
1B
100
AcDbEntity
 67
     1
  8
0
  6
Continuous
 62
     7
370
    25
100
AcDbLine
 10
-3.8755156747
 20
-17.3062992456
 30
0.0
 11
-4.0169370309
 21
-17.4477206019
 31
0.0
  0
LINE
  5
298
330
1B
100
AcDbEntity
 67
     1
  8
0
  6
Continuous
 62
     7
370
    25
100
AcDbLine
 10
-3.6837841528
 20
-17.4980307675
 30
0.0
 11
-3.8755156747
 21
-17.3062992456
 31
0.0
  0
LINE
  5
299
330
1B
100
AcDbEntity
 67
     1
  8
0
  6
Continuous
 62
     7
370
    25
100
AcDbLine
 10
-2.8622275799
 20
-14.9405249349
 30
0.0
 11
-2.3622275799
 21
-14.9405249349
 31
0.0
  0
LINE
  5
29A
330
1B
100
AcDbEntity
 67
     1
  8
0
  6
Continuous
 62
     7
370
    25
100
AcDbLine
 10
-3.0658910256
 20
-18.1159238948
 30
0.0
 11
-3.2073123818
 21
-18.257345251
 31
0.0
  0
VIEWPORT
  5
29B
330
1B
100
AcDbEntity
 67
     1
  8
0
100
AcDbViewport
 10
0.0
 20
0.0
 30
0.0
 40
8.4
 41
6.4
 68
     1
 69
     1
 12
-0.8938271342
 22
-14.9068066313
 13
0.0
 23
0.0
 14
0.5
 24
0.5
 15
0.5
 25
0.5
 16
0.0
 26
0.0
 36
1.0
 17
0.0
 27
0.0
 37
0.0
 42
50.0
 43
0.0
 44
0.0
 45
11.4831377449
 50
0.0
 51
0.0
 72
   100
 90
   557152
  1

281
     0
 71
     1
 74
     0
110
0.0
120
0.0
130
0.0
111
1.0
121
0.0
131
0.0
112
0.0
122
1.0
132
0.0
 79
     0
146
0.0
  0
MTEXT
  5
29E
330
1B
100
AcDbEntity
 67
     1
  8
0
  6
Continuous
 62
     7
100
AcDbMText
 10
-4.8746631363
 20
-20.5759361311
 30
0.0
 40
0.1903
 41
0.0
 71
     1
 72
     1
  1
SOLIDWORKS Educational Product.
  7
SLDTEXTSTYLE0
 73
     1
 44
1.0
  0
MTEXT
  5
29F
330
1B
100
AcDbEntity
 67
     1
  8
0
  6
Continuous
 62
     7
100
AcDbMText
 10
-4.8746631363
 20
-20.8613861311
 30
0.0
 40
0.1903
 41
0.0
 71
     1
 72
     1
  1
For Instructional Use Only.
  7
SLDTEXTSTYLE0
 73
     1
 44
1.0
  0
ENDSEC
  0
SECTION
  2
OBJECTS
  0
DICTIONARY
  5
C
330
0
100
AcDbDictionary
281
     1
  3
ACAD_GROUP
350
D
  3
ACAD_LAYOUT
350
1A
  3
ACAD_MLINESTYLE
350
17
  3
ACAD_PLOTSETTINGS
350
19
  3
ACAD_PLOTSTYLENAME
350
E
  3
ACAD_SCALELIST
350
47
  3
DWGPROPS
350
2A2
  0
DICTIONARY
  5
D
102
{ACAD_REACTORS
330
C
102
}
330
C
100
AcDbDictionary
281
     1
  0
DICTIONARY
  5
1A
102
{ACAD_REACTORS
330
C
102
}
330
C
100
AcDbDictionary
281
     1
  3
_Right
350
1E
  3
Layout2
350
26
  3
Model
350
22
  0
DICTIONARY
  5
17
102
{ACAD_REACTORS
330
C
102
}
330
C
100
AcDbDictionary
281
     1
  3
Standard
350
18
  0
DICTIONARY
  5
19
102
{ACAD_REACTORS
330
C
102
}
330
C
100
AcDbDictionary
281
     1
  0
ACDBDICTIONARYWDFLT
  5
E
102
{ACAD_REACTORS
330
C
102
}
330
C
100
AcDbDictionary
281
     1
  3
Normal
350
F
100
AcDbDictionaryWithDefault
340
F
  0
DICTIONARY
  5
47
102
{ACAD_REACTORS
330
C
102
}
330
C
100
AcDbDictionary
281
     1
  3
A0
350
48
  3
A1
350
49
  3
A2
350
4A
  3
A3
350
4B
  3
A4
350
4C
  3
A5
350
4D
  3
A6
350
4E
  3
A7
350
4F
  3
A8
350
50
  3
A9
350
51
  3
B1
350
52
  3
B2
350
53
  3
B3
350
54
  3
B4
350
55
  3
B5
350
56
  3
B6
350
57
  3
B7
350
58
  0
XRECORD
  5
2A2
102
{ACAD_REACTORS
330
C
102
}
330
C
100
AcDbXrecord
280
     1
  1
DWGPROPS COOKIE
  2

  3

  4

  6

  7

  8
xxori
  9

300
=
301
=
302
=
303
=
304
=
305
=
306
=
307
=
308
=
309
=
 40
0.0
 41
2461306.855276759
 42
2461306.855877767
  1

 90
        0
  0
LAYOUT
  5
1E
102
{ACAD_REACTORS
330
1A
102
}
330
1A
100
AcDbPlotSettings
  1

  2
none_device
  4
Letter_(8.50_x_11.00_Inches)
  6

 40
6.35
 41
6.35
 42
6.35001
 43
6.35001
 44
215.9
 45
279.4
 46
0.0
 47
0.0
 48
0.0
 49
0.0
140
0.0
141
0.0
142
1.0
143
1.4072473419
 70
   688
 72
     0
 73
     1
 74
     1
  7

 75
     0
147
0.7106071337
148
123.8164436615
149
521.6092113377
100
AcDbLayout
  1
_Right
 70
     1
 71
     1
 10
-5.2264755258
 20
-20.8876075574
 11
10.2532452353
 21
-8.9260051512
 12
0.0
 22
0.0
 32
0.0
 14
-4.8746631363
 24
-20.535795722
 34
0.0
 15
3.0870088678
 25
-9.2778175407
 35
0.0
146
0.0
 13
0.0
 23
0.0
 33
0.0
 16
1.0
 26
0.0
 36
0.0
 17
0.0
 27
1.0
 37
0.0
 76
     0
330
1B
331
29B
  0
LAYOUT
  5
26
102
{ACAD_REACTORS
330
1A
102
}
330
1A
100
AcDbPlotSettings
  1

  2
none_device
  4

  6

 40
0.0
 41
0.0
 42
0.0
 43
0.0
 44
0.0
 45
0.0
 46
0.0
 47
0.0
 48
0.0
 49
0.0
140
0.0
141
0.0
142
1.0
143
1.0
 70
   688
 72
     0
 73
     0
 74
     5
  7

 75
    16
147
1.0
148
0.0
149
0.0
100
AcDbLayout
  1
Layout2
 70
     1
 71
     2
 10
0.0
 20
0.0
 11
0.0
 21
0.0
 12
0.0
 22
0.0
 32
0.0
 14
0.0
 24
0.0
 34
0.0
 15
0.0
 25
0.0
 35
0.0
146
0.0
 13
0.0
 23
0.0
 33
0.0
 16
1.0
 26
0.0
 36
0.0
 17
0.0
 27
1.0
 37
0.0
 76
     0
330
23
  0
LAYOUT
  5
22
102
{ACAD_REACTORS
330
1A
102
}
330
1A
100
AcDbPlotSettings
  1

  2
none_device
  4
ANSI_A_(11.00_x_8.50_Inches)
  6

 40
6.35
 41
19.05
 42
6.35000508
 43
19.05000254
 44
279.4
 45
215.9
 46
150.3199633296
 47
371.9166918591
 48
0.0
 49
0.0
140
0.0
141
0.0
142
0.7474699155
143
1.0
 70
  1696
 72
     0
 73
     0
 74
     0
  7

 75
     0
147
0.5913241897
148
-39.4088153714
149
0.0
100
AcDbLayout
  1
Model
 70
     1
 71
     0
 10
0.0
 20
0.0
 11
12.0
 21
9.0
 12
0.0
 22
0.0
 32
0.0
 14
-4.8746631363
 24
-20.535795722
 34
0.0
 15
3.0870088678
 25
-9.2778175407
 35
0.0
146
0.0
 13
0.0
 23
0.0
 33
0.0
 16
1.0
 26
0.0
 36
0.0
 17
0.0
 27
1.0
 37
0.0
 76
     0
330
1F
331
29
  0
MLINESTYLE
  5
18
102
{ACAD_REACTORS
330
17
102
}
330
17
100
AcDbMlineStyle
  2
Standard
 70
     0
  3

 62
   256
 51
90.0
 52
90.0
 71
     2
 49
0.5
 62
   256
  6
BYLAYER
 49
-0.5
 62
   256
  6
BYLAYER
  0
ACDBPLACEHOLDER
  5
F
102
{ACAD_REACTORS
330
E
102
}
330
E
  0
SCALE
  5
48
102
{ACAD_REACTORS
330
47
102
}
330
47
100
AcDbScale
 70
     0
300
1:1
140
1.0
141
1.0
290
     1
  0
SCALE
  5
49
102
{ACAD_REACTORS
330
47
102
}
330
47
100
AcDbScale
 70
     0
300
1/128" = 1'-0"
140
0.0078125
141
12.0
290
     0
  0
SCALE
  5
4A
102
{ACAD_REACTORS
330
47
102
}
330
47
100
AcDbScale
 70
     0
300
1/64" = 1'-0"
140
0.015625
141
12.0
290
     0
  0
SCALE
  5
4B
102
{ACAD_REACTORS
330
47
102
}
330
47
100
AcDbScale
 70
     0
300
1/32" = 1'-0"
140
0.03125
141
12.0
290
     0
  0
SCALE
  5
4C
102
{ACAD_REACTORS
330
47
102
}
330
47
100
AcDbScale
 70
     0
300
1/16" = 1'-0"
140
0.0625
141
12.0
290
     0
  0
SCALE
  5
4D
102
{ACAD_REACTORS
330
47
102
}
330
47
100
AcDbScale
 70
     0
300
3/32" = 1'-0"
140
0.09375
141
12.0
290
     0
  0
SCALE
  5
4E
102
{ACAD_REACTORS
330
47
102
}
330
47
100
AcDbScale
 70
     0
300
1/8" = 1'-0"
140
0.125
141
12.0
290
     0
  0
SCALE
  5
4F
102
{ACAD_REACTORS
330
47
102
}
330
47
100
AcDbScale
 70
     0
300
3/16" = 1'-0"
140
0.1875
141
12.0
290
     0
  0
SCALE
  5
50
102
{ACAD_REACTORS
330
47
102
}
330
47
100
AcDbScale
 70
     0
300
1/4" = 1'-0"
140
0.25
141
12.0
290
     0
  0
SCALE
  5
51
102
{ACAD_REACTORS
330
47
102
}
330
47
100
AcDbScale
 70
     0
300
3/8" = 1'-0"
140
0.375
141
12.0
290
     0
  0
SCALE
  5
52
102
{ACAD_REACTORS
330
47
102
}
330
47
100
AcDbScale
 70
     0
300
1/2" = 1'-0"
140
0.5
141
12.0
290
     0
  0
SCALE
  5
53
102
{ACAD_REACTORS
330
47
102
}
330
47
100
AcDbScale
 70
     0
300
3/4" = 1'-0"
140
0.75
141
12.0
290
     0
  0
SCALE
  5
54
102
{ACAD_REACTORS
330
47
102
}
330
47
100
AcDbScale
 70
     0
300
1" = 1'-0"
140
1.0
141
12.0
290
     0
  0
SCALE
  5
55
102
{ACAD_REACTORS
330
47
102
}
330
47
100
AcDbScale
 70
     0
300
1-1/2" = 1'-0"
140
1.5
141
12.0
290
     0
  0
SCALE
  5
56
102
{ACAD_REACTORS
330
47
102
}
330
47
100
AcDbScale
 70
     0
300
3" = 1'-0"
140
3.0
141
12.0
290
     0
  0
SCALE
  5
57
102
{ACAD_REACTORS
330
47
102
}
330
47
100
AcDbScale
 70
     0
300
6" = 1'-0"
140
6.0
141
12.0
290
     0
  0
SCALE
  5
58
102
{ACAD_REACTORS
330
47
102
}
330
47
100
AcDbScale
 70
     0
300
1'-0" = 1'-0"
140
12.0
141
12.0
290
     0
  0
ENDSEC
  0
EOF
