ISO-10303-21;
HEADER;
/* Generated by software containing ST-Developer
 * from STEP Tools, Inc. (www.steptools.com) 
 */
/* OPTION: using custom schema-name function */

FILE_DESCRIPTION(
/* description */ (''),
/* implementation_level */ '2;1');

FILE_NAME(
/* name */ 'SOLID_TIRES_STEP.stp',
/* time_stamp */ '2025-10-27T12:11:21-07:00',
/* author */ (''),
/* organization */ (''),
/* preprocessor_version */ 'ST-DEVELOPER v20',
/* originating_system */ 'SIEMENS PLM Software NX2412.6001',
/* authorisation */ '');

FILE_SCHEMA (('AUTOMOTIVE_DESIGN { 1 0 10303 214 3 1 1 1 }'));
ENDSEC;

DATA;
#10=CONSTRUCTIVE_GEOMETRY_REPRESENTATION_RELATIONSHIP(
'supplemental geometry','',#32,#11);
#11=CONSTRUCTIVE_GEOMETRY_REPRESENTATION('supplemental geometry',(#290),
#495);
#12=PROPERTY_DEFINITION_REPRESENTATION(#16,#14);
#13=PROPERTY_DEFINITION_REPRESENTATION(#17,#15);
#14=REPRESENTATION('',(#18),#495);
#15=REPRESENTATION('',(#19),#495);
#16=PROPERTY_DEFINITION('pmi validation property','',#23);
#17=PROPERTY_DEFINITION('pmi validation property','',#23);
#18=VALUE_REPRESENTATION_ITEM('number of annotations',COUNT_MEASURE(0.));
#19=VALUE_REPRESENTATION_ITEM('number of views',COUNT_MEASURE(0.));
#20=SHAPE_REPRESENTATION_RELATIONSHIP('None',
'relationship between REVOLUTION_500SC_FULLSCALE_STEP_objects-None and
 REVOLUTION_500SC_FULLSCALE_STEP_objects-None',#32,#21);
#21=ADVANCED_BREP_SHAPE_REPRESENTATION(
'REVOLUTION_500SC_FULLSCALE_STEP_objects-None',(#45,#46),#495);
#22=SHAPE_DEFINITION_REPRESENTATION(#23,#32);
#23=PRODUCT_DEFINITION_SHAPE('','',#24);
#24=PRODUCT_DEFINITION(' ','',#26,#25);
#25=PRODUCT_DEFINITION_CONTEXT('part definition',#31,'design');
#26=PRODUCT_DEFINITION_FORMATION_WITH_SPECIFIED_SOURCE(' ',' ',#28,
 .NOT_KNOWN.);
#27=PRODUCT_RELATED_PRODUCT_CATEGORY('part','',(#28));
#28=PRODUCT('REVOLUTION_500SC_FULLSCALE_STEP_objects',
'REVOLUTION_500SC_FULLSCALE_STEP_objects',' ',(#29));
#29=PRODUCT_CONTEXT(' ',#31,'mechanical');
#30=APPLICATION_PROTOCOL_DEFINITION('international standard',
'automotive_design',2010,#31);
#31=APPLICATION_CONTEXT(
'core data for automotive mechanical design processes');
#32=SHAPE_REPRESENTATION('REVOLUTION_500SC_FULLSCALE_STEP_objects-None',
(#289),#495);
#33=VERTEX_LOOP('',#237);
#34=VERTEX_LOOP('',#239);
#35=SURFACE_STYLE_USAGE(.BOTH.,#37);
#36=SURFACE_STYLE_USAGE(.BOTH.,#38);
#37=SURFACE_SIDE_STYLE('',(#39));
#38=SURFACE_SIDE_STYLE('',(#40));
#39=SURFACE_STYLE_FILL_AREA(#41);
#40=SURFACE_STYLE_FILL_AREA(#42);
#41=FILL_AREA_STYLE('',(#43));
#42=FILL_AREA_STYLE('',(#44));
#43=FILL_AREA_STYLE_COLOUR('',#287);
#44=FILL_AREA_STYLE_COLOUR('',#287);
#45=MANIFOLD_SOLID_BREP('',#47);
#46=MANIFOLD_SOLID_BREP('',#48);
#47=CLOSED_SHELL('',(#118,#119,#120,#121,#122,#123,#124,#125,#126,#127,
#128));
#48=CLOSED_SHELL('',(#129,#130,#131,#132,#133,#134,#135,#136,#137,#138));
#49=SURFACE_OF_REVOLUTION('',#61,#55);
#50=SURFACE_OF_REVOLUTION('',#62,#56);
#51=SURFACE_OF_REVOLUTION('',#63,#57);
#52=SURFACE_OF_REVOLUTION('',#64,#58);
#53=SURFACE_OF_REVOLUTION('',#65,#59);
#54=SURFACE_OF_REVOLUTION('',#66,#60);
#55=AXIS1_PLACEMENT('',#424,#347);
#56=AXIS1_PLACEMENT('',#431,#350);
#57=AXIS1_PLACEMENT('',#438,#353);
#58=AXIS1_PLACEMENT('',#449,#360);
#59=AXIS1_PLACEMENT('',#466,#375);
#60=AXIS1_PLACEMENT('',#480,#386);
#61=B_SPLINE_CURVE_WITH_KNOTS('',3,(#419,#420,#421,#422,#423),
 .UNSPECIFIED.,.F.,.F.,(4,1,4),(0.,0.499831488521643,1.),.UNSPECIFIED.);
#62=B_SPLINE_CURVE_WITH_KNOTS('',3,(#427,#428,#429,#430),.UNSPECIFIED.,
 .F.,.F.,(4,4),(0.,1.),.UNSPECIFIED.);
#63=B_SPLINE_CURVE_WITH_KNOTS('',3,(#434,#435,#436,#437),.UNSPECIFIED.,
 .F.,.F.,(4,4),(0.,1.),.UNSPECIFIED.);
#64=B_SPLINE_CURVE_WITH_KNOTS('',3,(#444,#445,#446,#447,#448),
 .UNSPECIFIED.,.F.,.F.,(4,1,4),(0.,0.5001658143668,1.),.UNSPECIFIED.);
#65=B_SPLINE_CURVE_WITH_KNOTS('',3,(#461,#462,#463,#464,#465),
 .UNSPECIFIED.,.F.,.F.,(4,1,4),(0.,0.500176027659094,1.),.UNSPECIFIED.);
#66=B_SPLINE_CURVE_WITH_KNOTS('',3,(#475,#476,#477,#478,#479),
 .UNSPECIFIED.,.F.,.F.,(4,1,4),(0.,0.499824200538109,1.),.UNSPECIFIED.);
#67=CONICAL_SURFACE('',#296,232.776045638323,81.8115509284066);
#68=CONICAL_SURFACE('',#298,266.654929754763,87.8056223496599);
#69=CONICAL_SURFACE('',#303,280.271090198038,0.257595461063932);
#70=CONICAL_SURFACE('',#306,231.756512691157,88.3335131161781);
#71=CONICAL_SURFACE('',#307,203.008345379447,81.2838148662133);
#72=CONICAL_SURFACE('',#310,237.799480213786,88.0722268243425);
#73=CONICAL_SURFACE('',#313,312.72322308138,0.00235060426743015);
#74=CONICAL_SURFACE('',#315,312.725764526597,0.00234954809214272);
#75=CONICAL_SURFACE('',#318,298.196138148001,88.0675258465098);
#76=CONICAL_SURFACE('',#320,237.810590593115,81.55142969382);
#77=CONICAL_SURFACE('',#321,203.023562028035,89.8636756954144);
#78=CONICAL_SURFACE('',#323,2.22044604925031E-13,89.9976497557828);
#79=CONICAL_SURFACE('',#324,203.01287698605,81.5467296532501);
#80=FACE_BOUND('',#145,.T.);
#81=FACE_BOUND('',#146,.T.);
#82=FACE_BOUND('',#147,.T.);
#83=FACE_BOUND('',#148,.T.);
#84=FACE_BOUND('',#149,.T.);
#85=FACE_BOUND('',#150,.T.);
#86=FACE_BOUND('',#151,.T.);
#87=FACE_BOUND('',#152,.T.);
#88=FACE_BOUND('',#153,.T.);
#89=FACE_BOUND('',#154,.T.);
#90=FACE_BOUND('',#155,.T.);
#91=FACE_BOUND('',#156,.T.);
#92=FACE_BOUND('',#157,.T.);
#93=FACE_BOUND('',#158,.T.);
#94=FACE_BOUND('',#159,.T.);
#95=FACE_BOUND('',#160,.T.);
#96=FACE_BOUND('',#161,.T.);
#97=FACE_BOUND('',#162,.T.);
#98=FACE_BOUND('',#163,.T.);
#99=FACE_BOUND('',#164,.T.);
#100=FACE_BOUND('',#165,.T.);
#101=FACE_BOUND('',#166,.T.);
#102=FACE_BOUND('',#167,.T.);
#103=FACE_BOUND('',#168,.T.);
#104=FACE_BOUND('',#169,.T.);
#105=FACE_BOUND('',#170,.T.);
#106=FACE_BOUND('',#171,.T.);
#107=FACE_BOUND('',#172,.T.);
#108=FACE_BOUND('',#173,.T.);
#109=FACE_BOUND('',#174,.T.);
#110=FACE_BOUND('',#175,.T.);
#111=FACE_BOUND('',#176,.T.);
#112=FACE_BOUND('',#33,.T.);
#113=FACE_BOUND('',#177,.T.);
#114=FACE_BOUND('',#178,.T.);
#115=FACE_BOUND('',#34,.T.);
#116=FACE_BOUND('',#179,.T.);
#117=FACE_BOUND('',#180,.T.);
#118=ADVANCED_FACE('',(#141),#139,.T.);
#119=ADVANCED_FACE('',(#142),#140,.F.);
#120=ADVANCED_FACE('',(#80,#81),#67,.F.);
#121=ADVANCED_FACE('',(#82,#83),#68,.T.);
#122=ADVANCED_FACE('',(#84,#85),#49,.F.);
#123=ADVANCED_FACE('',(#86,#87),#50,.F.);
#124=ADVANCED_FACE('',(#88,#89),#51,.F.);
#125=ADVANCED_FACE('',(#90,#91),#69,.T.);
#126=ADVANCED_FACE('',(#92,#93),#52,.F.);
#127=ADVANCED_FACE('',(#94,#95),#70,.T.);
#128=ADVANCED_FACE('',(#96,#97),#71,.F.);
#129=ADVANCED_FACE('',(#98,#99),#72,.T.);
#130=ADVANCED_FACE('',(#100,#101),#53,.T.);
#131=ADVANCED_FACE('',(#102,#103),#73,.T.);
#132=ADVANCED_FACE('',(#104,#105),#74,.T.);
#133=ADVANCED_FACE('',(#106,#107),#54,.T.);
#134=ADVANCED_FACE('',(#108,#109),#75,.T.);
#135=ADVANCED_FACE('',(#110,#111),#76,.F.);
#136=ADVANCED_FACE('',(#112,#113),#77,.F.);
#137=ADVANCED_FACE('',(#114,#115),#78,.F.);
#138=ADVANCED_FACE('',(#116,#117),#79,.F.);
#139=PLANE('',#292);
#140=PLANE('',#294);
#141=FACE_OUTER_BOUND('',#143,.T.);
#142=FACE_OUTER_BOUND('',#144,.T.);
#143=EDGE_LOOP('',(#181));
#144=EDGE_LOOP('',(#182));
#145=EDGE_LOOP('',(#183));
#146=EDGE_LOOP('',(#184));
#147=EDGE_LOOP('',(#185));
#148=EDGE_LOOP('',(#186));
#149=EDGE_LOOP('',(#187));
#150=EDGE_LOOP('',(#188));
#151=EDGE_LOOP('',(#189));
#152=EDGE_LOOP('',(#190));
#153=EDGE_LOOP('',(#191));
#154=EDGE_LOOP('',(#192));
#155=EDGE_LOOP('',(#193));
#156=EDGE_LOOP('',(#194));
#157=EDGE_LOOP('',(#195));
#158=EDGE_LOOP('',(#196));
#159=EDGE_LOOP('',(#197));
#160=EDGE_LOOP('',(#198));
#161=EDGE_LOOP('',(#199));
#162=EDGE_LOOP('',(#200));
#163=EDGE_LOOP('',(#201));
#164=EDGE_LOOP('',(#202));
#165=EDGE_LOOP('',(#203));
#166=EDGE_LOOP('',(#204));
#167=EDGE_LOOP('',(#205));
#168=EDGE_LOOP('',(#206));
#169=EDGE_LOOP('',(#207));
#170=EDGE_LOOP('',(#208));
#171=EDGE_LOOP('',(#209));
#172=EDGE_LOOP('',(#210));
#173=EDGE_LOOP('',(#211));
#174=EDGE_LOOP('',(#212));
#175=EDGE_LOOP('',(#213));
#176=EDGE_LOOP('',(#214));
#177=EDGE_LOOP('',(#215));
#178=EDGE_LOOP('',(#216));
#179=EDGE_LOOP('',(#217));
#180=EDGE_LOOP('',(#218));
#181=ORIENTED_EDGE('',*,*,#240,.T.);
#182=ORIENTED_EDGE('',*,*,#241,.F.);
#183=ORIENTED_EDGE('',*,*,#241,.T.);
#184=ORIENTED_EDGE('',*,*,#242,.T.);
#185=ORIENTED_EDGE('',*,*,#242,.F.);
#186=ORIENTED_EDGE('',*,*,#243,.T.);
#187=ORIENTED_EDGE('',*,*,#243,.F.);
#188=ORIENTED_EDGE('',*,*,#244,.T.);
#189=ORIENTED_EDGE('',*,*,#244,.F.);
#190=ORIENTED_EDGE('',*,*,#245,.T.);
#191=ORIENTED_EDGE('',*,*,#245,.F.);
#192=ORIENTED_EDGE('',*,*,#246,.T.);
#193=ORIENTED_EDGE('',*,*,#246,.F.);
#194=ORIENTED_EDGE('',*,*,#247,.T.);
#195=ORIENTED_EDGE('',*,*,#247,.F.);
#196=ORIENTED_EDGE('',*,*,#248,.T.);
#197=ORIENTED_EDGE('',*,*,#248,.F.);
#198=ORIENTED_EDGE('',*,*,#249,.T.);
#199=ORIENTED_EDGE('',*,*,#249,.F.);
#200=ORIENTED_EDGE('',*,*,#240,.F.);
#201=ORIENTED_EDGE('',*,*,#250,.F.);
#202=ORIENTED_EDGE('',*,*,#251,.T.);
#203=ORIENTED_EDGE('',*,*,#252,.F.);
#204=ORIENTED_EDGE('',*,*,#250,.T.);
#205=ORIENTED_EDGE('',*,*,#253,.F.);
#206=ORIENTED_EDGE('',*,*,#252,.T.);
#207=ORIENTED_EDGE('',*,*,#254,.F.);
#208=ORIENTED_EDGE('',*,*,#253,.T.);
#209=ORIENTED_EDGE('',*,*,#255,.F.);
#210=ORIENTED_EDGE('',*,*,#254,.T.);
#211=ORIENTED_EDGE('',*,*,#256,.F.);
#212=ORIENTED_EDGE('',*,*,#255,.T.);
#213=ORIENTED_EDGE('',*,*,#257,.F.);
#214=ORIENTED_EDGE('',*,*,#256,.T.);
#215=ORIENTED_EDGE('',*,*,#257,.T.);
#216=ORIENTED_EDGE('',*,*,#258,.F.);
#217=ORIENTED_EDGE('',*,*,#251,.F.);
#218=ORIENTED_EDGE('',*,*,#258,.T.);
#219=VERTEX_POINT('',#406);
#220=VERTEX_POINT('',#409);
#221=VERTEX_POINT('',#412);
#222=VERTEX_POINT('',#415);
#223=VERTEX_POINT('',#418);
#224=VERTEX_POINT('',#426);
#225=VERTEX_POINT('',#433);
#226=VERTEX_POINT('',#440);
#227=VERTEX_POINT('',#443);
#228=VERTEX_POINT('',#451);
#229=VERTEX_POINT('',#455);
#230=VERTEX_POINT('',#457);
#231=VERTEX_POINT('',#460);
#232=VERTEX_POINT('',#468);
#233=VERTEX_POINT('',#471);
#234=VERTEX_POINT('',#474);
#235=VERTEX_POINT('',#482);
#236=VERTEX_POINT('',#485);
#237=VERTEX_POINT('',#487);
#238=VERTEX_POINT('',#490);
#239=VERTEX_POINT('',#491);
#240=EDGE_CURVE('',#219,#219,#259,.T.);
#241=EDGE_CURVE('',#220,#220,#260,.T.);
#242=EDGE_CURVE('',#221,#221,#261,.T.);
#243=EDGE_CURVE('',#222,#222,#262,.T.);
#244=EDGE_CURVE('',#223,#223,#263,.T.);
#245=EDGE_CURVE('',#224,#224,#264,.T.);
#246=EDGE_CURVE('',#225,#225,#265,.T.);
#247=EDGE_CURVE('',#226,#226,#266,.T.);
#248=EDGE_CURVE('',#227,#227,#267,.T.);
#249=EDGE_CURVE('',#228,#228,#268,.T.);
#250=EDGE_CURVE('',#229,#229,#269,.T.);
#251=EDGE_CURVE('',#230,#230,#270,.T.);
#252=EDGE_CURVE('',#231,#231,#271,.T.);
#253=EDGE_CURVE('',#232,#232,#272,.T.);
#254=EDGE_CURVE('',#233,#233,#273,.T.);
#255=EDGE_CURVE('',#234,#234,#274,.T.);
#256=EDGE_CURVE('',#235,#235,#275,.T.);
#257=EDGE_CURVE('',#236,#236,#276,.T.);
#258=EDGE_CURVE('',#238,#238,#277,.T.);
#259=CIRCLE('',#291,203.008345379447);
#260=CIRCLE('',#293,203.977118204843);
#261=CIRCLE('',#295,232.776045638323);
#262=CIRCLE('',#297,266.654929754763);
#263=CIRCLE('',#299,281.106544809307);
#264=CIRCLE('',#300,280.82809859625);
#265=CIRCLE('',#301,280.549600811746);
#266=CIRCLE('',#302,280.271090198038);
#267=CIRCLE('',#304,265.657948070897);
#268=CIRCLE('',#305,231.756512691157);
#269=CIRCLE('',#308,298.185195904962);
#270=CIRCLE('',#309,237.799480213786);
#271=CIRCLE('',#311,312.720681294643);
#272=CIRCLE('',#312,312.725764526597);
#273=CIRCLE('',#314,312.730150157515);
#274=CIRCLE('',#316,298.196138148001);
#275=CIRCLE('',#317,237.810590593115);
#276=CIRCLE('',#319,203.023562028035);
#277=CIRCLE('',#322,203.01287698605);
#278=PRESENTATION_LAYER_ASSIGNMENT('1','Layer 1',(#290,#45,#46));
#279=STYLED_ITEM('',(#282),#290);
#280=STYLED_ITEM('',(#283),#45);
#281=STYLED_ITEM('',(#284),#46);
#282=PRESENTATION_STYLE_ASSIGNMENT((#285));
#283=PRESENTATION_STYLE_ASSIGNMENT((#35));
#284=PRESENTATION_STYLE_ASSIGNMENT((#36));
#285=CURVE_STYLE('',#288,POSITIVE_LENGTH_MEASURE(0.13),#286);
#286=COLOUR_RGB('Medium Maroon',0.6,0.4,0.4);
#287=COLOUR_RGB('medium steel',0.611764705882353,0.658823529411765,0.670588235294118);
#288=DRAUGHTING_PRE_DEFINED_CURVE_FONT('continuous');
#289=AXIS2_PLACEMENT_3D('',#403,#325,#326);
#290=AXIS2_PLACEMENT_3D('',#404,#327,#328);
#291=AXIS2_PLACEMENT_3D('',#405,#329,#330);
#292=AXIS2_PLACEMENT_3D('',#407,#331,#332);
#293=AXIS2_PLACEMENT_3D('',#408,#333,#334);
#294=AXIS2_PLACEMENT_3D('',#410,#335,#336);
#295=AXIS2_PLACEMENT_3D('',#411,#337,#338);
#296=AXIS2_PLACEMENT_3D('',#413,#339,#340);
#297=AXIS2_PLACEMENT_3D('',#414,#341,#342);
#298=AXIS2_PLACEMENT_3D('',#416,#343,#344);
#299=AXIS2_PLACEMENT_3D('',#417,#345,#346);
#300=AXIS2_PLACEMENT_3D('',#425,#348,#349);
#301=AXIS2_PLACEMENT_3D('',#432,#351,#352);
#302=AXIS2_PLACEMENT_3D('',#439,#354,#355);
#303=AXIS2_PLACEMENT_3D('',#441,#356,#357);
#304=AXIS2_PLACEMENT_3D('',#442,#358,#359);
#305=AXIS2_PLACEMENT_3D('',#450,#361,#362);
#306=AXIS2_PLACEMENT_3D('',#452,#363,#364);
#307=AXIS2_PLACEMENT_3D('',#453,#365,#366);
#308=AXIS2_PLACEMENT_3D('',#454,#367,#368);
#309=AXIS2_PLACEMENT_3D('',#456,#369,#370);
#310=AXIS2_PLACEMENT_3D('',#458,#371,#372);
#311=AXIS2_PLACEMENT_3D('',#459,#373,#374);
#312=AXIS2_PLACEMENT_3D('',#467,#376,#377);
#313=AXIS2_PLACEMENT_3D('',#469,#378,#379);
#314=AXIS2_PLACEMENT_3D('',#470,#380,#381);
#315=AXIS2_PLACEMENT_3D('',#472,#382,#383);
#316=AXIS2_PLACEMENT_3D('',#473,#384,#385);
#317=AXIS2_PLACEMENT_3D('',#481,#387,#388);
#318=AXIS2_PLACEMENT_3D('',#483,#389,#390);
#319=AXIS2_PLACEMENT_3D('',#484,#391,#392);
#320=AXIS2_PLACEMENT_3D('',#486,#393,#394);
#321=AXIS2_PLACEMENT_3D('',#488,#395,#396);
#322=AXIS2_PLACEMENT_3D('',#489,#397,#398);
#323=AXIS2_PLACEMENT_3D('',#492,#399,#400);
#324=AXIS2_PLACEMENT_3D('',#493,#401,#402);
#325=DIRECTION('',(0.,0.,1.));
#326=DIRECTION('',(1.,0.,0.));
#327=DIRECTION('',(4.04965042533877E-5,0.,0.999999999180017));
#328=DIRECTION('',(0.999999999180017,0.,-4.04965042533877E-5));
#329=DIRECTION('',(-0.9999999991587,0.,-4.10194998049401E-5));
#330=DIRECTION('',(-4.10194998050015E-5,0.,0.9999999991587));
#331=DIRECTION('',(-0.9999999991587,0.,-4.10194998049401E-5));
#332=DIRECTION('',(-4.10194998049507E-5,0.,0.9999999991587));
#333=DIRECTION('',(-0.9999999991587,0.,-4.10194998049401E-5));
#334=DIRECTION('',(-4.10194998051982E-5,0.,0.9999999991587));
#335=DIRECTION('',(-0.9999999991587,0.,-4.10194998049401E-5));
#336=DIRECTION('',(-4.10194998049507E-5,0.,0.999999999158701));
#337=DIRECTION('',(0.9999999991587,0.,4.10194998049401E-5));
#338=DIRECTION('',(-4.1019499804937E-5,0.,0.9999999991587));
#339=DIRECTION('',(0.9999999991587,0.,4.10194998049401E-5));
#340=DIRECTION('',(4.10194998049448E-5,0.,-0.9999999991587));
#341=DIRECTION('',(0.9999999991587,0.,4.10194998049401E-5));
#342=DIRECTION('',(-4.10194998048918E-5,0.,0.9999999991587));
#343=DIRECTION('',(-0.9999999991587,0.,-4.10194998049401E-5));
#344=DIRECTION('',(-4.10194998049433E-5,0.,0.9999999991587));
#345=DIRECTION('',(0.9999999991587,0.,4.10194998049401E-5));
#346=DIRECTION('',(-4.10194998048307E-5,0.,0.9999999991587));
#347=DIRECTION('',(-0.9999999991587,0.,-4.10194998049401E-5));
#348=DIRECTION('',(0.9999999991587,0.,4.10194998049401E-5));
#349=DIRECTION('',(-4.10194998049663E-5,0.,0.999999999158701));
#350=DIRECTION('',(-0.9999999991587,0.,-4.10194998049401E-5));
#351=DIRECTION('',(0.9999999991587,0.,4.10194998049401E-5));
#352=DIRECTION('',(-4.10194998047634E-5,0.,0.9999999991587));
#353=DIRECTION('',(-0.9999999991587,0.,-4.10194998049401E-5));
#354=DIRECTION('',(0.9999999991587,0.,4.10194998049401E-5));
#355=DIRECTION('',(-4.10194998049626E-5,0.,0.9999999991587));
#356=DIRECTION('',(0.9999999991587,0.,4.10194998049401E-5));
#357=DIRECTION('',(4.10194998048071E-5,0.,-0.999999999158701));
#358=DIRECTION('',(0.9999999991587,0.,4.10194998049401E-5));
#359=DIRECTION('',(-4.10194998050471E-5,0.,0.9999999991587));
#360=DIRECTION('',(-0.9999999991587,0.,-4.10194998049401E-5));
#361=DIRECTION('',(0.9999999991587,0.,4.10194998049401E-5));
#362=DIRECTION('',(-4.10194998048633E-5,0.,0.999999999158701));
#363=DIRECTION('',(0.9999999991587,0.,4.10194998049401E-5));
#364=DIRECTION('',(4.10194998049388E-5,0.,-0.9999999991587));
#365=DIRECTION('',(-0.9999999991587,0.,-4.10194998049401E-5));
#366=DIRECTION('',(-4.10194998049241E-5,0.,0.9999999991587));
#367=DIRECTION('',(0.9999999991587,0.,4.10194998016004E-5));
#368=DIRECTION('',(4.10194998014463E-5,0.,-0.9999999991587));
#369=DIRECTION('',(0.9999999991587,0.,4.10194998016004E-5));
#370=DIRECTION('',(4.10194998017167E-5,0.,-0.9999999991587));
#371=DIRECTION('',(0.9999999991587,0.,4.10194998016004E-5));
#372=DIRECTION('',(4.10194998016017E-5,0.,-0.9999999991587));
#373=DIRECTION('',(0.9999999991587,0.,4.10194998016004E-5));
#374=DIRECTION('',(4.10194998017304E-5,0.,-0.999999999158701));
#375=DIRECTION('',(0.9999999991587,0.,4.10194998016004E-5));
#376=DIRECTION('',(0.9999999991587,0.,4.10194998016004E-5));
#377=DIRECTION('',(4.10194998014401E-5,0.,-0.999999999158701));
#378=DIRECTION('',(0.9999999991587,0.,4.10194998016004E-5));
#379=DIRECTION('',(4.10194998015428E-5,0.,-0.9999999991587));
#380=DIRECTION('',(0.9999999991587,0.,4.10194998016004E-5));
#381=DIRECTION('',(4.10194998015824E-5,0.,-0.9999999991587));
#382=DIRECTION('',(0.9999999991587,0.,4.10194998016004E-5));
#383=DIRECTION('',(4.10194998015107E-5,0.,-0.9999999991587));
#384=DIRECTION('',(0.9999999991587,0.,4.10194998016004E-5));
#385=DIRECTION('',(4.1019499801678E-5,0.,-0.999999999158701));
#386=DIRECTION('',(0.9999999991587,0.,4.10194998016004E-5));
#387=DIRECTION('',(0.9999999991587,0.,4.10194998016004E-5));
#388=DIRECTION('',(4.10194998017967E-5,0.,-0.999999999158701));
#389=DIRECTION('',(-0.9999999991587,0.,-4.10194998016004E-5));
#390=DIRECTION('',(-4.10194998016029E-5,0.,0.9999999991587));
#391=DIRECTION('',(0.9999999991587,0.,4.10194998016004E-5));
#392=DIRECTION('',(4.10194998014744E-5,0.,-0.9999999991587));
#393=DIRECTION('',(0.9999999991587,0.,4.10194998016004E-5));
#394=DIRECTION('',(4.10194998016062E-5,0.,-0.999999999158701));
#395=DIRECTION('',(0.9999999991587,0.,4.10194998016004E-5));
#396=DIRECTION('',(4.10194998016005E-5,0.,-0.9999999991587));
#397=DIRECTION('',(0.9999999991587,0.,4.10194998016004E-5));
#398=DIRECTION('',(4.10194998015269E-5,0.,-0.999999999158701));
#399=DIRECTION('',(-0.9999999991587,0.,-4.10194998016004E-5));
#400=DIRECTION('',(-4.10194998016004E-5,0.,0.9999999991587));
#401=DIRECTION('',(-0.9999999991587,0.,-4.10194998016004E-5));
#402=DIRECTION('',(-4.1019499801606E-5,0.,0.9999999991587));
#403=CARTESIAN_POINT('',(0.,0.,0.));
#404=CARTESIAN_POINT('',(-4.22988549365615,0.,-0.0169431662949364));
#405=CARTESIAN_POINT('',(-973.157554157396,269.915482207115,1283.82248623083));
#406=CARTESIAN_POINT('',(-973.16588145818,269.915482207115,1486.83083143949));
#407=CARTESIAN_POINT('',(-973.157554157396,269.915482207115,1283.82248623083));
#408=CARTESIAN_POINT('',(-757.666215874246,269.915482207115,1283.83132557775));
#409=CARTESIAN_POINT('',(-757.674582913607,269.915482207115,1487.80844361099));
#410=CARTESIAN_POINT('',(-757.666215874246,269.915482207115,1283.83132557775));
#411=CARTESIAN_POINT('',(-753.522153342356,269.915482207115,1283.83149556512));
#412=CARTESIAN_POINT('',(-753.531701699315,269.915482207115,1516.60754100761));
#413=CARTESIAN_POINT('',(-753.522153342356,269.915482207115,1283.83149556512));
#414=CARTESIAN_POINT('',(-754.8203194095,269.915482207115,1283.831442315));
#415=CARTESIAN_POINT('',(-754.83125746134,269.915482207115,1550.48637184543));
#416=CARTESIAN_POINT('',(-754.8203194095,269.915482207115,1283.831442315));
#417=CARTESIAN_POINT('',(-772.845216390116,269.915482207115,1283.83070294274));
#418=CARTESIAN_POINT('',(-772.856747239975,269.915482207115,1564.93724751555));
#419=CARTESIAN_POINT('',(-772.833685540256,269.915482207115,1002.72415836993));
#420=CARTESIAN_POINT('',(-768.590368408625,269.915482207115,1002.70526010957));
#421=CARTESIAN_POINT('',(-760.028463777619,269.915482207115,1004.87722951712));
#422=CARTESIAN_POINT('',(-754.977503107596,269.915482207115,1012.78424719852));
#423=CARTESIAN_POINT('',(-754.809381357661,269.915482207115,1017.17651278457));
#424=CARTESIAN_POINT('',(-982.002648490887,269.915482207115,1283.82212340949));
#425=CARTESIAN_POINT('',(-834.79263975568,269.915482207115,1283.82816189042));
#426=CARTESIAN_POINT('',(-834.804159183815,269.915482207115,1564.65626025041));
#427=CARTESIAN_POINT('',(-834.781120327544,269.915482207115,1003.00006353043));
#428=CARTESIAN_POINT('',(-814.131975419713,269.915482207115,1002.9080866059));
#429=CARTESIAN_POINT('',(-793.482830479984,269.915482207115,1002.81612248791));
#430=CARTESIAN_POINT('',(-772.833685540256,269.915482207115,1002.72415836993));
#431=CARTESIAN_POINT('',(-982.002648490887,269.915482207115,1283.82212340949));
#432=CARTESIAN_POINT('',(-896.740139801626,269.915482207115,1283.82562083495));
#433=CARTESIAN_POINT('',(-896.751647805921,269.915482207115,1564.37522141067));
#434=CARTESIAN_POINT('',(-896.72863179733,269.915482207115,1003.27602025923));
#435=CARTESIAN_POINT('',(-876.079461318034,269.915482207115,1003.18403041412));
#436=CARTESIAN_POINT('',(-855.430290838738,269.915482207115,1003.092040569));
#437=CARTESIAN_POINT('',(-834.781120327544,269.915482207115,1003.00006353043));
#438=CARTESIAN_POINT('',(-982.002648490887,269.915482207115,1283.82212340949));
#439=CARTESIAN_POINT('',(-958.687563561635,269.915482207115,1283.82307978261));
#440=CARTESIAN_POINT('',(-958.699060141565,269.915482207115,1564.09416974486));
#441=CARTESIAN_POINT('',(-958.687563561635,269.915482207115,1283.82307978261));
#442=CARTESIAN_POINT('',(-976.57862877662,269.915482207115,1283.82234590006));
#443=CARTESIAN_POINT('',(-976.589525932769,269.915482207115,1549.48029374746));
#444=CARTESIAN_POINT('',(-976.567731620471,269.915482207115,1018.16439805267));
#445=CARTESIAN_POINT('',(-976.439732461118,269.915482207115,1013.77107682571));
#446=CARTESIAN_POINT('',(-971.460989512491,269.915482207115,1005.81873758007));
#447=CARTESIAN_POINT('',(-962.919102571837,269.915482207115,1003.57089211497));
#448=CARTESIAN_POINT('',(-958.676066981705,269.915482207115,1003.55198982036));
#449=CARTESIAN_POINT('',(-982.002648490887,269.915482207115,1283.82212340949));
#450=CARTESIAN_POINT('',(-977.564953332297,269.915482207115,1283.82230544152));
#451=CARTESIAN_POINT('',(-977.574459868524,269.915482207115,1515.5788179377));
#452=CARTESIAN_POINT('',(-977.564953332297,269.915482207115,1283.82230544152));
#453=CARTESIAN_POINT('',(-973.157554157396,269.915482207115,1283.82248623083));
#454=CARTESIAN_POINT('',(-975.368159586835,268.236399092976,-1376.95664292304));
#455=CARTESIAN_POINT('',(-975.35592817925,268.236399092976,-1675.14183857713));
#456=CARTESIAN_POINT('',(-977.400663744981,268.236399092976,-1376.95672629534));
#457=CARTESIAN_POINT('',(-977.390909329249,268.236399092976,-1614.75620630906));
#458=CARTESIAN_POINT('',(-977.400663744981,268.236399092976,-1376.95672629534));
#459=CARTESIAN_POINT('',(-957.410733223064,268.236399092976,-1376.95590631839));
#460=CARTESIAN_POINT('',(-957.39790557714,268.236399092976,-1689.67658734994));
#461=CARTESIAN_POINT('',(-975.35592817925,268.236399092976,-1675.14183857713));
#462=CARTESIAN_POINT('',(-975.207881304394,268.236399092976,-1679.53495124646));
#463=CARTESIAN_POINT('',(-970.193788960536,268.236399092976,-1687.46567928356));
#464=CARTESIAN_POINT('',(-961.641328862742,268.236399092976,-1689.67658729966));
#465=CARTESIAN_POINT('',(-957.39790557714,268.236399092976,-1689.67658734994));
#466=CARTESIAN_POINT('',(-981.904815559042,268.236399092976,-1376.95691105339));
#467=CARTESIAN_POINT('',(-833.515786963086,268.236399092976,-1376.95082420966));
#468=CARTESIAN_POINT('',(-833.50295910865,268.236399092976,-1689.67658847316));
#469=CARTESIAN_POINT('',(-895.46329833482,268.236399092976,-1376.95336526559));
#470=CARTESIAN_POINT('',(-726.568352003361,268.236399092976,-1376.94643727937));
#471=CARTESIAN_POINT('',(-726.555523969028,268.236399092976,-1689.67658717378));
#472=CARTESIAN_POINT('',(-833.515786963086,268.236399092976,-1376.95082420966));
#473=CARTESIAN_POINT('',(-708.609809703701,268.236399092976,-1376.94570062895));
#474=CARTESIAN_POINT('',(-708.597577847271,268.236399092976,-1675.14183852608));
#475=CARTESIAN_POINT('',(-726.555523969028,268.236399092976,-1689.67658717378));
#476=CARTESIAN_POINT('',(-722.312104740821,268.236399092976,-1689.6765872959));
#477=CARTESIAN_POINT('',(-713.759622316792,268.236399092976,-1687.46571368033));
#478=CARTESIAN_POINT('',(-708.745624270338,268.236399092976,-1679.53493725054));
#479=CARTESIAN_POINT('',(-708.597577847271,268.236399092976,-1675.14183852607));
#480=CARTESIAN_POINT('',(-981.904815559042,268.236399092976,-1376.95691105339));
#481=CARTESIAN_POINT('',(-706.57235109242,268.236399092976,-1376.94561705341));
#482=CARTESIAN_POINT('',(-706.562596220946,268.236399092976,-1614.75620744646));
#483=CARTESIAN_POINT('',(-708.609809703701,268.236399092976,-1376.94570062895));
#484=CARTESIAN_POINT('',(-711.739388729996,268.236399092976,-1376.94582900271));
#485=CARTESIAN_POINT('',(-711.731060805033,268.236399092976,-1579.96939085994));
#486=CARTESIAN_POINT('',(-706.57235109242,268.236399092976,-1376.94561705341));
#487=CARTESIAN_POINT('',(-712.222445219454,268.236399092976,-1376.94584881745));
#488=CARTESIAN_POINT('',(-711.739388729996,268.236399092976,-1376.94582900271));
#489=CARTESIAN_POINT('',(-972.230772706122,268.236399092976,-1376.95651422899));
#490=CARTESIAN_POINT('',(-972.222445219455,268.236399092976,-1579.96939104425));
#491=CARTESIAN_POINT('',(-972.222445219454,268.236399092976,-1376.95651388741));
#492=CARTESIAN_POINT('',(-972.222445219454,268.236399092976,-1376.95651388741));
#493=CARTESIAN_POINT('',(-972.230772706122,268.236399092976,-1376.95651422899));
#494=MECHANICAL_DESIGN_GEOMETRIC_PRESENTATION_REPRESENTATION('',(#279,#280,
#281),#495);
#495=(
GEOMETRIC_REPRESENTATION_CONTEXT(3)
GLOBAL_UNCERTAINTY_ASSIGNED_CONTEXT((#496))
GLOBAL_UNIT_ASSIGNED_CONTEXT((#502,#498,#497))
REPRESENTATION_CONTEXT('SOLID_TIRES_STEP','TOP_LEVEL_ASSEMBLY_PART')
);
#496=UNCERTAINTY_MEASURE_WITH_UNIT(LENGTH_MEASURE(2.E-5),#502,
'DISTANCE_ACCURACY_VALUE','Maximum Tolerance applied to model');
#497=(
NAMED_UNIT(*)
SI_UNIT($,.STERADIAN.)
SOLID_ANGLE_UNIT()
);
#498=(
CONVERSION_BASED_UNIT('DEGREE',#500)
NAMED_UNIT(#499)
PLANE_ANGLE_UNIT()
);
#499=DIMENSIONAL_EXPONENTS(0.,0.,0.,0.,0.,0.,0.);
#500=PLANE_ANGLE_MEASURE_WITH_UNIT(PLANE_ANGLE_MEASURE(0.0174532925),#501);
#501=(
NAMED_UNIT(*)
PLANE_ANGLE_UNIT()
SI_UNIT($,.RADIAN.)
);
#502=(
LENGTH_UNIT()
NAMED_UNIT(*)
SI_UNIT(.MILLI.,.METRE.)
);
ENDSEC;
END-ISO-10303-21;
