**ABCDEFGHIJKLMNOPQRSTUVWXYZabcdefghijklmnopqrstuvwxyz**************************
**PARASOLID !"#$%&'()*+,-./:;<=>?@[\]^_`{|}~0123456789**************************
**PART1;
MC=AMD64;
MC_MODEL=Intel64 Family 6 Model 170 Stepping 4, GenuineIntel;
MC_ID=unknown;
OS=Windows_NT;
OS_RELEASE=unknown;
FRU=Parasolid Version 36.1, build 228,  1-18-2025;
APPL=SOLIDWORKS 2025-2025135;
SITE=;
USER=unknown;
FORMAT=text;
GUISE=transmit;
KEY=Ttray;
FILE=Ttray.x_t;
DATE=Thu Nov  6 00:44:22 2025;
**PART2;
SCH=SCH_3601228_36001;
USFLD_SIZE=0;
**PART3;
**END_OF_HEADER*****************************************************************
T51 : TRANSMIT FILE created by modeller version 360122823 SCH_3601228_36001_1300
6231 0 10 21 CCCCI7 lattice222 0 CCCI4 mesh1006 0 I8 polyline1008 0 CCCCCCCCCCA1
6 mesh_offset_data206 0 Z1 9 2 3 0 0 0 0 0 0 0 0 1e3 1e-8 0 0 0 1 0 1 4 0 81 255
 2 2 9 5 1 0 0 0 0 0 0 70 11 CI9 list_type0 0 1 uI10 notransmit0 0 1 lCCCDCCDI12
 finger_index0 0 1 dI12 finger_block1012 0 CZ3 0 4 T1 0 0 1 20 1 6 6 11 255 4 7
 0 1 7 8 1 9 0 0 0 12 36 CCCI7 lattice222 0 CCCI4 mesh1006 0 I8 polyline1008 0 C
CCCCCCDI5 owner1040 0 CCCI16 boundary_lattice222 0 CCCI13 boundary_mesh1006 0 I1
7 boundary_polyline1008 0 CCCA16 index_map_offset0 0 1 dA9 index_map82 0 A17 nod
e_id_index_map82 0 A20 schema_embedding_map82 0 A5 child12 0 A14 lowest_node_id0
 0 1 dA16 mesh_offset_data206 0 Z7 228 10 11 0 0 0 0 0 0 0 1e3 1e-8 4 12 0 1 0 3
 1 13 0 14 15 16 0 0 17 18 19 0 0 0 0 0 0 0 100 10 CCCCCCCCCA9 precision229 0 Z8
 8 4 0 0 1 0 0 0 1 0 0 0 1 0 0 0 1 0 ?0 11 9 5 0 1 12 20 1 21 4 0 0 12 12 112 22
 23 0 0 0 0 0 0 0 1e3 1e-8 9 24 7 1 0 3 1 25 0 26 27 28 0 0 29 30 31 0 0 0 0 0 0
 0 100 20 6 9 0 0 1 0 0 0 1 0 0 0 1 0 0 0 1 0 ?0 11 21 3 0 1 24 32 1 33 9 0 0 12
 24 105 34 35 0 0 0 0 0 0 0 1e3 1e-8 21 36 12 1 0 3 1 37 0 38 39 40 0 0 41 42 43
 0 0 0 0 0 0 0 100 32 4 21 0 0 1 0 0 0 1 0 0 0 1 0 0 0 1 0 ?0 11 33 1 0 1 36 44
 1 0 21 0 0 12 36 219 45 46 0 0 0 0 0 0 0 1e3 1e-8 33 47 24 1 0 3 1 48 0 49 50 5
1 0 0 52 53 54 0 0 0 0 0 0 0 100 44 2 33 0 0 1 0 0 0 1 0 0 0 1 0 0 0 1 0 ?0 81 1
 45 219 55 36 56 0 0 0 0 70 46 0 4 T36 0 0 4 20 1 57 57 13 255 48 3 0 36 0 58 0
 0 52 58 67 255 49 69 0 58 59 0 0 +60 0 .999990480720734 .00436330928474658 ?30
 255 50 73 0 61 62 0 0 +-.00430334172378024 .04373842191372615 1.296097069362002
 0 .999990480720734 .00436330928474658 29 255 51 53 0 63 64 0 -.0043033417237802
2 .0972663829938443 .671009239342054 19 9 CCCCCCI5 frame230 0 CA5 owner12 0 Z52
 1 0 36 0 0 48 0 V0 16 255 53 6 0 ?65 0 61 60 0 0 36 18 255 54 15 0 66 0 67 68 ?
36 17 255 66 0 0 0 0 54 69 70 0 71 -18 67 10 0 72 54 73 74 ?36 29 68 18 0 54 74
 75 -.00430334172378022 .046466866573231 .670787583230389 29 74 13 0 67 76 68 .4
43659670685928 .046466866573231 .670787583230389 29 75 56 0 77 68 78 -.004303341
72378024 .0945379383343395 1.296318725473668 18 77 48 0 79 80 0 75 ?36 29 78 55
 0 80 75 64 .443659670685928 .0963310920469659 .885360774506493 18 80 47 0 81 82
 77 78 ?36 29 64 54 0 82 78 51 .443659670685928 .0972663829938443 .6710092393420
54 18 82 46 0 83 63 80 64 ?36 17 83 0 84 85 86 82 72 87 0 88 +18 63 44 0 69 89 8
2 51 ?36 17 69 0 90 88 71 63 66 70 0 91 +18 89 2 0 92 73 63 93 ?36 17 92 0 94 65
 95 89 79 61 0 96 -18 73 5 0 97 67 89 76 ?36 29 93 4 0 89 0 76 -.004303341723780
24 .04373842191372615 1.296097069362002 29 76 8 0 73 93 74 .443659670685928 .045
5315756263526 .885139118394828 17 97 0 84 86 85 73 81 98 0 99 -15 255 84 63 0 85
 100 0 17 86 0 84 83 97 67 99 101 0 0 +17 85 0 84 97 83 80 102 103 0 104 -17 81
 0 94 95 65 80 97 98 0 85 +16 98 59 0 ?81 101 103 62 0 0 36 17 99 0 0 0 0 73 86
 101 0 65 -16 101 11 0 ?86 105 98 106 0 0 36 17 65 0 94 81 92 73 96 53 0 0 +15 9
4 65 0 95 58 0 17 96 0 0 0 0 89 65 53 0 0 -17 95 0 94 92 81 77 104 105 0 0 -14 2
55 58 66 107 ?100 0 94 48 49 +0 0 100 0 48 81 1 107 213 108 58 109 0 0 110 111 1
4 100 64 110 ?112 58 84 48 59 +0 0 112 58 48 81 1 110 215 108 100 113 0 107 114
 115 14 112 62 114 ?0 100 90 48 116 +0 0 0 100 48 50 255 59 68 0 100 116 49 0 +.
443659670685928 .0455315756263526 .885139118394828 1 -1129966322386154e-33 25896
7561587099e-30 258967561587099e-30 0 -1 50 116 67 0 112 0 59 0 +.443659670685928
 .046466866573231 .670787583230389 0 .00436330928474658 -.999990480720734 0 .999
990480720734 .00436330928474658 81 1 114 217 108 112 117 0 110 0 118 15 90 61 0
 88 112 0 17 88 0 90 72 69 82 91 119 0 102 -17 72 0 90 71 88 67 83 87 0 120 -17
 91 0 0 0 0 63 88 119 0 0 +16 119 32 0 ?91 87 0 121 0 0 36 17 102 0 0 0 0 82 85
 103 0 0 +16 103 36 0 ?102 98 70 122 0 0 36 16 70 57 0 ?69 103 123 124 0 0 36 30
 122 51 0 103 125 121 0 +.443659670685928 .0963310920469659 .885360774506493 258
9700267951055e-31 .004363309284746585 -.999990480720734 134 255 125 52 0 105 126
 122 0 +127 128 30 121 50 0 119 122 124 0 +.443659670685928 .0972663829938443 .6
71009239342054 -1 0 0 30 124 70 0 70 121 129 0 +-.00430334172378022 .04646686657
3231 .670787583230389 0 .999990480720734 .00436330928474658 30 129 71 0 87 124 6
2 0 +.443659670685928 .046466866573231 .670787583230389 0 .999990480720734 .0043
6330928474658 16 87 58 0 ?83 123 119 129 0 0 36 30 62 72 0 98 129 50 0 +.4436596
70685928 .0455315756263526 .885139118394828 0 .999990480720734 .0043633092847465
8 16 123 16 0 ?71 70 87 126 0 0 36 17 71 0 90 69 72 54 120 123 0 0 +30 126 17 0
 123 106 125 0 +.443659670685928 .046466866573231 .670787583230389 -1 0 0 30 106
 12 0 101 60 126 0 +.443659670685928 .0455315756263526 .885139118394828 25897002
67951055e-31 .004363309284746585 -.999990480720734 134 60 7 0 53 0 106 130 +131
 132 141 255 130 49 130 130 60 136 255 131 3 4 3 2 5 FFF1 133 134 135 135 255 13
2 2 0 45 255 12 133 -.00430334172378024 .04373842191372615 1.296097069362002 .22
68720858933765 .04373842191372615 1.296097069362002 .443659670685928 .0450041843
959812 1.006007517944382 .443659670685928 .0455315756263526 .885139118394828 127
 255 2 134 4 4 128 255 2 135 0 1 17 120 0 0 0 0 67 71 123 0 86 -16 105 40 0 ?104
 61 101 125 0 0 36 136 127 3 4 3 2 5 FFF1 136 137 138 135 128 2 0 45 12 136 -.00
430334172378024 .0945379383343395 1.296318725473668 .2268720858933765 .094537938
3343395 1.296318725473668 .443659670685928 .0958037008165945 1.006229174056048 .
443659670685928 .0963310920469659 .885360774506493 127 2 137 4 4 128 2 138 0 1 1
7 104 0 0 0 0 80 95 105 0 0 +16 61 60 0 ?79 53 105 50 0 0 36 17 79 0 0 0 0 77 92
 61 0 95 +80 7 CCCCCDI12 legal_owners0 17 1 lCZ1 108 139 140 9000 1 1 1 1 1 1 1
 1 0 FFFFTFTFFFFFFFFFF1 81 1 117 193 141 112 0 114 113 0 142 82 255 1 118 -69978
8177 80 1 141 0 143 8001 0 0 0 0 3 5 0 0 0 FFFFTFTFFFFFFFFFF2 81 1 113 192 141 1
00 0 110 109 117 144 83 255 3 142 .792156862745098 .819607843137255 .93333333333
3333 81 1 109 191 141 58 0 107 0 113 145 83 3 144 .792156862745098 .819607843137
255 .933333333333333 83 3 145 .792156862745098 .819607843137255 .933333333333333
 79 255 15 143 SDL/TYSA_COLOUR79 14 140 SWEntUnchanged82 1 115 -699657105 82 1 1
11 -699526033 74 4 CI16 index_map_offset0 0 1 dCCZ20 57 4 0 0 56 114 117 45 0 0
 0 0 0 0 0 0 0 0 0 0 0 0 0 0 81 2 56 94 146 36 0 45 0 0 147 0 80 2 146 148 149 9
000 0 0 0 0 3 5 0 0 0 FFTFTTTFFTFFFFFFF10 10 98 255 46 147 83 116 111 99 107 45
 82 69 86 79 76 85 84 73 79 78 95 53 48 48 83 67 95 70 85 76 76 83 67 65 76 69 4
5 67 104 97 114 108 105 101 32 102 105 120 45 49 79 23 149 SWIMPLICITBODYNAME_ID
_U80 1 55 150 151 8017 0 0 0 0 0 0 0 0 0 TTTTTTTTTTTTTFTFT3 79 13 151 SDL/TYSA_N
AME81 1 34 105 55 24 152 0 0 0 0 70 35 0 4 T24 0 0 4 20 1 153 153 13 37 35 0 24
 0 154 0 0 41 154 50 38 3 0 154 0 0 0 +.3063689498375075 .0952367434792635 1.136
165399821164 -730177963532172e-31 .999990480720734 .00436330928474655 0 -.004363
30928474655 .999990480720735 30 39 20 0 42 155 0 0 +.443659670685928 .0972663829
938444 .671009239342054 517940053590212e-30 .00436330928474659 -.999990480720734
 29 40 33 0 43 156 0 .443659670685928 .0972663829938444 .671009239342054 19 41 3
4 0 24 0 0 37 0 V0 16 42 18 0 ?157 0 158 39 0 0 24 18 43 31 0 159 0 160 40 ?24 1
7 159 0 0 0 0 43 161 162 0 157 -18 160 28 0 163 43 164 156 ?24 17 163 0 165 157
 166 160 167 158 0 168 +18 164 25 0 166 160 169 170 ?24 29 156 30 0 160 170 40 .
443659670685928 .096331092046966 .885360774506493 29 170 27 0 164 171 156 -.0043
0334172378024 .0945379383343395 1.296318725473668 29 171 24 0 169 0 170 -.004303
34172378022 .0972663829938444 .671009239342054 18 169 22 0 161 164 0 171 ?24 17
 161 0 165 166 157 169 159 162 0 172 +15 165 4 0 161 154 0 17 166 0 165 163 161
 164 172 173 0 167 +17 157 0 165 161 163 43 168 42 0 0 +16 162 5 0 ?161 173 0 17
4 0 0 24 17 172 0 0 0 0 169 166 173 0 0 -16 173 9 0 ?166 158 162 175 0 0 24 16 1
58 13 0 ?163 42 173 155 0 0 24 30 175 11 0 173 174 155 0 +-.00430334172378024 .0
945379383343395 1.296318725473668 -3467696798810585e-32 -.00436330928474659 .999
990480720735 30 174 7 0 162 0 175 0 +-.00430334172378022 .0972663829938444 .6710
09239342054 -1 0 0 134 155 15 0 158 175 39 0 +176 177 136 176 3 4 3 2 5 FFF1 178
 179 180 135 177 2 0 45 12 178 -.00430334172378024 .0945379383343395 1.296318725
473668 .2268720858933765 .0945379383343395 1.296318725473668 .443659670685928 .0
958037008165946 1.006229174056048 .443659670685928 .096331092046966 .88536077450
6493 127 2 179 4 4 128 2 180 0 1 17 168 0 0 0 0 160 157 42 0 0 -17 167 0 0 0 0 1
64 163 158 0 0 -14 154 1 181 ?0 0 165 37 38 +0 0 0 0 37 81 1 181 103 108 154 182
 0 0 0 183 81 1 182 93 141 154 0 181 0 0 184 82 1 183 -47377275 83 3 184 .792156
862745098 .819607843137255 .933333333333333 74 20 153 4 0 0 152 182 181 34 0 0 0
 0 0 0 0 0 0 0 0 0 0 0 0 0 81 2 152 46 146 24 0 34 0 0 185 0 98 46 185 83 116 11
1 99 107 45 82 69 86 79 76 85 84 73 79 78 95 53 48 48 83 67 95 70 85 76 76 83 67
 65 76 69 45 67 104 97 114 108 105 101 32 102 105 120 45 50 81 1 22 112 55 12 18
6 0 0 0 0 70 23 0 4 T12 0 0 4 20 1 187 187 13 25 35 0 12 0 188 0 0 29 188 50 26
 3 0 188 0 0 0 +-.314975633285068 .0952367434792635 1.136165399821164 7301779635
32172e-31 .999990480720734 .00436330928474655 0 -.00436330928474655 .99999048072
0735 30 27 20 0 30 189 0 0 +-.452266354133488 .0972663829938444 .671009239342054
 -517940053590212e-30 .00436330928474659 -.999990480720734 29 28 33 0 31 190 0 -
.452266354133488 .0972663829938444 .671009239342054 19 29 34 0 12 0 0 25 0 V0 16
 30 18 0 ?191 0 192 27 0 0 12 18 31 31 0 191 0 193 28 ?12 17 191 0 0 0 0 31 194
 30 0 195 +18 193 28 0 196 31 197 190 ?12 17 196 0 0 0 0 193 198 192 0 194 +18 1
97 25 0 199 193 200 201 ?12 29 190 30 0 193 201 28 -.452266354133488 .0963310920
46966 .885360774506493 29 201 27 0 197 202 190 -.00430334172378024 .094537938334
3395 1.296318725473668 29 202 24 0 200 0 201 -.00430334172378026 .09726638299384
44 .671009239342054 18 200 22 0 203 197 0 202 ?12 17 203 0 204 195 198 200 199 2
05 0 206 -15 204 4 0 195 188 0 17 195 0 204 194 203 31 206 207 0 0 -17 198 0 204
 203 194 197 196 192 0 0 -17 199 0 0 0 0 197 203 205 0 198 +16 205 9 0 ?199 192
 207 208 0 0 12 17 206 0 0 0 0 200 195 207 0 0 +16 207 5 0 ?206 205 0 209 0 0 12
 30 209 7 0 207 0 208 0 +-.00430334172378026 .0972663829938444 .671009239342054
 1 0 0 30 208 11 0 205 209 189 0 +-.00430334172378024 .0945379383343395 1.296318
725473668 3467696798810585e-32 -.00436330928474659 .999990480720735 134 189 15 0
 192 208 27 0 +210 211 16 192 13 0 ?196 30 205 189 0 0 12 136 210 3 4 3 2 5 FFF1
 212 213 214 135 211 2 0 45 12 212 -.00430334172378024 .0945379383343395 1.29631
8725473668 -.235478769340937 .0945379383343395 1.296318725473668 -.4522663541334
88 .0958037008165946 1.006229174056048 -.452266354133488 .096331092046966 .88536
0774506493 127 2 213 4 4 128 2 214 0 1 17 194 0 204 198 195 193 191 30 0 0 -14 1
88 1 215 ?0 0 204 25 26 +0 0 0 0 25 81 1 215 110 108 188 216 0 0 0 217 81 1 216
 100 141 188 0 215 0 0 218 82 1 217 -41544570 83 3 218 .792156862745098 .8196078
43137255 .933333333333333 74 20 187 4 0 0 186 216 215 22 0 0 0 0 0 0 0 0 0 0 0 0
 0 0 0 0 81 2 186 46 146 12 0 22 0 0 219 0 98 46 219 83 116 111 99 107 45 82 69
 86 79 76 85 84 73 79 78 95 53 48 48 83 67 95 70 85 76 76 83 67 65 76 69 45 67 1
04 97 114 108 105 101 32 102 105 120 45 51 81 1 10 228 55 7 220 0 0 0 0 70 11 0
 4 T7 0 0 4 20 1 221 221 13 13 3 0 7 0 222 0 0 17 222 67 14 69 0 222 223 0 0 -22
4 0 .999990480720734 .00436330928474658 ?30 15 73 0 225 226 0 0 +-.0043033417237
8024 .04373842191372615 1.296097069362002 0 .999990480720734 .00436330928474658
 29 16 53 0 227 228 0 -.00430334172378026 .0972663829938443 .671009239342054 19
 17 1 0 7 0 0 13 0 V0 16 18 6 0 ?229 0 225 224 0 0 7 18 19 15 0 230 0 231 232 ?7
 17 230 0 0 0 0 19 233 234 0 235 +18 231 10 0 233 19 236 237 ?7 29 232 18 0 19 2
37 238 -.00430334172378026 .046466866573231 .670787583230389 29 237 13 0 231 239
 232 -.452266354133488 .046466866573231 .670787583230389 29 238 56 0 240 232 241
 -.00430334172378024 .0945379383343395 1.296318725473668 18 240 48 0 242 243 0 2
38 ?7 29 241 55 0 243 238 228 -.452266354133488 .0963310920469659 .8853607745064
93 18 243 47 0 244 245 240 241 ?7 29 228 54 0 245 241 16 -.452266354133488 .0972
663829938443 .671009239342054 18 245 46 0 246 227 243 228 ?7 17 246 0 0 0 0 245
 247 248 0 249 -18 227 44 0 250 251 245 16 ?7 17 250 0 0 0 0 227 235 252 0 247 +
18 251 2 0 253 236 227 254 ?7 17 253 0 0 0 0 251 242 225 0 255 -18 236 5 0 256 2
31 251 239 ?7 29 254 4 0 251 0 239 -.00430334172378024 .04373842191372615 1.2960
97069362002 29 239 8 0 236 254 237 -.452266354133488 .0455315756263526 .88513911
8394828 17 256 0 257 258 259 236 260 261 0 229 -15 257 63 0 262 263 0 17 258 0 2
57 262 256 243 264 265 0 266 +17 259 0 257 256 262 231 249 267 0 0 -17 260 0 0 0
 0 231 256 261 0 259 +16 261 11 0 ?260 268 265 269 0 0 7 17 229 0 0 0 0 236 255
 18 0 264 +17 255 0 270 242 264 251 229 18 0 0 -17 264 0 270 255 266 236 258 265
 0 0 -15 270 65 0 266 222 0 17 266 0 270 264 242 243 271 268 0 0 +16 265 59 0 ?2
58 261 272 226 0 0 7 16 272 36 0 ?262 265 252 273 0 0 7 30 226 72 0 265 274 15 0
 +-.452266354133488 .0455315756263526 .885139118394828 0 .999990480720734 .00436
330928474658 30 274 71 0 267 275 226 0 +-.452266354133488 .046466866573231 .6707
87583230389 0 .999990480720734 .00436330928474658 16 267 58 0 ?249 234 248 274 0
 0 7 30 275 70 0 252 276 274 0 +-.00430334172378026 .046466866573231 .6707875832
30389 0 .999990480720734 .00436330928474658 16 252 57 0 ?250 272 234 275 0 0 7 3
0 276 50 0 248 273 275 0 +-.452266354133488 .0972663829938443 .671009239342054 1
 0 0 16 248 32 0 ?247 267 0 276 0 0 7 30 273 51 0 272 277 276 0 +-.4522663541334
88 .0963310920469659 .885360774506493 -2589700267951055e-31 .004363309284746585
 -.999990480720734 134 277 52 0 268 278 273 0 +279 280 16 268 40 0 ?266 225 261
 277 0 0 7 30 278 17 0 234 269 277 0 +-.452266354133488 .046466866573231 .670787
583230389 1 0 0 136 279 3 4 3 2 5 FFF1 281 282 283 135 280 2 0 45 12 281 -.00430
334172378024 .0945379383343395 1.296318725473668 -.235478769340937 .094537938334
3395 1.296318725473668 -.452266354133488 .0958037008165945 1.006229174056048 -.4
52266354133488 .0963310920469659 .885360774506493 127 2 282 4 4 128 2 283 0 1 16
 234 16 0 ?230 252 267 278 0 0 7 30 269 12 0 261 224 278 0 +-.452266354133488 .0
455315756263526 .885139118394828 -2589700267951055e-31 .004363309284746585 -.999
990480720734 134 224 7 0 18 0 269 284 +285 286 141 284 14 284 284 224 136 285 3
 4 3 2 5 FFF1 287 288 289 135 286 2 0 45 12 287 -.00430334172378024 .04373842191
372615 1.296097069362002 -.235478769340937 .04373842191372615 1.296097069362002
 -.452266354133488 .0450041843959812 1.006007517944382 -.452266354133488 .045531
5756263526 .885139118394828 127 2 288 4 4 128 2 289 0 1 16 225 60 0 ?242 18 268
 15 0 0 7 17 242 0 270 266 255 240 253 225 0 271 +17 271 0 0 0 0 240 266 268 0 0
 -17 247 0 290 235 249 227 246 248 0 0 +15 290 61 0 247 291 0 17 235 0 290 233 2
47 19 250 252 0 0 -17 249 0 290 247 233 245 259 267 0 262 +17 233 0 290 249 235
 231 230 234 0 260 -17 262 0 257 259 258 245 244 272 0 0 +17 244 0 0 0 0 243 262
 272 0 258 -14 291 62 292 ?0 263 290 13 293 +0 0 0 263 13 81 1 292 222 108 291 2
94 0 0 295 296 14 263 64 295 ?291 222 257 13 223 +0 0 291 222 13 50 293 67 0 291
 0 223 0 +-.452266354133488 .046466866573231 .670787583230389 0 .004363309284746
58 -.999990480720734 0 .999990480720734 .00436330928474658 50 223 68 0 263 293 1
4 0 +-.452266354133488 .0455315756263526 .885139118394828 -1 -1129966322386154e-
33 258967561587099e-30 -258967561587099e-30 0 -1 81 1 295 224 108 263 297 0 292
 298 299 14 222 66 298 ?263 0 270 13 14 +0 0 263 0 13 81 1 298 226 108 222 300 0
 295 0 301 81 1 300 200 141 222 0 298 0 297 302 82 1 301 -37284730 81 1 297 201
 141 263 0 295 300 294 303 83 3 302 .792156862745098 .819607843137255 .933333333
333333 81 1 294 202 141 291 0 292 297 0 304 83 3 303 .792156862745098 .819607843
137255 .933333333333333 83 3 304 .792156862745098 .819607843137255 .933333333333
333 82 1 299 -37153658 82 1 296 -37022586 74 20 221 4 0 0 220 298 294 10 0 0 0 0
 0 0 0 0 0 0 0 0 0 0 0 0 81 2 220 94 146 7 0 10 0 0 305 0 98 46 305 83 116 111 9
9 107 45 82 69 86 79 76 85 84 73 79 78 95 53 48 48 83 67 95 70 85 76 76 83 67 65
 76 69 45 67 104 97 114 108 105 101 32 102 105 120 45 52 74 20 6 1 0 0 2 0 0 0 0
 0 0 0 0 0 0 0 0 0 0 0 0 0 0 0 80 2 5 306 307 9000 0 0 0 0 3 5 0 0 0 TFFFFFFFFFF
FFFFFF9 1 79 18 307 MULTI_BODY_ID_20011 0 
