  0
SECTION
  2
HEADER
  9
$ACADVER
  1
AC1015
  9
$ACADMAINTVER
 70
     6
  9
$DWGCODEPAGE
  3
ANSI_1252
  9
$INSBASE
 10
0.0
 20
0.0
 30
0.0
  9
$EXTMIN
 10
-3.938481731
 20
-20.4713673734
 30
0.0
  9
$EXTMAX
 10
4.4888527729
 20
-9.1522351117
 30
0.0
  9
$LIMMIN
 10
0.0
 20
0.0
  9
$LIMMAX
 10
12.0
 20
9.0
  9
$ORTHOMODE
 70
     0
  9
$REGENMODE
 70
     1
  9
$FILLMODE
 70
     1
  9
$QTEXTMODE
 70
     0
  9
$MIRRTEXT
 70
     1
  9
$LTSCALE
 40
1.0
  9
$ATTMODE
 70
     1
  9
$TEXTSIZE
 40
0.1377952756
  9
$TRACEWID
 40
0.05
  9
$TEXTSTYLE
  7
Standard
  9
$CLAYER
  8
0
  9
$CELTYPE
  6
ByLayer
  9
$CECOLOR
 62
   256
  9
$CELTSCALE
 40
1.0
  9
$DISPSILH
 70
     0
  9
$DIMSCALE
 40
1.0
  9
$DIMASZ
 40
0.13
  9
$DIMEXO
 40
0.0
  9
$DIMDLI
 40
0.38
  9
$DIMRND
 40
0.0
  9
$DIMDLE
 40
0.0
  9
$DIMEXE
 40
0.125
  9
$DIMTP
 40
0.0
  9
$DIMTM
 40
0.0
  9
$DIMTXT
 40
0.1377952756
  9
$DIMCEN
 40
0.09
  9
$DIMTSZ
 40
0.0
  9
$DIMTOL
 70
     0
  9
$DIMLIM
 70
     0
  9
$DIMTIH
 70
     1
  9
$DIMTOH
 70
     1
  9
$DIMSE1
 70
     0
  9
$DIMSE2
 70
     0
  9
$DIMTAD
 70
     1
  9
$DIMZIN
 70
     1
  9
$DIMBLK
  1

  9
$DIMASO
 70
     1
  9
$DIMSHO
 70
     1
  9
$DIMPOST
  1

  9
$DIMAPOST
  1

  9
$DIMALT
 70
     0
  9
$DIMALTD
 70
     2
  9
$DIMALTF
 40
25.4
  9
$DIMLFAC
 40
1.0
  9
$DIMTOFL
 70
     0
  9
$DIMTVP
 40
0.0
  9
$DIMTIX
 70
     0
  9
$DIMSOXD
 70
     0
  9
$DIMSAH
 70
     0
  9
$DIMBLK1
  1

  9
$DIMBLK2
  1

  9
$DIMSTYLE
  2
Standard
  9
$DIMCLRD
 70
     0
  9
$DIMCLRE
 70
     0
  9
$DIMCLRT
 70
     0
  9
$DIMTFAC
 40
1.0
  9
$DIMGAP
 40
0.06
  9
$DIMJUST
 70
     0
  9
$DIMSD1
 70
     0
  9
$DIMSD2
 70
     0
  9
$DIMTOLJ
 70
     1
  9
$DIMTZIN
 70
     1
  9
$DIMALTZ
 70
     0
  9
$DIMALTTZ
 70
     0
  9
$DIMUPT
 70
     0
  9
$DIMDEC
 70
     2
  9
$DIMTDEC
 70
     2
  9
$DIMALTU
 70
     2
  9
$DIMALTTD
 70
     2
  9
$DIMTXSTY
  7
Standard
  9
$DIMAUNIT
 70
     0
  9
$DIMADEC
 70
     2
  9
$DIMALTRND
 40
0.0
  9
$DIMAZIN
 70
     0
  9
$DIMDSEP
 70
    46
  9
$DIMATFIT
 70
     3
  9
$DIMFRAC
 70
     0
  9
$DIMLDRBLK
  1

  9
$DIMLUNIT
 70
     2
  9
$DIMLWD
 70
    -2
  9
$DIMLWE
 70
    -2
  9
$DIMTMOVE
 70
     0
  9
$LUNITS
 70
     2
  9
$LUPREC
 70
     2
  9
$SKETCHINC
 40
0.1
  9
$FILLETRAD
 40
0.0
  9
$AUNITS
 70
     0
  9
$AUPREC
 70
     2
  9
$MENU
  1
.
  9
$ELEVATION
 40
0.0
  9
$PELEVATION
 40
0.0
  9
$THICKNESS
 40
0.0
  9
$LIMCHECK
 70
     0
  9
$CHAMFERA
 40
0.0
  9
$CHAMFERB
 40
0.0
  9
$CHAMFERC
 40
0.0
  9
$CHAMFERD
 40
0.0
  9
$SKPOLY
 70
     0
  9
$TDCREATE
 40
2461129.750929051
  9
$TDUCREATE
 40
2461130.042595718
  9
$TDUPDATE
 40
2461129.751367894
  9
$TDUUPDATE
 40
2461130.04303456
  9
$TDINDWG
 40
0.0000000116
  9
$TDUSRTIMER
 40
0.0000000116
  9
$USRTIMER
 70
     1
  9
$ANGBASE
 50
0.0
  9
$ANGDIR
 70
     0
  9
$PDMODE
 70
     0
  9
$PDSIZE
 40
-1.0
  9
$PLINEWID
 40
0.0
  9
$SPLFRAME
 70
     0
  9
$SPLINETYPE
 70
     6
  9
$SPLINESEGS
 70
     8
  9
$HANDSEED
  5
183
  9
$SURFTAB1
 70
     6
  9
$SURFTAB2
 70
     6
  9
$SURFTYPE
 70
     6
  9
$SURFU
 70
     6
  9
$SURFV
 70
     6
  9
$UCSBASE
  2

  9
$UCSNAME
  2

  9
$UCSORG
 10
0.0
 20
0.0
 30
0.0
  9
$UCSXDIR
 10
1.0
 20
0.0
 30
0.0
  9
$UCSYDIR
 10
0.0
 20
1.0
 30
0.0
  9
$UCSORTHOREF
  2

  9
$UCSORTHOVIEW
 70
     0
  9
$UCSORGTOP
 10
0.0
 20
0.0
 30
0.0
  9
$UCSORGBOTTOM
 10
0.0
 20
0.0
 30
0.0
  9
$UCSORGLEFT
 10
0.0
 20
0.0
 30
0.0
  9
$UCSORGRIGHT
 10
0.0
 20
0.0
 30
0.0
  9
$UCSORGFRONT
 10
0.0
 20
0.0
 30
0.0
  9
$UCSORGBACK
 10
0.0
 20
0.0
 30
0.0
  9
$PUCSBASE
  2

  9
$PUCSNAME
  2

  9
$PUCSORG
 10
0.0
 20
0.0
 30
0.0
  9
$PUCSXDIR
 10
1.0
 20
0.0
 30
0.0
  9
$PUCSYDIR
 10
0.0
 20
1.0
 30
0.0
  9
$PUCSORTHOREF
  2

  9
$PUCSORTHOVIEW
 70
     0
  9
$PUCSORGTOP
 10
0.0
 20
0.0
 30
0.0
  9
$PUCSORGBOTTOM
 10
0.0
 20
0.0
 30
0.0
  9
$PUCSORGLEFT
 10
0.0
 20
0.0
 30
0.0
  9
$PUCSORGRIGHT
 10
0.0
 20
0.0
 30
0.0
  9
$PUCSORGFRONT
 10
0.0
 20
0.0
 30
0.0
  9
$PUCSORGBACK
 10
0.0
 20
0.0
 30
0.0
  9
$USERI1
 70
     0
  9
$USERI2
 70
     0
  9
$USERI3
 70
     0
  9
$USERI4
 70
     0
  9
$USERI5
 70
     0
  9
$USERR1
 40
0.0
  9
$USERR2
 40
0.0
  9
$USERR3
 40
0.0
  9
$USERR4
 40
0.0
  9
$USERR5
 40
0.0
  9
$WORLDVIEW
 70
     1
  9
$SHADEDGE
 70
     3
  9
$SHADEDIF
 70
    70
  9
$TILEMODE
 70
     1
  9
$MAXACTVP
 70
    64
  9
$PINSBASE
 10
0.0
 20
0.0
 30
0.0
  9
$PLIMCHECK
 70
     0
  9
$PEXTMIN
 10
1.0000000000E+20
 20
1.0000000000E+20
 30
1.0000000000E+20
  9
$PEXTMAX
 10
-1.0000000000E+20
 20
-1.0000000000E+20
 30
-1.0000000000E+20
  9
$PLIMMIN
 10
0.0
 20
0.0
  9
$PLIMMAX
 10
12.0
 20
9.0
  9
$UNITMODE
 70
     0
  9
$VISRETAIN
 70
     1
  9
$PLINEGEN
 70
     0
  9
$PSLTSCALE
 70
     1
  9
$TREEDEPTH
 70
  3020
  9
$CMLSTYLE
  2
Standard
  9
$CMLJUST
 70
     0
  9
$CMLSCALE
 40
1.0
  9
$PROXYGRAPHICS
 70
     1
  9
$MEASUREMENT
 70
     0
  9
$CELWEIGHT
370
    -1
  9
$ENDCAPS
280
     0
  9
$JOINSTYLE
280
     0
  9
$LWDISPLAY
290
     1
  9
$INSUNITS
 70
     1
  9
$HYPERLINKBASE
  1

  9
$STYLESHEET
  1

  9
$XEDIT
290
     1
  9
$CEPSNTYPE
380
     0
  9
$PSTYLEMODE
290
     1
  9
$FINGERPRINTGUID
  2
{ee168418-ae1a-4603-bc72-711a9cdfa398}
  9
$VERSIONGUID
  2
{FAEB1C32-E019-11D5-929B-00C0DF256EC4}
  9
$EXTNAMES
290
     1
  9
$PSVPSCALE
 40
0.0
  9
$OLESTARTUP
290
     0
  0
ENDSEC
  0
SECTION
  2
CLASSES
  0
CLASS
  1
ACDBDICTIONARYWDFLT
  2
AcDbDictionaryWithDefault
  3
ObjectDBX Classes
 90
        0
280
     0
281
     0
  0
CLASS
  1
VISUALSTYLE
  2
AcDbVisualStyle
  3
ObjectDBX Classes
 90
     4095
280
     0
281
     0
  0
CLASS
  1
MATERIAL
  2
AcDbMaterial
  3
ObjectDBX Classes
 90
     1153
280
     0
281
     0
  0
CLASS
  1
SCALE
  2
AcDbScale
  3
ObjectDBX Classes
 90
     1153
280
     0
281
     0
  0
CLASS
  1
TABLESTYLE
  2
AcDbTableStyle
  3
ObjectDBX Classes
 90
     4095
280
     0
281
     0
  0
CLASS
  1
MLEADERSTYLE
  2
AcDbMLeaderStyle
  3
ACDB_MLEADERSTYLE_CLASS
 90
     4095
280
     0
281
     0
  0
CLASS
  1
SUN
  2
AcDbSun
  3
SCENEOE
 90
     1153
280
     0
281
     0
  0
CLASS
  1
ACDBPLACEHOLDER
  2
AcDbPlaceHolder
  3
ObjectDBX Classes
 90
        0
280
     0
281
     0
  0
CLASS
  1
LAYOUT
  2
AcDbLayout
  3
ObjectDBX Classes
 90
        0
280
     0
281
     0
  0
ENDSEC
  0
SECTION
  2
TABLES
  0
TABLE
  2
VPORT
  5
8
330
0
100
AcDbSymbolTable
 70
     1
  0
VPORT
  5
29
330
8
100
AcDbSymbolTableRecord
100
AcDbViewportTableRecord
  2
*Active
 70
     0
 10
0.0
 20
0.0
 11
1.0
 21
1.0
 12
0.2751855209
 22
-14.8118012425
 13
0.0
 23
0.0
 14
0.5
 24
0.5
 15
0.5
 25
0.5
 16
0.0
 26
0.0
 36
1.0
 17
0.0
 27
0.0
 37
0.0
 40
11.5455149069
 41
0.7445212503
 42
50.0
 43
0.0
 44
0.0
 50
0.0
 51
0.0
 71
     0
 72
   100
 73
     1
 74
     3
 75
     0
 76
     0
 77
     0
 78
     0
281
     0
 65
     1
110
0.0
120
0.0
130
0.0
111
1.0
121
0.0
131
0.0
112
0.0
122
1.0
132
0.0
 79
     0
146
0.0
  0
ENDTAB
  0
TABLE
  2
LTYPE
  5
5
330
0
100
AcDbSymbolTable
 70
     6
  0
LTYPE
  5
14
330
5
100
AcDbSymbolTableRecord
100
AcDbLinetypeTableRecord
  2
ByBlock
 70
     0
  3

 72
    65
 73
     0
 40
0.0
  0
LTYPE
  5
15
330
5
100
AcDbSymbolTableRecord
100
AcDbLinetypeTableRecord
  2
ByLayer
 70
     0
  3

 72
    65
 73
     0
 40
0.0
  0
LTYPE
  5
16
330
5
100
AcDbSymbolTableRecord
100
AcDbLinetypeTableRecord
  2
Continuous
 70
     0
  3
Solid line
 72
    65
 73
     0
 40
0.0
  0
LTYPE
  5
5E
330
5
100
AcDbSymbolTableRecord
100
AcDbLinetypeTableRecord
  2
HIDDEN
 70
     0
  3
Hidden __ __ __ __ __ __ __ __ __ __ __ __ __ __
 72
    65
 73
     2
 40
0.075
 49
0.05
 74
     0
 49
-0.025
 74
     0
  0
LTYPE
  5
5F
330
5
100
AcDbSymbolTableRecord
100
AcDbLinetypeTableRecord
  2
PHANTOM
 70
     0
  3
Phantom ______  __  __  ______  __  __  ______
 72
    65
 73
     6
 40
0.5
 49
0.25
 74
     0
 49
-0.05
 74
     0
 49
0.05
 74
     0
 49
-0.05
 74
     0
 49
0.05
 74
     0
 49
-0.05
 74
     0
  0
LTYPE
  5
60
330
5
100
AcDbSymbolTableRecord
100
AcDbLinetypeTableRecord
  2
CENTER
 70
     0
  3
Center ____ _ ____ _ ____ _ ____ _ ____ _ ____
 72
    65
 73
     4
 40
0.4
 49
0.25
 74
     0
 49
-0.05
 74
     0
 49
0.05
 74
     0
 49
-0.05
 74
     0
  0
LTYPE
  5
61
330
5
100
AcDbSymbolTableRecord
100
AcDbLinetypeTableRecord
  2
CENTERX2
 70
     0
  3
Center (2x) ________  __  ________  __  _____
 72
    65
 73
     4
 40
0.8
 49
0.5
 74
     0
 49
-0.1
 74
     0
 49
0.1
 74
     0
 49
-0.1
 74
     0
  0
LTYPE
  5
62
330
5
100
AcDbSymbolTableRecord
100
AcDbLinetypeTableRecord
  2
DOT2
 70
     0
  3
Dot (.5x) ........................................
 72
    65
 73
     2
 40
0.025
 49
0.0
 74
     0
 49
-0.025
 74
     0
  0
ENDTAB
  0
TABLE
  2
LAYER
  5
2
330
0
100
AcDbSymbolTable
 70
     1
  0
LAYER
  5
10
330
2
100
AcDbSymbolTableRecord
100
AcDbLayerTableRecord
  2
0
 70
     0
 62
     7
  6
Continuous
370
    -3
390
F
  0
ENDTAB
  0
TABLE
  2
STYLE
  5
3
330
0
100
AcDbSymbolTable
 70
     2
  0
STYLE
  5
11
330
3
100
AcDbSymbolTableRecord
100
AcDbTextStyleTableRecord
  2
Standard
 70
     0
 40
0.0
 41
1.0
 50
0.0
 71
     0
 42
0.1377952756
  3
txt
  4

  0
STYLE
  5
17F
330
3
100
AcDbSymbolTableRecord
100
AcDbTextStyleTableRecord
  2
SLDTEXTSTYLE0
 70
     0
 40
0.0
 41
0.7
 50
0.0
 71
     0
 42
0.1377952756
  3
TXT
  4

  0
ENDTAB
  0
TABLE
  2
VIEW
  5
6
330
0
100
AcDbSymbolTable
 70
     0
  0
ENDTAB
  0
TABLE
  2
UCS
  5
7
330
0
100
AcDbSymbolTable
 70
     0
  0
ENDTAB
  0
TABLE
  2
APPID
  5
9
330
0
100
AcDbSymbolTable
 70
     1
  0
APPID
  5
12
330
9
100
AcDbSymbolTableRecord
100
AcDbRegAppTableRecord
  2
ACAD
 70
     0
  0
ENDTAB
  0
TABLE
  2
DIMSTYLE
  5
A
330
0
100
AcDbSymbolTable
 70
     1
100
AcDbDimStyleTable
  0
DIMSTYLE
105
27
330
A
100
AcDbSymbolTableRecord
100
AcDbDimStyleTableRecord
  2
Standard
 70
     0
178
     0
340
11
  0
ENDTAB
  0
TABLE
  2
BLOCK_RECORD
  5
1
330
0
100
AcDbSymbolTable
 70
     1
  0
BLOCK_RECORD
  5
1F
330
1
100
AcDbSymbolTableRecord
100
AcDbBlockTableRecord
  2
*Model_Space
340
22
  0
BLOCK_RECORD
  5
1B
330
1
100
AcDbSymbolTableRecord
100
AcDbBlockTableRecord
  2
*Paper_Space
340
1E
  0
BLOCK_RECORD
  5
23
330
1
100
AcDbSymbolTableRecord
100
AcDbBlockTableRecord
  2
*Paper_Space0
340
26
  0
ENDTAB
  0
ENDSEC
  0
SECTION
  2
BLOCKS
  0
BLOCK
  5
20
330
1F
100
AcDbEntity
  8
0
100
AcDbBlockBegin
  2
*Model_Space
 70
     0
 10
0.0
 20
0.0
 30
0.0
  3
*Model_Space
  1

  0
ENDBLK
  5
21
330
1F
100
AcDbEntity
  8
0
100
AcDbBlockEnd
  0
BLOCK
  5
1C
330
1B
100
AcDbEntity
 67
     1
  8
0
100
AcDbBlockBegin
  2
*Paper_Space
 70
     0
 10
0.0
 20
0.0
 30
0.0
  3
*Paper_Space
  1

  0
ENDBLK
  5
1D
330
1B
100
AcDbEntity
 67
     1
  8
0
100
AcDbBlockEnd
  0
BLOCK
  5
24
330
23
100
AcDbEntity
  8
0
100
AcDbBlockBegin
  2
*Paper_Space0
 70
     0
 10
0.0
 20
0.0
 30
0.0
  3
*Paper_Space0
  1

  0
ENDBLK
  5
25
330
23
100
AcDbEntity
  8
0
100
AcDbBlockEnd
  0
ENDSEC
  0
SECTION
  2
ENTITIES
  0
SPLINE
  5
63
330
1F
100
AcDbEntity
  8
0
  6
Continuous
 62
     7
370
    25
100
AcDbSpline
210
0.0
220
0.0
230
1.0
 70
     8
 71
     3
 72
    14
 73
    10
 74
     0
 42
0.00000001
 43
0.00000001
 40
0.0
 40
0.0
 40
0.0
 40
0.0
 40
0.1388419411311673
 40
0.2763816485022332
 40
0.4136053836689286
 40
0.5515061878189212
 40
0.6977617313748619
 40
0.8469187185333524
 40
1.0
 40
1.0
 40
1.0
 40
1.0
 10
-3.936661074720556
 20
-9.265415671284185
 30
0.0
 10
-3.938944858581943
 20
-9.377164784038582
 30
0.0
 10
-3.943491006116978
 20
-9.599614886292217
 30
0.0
 10
-3.914964606573634
 20
-9.931764790655356
 30
0.0
 10
-3.860256821037248
 20
-10.25955594223577
 30
0.0
 10
-3.775717456957465
 20
-10.58835139007017
 30
0.0
 10
-3.659879757210317
 20
-10.91754034074379
 30
0.0
 10
-3.513141028910316
 20
-11.24786075409387
 30
0.0
 10
-3.392433641295825
 20
-11.45910383538821
 30
0.0
 10
-3.331296308612664
 20
-11.56609677752158
 30
0.0
  0
SPLINE
  5
65
330
1F
100
AcDbEntity
  8
0
  6
Continuous
 62
     7
370
    25
100
AcDbSpline
210
0.0
220
0.0
230
1.0
 70
     8
 71
     3
 72
    16
 73
    12
 74
     0
 42
0.00000001
 43
0.00000001
 40
0.0
 40
0.0
 40
0.0
 40
0.0
 40
0.0935960416284903
 40
0.1838889927724465
 40
0.2724595367738278
 40
0.3606536733993898
 40
0.4495518882886376
 40
0.5399728605533575
 40
0.6864721772690618
 40
0.8395613590433606
 40
1.0
 40
1.0
 40
1.0
 40
1.0
 10
-3.281508524720561
 20
-9.26541567128418
 30
0.0
 10
-3.285477372798221
 20
-9.343262823541316
 30
0.0
 10
-3.293275004650698
 20
-9.496209830377248
 30
0.0
 10
-3.274413655975022
 20
-9.722743118392673
 30
0.0
 10
-3.235096044356057
 20
-9.941702595308145
 30
0.0
 10
-3.175601300438955
 20
-10.15490003175835
 30
0.0
 10
-3.098815454632003
 20
-10.36401209613901
 30
0.0
 10
-2.988622712566666
 20
-10.61186385996832
 30
0.0
 10
-2.83724432680398
 20
-10.89916883237993
 30
0.0
 10
-2.643004291551098
 20
-11.22900517627511
 30
0.0
 10
-2.507824661586978
 20
-11.45210619062866
 30
0.0
 10
-2.438650462220701
 20
-11.56627157227535
 30
0.0
  0
SPLINE
  5
66
330
1F
100
AcDbEntity
  8
0
  6
Continuous
 62
     7
370
    25
100
AcDbSpline
210
0.0
220
0.0
230
1.0
 70
     8
 71
     3
 72
    11
 73
     7
 74
     0
 42
0.00000001
 43
0.00000001
 40
0.0
 40
0.0
 40
0.0
 40
0.0
 40
0.254517723964395
 40
0.4969793890025711
 40
0.7476854702861262
 40
1.0
 40
1.0
 40
1.0
 40
1.0
 10
-2.203343997072783
 20
-11.98621515371668
 30
0.0
 10
-2.223965144636063
 20
-11.95095983486798
 30
0.0
 10
-2.264230652109974
 20
-11.88211917989273
 30
0.0
 10
-2.323514916206057
 20
-11.77780404931865
 30
0.0
 10
-2.3816014343802
 20
-11.67321878394414
 30
0.0
 10
-2.419589893540581
 20
-11.60199458504248
 30
0.0
 10
-2.438644858681275
 20
-11.56626861306991
 30
0.0
  0
SPLINE
  5
6A
330
1F
100
AcDbEntity
  8
0
  6
Continuous
 62
     7
370
    25
100
AcDbSpline
210
0.0
220
0.0
230
1.0
 70
     8
 71
     3
 72
    18
 73
    14
 74
     0
 42
0.00000001
 43
0.00000001
 40
0.0
 40
0.0
 40
0.0
 40
0.0
 40
0.0661432085006198
 40
0.1318459179842198
 40
0.1975867264503262
 40
0.2638117642572754
 40
0.3684293689666239
 40
0.4728925916457212
 40
0.5770086665848956
 40
0.6820204899872638
 40
0.7868015169468136
 40
0.8912181696257887
 40
1.0
 40
1.0
 40
1.0
 40
1.0
 10
-1.007209549519975
 20
-14.57740629512714
 30
0.0
 10
-1.008971886984509
 20
-14.51820103490342
 30
0.0
 10
-1.01248482513911
 20
-14.4001848082848
 30
0.0
 10
-1.03674097746495
 20
-14.22470203238349
 30
0.0
 10
-1.07482622035002
 20
-14.05175796318293
 30
0.0
 10
-1.138463279117109
 20
-13.84957069252838
 30
0.0
 10
-1.233018956221126
 20
-13.62162843857329
 30
0.0
 10
-1.3610199417664
 20
-13.37204975078483
 30
0.0
 10
-1.501662284013763
 20
-13.12911670639818
 30
0.0
 10
-1.647967358604881
 20
-12.88927756625417
 30
0.0
 10
-1.796266702464665
 20
-12.65035505786284
 30
0.0
 10
-1.947287033008995
 20
-12.40915051462658
 30
0.0
 10
-2.046789764098403
 20
-12.24634374130063
 30
0.0
 10
-2.097559774560619
 20
-12.16327364368038
 30
0.0
  0
SPLINE
  5
6E
330
1F
100
AcDbEntity
  8
0
  6
Continuous
 62
     7
370
    25
100
AcDbSpline
210
0.0
220
0.0
230
1.0
 70
     8
 71
     3
 72
    22
 73
    18
 74
     0
 42
0.00000001
 43
0.00000001
 40
0.0
 40
0.0
 40
0.0
 40
0.0
 40
0.0616353768179075
 40
0.1161054753360734
 40
0.1641899375308367
 40
0.220415952863726
 40
0.2750492860967125
 40
0.3287627141254383
 40
0.4124512599954133
 40
0.4961781591733982
 40
0.5824636234222131
 40
0.6644840621179491
 40
0.7320457237929643
 40
0.7985261399153588
 40
0.8652064814687435
 40
0.9340532988099509
 40
1.0
 40
1.0
 40
1.0
 40
1.0
 10
-2.577156505920133
 20
-12.64287037503989
 30
0.0
 10
-2.551294640196291
 20
-12.67910320078892
 30
0.0
 10
-2.502577420184553
 20
-12.74735668885939
 30
0.0
 10
-2.434146845299462
 20
-12.84420603387286
 30
0.0
 10
-2.368455826903263
 20
-12.93820558782296
 30
0.0
 10
-2.303438913964506
 20
-13.03281705128241
 30
0.0
 10
-2.237204619101
 20
-13.1315183097605
 30
0.0
 10
-2.161661860972734
 20
-13.24784263694578
 30
0.0
 10
-2.077905426247447
 20
-13.38386305336791
 30
0.0
 10
-1.987814556246017
 20
-13.54348239870897
 30
0.0
 10
-1.905989858211428
 20
-13.70617758943891
 30
0.0
 10
-1.837935093380122
 20
-13.8624558825386
 30
0.0
 10
-1.783877241593702
 20
-14.00892314568316
 30
0.0
 10
-1.741752041257018
 20
-14.14774777064841
 30
0.0
 10
-1.708396531186238
 20
-14.28984140661431
 30
0.0
 10
-1.682140161286174
 20
-14.4331048912743
 30
0.0
 10
-1.672365416590292
 20
-14.53000073991675
 30
0.0
 10
-1.667583197276691
 20
-14.5774062950696
 30
0.0
  0
SPLINE
  5
72
330
1F
100
AcDbEntity
  8
0
  6
Continuous
 62
     7
370
    25
100
AcDbSpline
210
0.0
220
0.0
230
1.0
 70
     8
 71
     3
 72
    15
 73
    11
 74
     0
 42
0.00000001
 43
0.00000001
 40
0.0
 40
0.0
 40
0.0
 40
0.0
 40
0.1032575374673386
 40
0.2072625212064373
 40
0.3038554418218924
 40
0.4065229433691429
 40
0.5152693874606137
 40
0.6766741197071972
 40
0.837811871188437
 40
1.0
 40
1.0
 40
1.0
 40
1.0
 10
-3.331296308611803
 20
-11.56609677752101
 30
0.0
 10
-3.310376127195956
 20
-11.59815004406168
 30
0.0
 10
-3.268384330270563
 20
-11.66248859986176
 30
0.0
 10
-3.205638176132389
 20
-11.75602992421297
 30
0.0
 10
-3.142304702714088
 20
-11.84890746083061
 30
0.0
 10
-3.077317046801998
 20
-11.94278133183021
 30
0.0
 10
-2.99796214145166
 20
-12.05592547050462
 30
0.0
 10
-2.90532535711407
 20
-12.1862241475012
 30
0.0
 10
-2.80052053432033
 20
-12.3321744369925
 30
0.0
 10
-2.730478030084625
 20
-12.42942893812105
 30
0.0
 10
-2.695343005665988
 20
-12.47821416231114
 30
0.0
  0
SPLINE
  5
73
330
1F
100
AcDbEntity
  8
0
  6
Continuous
 62
     7
370
    25
100
AcDbSpline
210
0.0
220
0.0
230
1.0
 70
     8
 71
     3
 72
    14
 73
    10
 74
     0
 42
0.00000001
 43
0.00000001
 40
0.0
 40
0.0
 40
0.0
 40
0.0
 40
0.1388419411311673
 40
0.2763816485022332
 40
0.4136053836689286
 40
0.5515061878189212
 40
0.6977617313748619
 40
0.8469187185333524
 40
1.0
 40
1.0
 40
1.0
 40
1.0
 10
-1.396315974326445
 20
-9.214890890026082
 30
0.0
 10
-1.398599758187832
 20
-9.326640002780477
 30
0.0
 10
-1.403145905722867
 20
-9.549090105034116
 30
0.0
 10
-1.374619506179524
 20
-9.881240009397251
 30
0.0
 10
-1.319911720643137
 20
-10.20903116097767
 30
0.0
 10
-1.235372356563355
 20
-10.53782660881206
 30
0.0
 10
-1.119534656816207
 20
-10.86701555948569
 30
0.0
 10
-0.9727959285162056
 20
-11.19733597283577
 30
0.0
 10
-0.8520885409017142
 20
-11.4085790541301
 30
0.0
 10
-0.790951208218553
 20
-11.51557199626348
 30
0.0
  0
SPLINE
  5
75
330
1F
100
AcDbEntity
  8
0
  6
Continuous
 62
     7
370
    25
100
AcDbSpline
210
0.0
220
0.0
230
1.0
 70
     8
 71
     3
 72
    16
 73
    12
 74
     0
 42
0.00000001
 43
0.00000001
 40
0.0
 40
0.0
 40
0.0
 40
0.0
 40
0.0935960416284903
 40
0.1838889927724465
 40
0.2724595367738278
 40
0.3606536733993898
 40
0.4495518882886376
 40
0.5399728605533575
 40
0.6864721772690618
 40
0.8395613590433606
 40
1.0
 40
1.0
 40
1.0
 40
1.0
 10
-0.7411634243264507
 20
-9.214890890026075
 30
0.0
 10
-0.7451322724041114
 20
-9.292738042283213
 30
0.0
 10
-0.7529299042565869
 20
-9.445685049119147
 30
0.0
 10
-0.7340685555809109
 20
-9.672218337134568
 30
0.0
 10
-0.6947509439619466
 20
-9.89117781405004
 30
0.0
 10
-0.6352562000448452
 20
-10.10437525050025
 30
0.0
 10
-0.5584703542378914
 20
-10.31348731488091
 30
0.0
 10
-0.4482776121725548
 20
-10.56133907871022
 30
0.0
 10
-0.2968992264098689
 20
-10.84864405112182
 30
0.0
 10
-0.1026591911569867
 20
-11.17848039501701
 30
0.0
 10
0.0325204388071327
 20
-11.40158140937056
 30
0.0
 10
0.10169463817341
 20
-11.51574679101724
 30
0.0
  0
SPLINE
  5
76
330
1F
100
AcDbEntity
  8
0
  6
Continuous
 62
     7
370
    25
100
AcDbSpline
210
0.0
220
0.0
230
1.0
 70
     8
 71
     3
 72
    11
 73
     7
 74
     0
 42
0.00000001
 43
0.00000001
 40
0.0
 40
0.0
 40
0.0
 40
0.0
 40
0.2551785152822811
 40
0.4980552225574534
 40
0.7478287506735585
 40
1.0
 40
1.0
 40
1.0
 40
1.0
 10
0.3424059913599575
 20
-11.94487045812562
 30
0.0
 10
0.3212474583052699
 20
-11.90875685679976
 30
0.0
 10
0.2799504162016889
 20
-11.83827064158762
 30
0.0
 10
0.2192841069595975
 20
-11.73166000324741
 30
0.0
 10
0.1599213424355471
 20
-11.62487920972271
 30
0.0
 10
0.121168980189739
 20
-11.55223795687558
 30
0.0
 10
0.1017002417128359
 20
-11.51574383181181
 30
0.0
  0
SPLINE
  5
7A
330
1F
100
AcDbEntity
  8
0
  6
Continuous
 62
     7
370
    25
100
AcDbSpline
210
0.0
220
0.0
230
1.0
 70
     8
 71
     3
 72
    18
 73
    14
 74
     0
 42
0.00000001
 43
0.00000001
 40
0.0
 40
0.0
 40
0.0
 40
0.0
 40
0.0664058011301547
 40
0.1323693544349416
 40
0.1983711579775532
 40
0.2648591132814446
 40
0.3693088096796599
 40
0.47366173058115
 40
0.5774788844262873
 40
0.6824323604404903
 40
0.7864948677188789
 40
0.8912792946714195
 40
1.0
 40
1.0
 40
1.0
 40
1.0
 10
1.53313555087414
 20
-14.52688151386903
 30
0.0
 10
1.531373213962345
 20
-14.46767625384899
 30
0.0
 10
1.527860276909545
 20
-14.34966002763637
 30
0.0
 10
1.50360411636081
 20
-14.17417724870503
 30
0.0
 10
1.465518904773543
 20
-14.00123319103733
 30
0.0
 10
1.402037969111269
 20
-13.79954234777134
 30
0.0
 10
1.307931698312312
 20
-13.57248952548235
 30
0.0
 10
1.180812929463617
 20
-13.32428370771501
 30
0.0
 10
1.041072562131254
 20
-13.08259224724783
 30
0.0
 10
0.8958985275114882
 20
-12.84448739990617
 30
0.0
 10
0.7484296148414912
 20
-12.60678740936871
 30
0.0
 10
0.5981826979592936
 20
-12.36685966609618
 30
0.0
 10
0.4988636922967309
 20
-12.20450465105069
 30
0.0
 10
0.4482886441337228
 20
-12.12183051783061
 30
0.0
  0
SPLINE
  5
7E
330
1F
100
AcDbEntity
  8
0
  6
Continuous
 62
     7
370
    25
100
AcDbSpline
210
0.0
220
0.0
230
1.0
 70
     8
 71
     3
 72
    22
 73
    18
 74
     0
 42
0.00000001
 43
0.00000001
 40
0.0
 40
0.0
 40
0.0
 40
0.0
 40
0.0606831415942474
 40
0.1143435095775235
 40
0.16234355620703
 40
0.2179589445071262
 40
0.2722305468366659
 40
0.3255082482663103
 40
0.4096025545448108
 40
0.4937354000857272
 40
0.5804392157930316
 40
0.6628573271495423
 40
0.730746558710698
 40
0.7975493023454702
 40
0.8645529407413086
 40
0.9337335589920629
 40
1.0
 40
1.0
 40
1.0
 40
1.0
 10
-0.0307312998323588
 20
-12.60085046179667
 30
0.0
 10
-0.0054006398125845
 20
-12.63635766047668
 30
0.0
 10
0.0423291989940904
 20
-12.70326286026817
 30
0.0
 10
0.1096392936652716
 20
-12.79857834625019
 30
0.0
 10
0.174364062646526
 20
-12.89125859480254
 30
0.0
 10
0.2386089675553046
 20
-12.98480681724605
 30
0.0
 10
0.3039346832993129
 20
-13.08220818509633
 30
0.0
 10
0.3789456910060773
 20
-13.19774395177447
 30
0.0
 10
0.4624396604004549
 20
-13.33333828946036
 30
0.0
 10
0.5525305479656455
 20
-13.49295761263232
 30
0.0
 10
0.6343552411969947
 20
-13.65565280942496
 30
0.0
 10
0.7024100072222715
 20
-13.8119311010176
 30
0.0
 10
0.75646785875015
 20
-13.95839836448849
 30
0.0
 10
0.7985930591504905
 20
-14.09722298937338
 30
0.0
 10
0.8319485692041549
 20
-14.2393166253609
 30
0.0
 10
0.8582049391088271
 20
-14.38258011001508
 30
0.0
 10
0.8679796838041085
 20
-14.47947595865828
 30
0.0
 10
0.8727619031174152
 20
-14.5268815138115
 30
0.0
  0
SPLINE
  5
82
330
1F
100
AcDbEntity
  8
0
  6
Continuous
 62
     7
370
    25
100
AcDbSpline
210
0.0
220
0.0
230
1.0
 70
     8
 71
     3
 72
    15
 73
    11
 74
     0
 42
0.00000001
 43
0.00000001
 40
0.0
 40
0.0
 40
0.0
 40
0.0
 40
0.1022963905259526
 40
0.2053332699071361
 40
0.3010270794989679
 40
0.4027389263065042
 40
0.5104731313431945
 40
0.673485384850524
 40
0.8368984476038343
 40
0.9999999999999999
 40
0.9999999999999999
 40
0.9999999999999999
 40
0.9999999999999999
 10
-0.7909512082176919
 20
-11.51557199626291
 30
0.0
 10
-0.7700310267622968
 20
-11.54762526277599
 30
0.0
 10
-0.7280392297575228
 20
-11.6119638185207
 30
0.0
 10
-0.6652930762037617
 20
-11.70550514327953
 30
0.0
 10
-0.6019596006707121
 20
-11.79838267842214
 30
0.0
 10
-0.5369719531809604
 20
-11.89225655529636
 30
0.0
 10
-0.4569488392624304
 20
-12.00635334107456
 30
0.0
 10
-0.3628096479224514
 20
-12.13874485226623
 30
0.0
 10
-0.2559556800832553
 20
-12.28751144125516
 30
0.0
 10
-0.1845564495610708
 20
-12.386646902327
 30
0.0
 10
-0.1488908934182658
 20
-12.43616734290796
 30
0.0
  0
SPLINE
  5
83
330
1F
100
AcDbEntity
  8
0
  6
Continuous
 62
     7
370
    25
100
AcDbSpline
210
0.0
220
0.0
230
1.0
 70
     8
 71
     3
 72
    15
 73
    11
 74
     0
 42
0.00000001
 43
0.00000001
 40
0.0
 40
0.0
 40
0.0
 40
0.0
 40
0.1381526731458215
 40
0.2760367255697921
 40
0.4138977492533782
 40
0.5522212540727377
 40
0.661720144436298
 40
0.7724438191068009
 40
0.8849766019188647
 40
1.0
 40
1.0
 40
1.0
 40
1.0
 10
1.440699950930184
 20
-9.152235111684464
 30
0.0
 10
1.441197583240676
 20
-9.275114302137423
 30
0.0
 10
1.44219188027741
 20
-9.52063375971244
 30
0.0
 10
1.472279710905504
 20
-9.887821053786421
 30
0.0
 10
1.527030180667914
 20
-10.2522132718943
 30
0.0
 10
1.60522190802207
 20
-10.58656077063919
 30
0.0
 10
1.701520606697631
 20
-10.890770216175
 30
0.0
 10
1.811408539390484
 20
-11.1657147894183
 30
0.0
 10
1.942472587619699
 20
-11.43695179349126
 30
0.0
 10
2.048006321567216
 20
-11.60971266896967
 30
0.0
 10
2.101350724884175
 20
-11.69703854548509
 30
0.0
  0
SPLINE
  5
85
330
1F
100
AcDbEntity
  8
0
  6
Continuous
 62
     7
370
    25
100
AcDbSpline
210
0.0
220
0.0
230
1.0
 70
     8
 71
     3
 72
    15
 73
    11
 74
     0
 42
0.00000001
 43
0.00000001
 40
0.0
 40
0.0
 40
0.0
 40
0.0
 40
0.1096912003339412
 40
0.2159787297929226
 40
0.3211065803269205
 40
0.4269629195539222
 40
0.535054044246023
 40
0.6818655659361532
 40
0.8363785149918661
 40
1.0
 40
1.0
 40
1.0
 40
1.0
 10
2.353288538954024
 20
-9.152235111684455
 30
0.0
 10
2.35385379982239
 20
-9.252777949596055
 30
0.0
 10
2.354966781756945
 20
-9.450743824304457
 30
0.0
 10
2.397158083331373
 20
-9.742586770787256
 30
0.0
 10
2.465650420153158
 20
-10.02524352986375
 30
0.0
 10
2.559941706641363
 20
-10.3021576512301
 30
0.0
 10
2.688644217747346
 20
-10.60661132467169
 30
0.0
 10
2.856317283105718
 20
-10.94216873449493
 30
0.0
 10
3.06271609993298
 20
-11.31457256248251
 30
0.0
 10
3.207637706581376
 20
-11.56727363378246
 30
0.0
 10
3.282173141764153
 20
-11.69724172312468
 30
0.0
  0
SPLINE
  5
8A
330
1F
100
AcDbEntity
  8
0
  6
Continuous
 62
     7
370
    25
100
AcDbSpline
210
0.0
220
0.0
230
1.0
 70
     8
 71
     3
 72
    23
 73
    19
 74
     0
 42
0.00000001
 43
0.00000001
 40
0.0
 40
0.0
 40
0.0
 40
0.0
 40
0.0047751181773205
 40
0.0718634296143171
 40
0.1449822989739437
 40
0.2182764854518525
 40
0.2933531819229957
 40
0.3629749657373278
 40
0.4326401181555737
 40
0.5029143319852087
 40
0.5651246793845778
 40
0.6273802728269209
 40
0.689825895319989
 40
0.7522667374320247
 40
0.8141552557961086
 40
0.8757779289460493
 40
0.9375794866939717
 40
1.0
 40
1.0
 40
1.0
 40
1.0
 10
3.407472968842254
 20
-11.92446742270249
 30
0.0
 10
3.409666183234503
 20
-11.92835286034347
 30
0.0
 10
3.442673095786974
 20
-11.98682698895461
 30
0.0
 10
3.510079940905721
 20
-12.10433565322934
 30
0.0
 10
3.610771097454092
 20
-12.27654860985684
 30
0.0
 10
3.716070605948568
 20
-12.45470972118519
 30
0.0
 10
3.819839468129199
 20
-12.62997971820328
 30
0.0
 10
3.921017846557089
 20
-12.80284136965795
 30
0.0
 10
4.018681619780896
 20
-12.97255546647261
 30
0.0
 10
4.110639705211798
 20
-13.13755505670349
 30
0.0
 10
4.195067836322287
 20
-13.29877144253685
 30
0.0
 10
4.270443990241239
 20
-13.45636779113806
 30
0.0
 10
4.338152744274792
 20
-13.61768403514722
 30
0.0
 10
4.395819552837087
 20
-13.78252015062434
 30
0.0
 10
4.441761972343207
 20
-13.95027640115181
 30
0.0
 10
4.473089223870604
 20
-14.12075819871924
 30
0.0
 10
4.49002412378556
 20
-14.29389573795688
 30
0.0
 10
4.489244518028366
 20
-14.41002499908942
 30
0.0
 10
4.488852772897025
 20
-14.46837894560021
 30
0.0
  0
SPLINE
  5
8E
330
1F
100
AcDbEntity
  8
0
  6
Continuous
 62
     7
370
    25
100
AcDbSpline
210
0.0
220
0.0
230
1.0
 70
     8
 71
     3
 72
    19
 73
    15
 74
     0
 42
0.00000001
 43
0.00000001
 40
0.0
 40
0.0
 40
0.0
 40
0.0
 40
0.0572061611180125
 40
0.1022861718699209
 40
0.149728618157742
 40
0.1983766631686068
 40
0.2474388395606981
 40
0.2973444390629058
 40
0.3461738174190954
 40
0.4751525399524992
 40
0.6038661107514293
 40
0.7374179073365726
 40
0.8702908479915751
 40
1.0
 40
1.0
 40
1.0
 40
1.0
 10
3.570936100913011
 20
-14.4683789455432
 30
0.0
 10
3.565556722310821
 20
-14.42915188722659
 30
0.0
 10
3.555938247071378
 20
-14.35901284012907
 30
0.0
 10
3.542075839874427
 20
-14.25632441250607
 30
0.0
 10
3.528057565458332
 20
-14.15958754611678
 30
0.0
 10
3.506275435356183
 20
-14.06142332111206
 30
0.0
 10
3.478804543091792
 20
-13.96299343600185
 30
0.0
 10
3.44787290319853
 20
-13.86546861369367
 30
0.0
 10
3.395378899427354
 20
-13.71684012105977
 30
0.0
 10
3.311602971715898
 20
-13.52155740396775
 30
0.0
 10
3.18389200542578
 20
-13.28253263286742
 30
0.0
 10
3.041199929979013
 20
-13.04910253284507
 30
0.0
 10
2.888766887032929
 20
-12.82116423681896
 30
0.0
 10
2.784862009645528
 20
-12.67205914050783
 30
0.0
 10
2.73353553342335
 20
-12.59840485812139
 30
0.0
  0
SPLINE
  5
92
330
1F
100
AcDbEntity
  8
0
  6
Continuous
 62
     7
370
    25
100
AcDbSpline
210
0.0
220
0.0
230
1.0
 70
     8
 71
     3
 72
    15
 73
    11
 74
     0
 42
0.00000001
 43
0.00000001
 40
0.0
 40
0.0
 40
0.0
 40
0.0
 40
0.1195298754003771
 40
0.2321692689272374
 40
0.354377517013486
 40
0.4746346883967811
 40
0.5840755749779244
 40
0.682700921039445
 40
0.8472524224926076
 40
1.0
 40
1.0
 40
1.0
 40
1.0
 10
2.616569055638145
 20
-12.43252862343199
 30
0.0
 10
2.595874391556867
 20
-12.40334066219342
 30
0.0
 10
2.555678038851306
 20
-12.34664732423472
 30
0.0
 10
2.494253469889062
 20
-12.26016155662584
 30
0.0
 10
2.432671426944197
 20
-12.17352057348109
 30
0.0
 10
2.371829793790107
 20
-12.08752822132211
 30
0.0
 10
2.315243876350144
 20
-12.00717256048089
 30
0.0
 10
2.251296010186736
 20
-11.91578535018449
 30
0.0
 10
2.180356945141388
 20
-11.81346729270352
 30
0.0
 10
2.127024790609875
 20
-11.73487353238506
 30
0.0
 10
2.101350724884171
 20
-11.6970385454851
 30
0.0
  0
SPLINE
  5
94
330
1F
100
AcDbEntity
  8
0
  6
Continuous
 62
     7
370
    25
100
AcDbSpline
210
0.0
220
0.0
230
1.0
 70
    24
 71
     3
 72
     9
 73
     5
 74
     0
 42
0.00000001
 43
0.00000001
 40
0.0
 40
0.0
 40
0.0
 40
0.0
 40
0.5598226446348762
 40
1.0
 40
1.0
 40
1.0
 40
1.0
 10
2.52870253949386
 20
-12.52039513957627
 30
0.0
 10
2.529780481900354
 20
-12.51931719716977
 30
0.0
 10
2.531705988874437
 20
-12.5173916901957
 30
0.0
 10
2.535364516794823
 20
-12.51373316227531
 30
0.0
 10
2.536974917939348
 20
-12.51212276113078
 30
0.0
  0
SPLINE
  5
95
330
1F
100
AcDbEntity
  8
0
  6
Continuous
 62
     7
370
    25
100
AcDbSpline
210
0.0
220
0.0
230
1.0
 70
    24
 71
     3
 72
     9
 73
     5
 74
     0
 42
0.00000001
 43
0.00000001
 40
0.0
 40
0.0
 40
0.0
 40
0.0
 40
0.5598226446349021
 40
1.0
 40
1.0
 40
1.0
 40
1.0
 10
2.670123895731165
 20
-12.66181649581358
 30
0.0
 10
2.671201838137657
 20
-12.66073855340708
 30
0.0
 10
2.673127345111737
 20
-12.658813046433
 30
0.0
 10
2.676785873032127
 20
-12.65515451851262
 30
0.0
 10
2.678396274176653
 20
-12.65354411736809
 30
0.0
  0
SPLINE
  5
97
330
1F
100
AcDbEntity
  8
0
  6
Continuous
 62
     7
370
    25
100
AcDbSpline
210
0.0
220
0.0
230
1.0
 70
     8
 71
     3
 72
    15
 73
    11
 74
     0
 42
0.00000001
 43
0.00000001
 40
0.0
 40
0.0
 40
0.0
 40
0.0
 40
0.1134051231147102
 40
0.2232198514507449
 40
0.3312321818904675
 40
0.4389801824889642
 40
0.5477204283319337
 40
0.6932051640801039
 40
0.8436230293508261
 40
1.0
 40
1.0
 40
1.0
 40
1.0
 10
1.910305708053699
 20
-14.72541043953123
 30
0.0
 10
1.91193723367755
 20
-14.62334860330227
 30
0.0
 10
1.915148630988285
 20
-14.4224561983024
 30
0.0
 10
1.882013266266106
 20
-14.12567887964963
 30
0.0
 10
1.823621165607359
 20
-13.83844916266113
 30
0.0
 10
1.74006427720327
 20
-13.55845853343692
 30
0.0
 10
1.623553456395487
 20
-13.25422913203728
 30
0.0
 10
1.468579916794384
 20
-12.92461720931929
 30
0.0
 10
1.27416672369163
 20
-12.56715923977172
 30
0.0
 10
1.132150987945516
 20
-12.33058889191576
 30
0.0
 10
1.059763881187665
 20
-12.2100061766552
 30
0.0
  0
SPLINE
  5
9B
330
1F
100
AcDbEntity
  8
0
  6
Continuous
 62
     7
370
    25
100
AcDbSpline
210
0.0
220
0.0
230
1.0
 70
     8
 71
     3
 72
     9
 73
     5
 74
     0
 42
0.00000001
 43
0.00000001
 40
0.0
 40
0.0
 40
0.0
 40
0.0
 40
0.5501592219350585
 40
1.0
 40
1.0
 40
1.0
 40
1.0
 10
0.952370479170557
 20
-12.03455686639793
 30
0.0
 10
0.8711711670776211
 20
-11.90377664899923
 30
0.0
 10
0.7235787813545643
 20
-11.66606325225073
 30
0.0
 10
0.5781369879562525
 20
-11.4270284367933
 30
0.0
 10
0.5127113384507953
 20
-11.31950082942332
 30
0.0
  0
SPLINE
  5
9C
330
1F
100
AcDbEntity
  8
0
  6
Continuous
 62
     7
370
    25
100
AcDbSpline
210
0.0
220
0.0
230
1.0
 70
     8
 71
     3
 72
    17
 73
    13
 74
     0
 42
0.00000001
 43
0.00000001
 40
0.0
 40
0.0
 40
0.0
 40
0.0
 40
0.0852819098984421
 40
0.1699467652466623
 40
0.2546051987276747
 40
0.3398734127373857
 40
0.4504654080669447
 40
0.560502047117263
 40
0.6711559789732134
 40
0.7813324763642291
 40
0.8900114061688551
 40
1.0
 40
1.0
 40
1.0
 40
1.0
 10
-0.1485157510515412
 20
-9.412875495704393
 30
0.0
 10
-0.1502934025011137
 20
-9.47113579305365
 30
0.0
 10
-0.1538358432596598
 20
-9.587234847221243
 30
0.0
 10
-0.1407168238550427
 20
-9.760965254300396
 30
0.0
 10
-0.1136077700042464
 20
-9.932932002781527
 30
0.0
 10
-0.0670309759912509
 20
-10.11902619966689
 30
0.0
 10
0.0001194470995616
 20
-10.31715137245452
 30
0.0
 10
0.088628762351483
 20
-10.52558210441568
 30
0.0
 10
0.1881714499502199
 20
-10.72856520776588
 30
0.0
 10
0.2940659698716193
 20
-10.92719698595638
 30
0.0
 10
0.4024973337667517
 20
-11.12392041514039
 30
0.0
 10
0.4758269393739357
 20
-11.25404756808229
 30
0.0
 10
0.5127113384507778
 20
-11.31950082942332
 30
0.0
  0
SPLINE
  5
A0
330
1F
100
AcDbEntity
  8
0
  6
Continuous
 62
     7
370
    25
100
AcDbSpline
210
0.0
220
0.0
230
1.0
 70
     8
 71
     3
 72
    22
 73
    18
 74
     0
 42
0.00000001
 43
0.00000001
 40
0.0
 40
0.0
 40
0.0
 40
0.0
 40
0.0925029479757932
 40
0.1754637475180912
 40
0.2616291096296431
 40
0.3487739394939933
 40
0.4573871013785372
 40
0.5653221969847656
 40
0.672605813097511
 40
0.7641090736837766
 40
0.8563821300242451
 40
0.8797345871619979
 40
0.9032040075632279
 40
0.9200480691831114
 40
0.9338654034935753
 40
0.9605160470134478
 40
1.0
 40
1.0
 40
1.0
 40
1.0
 10
1.583158079641154
 20
-11.40376926592525
 30
0.0
 10
1.543978133694093
 20
-11.34780024473714
 30
0.0
 10
1.46965985201915
 20
-11.24163569087712
 30
0.0
 10
1.360243991698505
 20
-11.08236402297601
 30
0.0
 10
1.25505497308975
 20
-10.92500194076039
 30
0.0
 10
1.143100087254034
 20
-10.7494134870362
 30
0.0
 10
1.029933244275404
 20
-10.55564559282196
 30
0.0
 10
0.9212239484324556
 20
-10.34242968866475
 30
0.0
 10
0.8339706023105526
 20
-10.13301291372623
 30
0.0
 10
0.7690709814098833
 20
-9.927930088457353
 30
0.0
 10
0.7323754986157236
 20
-9.77915675630583
 30
0.0
 10
0.7156486156295366
 20
-9.677770317116114
 30
0.0
 10
0.7098430994197633
 20
-9.631099712793402
 30
0.0
 10
0.705644049201432
 20
-9.59134174550844
 30
0.0
 10
0.7013853453280636
 20
-9.549227649688508
 30
0.0
 10
0.6953959047661665
 20
-9.490482394396926
 30
0.0
 10
0.6904589893224279
 20
-9.441887701932535
 30
0.0
 10
0.6875115314474829
 20
-9.412875495704382
 30
0.0
  0
SPLINE
  5
A4
330
1F
100
AcDbEntity
  8
0
  6
Continuous
 62
     7
370
    25
100
AcDbSpline
210
0.0
220
0.0
230
1.0
 70
     8
 71
     3
 72
    16
 73
    12
 74
     0
 42
0.00000001
 43
0.00000001
 40
0.0
 40
0.0
 40
0.0
 40
0.0
 40
0.1061962336943631
 40
0.2150477171803767
 40
0.3253569680077771
 40
0.4369374572545289
 40
0.5496165324905797
 40
0.661192025430714
 40
0.7735227469210156
 40
0.8864882859355749
 40
1.0
 40
1.0
 40
1.0
 40
1.0
 10
2.639576458053691
 20
-14.72541043953123
 30
0.0
 10
2.638723884491248
 20
-14.60724017517839
 30
0.0
 10
2.636997420265978
 20
-14.36794500713301
 30
0.0
 10
2.600276247122319
 20
-14.0074668705779
 30
0.0
 10
2.541690189315487
 20
-13.64412517883323
 30
0.0
 10
2.458198207443514
 20
-13.28119050572751
 30
0.0
 10
2.351536369825753
 20
-12.92296712015925
 30
0.0
 10
2.222277286121614
 20
-12.57133480331217
 30
0.0
 10
2.0706420539981
 20
-12.22849724096463
 30
0.0
 10
1.897935716381038
 20
-11.89311067612321
 30
0.0
 10
1.764390822208713
 20
-11.67941714873713
 30
0.0
 10
1.697457345950211
 20
-11.57231271220634
 30
0.0
  0
SPLINE
  5
A6
330
1F
100
AcDbEntity
  8
0
  6
Continuous
 62
     7
370
    25
100
AcDbSpline
210
0.0
220
0.0
230
1.0
 70
    24
 71
     3
 72
     9
 73
     5
 74
     0
 42
0.00000001
 43
0.00000001
 40
0.0
 40
0.0
 40
0.0
 40
0.0
 40
0.5603194205070778
 40
1.0
 40
1.0
 40
1.0
 40
1.0
 10
1.809257202906602
 20
-11.46051285513649
 30
0.0
 10
1.801037714670069
 20
-11.46873234337302
 30
0.0
 10
1.786368424376518
 20
-11.48340163366658
 30
0.0
 10
1.769284046652444
 20
-11.50048601139065
 30
0.0
 10
1.761772377554449
 20
-11.50799768048865
 30
0.0
  0
SPLINE
  5
A7
330
1F
100
AcDbEntity
  8
0
  6
Continuous
 62
     7
370
    25
100
AcDbSpline
210
0.0
220
0.0
230
1.0
 70
    24
 71
     3
 72
     9
 73
     5
 74
     0
 42
0.00000001
 43
0.00000001
 40
0.0
 40
0.0
 40
0.0
 40
0.0
 40
0.5603194205070754
 40
1.0
 40
1.0
 40
1.0
 40
1.0
 10
1.667835846669292
 20
-11.31909149889917
 30
0.0
 10
1.65961635843276
 20
-11.32731098713571
 30
0.0
 10
1.64494706813921
 20
-11.34198027742927
 30
0.0
 10
1.627862690415133
 20
-11.35906465515334
 30
0.0
 10
1.620351021317134
 20
-11.36657632425134
 30
0.0
  0
SPLINE
  5
A9
330
1F
100
AcDbEntity
  8
0
  6
Continuous
 62
     7
370
    25
100
AcDbSpline
210
0.0
220
0.0
230
1.0
 70
     8
 71
     3
 72
    15
 73
    11
 74
     0
 42
0.00000001
 43
0.00000001
 40
0.0
 40
0.0
 40
0.0
 40
0.0
 40
0.1147443170662945
 40
0.2260013673273859
 40
0.3352887534403075
 40
0.4439278188730391
 40
0.5530184674557258
 40
0.6979805130457508
 40
0.8466524511605926
 40
1.0
 40
1.0
 40
1.0
 40
1.0
 10
-1.967306838002983
 20
-9.257157660910282
 30
0.0
 10
-1.968294525178175
 20
-9.361493276582534
 30
0.0
 10
-1.970239882105579
 20
-9.566993578521233
 30
0.0
 10
-1.937582325943622
 20
-9.870546515937619
 30
0.0
 10
-1.881181557991937
 20
-10.16457968431615
 30
0.0
 10
-1.800960783818979
 20
-10.45103814366447
 30
0.0
 10
-1.689354713650154
 20
-10.76138519430004
 30
0.0
 10
-1.540795843015863
 20
-11.09617038814773
 30
0.0
 10
-1.353926533050667
 20
-11.45701847347654
 30
0.0
 10
-1.215854857470337
 20
-11.69422441281217
 30
0.0
 10
-1.145750265121297
 20
-11.81466349352877
 30
0.0
  0
SPLINE
  5
AD
330
1F
100
AcDbEntity
  8
0
  6
Continuous
 62
     7
370
    25
100
AcDbSpline
210
0.0
220
0.0
230
1.0
 70
     8
 71
     3
 72
    10
 73
     6
 74
     0
 42
0.00000001
 43
0.00000001
 40
0.0
 40
0.0
 40
0.0
 40
0.0
 40
0.2701242010291363
 40
0.547740718769672
 40
1.0
 40
1.0
 40
1.0
 40
1.0
 10
-1.039815079680672
 20
-11.99157102065221
 30
0.0
 10
-0.9817318322136755
 20
-12.08677133343414
 30
0.0
 10
-0.8639543076718537
 20
-12.27981248839771
 30
0.0
 10
-0.6459797138413842
 20
-12.63043324738109
 30
0.0
 10
-0.4905301063788432
 20
-12.88857348911111
 30
0.0
 10
-0.3942075158262114
 20
-13.0485271693757
 30
0.0
  0
SPLINE
  5
AE
330
1F
100
AcDbEntity
  8
0
  6
Continuous
 62
     7
370
    25
100
AcDbSpline
210
0.0
220
0.0
230
1.0
 70
     8
 71
     3
 72
    15
 73
    11
 74
     0
 42
0.00000001
 43
0.00000001
 40
0.0
 40
0.0
 40
0.0
 40
0.0
 40
0.147389126070411
 40
0.2920688109260633
 40
0.4389063184073499
 40
0.5533353762393988
 40
0.6672767093597415
 40
0.7808125101816589
 40
0.8928568106393875
 40
1.0
 40
1.0
 40
1.0
 40
1.0
 10
0.0451287183764521
 20
-14.48125299476266
 30
0.0
 10
0.0448036398853103
 20
-14.40664159323433
 30
0.0
 10
0.0441594587920589
 20
-14.25879036494565
 30
0.0
 10
0.0115357127262552
 20
-14.03849470536288
 30
0.0
 10
-0.0404760294035804
 20
-13.83961037556598
 30
0.0
 10
-0.1029660946580093
 20
-13.6603204616833
 30
0.0
 10
-0.1690059337771446
 20
-13.50045021967486
 30
0.0
 10
-0.2414339379309591
 20
-13.34473677108772
 30
0.0
 10
-0.317003829409532
 20
-13.19438257997249
 30
0.0
 10
-0.3688582314416474
 20
-13.09641479303666
 30
0.0
 10
-0.3942056909189783
 20
-13.0485261970424
 30
0.0
  0
SPLINE
  5
B2
330
1F
100
AcDbEntity
  8
0
  6
Continuous
 62
     7
370
    25
100
AcDbSpline
210
0.0
220
0.0
230
1.0
 70
     8
 71
     3
 72
    20
 73
    16
 74
     0
 42
0.00000001
 43
0.00000001
 40
0.0
 40
0.0
 40
0.0
 40
0.0
 40
0.0496754085943013
 40
0.0969900005712638
 40
0.2472851033418878
 40
0.3970726082782177
 40
0.5465907135059251
 40
0.6737065036953978
 40
0.8012621816331211
 40
0.8567717766488797
 40
0.9118119132222546
 40
0.9329708869731814
 40
0.947742199790557
 40
0.9667922549397773
 40
1.0
 40
1.0
 40
1.0
 40
1.0
 10
-1.044376390287242
 20
-13.0485275258561
 30
0.0
 10
-1.030634959283174
 20
-13.07022390964435
 30
0.0
 10
-1.00380515679842
 20
-13.11258555971559
 30
0.0
 10
-0.93687939035715
 20
-13.22151302917192
 30
0.0
 10
-0.8467325125457598
 20
-13.37692881607641
 30
0.0
 10
-0.7407932974032915
 20
-13.58395823634585
 30
0.0
 10
-0.6536028047684409
 20
-13.78670570209067
 30
0.0
 10
-0.5868765172349888
 20
-13.98490463200041
 30
0.0
 10
-0.5456835350898117
 20
-14.14002193397554
 30
0.0
 10
-0.520700831744621
 20
-14.26059562051317
 30
0.0
 10
-0.510505179480151
 20
-14.32795570757271
 30
0.0
 10
-0.5049275278146591
 20
-14.37465424595202
 30
0.0
 10
-0.5017331566735772
 20
-14.402898441222
 30
0.0
 10
-0.4979091655985124
 20
-14.43733997114819
 30
0.0
 10
-0.494918340889859
 20
-14.46419053422601
 30
0.0
 10
-0.4930177912293924
 20
-14.48125299475511
 30
0.0
  0
SPLINE
  5
B3
330
1F
100
AcDbEntity
  8
0
  6
Continuous
 62
     7
370
    25
100
AcDbSpline
210
0.0
220
0.0
230
1.0
 70
     8
 71
     3
 72
     9
 73
     5
 74
     0
 42
0.00000001
 43
0.00000001
 40
0.0
 40
0.0
 40
0.0
 40
0.0
 40
0.5543881723617027
 40
1.0
 40
1.0
 40
1.0
 40
1.0
 10
-1.445198670979962
 20
-12.39695461192465
 30
0.0
 10
-1.372225389835419
 20
-12.51803864523766
 30
0.0
 10
-1.240596894166624
 20
-12.73644884832187
 30
0.0
 10
-1.10486124269109
 20
-12.95232859908708
 30
0.0
 10
-1.044375830961402
 20
-13.04852716937567
 30
0.0
  0
SPLINE
  5
B7
330
1F
100
AcDbEntity
  8
0
  6
Continuous
 62
     7
370
    25
100
AcDbSpline
210
0.0
220
0.0
230
1.0
 70
     8
 71
     3
 72
    15
 73
    11
 74
     0
 42
0.00000001
 43
0.00000001
 40
0.0
 40
0.0
 40
0.0
 40
0.0
 40
0.1125465095915461
 40
0.2227925430071268
 40
0.3319221184564903
 40
0.4409567113837376
 40
0.5507421891863471
 40
0.6967313200651369
 40
0.8462478490398938
 40
0.9999999999999999
 40
0.9999999999999999
 40
0.9999999999999999
 40
0.9999999999999999
 10
-2.467306838002989
 20
-9.257157660910291
 30
0.0
 10
-2.467885366157717
 20
-9.375122339369586
 30
0.0
 10
-2.46903059722051
 20
-9.608640471511984
 30
0.0
 10
-2.432393229743813
 20
-9.95503530019695
 30
0.0
 10
-2.370071899857929
 20
-10.2936198601487
 30
0.0
 10
-2.28162754718704
 20
-10.62590485324469
 30
0.0
 10
-2.158370498125727
 20
-10.98787535078663
 30
0.0
 10
-1.993628423706804
 20
-11.37952252464722
 30
0.0
 10
-1.78521167018254
 20
-11.80175336532298
 30
0.0
 10
-1.628927227905125
 20
-12.07836790764912
 30
0.0
 10
-1.549693628290044
 20
-12.21860685642096
 30
0.0
  0
SPLINE
  5
B9
330
1F
100
AcDbEntity
  8
0
  6
Continuous
 62
     7
370
    25
100
AcDbSpline
210
0.0
220
0.0
230
1.0
 70
    24
 71
     3
 72
     9
 73
     5
 74
     0
 42
0.00000001
 43
0.00000001
 40
0.0
 40
0.0
 40
0.0
 40
0.0
 40
0.5599137314596357
 40
1.0
 40
1.0
 40
1.0
 40
1.0
 10
-1.622222036060442
 20
-12.57397797703202
 30
0.0
 10
-1.61000723335434
 20
-12.56176317432591
 30
0.0
 10
-1.588191724964753
 20
-12.53994766593632
 30
0.0
 10
-1.562207240330661
 20
-12.51396318130223
 30
0.0
 10
-1.5507718254481
 20
-12.50252776641967
 30
0.0
  0
SPLINE
  5
BA
330
1F
100
AcDbEntity
  8
0
  6
Continuous
 62
     7
370
    25
100
AcDbSpline
210
0.0
220
0.0
230
1.0
 70
    24
 71
     3
 72
     9
 73
     5
 74
     0
 42
0.00000001
 43
0.00000001
 40
0.0
 40
0.0
 40
0.0
 40
0.0
 40
0.5599137314596969
 40
1.0
 40
1.0
 40
1.0
 40
1.0
 10
-1.763643392297757
 20
-12.43255662079471
 30
0.0
 10
-1.751428589591657
 20
-12.42034181808861
 30
0.0
 10
-1.729613081202079
 20
-12.39852630969902
 30
0.0
 10
-1.703628596567978
 20
-12.37254182506492
 30
0.0
 10
-1.692193181685414
 20
-12.36110641018236
 30
0.0
  0
SPLINE
  5
BE
330
1F
100
AcDbEntity
  8
0
  6
Continuous
 62
     7
370
    25
100
AcDbSpline
210
0.0
220
0.0
230
1.0
 70
     8
 71
     3
 72
    22
 73
    18
 74
     0
 42
0.00000001
 43
0.00000001
 40
0.0
 40
0.0
 40
0.0
 40
0.0
 40
0.0616353768179074
 40
0.1161054753360748
 40
0.1641899375308382
 40
0.2204159528637262
 40
0.2750492860967135
 40
0.3287627141254392
 40
0.4124512599954138
 40
0.4961781591733985
 40
0.5824636234222134
 40
0.6644840621179476
 40
0.7320457237929626
 40
0.798526139915359
 40
0.8652064814687417
 40
0.934053298809951
 40
1.0
 40
1.0
 40
1.0
 40
1.0
 10
3.049776426437644
 20
-18.38126955328277
 30
0.0
 10
3.023914560713802
 20
-18.4175023790318
 30
0.0
 10
2.975197340702062
 20
-18.48575586710228
 30
0.0
 10
2.906766765816973
 20
-18.58260521211574
 30
0.0
 10
2.841075747420772
 20
-18.67660476606585
 30
0.0
 10
2.776058834482019
 20
-18.7712162295253
 30
0.0
 10
2.709824539618516
 20
-18.8699174880034
 30
0.0
 10
2.634281781490247
 20
-18.98624181518867
 30
0.0
 10
2.550525346764965
 20
-19.1222622316108
 30
0.0
 10
2.460434476763542
 20
-19.28188157695187
 30
0.0
 10
2.378609778728949
 20
-19.4445767676818
 30
0.0
 10
2.310555013897655
 20
-19.6008550607815
 30
0.0
 10
2.256497162111233
 20
-19.74732232392606
 30
0.0
 10
2.214371961774551
 20
-19.88614694889129
 30
0.0
 10
2.181016451703768
 20
-20.02824058485721
 30
0.0
 10
2.154760081803706
 20
-20.17150406951719
 30
0.0
 10
2.144985337107824
 20
-20.26839991815965
 30
0.0
 10
2.140203117794223
 20
-20.3158054733125
 30
0.0
  0
SPLINE
  5
C2
330
1F
100
AcDbEntity
  8
0
  6
Continuous
 62
     7
370
    25
100
AcDbSpline
210
0.0
220
0.0
230
1.0
 70
     8
 71
     3
 72
    18
 73
    14
 74
     0
 42
0.00000001
 43
0.00000001
 40
0.0
 40
0.0
 40
0.0
 40
0.0
 40
0.0661432085006197
 40
0.1318459179842204
 40
0.197586726450326
 40
0.2638117642572758
 40
0.3684293689666241
 40
0.4728925916457198
 40
0.5770086665848956
 40
0.6820204899872628
 40
0.7868015169468141
 40
0.8912181696257889
 40
1.0
 40
1.0
 40
1.0
 40
1.0
 10
1.479829470037507
 20
-20.31580547337004
 30
0.0
 10
1.481591807502042
 20
-20.25660021314632
 30
0.0
 10
1.485104745656642
 20
-20.1385839865277
 30
0.0
 10
1.50936089798248
 20
-19.96310121062641
 30
0.0
 10
1.547446140867555
 20
-19.79015714142584
 30
0.0
 10
1.611083199634627
 20
-19.58796987077129
 30
0.0
 10
1.705638876738652
 20
-19.36002761681618
 30
0.0
 10
1.833639862283912
 20
-19.11044892902772
 30
0.0
 10
1.97428220453128
 20
-18.86751588464107
 30
0.0
 10
2.120587279122382
 20
-18.62767674449706
 30
0.0
 10
2.268886622982184
 20
-18.38875423610575
 30
0.0
 10
2.419906953526499
 20
-18.14754969286948
 30
0.0
 10
2.519409684615905
 20
-17.98474291954352
 30
0.0
 10
2.57017969507812
 20
-17.90167282192327
 30
0.0
  0
SPLINE
  5
C6
330
1F
100
AcDbEntity
  8
0
  6
Continuous
 62
     7
370
    25
100
AcDbSpline
210
0.0
220
0.0
230
1.0
 70
     8
 71
     3
 72
    11
 73
     7
 74
     0
 42
0.00000001
 43
0.00000001
 40
0.0
 40
0.0
 40
0.0
 40
0.0
 40
0.2545177239643947
 40
0.496979389002571
 40
0.747685470286122
 40
1.0
 40
1.0
 40
1.0
 40
1.0
 10
2.675963917590284
 20
-17.72461433195957
 30
0.0
 10
2.696585065153563
 20
-17.68935901311087
 30
0.0
 10
2.736850572627469
 20
-17.62051835813562
 30
0.0
 10
2.796134836723553
 20
-17.51620322756153
 30
0.0
 10
2.854221354897692
 20
-17.41161796218702
 30
0.0
 10
2.892209814058074
 20
-17.34039376328536
 30
0.0
 10
2.911264779198767
 20
-17.30466779131279
 30
0.0
  0
SPLINE
  5
C7
330
1F
100
AcDbEntity
  8
0
  6
Continuous
 62
     7
370
    25
100
AcDbSpline
210
0.0
220
0.0
230
1.0
 70
     8
 71
     3
 72
    16
 73
    12
 74
     0
 42
0.00000001
 43
0.00000001
 40
0.0
 40
0.0
 40
0.0
 40
0.0
 40
0.0935960416284902
 40
0.1838889927724462
 40
0.272459536773828
 40
0.3606536733993895
 40
0.4495518882886372
 40
0.539972860553358
 40
0.6864721772690622
 40
0.8395613590433593
 40
1.0
 40
1.0
 40
1.0
 40
1.0
 10
3.754128445238023
 20
-15.00381484952705
 30
0.0
 10
3.758097293315684
 20
-15.08166200178419
 30
0.0
 10
3.765894925168158
 20
-15.23460900862012
 30
0.0
 10
3.747033576492488
 20
-15.46114229663554
 30
0.0
 10
3.707715964873528
 20
-15.68010177355102
 30
0.0
 10
3.648221220956433
 20
-15.89329921000123
 30
0.0
 10
3.571435375149475
 20
-16.10241127438189
 30
0.0
 10
3.461242633084148
 20
-16.3502630382112
 30
0.0
 10
3.309864247321463
 20
-16.6375680106228
 30
0.0
 10
3.115624212068584
 20
-16.96740435451799
 30
0.0
 10
2.980444582104468
 20
-17.19050536887154
 30
0.0
 10
2.911270382738194
 20
-17.30467075051823
 30
0.0
  0
SPLINE
  5
C9
330
1F
100
AcDbEntity
  8
0
  6
Continuous
 62
     7
370
    25
100
AcDbSpline
210
0.0
220
0.0
230
1.0
 70
     8
 71
     3
 72
    14
 73
    10
 74
     0
 42
0.00000001
 43
0.00000001
 40
0.0
 40
0.0
 40
0.0
 40
0.0
 40
0.1388419411311681
 40
0.276381648502233
 40
0.413605383668929
 40
0.5515061878189206
 40
0.6977617313748629
 40
0.8469187185333527
 40
1.0
 40
1.0
 40
1.0
 40
1.0
 10
4.409280995238018
 20
-15.00381484952705
 30
0.0
 10
4.411564779099406
 20
-15.11556396228144
 30
0.0
 10
4.416110926634444
 20
-15.33801406453508
 30
0.0
 10
4.387584527091106
 20
-15.67016396889822
 30
0.0
 10
4.33287674155472
 20
-15.99795512047863
 30
0.0
 10
4.248337377474953
 20
-16.32675056831304
 30
0.0
 10
4.1324996777278
 20
-16.65593951898665
 30
0.0
 10
3.985760949427805
 20
-16.98625993233674
 30
0.0
 10
3.865053561813316
 20
-17.19750301363108
 30
0.0
 10
3.803916229130156
 20
-17.30449595576445
 30
0.0
  0
SPLINE
  5
CA
330
1F
100
AcDbEntity
  8
0
  6
Continuous
 62
     7
370
    25
100
AcDbSpline
210
0.0
220
0.0
230
1.0
 70
     8
 71
     3
 72
    15
 73
    11
 74
     0
 42
0.00000001
 43
0.00000001
 40
0.0
 40
0.0
 40
0.0
 40
0.0
 40
0.1032575374673367
 40
0.2072625212064374
 40
0.3038554418218928
 40
0.4065229433691451
 40
0.5152693874606177
 40
0.6766741197071993
 40
0.8378118711884389
 40
1.0
 40
1.0
 40
1.0
 40
1.0
 10
3.803916229129296
 20
-17.30449595576388
 30
0.0
 10
3.78299604771345
 20
-17.33654922230455
 30
0.0
 10
3.741004250788059
 20
-17.40088777810463
 30
0.0
 10
3.678258096649887
 20
-17.49442910245584
 30
0.0
 10
3.614924623231585
 20
-17.58730663907349
 30
0.0
 10
3.549936967319494
 20
-17.68118051007309
 30
0.0
 10
3.470582061969158
 20
-17.79432464874749
 30
0.0
 10
3.377945277631571
 20
-17.92462332574409
 30
0.0
 10
3.273140454837837
 20
-18.07057361523538
 30
0.0
 10
3.203097950602134
 20
-18.16782811636393
 30
0.0
 10
3.167962926183497
 20
-18.21661334055402
 30
0.0
  0
SPLINE
  5
CE
330
1F
100
AcDbEntity
  8
0
  6
Continuous
 62
     7
370
    25
100
AcDbSpline
210
0.0
220
0.0
230
1.0
 70
     8
 71
     3
 72
    22
 73
    18
 74
     0
 42
0.00000001
 43
0.00000001
 40
0.0
 40
0.0
 40
0.0
 40
0.0
 40
0.0606831415942473
 40
0.1143435095775241
 40
0.1623435562070306
 40
0.2179589445071256
 40
0.2722305468366652
 40
0.3255082482663104
 40
0.4096025545448096
 40
0.4937354000857278
 40
0.5804392157930301
 40
0.6628573271495407
 40
0.7307465587106965
 40
0.7975493023454704
 40
0.8645529407413068
 40
0.933733558992061
 40
1.0
 40
1.0
 40
1.0
 40
1.0
 10
1.887982046129518
 20
-18.32876240091703
 30
0.0
 10
1.862651386109744
 20
-18.36426959959704
 30
0.0
 10
1.814921547303068
 20
-18.43117479938853
 30
0.0
 10
1.747611452631887
 20
-18.52649028537055
 30
0.0
 10
1.682886683650633
 20
-18.6191705339229
 30
0.0
 10
1.618641778741858
 20
-18.7127187563664
 30
0.0
 10
1.55331606299785
 20
-18.81012012421669
 30
0.0
 10
1.478305055291086
 20
-18.92565589089483
 30
0.0
 10
1.394811085896714
 20
-19.06125022858072
 30
0.0
 10
1.304720198331516
 20
-19.22086955175268
 30
0.0
 10
1.22289550510018
 20
-19.38356474854533
 30
0.0
 10
1.1548407390749
 20
-19.53984304013797
 30
0.0
 10
1.100782887547021
 20
-19.68631030360886
 30
0.0
 10
1.058657687146684
 20
-19.82513492849375
 30
0.0
 10
1.025302177093016
 20
-19.96722856448127
 30
0.0
 10
0.9990458071883451
 20
-20.11049204913543
 30
0.0
 10
0.9892710624930637
 20
-20.20738789777865
 30
0.0
 10
0.9844888431797569
 20
-20.25479345293187
 30
0.0
  0
SPLINE
  5
D2
330
1F
100
AcDbEntity
  8
0
  6
Continuous
 62
     7
370
    25
100
AcDbSpline
210
0.0
220
0.0
230
1.0
 70
     8
 71
     3
 72
    18
 73
    14
 74
     0
 42
0.00000001
 43
0.00000001
 40
0.0
 40
0.0
 40
0.0
 40
0.0
 40
0.0664058011301547
 40
0.1323693544349408
 40
0.1983711579775525
 40
0.264859113281444
 40
0.3693088096796588
 40
0.4736617305811505
 40
0.5774788844262868
 40
0.6824323604404904
 40
0.7864948677188773
 40
0.8912792946714188
 40
1.0
 40
1.0
 40
1.0
 40
1.0
 10
0.324115195423041
 20
-20.25479345298941
 30
0.0
 10
0.3258775323348347
 20
-20.19558819296936
 30
0.0
 10
0.3293904693876348
 20
-20.07757196675675
 30
0.0
 10
0.3536466299363754
 20
-19.9020891878254
 30
0.0
 10
0.3917318415236251
 20
-19.72914513015771
 30
0.0
 10
0.4552127771859072
 20
-19.52745428689171
 30
0.0
 10
0.5493190479848444
 20
-19.30040146460272
 30
0.0
 10
0.6764378168335606
 20
-19.05219564683538
 30
0.0
 10
0.8161781841659064
 20
-18.8105041863682
 30
0.0
 10
0.9613522187856773
 20
-18.57239933902654
 30
0.0
 10
1.108821131455662
 20
-18.33469934848907
 30
0.0
 10
1.259068048337862
 20
-18.09477160521655
 30
0.0
 10
1.358387054000424
 20
-17.93241659017104
 30
0.0
 10
1.408962102163432
 20
-17.84974245695097
 30
0.0
  0
SPLINE
  5
D6
330
1F
100
AcDbEntity
  8
0
  6
Continuous
 62
     7
370
    25
100
AcDbSpline
210
0.0
220
0.0
230
1.0
 70
     8
 71
     3
 72
    11
 73
     7
 74
     0
 42
0.00000001
 43
0.00000001
 40
0.0
 40
0.0
 40
0.0
 40
0.0
 40
0.2551785152822841
 40
0.4980552225574555
 40
0.7478287506735555
 40
1.0
 40
1.0
 40
1.0
 40
1.0
 10
1.514844754937193
 20
-17.67278239724598
 30
0.0
 10
1.53600328799188
 20
-17.63666879592013
 30
0.0
 10
1.577300330095461
 20
-17.56618258070799
 30
0.0
 10
1.637966639337553
 20
-17.45957194236776
 30
0.0
 10
1.697329403861599
 20
-17.35279114884308
 30
0.0
 10
1.736081766107407
 20
-17.28014989599594
 30
0.0
 10
1.75555050458431
 20
-17.24365577093216
 30
0.0
  0
SPLINE
  5
D7
330
1F
100
AcDbEntity
  8
0
  6
Continuous
 62
     7
370
    25
100
AcDbSpline
210
0.0
220
0.0
230
1.0
 70
     8
 71
     3
 72
    16
 73
    12
 74
     0
 42
0.00000001
 43
0.00000001
 40
0.0
 40
0.0
 40
0.0
 40
0.0
 40
0.0935960416284903
 40
0.1838889927724463
 40
0.2724595367738284
 40
0.36065367339939
 40
0.4495518882886377
 40
0.5399728605533578
 40
0.6864721772690621
 40
0.8395613590433602
 40
1.0
 40
1.0
 40
1.0
 40
1.0
 10
2.598414170623575
 20
-14.94280282914642
 30
0.0
 10
2.602383018701236
 20
-15.02064998140357
 30
0.0
 10
2.61018065055371
 20
-15.1735969882395
 30
0.0
 10
2.59131930187804
 20
-15.40013027625492
 30
0.0
 10
2.552001690259073
 20
-15.61908975317039
 30
0.0
 10
2.49250694634198
 20
-15.8322871896206
 30
0.0
 10
2.415721100535022
 20
-16.04139925400126
 30
0.0
 10
2.305528358469694
 20
-16.28925101783057
 30
0.0
 10
2.154149972707012
 20
-16.57655599024218
 30
0.0
 10
1.959909937454126
 20
-16.90639233413736
 30
0.0
 10
1.824730307490011
 20
-17.12949334849091
 30
0.0
 10
1.755556108123736
 20
-17.2436587301376
 30
0.0
  0
SPLINE
  5
D9
330
1F
100
AcDbEntity
  8
0
  6
Continuous
 62
     7
370
    25
100
AcDbSpline
210
0.0
220
0.0
230
1.0
 70
     8
 71
     3
 72
    14
 73
    10
 74
     0
 42
0.00000001
 43
0.00000001
 40
0.0
 40
0.0
 40
0.0
 40
0.0
 40
0.1388419411311682
 40
0.2763816485022331
 40
0.4136053836689291
 40
0.5515061878189212
 40
0.6977617313748622
 40
0.8469187185333527
 40
1.0
 40
1.0
 40
1.0
 40
1.0
 10
3.253566720623569
 20
-14.94280282914642
 30
0.0
 10
3.255850504484956
 20
-15.05455194190082
 30
0.0
 10
3.26039665201999
 20
-15.27700204415446
 30
0.0
 10
3.231870252476653
 20
-15.6091519485176
 30
0.0
 10
3.177162466940269
 20
-15.93694310009801
 30
0.0
 10
3.092623102860493
 20
-16.26573854793241
 30
0.0
 10
2.976785403113349
 20
-16.59492749860603
 30
0.0
 10
2.830046674813345
 20
-16.92524791195611
 30
0.0
 10
2.709339287198859
 20
-17.13649099325045
 30
0.0
 10
2.648201954515699
 20
-17.24348393538382
 30
0.0
  0
SPLINE
  5
DA
330
1F
100
AcDbEntity
  8
0
  6
Continuous
 62
     7
370
    25
100
AcDbSpline
210
0.0
220
0.0
230
1.0
 70
     8
 71
     3
 72
    15
 73
    11
 74
     0
 42
0.00000001
 43
0.00000001
 40
0.0
 40
0.0
 40
0.0
 40
0.0
 40
0.1022963905259526
 40
0.2053332699071355
 40
0.3010270794989673
 40
0.4027389263065036
 40
0.5104731313431933
 40
0.6734853848505227
 40
0.8368984476038344
 40
1.0
 40
1.0
 40
1.0
 40
1.0
 10
2.648201954514839
 20
-17.24348393538326
 30
0.0
 10
2.627281773059443
 20
-17.27553720189634
 30
0.0
 10
2.585289976054667
 20
-17.33987575764105
 30
0.0
 10
2.522543822500913
 20
-17.43341708239989
 30
0.0
 10
2.459210346967863
 20
-17.52629461754249
 30
0.0
 10
2.394222699478109
 20
-17.62016849441671
 30
0.0
 10
2.314199585559587
 20
-17.73426528019491
 30
0.0
 10
2.220060394219605
 20
-17.86665679138657
 30
0.0
 10
2.113206426380411
 20
-18.01542338037552
 30
0.0
 10
2.041807195858226
 20
-18.11455884144735
 30
0.0
 10
2.006141639715421
 20
-18.16407928202832
 30
0.0
  0
SPLINE
  5
DE
330
1F
100
AcDbEntity
  8
0
  6
Continuous
 62
     7
370
    25
100
AcDbSpline
210
0.0
220
0.0
230
1.0
 70
     8
 71
     3
 72
    19
 73
    15
 74
     0
 42
0.00000001
 43
0.00000001
 40
0.0
 40
0.0
 40
0.0
 40
0.0
 40
0.0572061611180104
 40
0.1022861718699209
 40
0.14972861815774
 40
0.1983766631686068
 40
0.247438839560696
 40
0.297344439062905
 40
0.3461738174190956
 40
0.4751525399524978
 40
0.6038661107514278
 40
0.7374179073365728
 40
0.8702908479915741
 40
1.0
 40
1.0
 40
1.0
 40
1.0
 10
-0.0918859571057085
 20
-20.26735184529317
 30
0.0
 10
-0.0865065785035175
 20
-20.22812478697657
 30
0.0
 10
-0.0768881032640757
 20
-20.15798573987906
 30
0.0
 10
-0.0630256960671239
 20
-20.05529731225605
 30
0.0
 10
-0.0490074216510287
 20
-19.95856044586676
 30
0.0
 10
-0.0272252915488777
 20
-19.86039622086205
 30
0.0
 10
0.0002456007154984
 20
-19.76196633575182
 30
0.0
 10
0.0311772406087756
 20
-19.66444151344365
 30
0.0
 10
0.0836712443799456
 20
-19.51581302080976
 30
0.0
 10
0.1674471720913966
 20
-19.32053030371773
 30
0.0
 10
0.2951581383815095
 20
-19.0815055326174
 30
0.0
 10
0.4378502138282699
 20
-18.84807543259505
 30
0.0
 10
0.5902832567743538
 20
-18.62013713656893
 30
0.0
 10
0.6941881341617528
 20
-18.4710320402578
 30
0.0
 10
0.7455146103839307
 20
-18.39737775787136
 30
0.0
  0
SPLINE
  5
E2
330
1F
100
AcDbEntity
  8
0
  6
Continuous
 62
     7
370
    25
100
AcDbSpline
210
0.0
220
0.0
230
1.0
 70
     8
 71
     3
 72
    23
 73
    19
 74
     0
 42
0.00000001
 43
0.00000001
 40
0.0
 40
0.0
 40
0.0
 40
0.0
 40
0.0047751181773205
 40
0.0718634296143178
 40
0.1449822989739429
 40
0.2182764854518515
 40
0.2933531819229948
 40
0.3629749657373276
 40
0.4326401181555736
 40
0.5029143319852102
 40
0.5651246793845779
 40
0.6273802728269231
 40
0.6898258953199898
 40
0.7522667374320245
 40
0.8141552557961084
 40
0.8757779289460492
 40
0.9375794866939725
 40
1.0
 40
1.0
 40
1.0
 40
1.0
 10
0.0715771749650139
 20
-17.72344032245246
 30
0.0
 10
0.0693839605727645
 20
-17.72732576009345
 30
0.0
 10
0.0363770480202953
 20
-17.78579988870458
 30
0.0
 10
-0.0310297970984533
 20
-17.90330855297931
 30
0.0
 10
-0.131720953646816
 20
-18.07552150960683
 30
0.0
 10
-0.2370204621412799
 20
-18.25368262093517
 30
0.0
 10
-0.3407893243219152
 20
-18.42895261795327
 30
0.0
 10
-0.4419677027498035
 20
-18.60181426940794
 30
0.0
 10
-0.5396314759736106
 20
-18.7715283662226
 30
0.0
 10
-0.6315895614045159
 20
-18.93652795645347
 30
0.0
 10
-0.7160176925149905
 20
-19.09774434228684
 30
0.0
 10
-0.7913938464339545
 20
-19.25534069088804
 30
0.0
 10
-0.8591026004675002
 20
-19.41665693489722
 30
0.0
 10
-0.9167694090297812
 20
-19.58149305037433
 30
0.0
 10
-0.9627118285359042
 20
-19.7492493009018
 30
0.0
 10
-0.994039080063303
 20
-19.91973109846924
 30
0.0
 10
-1.010973979978256
 20
-20.09286863770687
 30
0.0
 10
-1.010194374221062
 20
-20.2089978988394
 30
0.0
 10
-1.009802629089722
 20
-20.2673518453502
 30
0.0
  0
SPLINE
  5
E7
330
1F
100
AcDbEntity
  8
0
  6
Continuous
 62
     7
370
    25
100
AcDbSpline
210
0.0
220
0.0
230
1.0
 70
     8
 71
     3
 72
    15
 73
    11
 74
     0
 42
0.00000001
 43
0.00000001
 40
0.0
 40
0.0
 40
0.0
 40
0.0
 40
0.1096912003339396
 40
0.2159787297929239
 40
0.3211065803269202
 40
0.4269629195539226
 40
0.5350540442460234
 40
0.681865565936153
 40
0.8363785149918657
 40
1.0
 40
1.0
 40
1.0
 40
1.0
 10
1.125761604853208
 20
-14.95120801143442
 30
0.0
 10
1.125196343984842
 20
-15.05175084934601
 30
0.0
 10
1.124083362050287
 20
-15.24971672405442
 30
0.0
 10
1.081892060475863
 20
-15.54155967053721
 30
0.0
 10
1.01339972365409
 20
-15.82421642961372
 30
0.0
 10
0.9191084371658816
 20
-16.10113055098006
 30
0.0
 10
0.7904059260599068
 20
-16.40558422442166
 30
0.0
 10
0.6227328607015337
 20
-16.7411416342449
 30
0.0
 10
0.4163340438742859
 20
-17.11354546223247
 30
0.0
 10
0.2714124372258911
 20
-17.36624653353244
 30
0.0
 10
0.196877002043115
 20
-17.49621462287465
 30
0.0
  0
SPLINE
  5
E9
330
1F
100
AcDbEntity
  8
0
  6
Continuous
 62
     7
370
    25
100
AcDbSpline
210
0.0
220
0.0
230
1.0
 70
     8
 71
     3
 72
    15
 73
    11
 74
     0
 42
0.00000001
 43
0.00000001
 40
0.0
 40
0.0
 40
0.0
 40
0.0
 40
0.1381526731458215
 40
0.2760367255697919
 40
0.4138977492533787
 40
0.5522212540727379
 40
0.6617201444362977
 40
0.7724438191068009
 40
0.8849766019188654
 40
1.0
 40
1.0
 40
1.0
 40
1.0
 10
2.038350192877048
 20
-14.95120801143442
 30
0.0
 10
2.037852560566559
 20
-15.07408720188737
 30
0.0
 10
2.036858263529827
 20
-15.3196066594624
 30
0.0
 10
2.006770432901738
 20
-15.68679395353636
 30
0.0
 10
1.952019963139331
 20
-16.05118617164426
 30
0.0
 10
1.873828235785182
 20
-16.38553367038914
 30
0.0
 10
1.777529537109621
 20
-16.68974311592495
 30
0.0
 10
1.667641604416783
 20
-16.96468768916825
 30
0.0
 10
1.536577556187564
 20
-17.23592469324121
 30
0.0
 10
1.431043822240051
 20
-17.40868556871963
 30
0.0
 10
1.377699418923093
 20
-17.49601144523505
 30
0.0
  0
SPLINE
  5
EA
330
1F
100
AcDbEntity
  8
0
  6
Continuous
 62
     7
370
    25
100
AcDbSpline
210
0.0
220
0.0
230
1.0
 70
     8
 71
     3
 72
    15
 73
    11
 74
     0
 42
0.00000001
 43
0.00000001
 40
0.0
 40
0.0
 40
0.0
 40
0.0
 40
0.1195298754003746
 40
0.2321692689272351
 40
0.3543775170134813
 40
0.4746346883967806
 40
0.5840755749779243
 40
0.6827009210394422
 40
0.8472524224926072
 40
1.0
 40
1.0
 40
1.0
 40
1.0
 10
0.8624810881691354
 20
-18.23150152318196
 30
0.0
 10
0.8831757522504122
 20
-18.20231356194339
 30
0.0
 10
0.9233721049559699
 20
-18.14562022398469
 30
0.0
 10
0.9847966739182162
 20
-18.0591344563758
 30
0.0
 10
1.046378716863077
 20
-17.97249347323106
 30
0.0
 10
1.107220350017164
 20
-17.88650112107206
 30
0.0
 10
1.163806267457128
 20
-17.80614546023086
 30
0.0
 10
1.227754133620532
 20
-17.71475824993445
 30
0.0
 10
1.298693198665878
 20
-17.61244019245348
 30
0.0
 10
1.352025353197393
 20
-17.53384643213501
 30
0.0
 10
1.377699418923097
 20
-17.49601144523506
 30
0.0
  0
SPLINE
  5
EB
330
1F
100
AcDbEntity
  8
0
  6
Continuous
 62
     7
370
    25
100
AcDbSpline
210
0.0
220
0.0
230
1.0
 70
    24
 71
     3
 72
     9
 73
     5
 74
     0
 42
0.00000001
 43
0.00000001
 40
0.0
 40
0.0
 40
0.0
 40
0.0
 40
0.5598226446348762
 40
1.0
 40
1.0
 40
1.0
 40
1.0
 10
0.950347604313421
 20
-18.31936803932624
 30
0.0
 10
0.9492696619069266
 20
-18.31829009691974
 30
0.0
 10
0.9473441549328432
 20
-18.31636458994566
 30
0.0
 10
0.943685627012458
 20
-18.31270606202527
 30
0.0
 10
0.9420752258679332
 20
-18.31109566088075
 30
0.0
  0
SPLINE
  5
ED
330
1F
100
AcDbEntity
  8
0
  6
Continuous
 62
     7
370
    25
100
AcDbSpline
210
0.0
220
0.0
230
1.0
 70
    24
 71
     3
 72
     9
 73
     5
 74
     0
 42
0.00000001
 43
0.00000001
 40
0.0
 40
0.0
 40
0.0
 40
0.0
 40
0.5598226446349018
 40
1.0
 40
1.0
 40
1.0
 40
1.0
 10
0.8089262480761155
 20
-18.46078939556354
 30
0.0
 10
0.8078483056696237
 20
-18.45971145315705
 30
0.0
 10
0.8059227986955447
 20
-18.45778594618297
 30
0.0
 10
0.8022642707751544
 20
-18.45412741826258
 30
0.0
 10
0.8006538696306278
 20
-18.45251701711806
 30
0.0
  0
SPLINE
  5
F1
330
1F
100
AcDbEntity
  8
0
  6
Continuous
 62
     7
370
    25
100
AcDbSpline
210
0.0
220
0.0
230
1.0
 70
     8
 71
     3
 72
    22
 73
    18
 74
     0
 42
0.00000001
 43
0.00000001
 40
0.0
 40
0.0
 40
0.0
 40
0.0
 40
0.0925029479757951
 40
0.175463747518093
 40
0.2616291096296445
 40
0.3487739394939947
 40
0.4573871013785394
 40
0.5653221969847658
 40
0.6726058130975121
 40
0.7641090736837776
 40
0.8563821300242441
 40
0.8797345871619984
 40
0.9032040075632284
 40
0.9200480691831119
 40
0.9338654034935763
 40
0.9605160470134493
 40
1.0
 40
1.0
 40
1.0
 40
1.0
 10
-0.5569515415457184
 20
-18.26504093245569
 30
0.0
 10
-0.5961314874927812
 20
-18.32100995364381
 30
0.0
 10
-0.6704497691677268
 20
-18.42717450750384
 30
0.0
 10
-0.779865629488373
 20
-18.58644617540493
 30
0.0
 10
-0.8850546480971213
 20
-18.74380825762056
 30
0.0
 10
-0.9970095339328392
 20
-18.91939671134476
 30
0.0
 10
-1.110176376911474
 20
-19.11316460555897
 30
0.0
 10
-1.218885672754412
 20
-19.32638050971621
 30
0.0
 10
-1.306139018876316
 20
-19.53579728465472
 30
0.0
 10
-1.371038639776986
 20
-19.74088010992359
 30
0.0
 10
-1.407734122571141
 20
-19.88965344207513
 30
0.0
 10
-1.424461005557319
 20
-19.99103988126482
 30
0.0
 10
-1.430266521767106
 20
-20.03771048558755
 30
0.0
 10
-1.434465571985439
 20
-20.07746845287251
 30
0.0
 10
-1.43872427585879
 20
-20.11958254869244
 30
0.0
 10
-1.444713716420694
 20
-20.17832780398402
 30
0.0
 10
-1.449650631864438
 20
-20.22692249644841
 30
0.0
 10
-1.452598089739385
 20
-20.25593470267657
 30
0.0
  0
SPLINE
  5
F5
330
1F
100
AcDbEntity
  8
0
  6
Continuous
 62
     7
370
    25
100
AcDbSpline
210
0.0
220
0.0
230
1.0
 70
     8
 71
     3
 72
    17
 73
    13
 74
     0
 42
0.00000001
 43
0.00000001
 40
0.0
 40
0.0
 40
0.0
 40
0.0
 40
0.0852819098984431
 40
0.1699467652466641
 40
0.2546051987276743
 40
0.3398734127373872
 40
0.4504654080669447
 40
0.5605020471172621
 40
0.6711559789732132
 40
0.7813324763642286
 40
0.8900114061688554
 40
1.0
 40
1.0
 40
1.0
 40
1.0
 10
-2.288625372238401
 20
-20.25593470267657
 30
0.0
 10
-2.290403023687977
 20
-20.19767440532731
 30
0.0
 10
-2.29394546444653
 20
-20.08157535115972
 30
0.0
 10
-2.28082644504191
 20
-19.90784494408056
 30
0.0
 10
-2.253717391191117
 20
-19.73587819559943
 30
0.0
 10
-2.207140597178106
 20
-19.54978399871408
 30
0.0
 10
-2.139990174087306
 20
-19.35165882592644
 30
0.0
 10
-2.051480858835399
 20
-19.14322809396528
 30
0.0
 10
-1.951938171236641
 20
-18.94024499061509
 30
0.0
 10
-1.846043651315264
 20
-18.74161321242457
 30
0.0
 10
-1.737612287420113
 20
-18.54488978324056
 30
0.0
 10
-1.664282681812931
 20
-18.41476263029867
 30
0.0
 10
-1.62739828273609
 20
-18.34930936895763
 30
0.0
  0
SPLINE
  5
F6
330
1F
100
AcDbEntity
  8
0
  6
Continuous
 62
     7
370
    25
100
AcDbSpline
210
0.0
220
0.0
230
1.0
 70
     8
 71
     3
 72
     9
 73
     5
 74
     0
 42
0.00000001
 43
0.00000001
 40
0.0
 40
0.0
 40
0.0
 40
0.0
 40
0.5501592219350558
 40
1.0
 40
1.0
 40
1.0
 40
1.0
 10
-1.187739142016329
 20
-17.63425333198302
 30
0.0
 10
-1.268938454109261
 20
-17.76503354938172
 30
0.0
 10
-1.416530839832312
 20
-18.00274694613022
 30
0.0
 10
-1.561972633230624
 20
-18.24178176158765
 30
0.0
 10
-1.627398282736082
 20
-18.34930936895764
 30
0.0
  0
SPLINE
  5
FA
330
1F
100
AcDbEntity
  8
0
  6
Continuous
 62
     7
370
    25
100
AcDbSpline
210
0.0
220
0.0
230
1.0
 70
     8
 71
     3
 72
    15
 73
    11
 74
     0
 42
0.00000001
 43
0.00000001
 40
0.0
 40
0.0
 40
0.0
 40
0.0
 40
0.1134051231147111
 40
0.223219851450745
 40
0.3312321818904687
 40
0.4389801824889634
 40
0.547720428331933
 40
0.6932051640801032
 40
0.8436230293508253
 40
1.0
 40
1.0
 40
1.0
 40
1.0
 10
-0.2298039131331998
 20
-14.94339975884971
 30
0.0
 10
-0.2281723875093505
 20
-15.04546159507868
 30
0.0
 10
-0.224960990198619
 20
-15.24635400007854
 30
0.0
 10
-0.2580963549208007
 20
-15.54313131873131
 30
0.0
 10
-0.316488455579532
 20
-15.83036103571982
 30
0.0
 10
-0.4000453439836221
 20
-16.11035166494402
 30
0.0
 10
-0.5165561647914008
 20
-16.41458106634366
 30
0.0
 10
-0.6715297043925155
 20
-16.74419298906165
 30
0.0
 10
-0.8659428974952529
 20
-17.10165095860922
 30
0.0
 10
-1.007958633241368
 20
-17.33822130646519
 30
0.0
 10
-1.08034573999922
 20
-17.45880402172575
 30
0.0
  0
SPLINE
  5
FC
330
1F
100
AcDbEntity
  8
0
  6
Continuous
 62
     7
370
    25
100
AcDbSpline
210
0.0
220
0.0
230
1.0
 70
     8
 71
     3
 72
    16
 73
    12
 74
     0
 42
0.00000001
 43
0.00000001
 40
0.0
 40
0.0
 40
0.0
 40
0.0
 40
0.1061962336943631
 40
0.2150477171803764
 40
0.3253569680077774
 40
0.4369374572545288
 40
0.5496165324905795
 40
0.6611920254307123
 40
0.7735227469210151
 40
0.8864882859355756
 40
0.9999999999999999
 40
0.9999999999999999
 40
0.9999999999999999
 40
0.9999999999999999
 10
0.4994668368667921
 20
-14.94339975884971
 30
0.0
 10
0.4986142633043466
 20
-15.06157002320255
 30
0.0
 10
0.4968877990790717
 20
-15.30086519124793
 30
0.0
 10
0.4601666259354281
 20
-15.66134332780303
 30
0.0
 10
0.4015805681285906
 20
-16.0246850195477
 30
0.0
 10
0.3180885862566261
 20
-16.38761969265343
 30
0.0
 10
0.2114267486388599
 20
-16.74584307822169
 30
0.0
 10
0.0821676649347343
 20
-17.09747539506877
 30
0.0
 10
-0.0694675671887814
 20
-17.44031295741631
 30
0.0
 10
-0.2421739048058474
 20
-17.77569952225774
 30
0.0
 10
-0.3757187989781703
 20
-17.98939304964381
 30
0.0
 10
-0.4426522752366704
 20
-18.0964974861746
 30
0.0
  0
SPLINE
  5
FD
330
1F
100
AcDbEntity
  8
0
  6
Continuous
 62
     7
370
    25
100
AcDbSpline
210
0.0
220
0.0
230
1.0
 70
    24
 71
     3
 72
     9
 73
     5
 74
     0
 42
0.00000001
 43
0.00000001
 40
0.0
 40
0.0
 40
0.0
 40
0.0
 40
0.5603194205070325
 40
1.0
 40
1.0
 40
1.0
 40
1.0
 10
-0.3308524182802705
 20
-18.20829734324446
 30
0.0
 10
-0.3390719065168075
 20
-18.20007785500793
 30
0.0
 10
-0.3537411968103673
 20
-18.18540856471436
 30
0.0
 10
-0.3708255745344372
 20
-18.16832418699029
 30
0.0
 10
-0.3783372436324329
 20
-18.1608125178923
 30
0.0
  0
SPLINE
  5
FF
330
1F
100
AcDbEntity
  8
0
  6
Continuous
 62
     7
370
    25
100
AcDbSpline
210
0.0
220
0.0
230
1.0
 70
    24
 71
     3
 72
     9
 73
     5
 74
     0
 42
0.00000001
 43
0.00000001
 40
0.0
 40
0.0
 40
0.0
 40
0.0
 40
0.560319420507052
 40
1.0
 40
1.0
 40
1.0
 40
1.0
 10
-0.4722737745175803
 20
-18.34971869948177
 30
0.0
 10
-0.4804932627541152
 20
-18.34149921124523
 30
0.0
 10
-0.4951625530476709
 20
-18.32682992095167
 30
0.0
 10
-0.5122469307717423
 20
-18.3097455432276
 30
0.0
 10
-0.5197585998697384
 20
-18.30223387412961
 30
0.0
  0
SPLINE
  5
103
330
1F
100
AcDbEntity
  8
0
  6
Continuous
 62
     7
370
    25
100
AcDbSpline
210
0.0
220
0.0
230
1.0
 70
     8
 71
     3
 72
     9
 73
     5
 74
     0
 42
0.00000001
 43
0.00000001
 40
0.0
 40
0.0
 40
0.0
 40
0.0
 40
0.5543881723617037
 40
1.0
 40
1.0
 40
1.0
 40
1.0
 10
-1.934802594216032
 20
-18.12213534220938
 30
0.0
 10
-2.007775875360571
 20
-18.24321937552238
 30
0.0
 10
-2.139404371029356
 20
-18.4616295786066
 30
0.0
 10
-2.275140022504885
 20
-18.67750932937182
 30
0.0
 10
-2.335625434234571
 20
-18.7737078996604
 30
0.0
  0
SPLINE
  5
104
330
1F
100
AcDbEntity
  8
0
  6
Continuous
 62
     7
370
    25
100
AcDbSpline
210
0.0
220
0.0
230
1.0
 70
     8
 71
     3
 72
    20
 73
    16
 74
     0
 42
0.00000001
 43
0.00000001
 40
0.0
 40
0.0
 40
0.0
 40
0.0
 40
0.0496754085943013
 40
0.096990000571265
 40
0.247285103341889
 40
0.3970726082782189
 40
0.5465907135059247
 40
0.6737065036953971
 40
0.8012621816331206
 40
0.856771776648878
 40
0.911811913222253
 40
0.9329708869731798
 40
0.9477421997905553
 40
0.9667922549397764
 40
0.9999999999999999
 40
0.9999999999999999
 40
0.9999999999999999
 40
0.9999999999999999
 10
-2.33562487490873
 20
-18.77370825614083
 30
0.0
 10
-2.349366305912799
 20
-18.79540463992909
 30
0.0
 10
-2.376196108397554
 20
-18.83776629000032
 30
0.0
 10
-2.443121874838821
 20
-18.94669375945666
 30
0.0
 10
-2.533268752650215
 20
-19.10210954636115
 30
0.0
 10
-2.639207967792674
 20
-19.30913896663058
 30
0.0
 10
-2.726398460427503
 20
-19.51188643237542
 30
0.0
 10
-2.793124747960956
 20
-19.71008536228516
 30
0.0
 10
-2.834317730106142
 20
-19.86520266426028
 30
0.0
 10
-2.859300433451314
 20
-19.98577635079792
 30
0.0
 10
-2.869496085715786
 20
-20.05313643785746
 30
0.0
 10
-2.875073737381278
 20
-20.09983497623676
 30
0.0
 10
-2.878268108522358
 20
-20.12807917150675
 30
0.0
 10
-2.882092099597442
 20
-20.16252070143294
 30
0.0
 10
-2.885082924306085
 20
-20.18937126451075
 30
0.0
 10
-2.886983473966545
 20
-20.20643372503985
 30
0.0
  0
SPLINE
  5
108
330
1F
100
AcDbEntity
  8
0
  6
Continuous
 62
     7
370
    25
100
AcDbSpline
210
0.0
220
0.0
230
1.0
 70
     8
 71
     3
 72
    15
 73
    11
 74
     0
 42
0.00000001
 43
0.00000001
 40
0.0
 40
0.0
 40
0.0
 40
0.0
 40
0.1473891260704108
 40
0.292068810926063
 40
0.4389063184073482
 40
0.5533353762393997
 40
0.6672767093597414
 40
0.7808125101816576
 40
0.8928568106393863
 40
1.0
 40
1.0
 40
1.0
 40
1.0
 10
-3.425129983572389
 20
-20.20643372504742
 30
0.0
 10
-3.424804905081252
 20
-20.1318223235191
 30
0.0
 10
-3.424160723988008
 20
-19.98397109523042
 30
0.0
 10
-3.391536977922197
 20
-19.76367543564763
 30
0.0
 10
-3.339525235792376
 20
-19.56479110585074
 30
0.0
 10
-3.277035170537943
 20
-19.38550119196805
 30
0.0
 10
-3.21099533141882
 20
-19.22563094995962
 30
0.0
 10
-3.138567327265015
 20
-19.06991750137245
 30
0.0
 10
-3.062997435786439
 20
-18.91956331025725
 30
0.0
 10
-3.011143033754325
 20
-18.82159552332141
 30
0.0
 10
-2.985795574276994
 20
-18.77370692732715
 30
0.0
  0
SPLINE
  5
109
330
1F
100
AcDbEntity
  8
0
  6
Continuous
 62
     7
370
    25
100
AcDbSpline
210
0.0
220
0.0
230
1.0
 70
     8
 71
     3
 72
    10
 73
     6
 74
     0
 42
0.00000001
 43
0.00000001
 40
0.0
 40
0.0
 40
0.0
 40
0.0
 40
0.2701242010291391
 40
0.5477407187696753
 40
1.0
 40
1.0
 40
1.0
 40
1.0
 10
-2.340186185515327
 20
-17.71675175093694
 30
0.0
 10
-2.398269432982324
 20
-17.81195206371888
 30
0.0
 10
-2.516046957524146
 20
-18.00499321868245
 30
0.0
 10
-2.734021551354602
 20
-18.35561397766583
 30
0.0
 10
-2.889471158817135
 20
-18.61375421939586
 30
0.0
 10
-2.985793749369761
 20
-18.77370789966045
 30
0.0
  0
SPLINE
  5
10D
330
1F
100
AcDbEntity
  8
0
  6
Continuous
 62
     7
370
    25
100
AcDbSpline
210
0.0
220
0.0
230
1.0
 70
     8
 71
     3
 72
    15
 73
    11
 74
     0
 42
0.00000001
 43
0.00000001
 40
0.0
 40
0.0
 40
0.0
 40
0.0
 40
0.1147443170662943
 40
0.2260013673273861
 40
0.3352887534403058
 40
0.4439278188730393
 40
0.5530184674557257
 40
0.6979805130457493
 40
0.8466524511605915
 40
1.0
 40
1.0
 40
1.0
 40
1.0
 10
-1.412694427193099
 20
-14.98233839119498
 30
0.0
 10
-1.411706740017904
 20
-15.08667400686723
 30
0.0
 10
-1.409761383090494
 20
-15.29217430880593
 30
0.0
 10
-1.442418939252443
 20
-15.59572724622232
 30
0.0
 10
-1.498819707204113
 20
-15.88976041460086
 30
0.0
 10
-1.579040481377069
 20
-16.17621887394918
 30
0.0
 10
-1.690646551545881
 20
-16.48656592458475
 30
0.0
 10
-1.839205422180169
 20
-16.82135111843245
 30
0.0
 10
-2.026074732145346
 20
-17.18219920376125
 30
0.0
 10
-2.164146407725673
 20
-17.4194051430969
 30
0.0
 10
-2.23425100007471
 20
-17.5398442238135
 30
0.0
  0
SPLINE
  5
10F
330
1F
100
AcDbEntity
  8
0
  6
Continuous
 62
     7
370
    25
100
AcDbSpline
210
0.0
220
0.0
230
1.0
 70
     8
 71
     3
 72
    15
 73
    11
 74
     0
 42
0.00000001
 43
0.00000001
 40
0.0
 40
0.0
 40
0.0
 40
0.0
 40
0.1125465095915461
 40
0.2227925430071259
 40
0.3319221184564894
 40
0.4409567113837378
 40
0.5507421891863465
 40
0.6967313200651362
 40
0.8462478490398933
 40
1.0
 40
1.0
 40
1.0
 40
1.0
 10
-0.9126944271930928
 20
-14.98233839119498
 30
0.0
 10
-0.9121158990383615
 20
-15.10030306965428
 30
0.0
 10
-0.9109706679755621
 20
-15.33382120179668
 30
0.0
 10
-0.9476080354522541
 20
-15.68021603048164
 30
0.0
 10
-1.009929365338119
 20
-16.0188005904334
 30
0.0
 10
-1.098373718009008
 20
-16.35108558352939
 30
0.0
 10
-1.221630767070303
 20
-16.71305608107133
 30
0.0
 10
-1.386372841489217
 20
-17.10470325493192
 30
0.0
 10
-1.594789595013465
 20
-17.52693409560769
 30
0.0
 10
-1.751074037290876
 20
-17.80354863793384
 30
0.0
 10
-1.830307636905955
 20
-17.94378758670568
 30
0.0
  0
SPLINE
  5
111
330
1F
100
AcDbEntity
  8
0
  6
Continuous
 62
     7
370
    25
100
AcDbSpline
210
0.0
220
0.0
230
1.0
 70
    24
 71
     3
 72
     9
 73
     5
 74
     0
 42
0.00000001
 43
0.00000001
 40
0.0
 40
0.0
 40
0.0
 40
0.0
 40
0.5599137314596775
 40
1.0
 40
1.0
 40
1.0
 40
1.0
 10
-1.757779229135543
 20
-18.29915870731673
 30
0.0
 10
-1.769994031841642
 20
-18.28694390461062
 30
0.0
 10
-1.791809540231222
 20
-18.26512839622103
 30
0.0
 10
-1.817794024865325
 20
-18.23914391158695
 30
0.0
 10
-1.82922943974789
 20
-18.22770849670439
 30
0.0
  0
SPLINE
  5
112
330
1F
100
AcDbEntity
  8
0
  6
Continuous
 62
     7
370
    25
100
AcDbSpline
210
0.0
220
0.0
230
1.0
 70
    24
 71
     3
 72
     9
 73
     5
 74
     0
 42
0.00000001
 43
0.00000001
 40
0.0
 40
0.0
 40
0.0
 40
0.0
 40
0.5599137314596969
 40
0.9999999999999999
 40
0.9999999999999999
 40
0.9999999999999999
 40
0.9999999999999999
 10
-1.616357872898242
 20
-18.15773735107942
 30
0.0
 10
-1.628572675604339
 20
-18.14552254837331
 30
0.0
 10
-1.650388183993914
 20
-18.12370703998372
 30
0.0
 10
-1.676372668628016
 20
-18.09772255534964
 30
0.0
 10
-1.687808083510581
 20
-18.08628714046708
 30
0.0
  0
LINE
  5
113
330
1F
100
AcDbEntity
  8
0
  6
Continuous
 62
     7
370
    25
100
AcDbLine
 10
-3.9366610747
 20
-9.2654156713
 30
0.0
 11
-3.2815085247
 21
-9.2654156713
 31
0.0
  0
LINE
  5
114
330
1F
100
AcDbEntity
  8
0
  6
Continuous
 62
     7
370
    25
100
AcDbLine
 10
-2.1362246879
 20
-11.9190958446
 30
0.0
 11
-2.2033439971
 21
-11.9862151537
 31
0.0
  0
LINE
  5
115
330
1F
100
AcDbEntity
  8
0
  6
Continuous
 62
     7
370
    25
100
AcDbLine
 10
-2.1362246879
 20
-11.9190958446
 30
0.0
 11
-1.9948033317
 21
-12.0605172008
 31
0.0
  0
LINE
  5
116
330
1F
100
AcDbEntity
  8
0
  6
Continuous
 62
     7
370
    25
100
AcDbLine
 10
-1.9948033317
 20
-12.0605172008
 30
0.0
 11
-2.0975597746
 21
-12.1632736437
 31
0.0
  0
LINE
  5
117
330
1F
100
AcDbEntity
  8
0
  6
Continuous
 62
     7
370
    25
100
AcDbLine
 10
-1.0112030448
 20
-14.7329681951
 30
0.0
 11
-1.0072095495
 21
-14.5774062951
 31
0.0
  0
LINE
  5
118
330
1F
100
AcDbEntity
  8
0
  6
Continuous
 62
     7
370
    25
100
AcDbLine
 10
-1.0112030448
 20
-14.7329681951
 30
0.0
 11
-1.6663555942
 21
-14.7329681951
 31
0.0
  0
LINE
  5
119
330
1F
100
AcDbEntity
  8
0
  6
Continuous
 62
     7
370
    25
100
AcDbLine
 10
-1.6663555942
 20
-14.7329681951
 30
0.0
 11
-1.6675831973
 21
-14.5774062951
 31
0.0
  0
LINE
  5
11A
330
1F
100
AcDbEntity
  8
0
  6
Continuous
 62
     7
370
    25
100
AcDbLine
 10
-2.5771565059
 20
-12.642870375
 30
0.0
 11
-2.6529488694
 21
-12.7186627385
 31
0.0
  0
LINE
  5
11B
330
1F
100
AcDbEntity
  8
0
  6
Continuous
 62
     7
370
    25
100
AcDbLine
 10
-2.7943702256
 20
-12.5772413822
 30
0.0
 11
-2.6529488694
 21
-12.7186627385
 31
0.0
  0
LINE
  5
11C
330
1F
100
AcDbEntity
  8
0
  6
Continuous
 62
     7
370
    25
100
AcDbLine
 10
-2.6953430057
 20
-12.4782141623
 30
0.0
 11
-2.7943702256
 21
-12.5772413822
 31
0.0
  0
LINE
  5
11D
330
1F
100
AcDbEntity
  8
0
  6
Continuous
 62
     7
370
    25
100
AcDbLine
 10
-1.3963159743
 20
-9.21489089
 30
0.0
 11
-0.7411634243
 21
-9.21489089
 31
0.0
  0
LINE
  5
11E
330
1F
100
AcDbEntity
  8
0
  6
Continuous
 62
     7
370
    25
100
AcDbLine
 10
0.4463237933
 20
-11.8409526562
 30
0.0
 11
0.3424059914
 21
-11.9448704581
 31
0.0
  0
LINE
  5
11F
330
1F
100
AcDbEntity
  8
0
  6
Continuous
 62
     7
370
    25
100
AcDbLine
 10
0.4463237933
 20
-11.8409526562
 30
0.0
 11
0.5877451495
 21
-11.9823740124
 31
0.0
  0
LINE
  5
120
330
1F
100
AcDbEntity
  8
0
  6
Continuous
 62
     7
370
    25
100
AcDbLine
 10
0.5877451495
 20
-11.9823740124
 30
0.0
 11
0.4482886441
 21
-12.1218305178
 31
0.0
  0
LINE
  5
121
330
1F
100
AcDbEntity
  8
0
  6
Continuous
 62
     7
370
    25
100
AcDbLine
 10
1.5291420556
 20
-14.6824434139
 30
0.0
 11
1.5331355509
 21
-14.5268815139
 31
0.0
  0
LINE
  5
122
330
1F
100
AcDbEntity
  8
0
  6
Continuous
 62
     7
370
    25
100
AcDbLine
 10
1.5291420556
 20
-14.6824434139
 30
0.0
 11
0.8739895062
 21
-14.6824434139
 31
0.0
  0
LINE
  5
123
330
1F
100
AcDbEntity
  8
0
  6
Continuous
 62
     7
370
    25
100
AcDbLine
 10
0.8739895062
 20
-14.6824434139
 30
0.0
 11
0.8727619031
 21
-14.5268815138
 31
0.0
  0
LINE
  5
124
330
1F
100
AcDbEntity
  8
0
  6
Continuous
 62
     7
370
    25
100
AcDbLine
 10
-0.0307312998
 20
-12.6008504618
 30
0.0
 11
-0.1297532498
 21
-12.6998724117
 31
0.0
  0
LINE
  5
125
330
1F
100
AcDbEntity
  8
0
  6
Continuous
 62
     7
370
    25
100
AcDbLine
 10
-0.271174606
 20
-12.5584510555
 30
0.0
 11
-0.1297532498
 21
-12.6998724117
 31
0.0
  0
LINE
  5
126
330
1F
100
AcDbEntity
  8
0
  6
Continuous
 62
     7
370
    25
100
AcDbLine
 10
-0.1488908934
 20
-12.4361673429
 30
0.0
 11
-0.271174606
 21
-12.5584510555
 31
0.0
  0
LINE
  5
127
330
1F
100
AcDbEntity
  8
0
  6
Continuous
 62
     7
370
    25
100
AcDbLine
 10
2.353288539
 20
-9.1522351117
 30
0.0
 11
1.4406999509
 21
-9.1522351117
 31
0.0
  0
LINE
  5
128
330
1F
100
AcDbEntity
  8
0
  6
Continuous
 62
     7
370
    25
100
AcDbLine
 10
3.2821769631
 20
-11.6972396692
 30
0.0
 11
3.3066249755
 21
-11.7424727036
 31
0.0
  0
LINE
  5
129
330
1F
100
AcDbEntity
  8
0
  6
Continuous
 62
     7
370
    25
100
AcDbLine
 10
3.3731567762
 20
-11.6759409029
 30
0.0
 11
3.3066249755
 21
-11.7424727036
 31
0.0
  0
LINE
  5
12A
330
1F
100
AcDbEntity
  8
0
  6
Continuous
 62
     7
370
    25
100
AcDbLine
 10
3.3731567762
 20
-11.6759409029
 30
0.0
 11
3.5145781324
 21
-11.8173622591
 31
0.0
  0
LINE
  5
12B
330
1F
100
AcDbEntity
  8
0
  6
Continuous
 62
     7
370
    25
100
AcDbLine
 10
3.5145781324
 20
-11.8173622591
 30
0.0
 11
3.4074729688
 21
-11.9244674227
 31
0.0
  0
LINE
  5
12C
330
1F
100
AcDbEntity
  8
0
  6
Continuous
 62
     7
370
    25
100
AcDbLine
 10
4.4888527729
 20
-14.4683789456
 30
0.0
 11
4.4766005898
 21
-14.6197876355
 31
0.0
  0
LINE
  5
12D
330
1F
100
AcDbEntity
  8
0
  6
Continuous
 62
     7
370
    25
100
AcDbLine
 10
4.4766005898
 20
-14.6197876355
 30
0.0
 11
3.5643011389
 21
-14.6197876355
 31
0.0
  0
LINE
  5
12E
330
1F
100
AcDbEntity
  8
0
  6
Continuous
 62
     7
370
    25
100
AcDbLine
 10
3.5643011389
 20
-14.6197876355
 30
0.0
 11
3.5709361009
 21
-14.4683789455
 31
0.0
  0
LINE
  5
12F
330
1F
100
AcDbEntity
  8
0
  6
Continuous
 62
     7
370
    25
100
AcDbLine
 10
2.7335355334
 20
-12.5984048581
 30
0.0
 11
2.6783962742
 21
-12.6535441174
 31
0.0
  0
LINE
  5
130
330
1F
100
AcDbEntity
  8
0
  6
Continuous
 62
     7
370
    25
100
AcDbLine
 10
2.5369749179
 20
-12.5121227611
 30
0.0
 11
2.6783962742
 21
-12.6535441174
 31
0.0
  0
LINE
  5
131
330
1F
100
AcDbEntity
  8
0
  6
Continuous
 62
     7
370
    25
100
AcDbLine
 10
2.6165690556
 20
-12.4325286234
 30
0.0
 11
2.5369749179
 21
-12.5121227611
 31
0.0
  0
LINE
  5
132
330
1F
100
AcDbEntity
  8
0
  6
Continuous
 62
     7
370
    25
100
AcDbLine
 10
2.5287025395
 20
-12.5203951396
 30
0.0
 11
2.6701238957
 21
-12.6618164958
 31
0.0
  0
LINE
  5
133
330
1F
100
AcDbEntity
  8
0
  6
Continuous
 62
     7
370
    25
100
AcDbLine
 10
1.9103057081
 20
-14.7254104395
 30
0.0
 11
2.6395764581
 21
-14.7254104395
 31
0.0
  0
LINE
  5
134
330
1F
100
AcDbEntity
  8
0
  6
Continuous
 62
     7
370
    25
100
AcDbLine
 10
0.9524671443
 20
-12.3173029138
 30
0.0
 11
1.0597638813
 21
-12.2100061768
 31
0.0
  0
LINE
  5
135
330
1F
100
AcDbEntity
  8
0
  6
Continuous
 62
     7
370
    25
100
AcDbLine
 10
0.9524671443
 20
-12.3173029138
 30
0.0
 11
0.811045788
 21
-12.1758815575
 31
0.0
  0
LINE
  5
136
330
1F
100
AcDbEntity
  8
0
  6
Continuous
 62
     7
370
    25
100
AcDbLine
 10
0.811045788
 20
-12.1758815575
 30
0.0
 11
0.9523704792
 21
-12.0345568664
 31
0.0
  0
LINE
  5
137
330
1F
100
AcDbEntity
  8
0
  6
Continuous
 62
     7
370
    25
100
AcDbLine
 10
-0.1485157511
 20
-9.4128754957
 30
0.0
 11
-0.135540747
 21
-9.2578579157
 31
0.0
  0
LINE
  5
138
330
1F
100
AcDbEntity
  8
0
  6
Continuous
 62
     7
370
    25
100
AcDbLine
 10
-0.135540747
 20
-9.2578579157
 30
0.0
 11
0.6950841173
 21
-9.2578579157
 31
0.0
  0
LINE
  5
139
330
1F
100
AcDbEntity
  8
0
  6
Continuous
 62
     7
370
    25
100
AcDbLine
 10
0.6875115314
 20
-9.4128754957
 30
0.0
 11
0.6950841173
 21
-9.2578579157
 31
0.0
  0
LINE
  5
13A
330
1F
100
AcDbEntity
  8
0
  6
Continuous
 62
     7
370
    25
100
AcDbLine
 10
1.5831580796
 20
-11.4037692659
 30
0.0
 11
1.6203510213
 21
-11.3665763243
 31
0.0
  0
LINE
  5
13C
330
1F
100
AcDbEntity
  8
0
  6
Continuous
 62
     7
370
    25
100
AcDbLine
 10
1.6974573459
 20
-11.5723127121
 30
0.0
 11
1.7617723776
 21
-11.5079976805
 31
0.0
  0
LINE
  5
13D
330
1F
100
AcDbEntity
  8
0
  6
Continuous
 62
     7
370
    25
100
AcDbLine
 10
1.8092572029
 20
-11.4605128551
 30
0.0
 11
1.6678358467
 21
-11.3190914989
 31
0.0
  0
LINE
  5
13E
330
1F
100
AcDbEntity
  8
0
  6
Continuous
 62
     7
370
    25
100
AcDbLine
 10
-1.967306838
 20
-9.2571576609
 30
0.0
 11
-2.467306838
 21
-9.2571576609
 31
0.0
  0
LINE
  5
13F
330
1F
100
AcDbEntity
  8
0
  6
Continuous
 62
     7
370
    25
100
AcDbLine
 10
-1.1457502651
 20
-11.8146634936
 30
0.0
 11
-0.9540187432
 21
-11.6229319717
 31
0.0
  0
LINE
  5
140
330
1F
100
AcDbEntity
  8
0
  6
Continuous
 62
     7
370
    25
100
AcDbLine
 10
-0.9540187432
 20
-11.6229319717
 30
0.0
 11
-0.812597387
 21
-11.7643533279
 31
0.0
  0
LINE
  5
141
330
1F
100
AcDbEntity
  8
0
  6
Continuous
 62
     7
370
    25
100
AcDbLine
 10
-1.0398150797
 20
-11.9915710207
 30
0.0
 11
-0.812597387
 21
-11.7643533279
 31
0.0
  0
LINE
  5
142
330
1F
100
AcDbEntity
  8
0
  6
Continuous
 62
     7
370
    25
100
AcDbLine
 10
0.0451287184
 20
-14.4812529948
 30
0.0
 11
0.0224734878
 21
-14.7247101847
 31
0.0
  0
LINE
  5
143
330
1F
100
AcDbEntity
  8
0
  6
Continuous
 62
     7
370
    25
100
AcDbLine
 10
-0.4776849789
 20
-14.7247101847
 30
0.0
 11
0.0224734878
 21
-14.7247101847
 31
0.0
  0
LINE
  5
144
330
1F
100
AcDbEntity
  8
0
  6
Continuous
 62
     7
370
    25
100
AcDbLine
 10
-0.4930177912
 20
-14.4812529948
 30
0.0
 11
-0.4776849789
 21
-14.7247101847
 31
0.0
  0
LINE
  5
145
330
1F
100
AcDbEntity
  8
0
  6
Continuous
 62
     7
370
    25
100
AcDbLine
 10
-1.5507718254
 20
-12.5025277664
 30
0.0
 11
-1.445198671
 21
-12.3969546119
 31
0.0
  0
LINE
  5
147
330
1F
100
AcDbEntity
  8
0
  6
Continuous
 62
     7
370
    25
100
AcDbLine
 10
-1.6921931817
 20
-12.3611064102
 30
0.0
 11
-1.5496936281
 21
-12.2186068566
 31
0.0
  0
LINE
  5
148
330
1F
100
AcDbEntity
  8
0
  6
Continuous
 62
     7
370
    25
100
AcDbLine
 10
-1.7636433923
 20
-12.4325566208
 30
0.0
 11
-1.6222220361
 21
-12.573977977
 31
0.0
  0
LINE
  5
149
330
1F
100
AcDbEntity
  8
0
  6
Continuous
 62
     7
370
    25
100
AcDbLine
 10
3.1679629262
 20
-18.2166133406
 30
0.0
 11
3.2669901461
 21
-18.3156405605
 31
0.0
  0
LINE
  5
14A
330
1F
100
AcDbEntity
  8
0
  6
Continuous
 62
     7
370
    25
100
AcDbLine
 10
3.2669901461
 20
-18.3156405605
 30
0.0
 11
3.1255687899
 21
-18.4570619167
 31
0.0
  0
LINE
  5
14B
330
1F
100
AcDbEntity
  8
0
  6
Continuous
 62
     7
370
    25
100
AcDbLine
 10
3.0497764264
 20
-18.3812695533
 30
0.0
 11
3.1255687899
 21
-18.4570619167
 31
0.0
  0
LINE
  5
14C
330
1F
100
AcDbEntity
  8
0
  6
Continuous
 62
     7
370
    25
100
AcDbLine
 10
2.1389755147
 20
-20.4713673734
 30
0.0
 11
2.1402031178
 21
-20.3158054733
 31
0.0
  0
LINE
  5
14D
330
1F
100
AcDbEntity
  8
0
  6
Continuous
 62
     7
370
    25
100
AcDbLine
 10
1.4838229653
 20
-20.4713673734
 30
0.0
 11
2.1389755147
 21
-20.4713673734
 31
0.0
  0
LINE
  5
14E
330
1F
100
AcDbEntity
  8
0
  6
Continuous
 62
     7
370
    25
100
AcDbLine
 10
1.4838229653
 20
-20.4713673734
 30
0.0
 11
1.47982947
 21
-20.3158054734
 31
0.0
  0
LINE
  5
14F
330
1F
100
AcDbEntity
  8
0
  6
Continuous
 62
     7
370
    25
100
AcDbLine
 10
2.4674232522
 20
-17.798916379
 30
0.0
 11
2.5701796951
 21
-17.9016728219
 31
0.0
  0
LINE
  5
150
330
1F
100
AcDbEntity
  8
0
  6
Continuous
 62
     7
370
    25
100
AcDbLine
 10
2.6088446084
 20
-17.6574950228
 30
0.0
 11
2.4674232522
 21
-17.798916379
 31
0.0
  0
LINE
  5
151
330
1F
100
AcDbEntity
  8
0
  6
Continuous
 62
     7
370
    25
100
AcDbLine
 10
2.6088446084
 20
-17.6574950228
 30
0.0
 11
2.6759639176
 21
-17.724614332
 31
0.0
  0
LINE
  5
152
330
1F
100
AcDbEntity
  8
0
  6
Continuous
 62
     7
370
    25
100
AcDbLine
 10
4.4092809952
 20
-15.0038148495
 30
0.0
 11
3.7541284452
 21
-15.0038148495
 31
0.0
  0
LINE
  5
153
330
1F
100
AcDbEntity
  8
0
  6
Continuous
 62
     7
370
    25
100
AcDbLine
 10
2.0061416397
 20
-18.164079282
 30
0.0
 11
2.1284253523
 21
-18.2863629946
 31
0.0
  0
LINE
  5
154
330
1F
100
AcDbEntity
  8
0
  6
Continuous
 62
     7
370
    25
100
AcDbLine
 10
2.1284253523
 20
-18.2863629946
 30
0.0
 11
1.9870039961
 21
-18.4277843509
 31
0.0
  0
LINE
  5
155
330
1F
100
AcDbEntity
  8
0
  6
Continuous
 62
     7
370
    25
100
AcDbLine
 10
1.8879820461
 20
-18.3287624009
 30
0.0
 11
1.9870039961
 21
-18.4277843509
 31
0.0
  0
LINE
  5
156
330
1F
100
AcDbEntity
  8
0
  6
Continuous
 62
     7
370
    25
100
AcDbLine
 10
0.9832612401
 20
-20.410355353
 30
0.0
 11
0.9844888432
 21
-20.2547934529
 31
0.0
  0
LINE
  5
157
330
1F
100
AcDbEntity
  8
0
  6
Continuous
 62
     7
370
    25
100
AcDbLine
 10
0.3281086907
 20
-20.410355353
 30
0.0
 11
0.9832612401
 21
-20.410355353
 31
0.0
  0
LINE
  5
158
330
1F
100
AcDbEntity
  8
0
  6
Continuous
 62
     7
370
    25
100
AcDbLine
 10
0.3281086907
 20
-20.410355353
 30
0.0
 11
0.3241151954
 21
-20.254793453
 31
0.0
  0
LINE
  5
159
330
1F
100
AcDbEntity
  8
0
  6
Continuous
 62
     7
370
    25
100
AcDbLine
 10
1.2695055967
 20
-17.7102859515
 30
0.0
 11
1.4089621022
 21
-17.849742457
 31
0.0
  0
LINE
  5
15A
330
1F
100
AcDbEntity
  8
0
  6
Continuous
 62
     7
370
    25
100
AcDbLine
 10
1.410926953
 20
-17.5688645953
 30
0.0
 11
1.2695055967
 21
-17.7102859515
 31
0.0
  0
LINE
  5
15B
330
1F
100
AcDbEntity
  8
0
  6
Continuous
 62
     7
370
    25
100
AcDbLine
 10
1.410926953
 20
-17.5688645953
 30
0.0
 11
1.5148447549
 21
-17.6727823972
 31
0.0
  0
LINE
  5
15C
330
1F
100
AcDbEntity
  8
0
  6
Continuous
 62
     7
370
    25
100
AcDbLine
 10
3.2535667206
 20
-14.9428028291
 30
0.0
 11
2.5984141706
 21
-14.9428028291
 31
0.0
  0
LINE
  5
15D
330
1F
100
AcDbEntity
  8
0
  6
Continuous
 62
     7
370
    25
100
AcDbLine
 10
0.8624810882
 20
-18.2315015232
 30
0.0
 11
0.9420752259
 21
-18.3110956609
 31
0.0
  0
LINE
  5
15E
330
1F
100
AcDbEntity
  8
0
  6
Continuous
 62
     7
370
    25
100
AcDbLine
 10
0.9420752259
 20
-18.3110956609
 30
0.0
 11
0.8006538696
 21
-18.4525170171
 31
0.0
  0
LINE
  5
15F
330
1F
100
AcDbEntity
  8
0
  6
Continuous
 62
     7
370
    25
100
AcDbLine
 10
0.7455146104
 20
-18.3973777579
 30
0.0
 11
0.8006538696
 21
-18.4525170171
 31
0.0
  0
LINE
  5
160
330
1F
100
AcDbEntity
  8
0
  6
Continuous
 62
     7
370
    25
100
AcDbLine
 10
-0.0852509951
 20
-20.4187605353
 30
0.0
 11
-0.0918859571
 21
-20.2673518453
 31
0.0
  0
LINE
  5
161
330
1F
100
AcDbEntity
  8
0
  6
Continuous
 62
     7
370
    25
100
AcDbLine
 10
-0.997550446
 20
-20.4187605353
 30
0.0
 11
-0.0852509951
 21
-20.4187605353
 31
0.0
  0
LINE
  5
162
330
1F
100
AcDbEntity
  8
0
  6
Continuous
 62
     7
370
    25
100
AcDbLine
 10
-1.0098026291
 20
-20.2673518454
 30
0.0
 11
-0.997550446
 21
-20.4187605353
 31
0.0
  0
LINE
  5
163
330
1F
100
AcDbEntity
  8
0
  6
Continuous
 62
     7
370
    25
100
AcDbLine
 10
-0.0355279886
 20
-17.6163351589
 30
0.0
 11
0.071577175
 21
-17.7234403225
 31
0.0
  0
LINE
  5
164
330
1F
100
AcDbEntity
  8
0
  6
Continuous
 62
     7
370
    25
100
AcDbLine
 10
0.1058933676
 20
-17.4749138026
 30
0.0
 11
-0.0355279886
 21
-17.6163351589
 31
0.0
  0
LINE
  5
165
330
1F
100
AcDbEntity
  8
0
  6
Continuous
 62
     7
370
    25
100
AcDbLine
 10
0.1058933676
 20
-17.4749138026
 30
0.0
 11
0.1724251683
 21
-17.5414456034
 31
0.0
  0
LINE
  5
166
330
1F
100
AcDbEntity
  8
0
  6
Continuous
 62
     7
370
    25
100
AcDbLine
 10
0.1968731807
 20
-17.4962125689
 30
0.0
 11
0.1724251683
 21
-17.5414456034
 31
0.0
  0
LINE
  5
167
330
1F
100
AcDbEntity
  8
0
  6
Continuous
 62
     7
370
    25
100
AcDbLine
 10
1.1257616049
 20
-14.9512080114
 30
0.0
 11
2.0383501929
 21
-14.9512080114
 31
0.0
  0
LINE
  5
168
330
1F
100
AcDbEntity
  8
0
  6
Continuous
 62
     7
370
    25
100
AcDbLine
 10
0.9503476043
 20
-18.3193680393
 30
0.0
 11
0.8089262481
 21
-18.4607893956
 31
0.0
  0
LINE
  5
169
330
1F
100
AcDbEntity
  8
0
  6
Continuous
 62
     7
370
    25
100
AcDbLine
 10
-0.4426522753
 20
-18.0964974862
 30
0.0
 11
-0.3783372436
 21
-18.1608125179
 31
0.0
  0
LINE
  5
16B
330
1F
100
AcDbEntity
  8
0
  6
Continuous
 62
     7
370
    25
100
AcDbLine
 10
-0.5569515415
 20
-18.2650409325
 30
0.0
 11
-0.5197585999
 21
-18.3022338741
 31
0.0
  0
LINE
  5
16C
330
1F
100
AcDbEntity
  8
0
  6
Continuous
 62
     7
370
    25
100
AcDbLine
 10
-1.4525980897
 20
-20.2559347027
 30
0.0
 11
-1.4450255039
 21
-20.4109522827
 31
0.0
  0
LINE
  5
16D
330
1F
100
AcDbEntity
  8
0
  6
Continuous
 62
     7
370
    25
100
AcDbLine
 10
-2.2756503682
 20
-20.4109522827
 30
0.0
 11
-1.4450255039
 21
-20.4109522827
 31
0.0
  0
LINE
  5
16E
330
1F
100
AcDbEntity
  8
0
  6
Continuous
 62
     7
370
    25
100
AcDbLine
 10
-2.2886253722
 20
-20.2559347027
 30
0.0
 11
-2.2756503682
 21
-20.4109522827
 31
0.0
  0
LINE
  5
16F
330
1F
100
AcDbEntity
  8
0
  6
Continuous
 62
     7
370
    25
100
AcDbLine
 10
-1.3290638332
 20
-17.4929286408
 30
0.0
 11
-1.187739142
 21
-17.634253332
 31
0.0
  0
LINE
  5
170
330
1F
100
AcDbEntity
  8
0
  6
Continuous
 62
     7
370
    25
100
AcDbLine
 10
-1.1876424769
 20
-17.3515072846
 30
0.0
 11
-1.3290638332
 21
-17.4929286408
 31
0.0
  0
LINE
  5
171
330
1F
100
AcDbEntity
  8
0
  6
Continuous
 62
     7
370
    25
100
AcDbLine
 10
-1.1876424769
 20
-17.3515072846
 30
0.0
 11
-1.0803457399
 21
-17.4588040216
 31
0.0
  0
LINE
  5
172
330
1F
100
AcDbEntity
  8
0
  6
Continuous
 62
     7
370
    25
100
AcDbLine
 10
-0.2298039131
 20
-14.9433997588
 30
0.0
 11
0.4994668369
 21
-14.9433997588
 31
0.0
  0
LINE
  5
173
330
1F
100
AcDbEntity
  8
0
  6
Continuous
 62
     7
370
    25
100
AcDbLine
 10
-0.3308524183
 20
-18.2082973432
 30
0.0
 11
-0.4722737745
 21
-18.3497186995
 31
0.0
  0
LINE
  5
174
330
1F
100
AcDbEntity
  8
0
  6
Continuous
 62
     7
370
    25
100
AcDbLine
 10
-1.6878080835
 20
-18.0862871405
 30
0.0
 11
-1.8303076371
 21
-17.9437875869
 31
0.0
  0
LINE
  5
176
330
1F
100
AcDbEntity
  8
0
  6
Continuous
 62
     7
370
    25
100
AcDbLine
 10
-1.8292294397
 20
-18.2277084967
 30
0.0
 11
-1.9348025942
 21
-18.1221353422
 31
0.0
  0
LINE
  5
177
330
1F
100
AcDbEntity
  8
0
  6
Continuous
 62
     7
370
    25
100
AcDbLine
 10
-2.886983474
 20
-20.206433725
 30
0.0
 11
-2.9023162863
 21
-20.449890915
 31
0.0
  0
LINE
  5
178
330
1F
100
AcDbEntity
  8
0
  6
Continuous
 62
     7
370
    25
100
AcDbLine
 10
-2.9023162863
 20
-20.449890915
 30
0.0
 11
-3.402474753
 21
-20.449890915
 31
0.0
  0
LINE
  5
179
330
1F
100
AcDbEntity
  8
0
  6
Continuous
 62
     7
370
    25
100
AcDbLine
 10
-3.4251299836
 20
-20.206433725
 30
0.0
 11
-3.402474753
 21
-20.449890915
 31
0.0
  0
LINE
  5
17A
330
1F
100
AcDbEntity
  8
0
  6
Continuous
 62
     7
370
    25
100
AcDbLine
 10
-2.3401861855
 20
-17.7167517509
 30
0.0
 11
-2.5674038782
 21
-17.4895340582
 31
0.0
  0
LINE
  5
17B
330
1F
100
AcDbEntity
  8
0
  6
Continuous
 62
     7
370
    25
100
AcDbLine
 10
-2.425982522
 20
-17.348112702
 30
0.0
 11
-2.5674038782
 21
-17.4895340582
 31
0.0
  0
LINE
  5
17C
330
1F
100
AcDbEntity
  8
0
  6
Continuous
 62
     7
370
    25
100
AcDbLine
 10
-2.2342510001
 20
-17.5398442239
 30
0.0
 11
-2.425982522
 21
-17.348112702
 31
0.0
  0
LINE
  5
17D
330
1F
100
AcDbEntity
  8
0
  6
Continuous
 62
     7
370
    25
100
AcDbLine
 10
-1.4126944272
 20
-14.9823383912
 30
0.0
 11
-0.9126944272
 21
-14.9823383912
 31
0.0
  0
LINE
  5
17E
330
1F
100
AcDbEntity
  8
0
  6
Continuous
 62
     7
370
    25
100
AcDbLine
 10
-1.6163578729
 20
-18.1577373511
 30
0.0
 11
-1.7577792291
 21
-18.2991587073
 31
0.0
  0
MTEXT
  5
180
330
1F
100
AcDbEntity
  8
0
  6
Continuous
 62
     7
100
AcDbMText
 10
-3.938481731
 20
-20.5115077825
 30
0.0
 40
0.1903
 41
0.0
 71
     1
 72
     1
  1
SOLIDWORKS Educational Product.
  7
SLDTEXTSTYLE0
 73
     1
 44
1.0
  0
MTEXT
  5
181
330
1F
100
AcDbEntity
  8
0
  6
Continuous
 62
     7
100
AcDbMText
 10
-3.938481731
 20
-20.7969577825
 30
0.0
 40
0.1903
 41
0.0
 71
     1
 72
     1
  1
For Instructional Use Only.
  7
SLDTEXTSTYLE0
 73
     1
 44
1.0
  0
ENDSEC
  0
SECTION
  2
OBJECTS
  0
DICTIONARY
  5
C
330
0
100
AcDbDictionary
281
     1
  3
ACAD_GROUP
350
D
  3
ACAD_LAYOUT
350
1A
  3
ACAD_MLINESTYLE
350
17
  3
ACAD_PLOTSETTINGS
350
19
  3
ACAD_PLOTSTYLENAME
350
E
  3
ACAD_SCALELIST
350
47
  3
DWGPROPS
350
182
  0
DICTIONARY
  5
D
102
{ACAD_REACTORS
330
C
102
}
330
C
100
AcDbDictionary
281
     1
  0
DICTIONARY
  5
1A
102
{ACAD_REACTORS
330
C
102
}
330
C
100
AcDbDictionary
281
     1
  3
Layout1
350
1E
  3
Layout2
350
26
  3
Model
350
22
  0
DICTIONARY
  5
17
102
{ACAD_REACTORS
330
C
102
}
330
C
100
AcDbDictionary
281
     1
  3
Standard
350
18
  0
DICTIONARY
  5
19
102
{ACAD_REACTORS
330
C
102
}
330
C
100
AcDbDictionary
281
     1
  0
ACDBDICTIONARYWDFLT
  5
E
102
{ACAD_REACTORS
330
C
102
}
330
C
100
AcDbDictionary
281
     1
  3
Normal
350
F
100
AcDbDictionaryWithDefault
340
F
  0
DICTIONARY
  5
47
102
{ACAD_REACTORS
330
C
102
}
330
C
100
AcDbDictionary
281
     1
  3
A0
350
48
  3
A1
350
49
  3
A2
350
4A
  3
A3
350
4B
  3
A4
350
4C
  3
A5
350
4D
  3
A6
350
4E
  3
A7
350
4F
  3
A8
350
50
  3
A9
350
51
  3
B1
350
52
  3
B2
350
53
  3
B3
350
54
  3
B4
350
55
  3
B5
350
56
  3
B6
350
57
  3
B7
350
58
  0
XRECORD
  5
182
102
{ACAD_REACTORS
330
C
102
}
330
C
100
AcDbXrecord
280
     1
  1
DWGPROPS COOKIE
  2

  3

  4

  6

  7

  8
xxori
  9

300
=
301
=
302
=
303
=
304
=
305
=
306
=
307
=
308
=
309
=
 40
0.0
 41
2461130.042595718
 42
2461130.04303456
  1

 90
        0
  0
LAYOUT
  5
1E
102
{ACAD_REACTORS
330
1A
102
}
330
1A
100
AcDbPlotSettings
  1

  2
none_device
  4

  6

 40
0.0
 41
0.0
 42
0.0
 43
0.0
 44
0.0
 45
0.0
 46
0.0
 47
0.0
 48
0.0
 49
0.0
140
0.0
141
0.0
142
1.0
143
1.0
 70
   688
 72
     0
 73
     0
 74
     5
  7

 75
    16
147
1.0
148
0.0
149
0.0
100
AcDbLayout
  1
Layout1
 70
     1
 71
     1
 10
0.0
 20
0.0
 11
12.0
 21
9.0
 12
0.0
 22
0.0
 32
0.0
 14
1.0000000000E+20
 24
1.0000000000E+20
 34
1.0000000000E+20
 15
-1.0000000000E+20
 25
-1.0000000000E+20
 35
-1.0000000000E+20
146
0.0
 13
0.0
 23
0.0
 33
0.0
 16
1.0
 26
0.0
 36
0.0
 17
0.0
 27
1.0
 37
0.0
 76
     0
330
1B
  0
LAYOUT
  5
26
102
{ACAD_REACTORS
330
1A
102
}
330
1A
100
AcDbPlotSettings
  1

  2
none_device
  4

  6

 40
0.0
 41
0.0
 42
0.0
 43
0.0
 44
0.0
 45
0.0
 46
0.0
 47
0.0
 48
0.0
 49
0.0
140
0.0
141
0.0
142
1.0
143
1.0
 70
   688
 72
     0
 73
     0
 74
     5
  7

 75
    16
147
1.0
148
0.0
149
0.0
100
AcDbLayout
  1
Layout2
 70
     1
 71
     2
 10
0.0
 20
0.0
 11
0.0
 21
0.0
 12
0.0
 22
0.0
 32
0.0
 14
0.0
 24
0.0
 34
0.0
 15
0.0
 25
0.0
 35
0.0
146
0.0
 13
0.0
 23
0.0
 33
0.0
 16
1.0
 26
0.0
 36
0.0
 17
0.0
 27
1.0
 37
0.0
 76
     0
330
23
  0
LAYOUT
  5
22
102
{ACAD_REACTORS
330
1A
102
}
330
1A
100
AcDbPlotSettings
  1

  2
none_device
  4
ANSI_A_(11.00_x_8.50_Inches)
  6

 40
6.35
 41
19.05
 42
6.35000508
 43
19.05000254
 44
279.4
 45
215.9
 46
128.1536248874
 47
368.5936303786
 48
0.0
 49
0.0
140
0.0
141
0.0
142
0.7434315463
143
1.0
 70
  1696
 72
     0
 73
     0
 74
     0
  7

 75
     0
147
0.5913241897
148
-39.4088153714
149
0.0
100
AcDbLayout
  1
Model
 70
     1
 71
     0
 10
0.0
 20
0.0
 11
12.0
 21
9.0
 12
0.0
 22
0.0
 32
0.0
 14
-3.938481731
 24
-20.4713673734
 34
0.0
 15
4.4888527729
 25
-9.1522351117
 35
0.0
146
0.0
 13
0.0
 23
0.0
 33
0.0
 16
1.0
 26
0.0
 36
0.0
 17
0.0
 27
1.0
 37
0.0
 76
     0
330
1F
331
29
  0
MLINESTYLE
  5
18
102
{ACAD_REACTORS
330
17
102
}
330
17
100
AcDbMlineStyle
  2
Standard
 70
     0
  3

 62
   256
 51
90.0
 52
90.0
 71
     2
 49
0.5
 62
   256
  6
BYLAYER
 49
-0.5
 62
   256
  6
BYLAYER
  0
ACDBPLACEHOLDER
  5
F
102
{ACAD_REACTORS
330
E
102
}
330
E
  0
SCALE
  5
48
102
{ACAD_REACTORS
330
47
102
}
330
47
100
AcDbScale
 70
     0
300
1:1
140
1.0
141
1.0
290
     1
  0
SCALE
  5
49
102
{ACAD_REACTORS
330
47
102
}
330
47
100
AcDbScale
 70
     0
300
1/128" = 1'-0"
140
0.0078125
141
12.0
290
     0
  0
SCALE
  5
4A
102
{ACAD_REACTORS
330
47
102
}
330
47
100
AcDbScale
 70
     0
300
1/64" = 1'-0"
140
0.015625
141
12.0
290
     0
  0
SCALE
  5
4B
102
{ACAD_REACTORS
330
47
102
}
330
47
100
AcDbScale
 70
     0
300
1/32" = 1'-0"
140
0.03125
141
12.0
290
     0
  0
SCALE
  5
4C
102
{ACAD_REACTORS
330
47
102
}
330
47
100
AcDbScale
 70
     0
300
1/16" = 1'-0"
140
0.0625
141
12.0
290
     0
  0
SCALE
  5
4D
102
{ACAD_REACTORS
330
47
102
}
330
47
100
AcDbScale
 70
     0
300
3/32" = 1'-0"
140
0.09375
141
12.0
290
     0
  0
SCALE
  5
4E
102
{ACAD_REACTORS
330
47
102
}
330
47
100
AcDbScale
 70
     0
300
1/8" = 1'-0"
140
0.125
141
12.0
290
     0
  0
SCALE
  5
4F
102
{ACAD_REACTORS
330
47
102
}
330
47
100
AcDbScale
 70
     0
300
3/16" = 1'-0"
140
0.1875
141
12.0
290
     0
  0
SCALE
  5
50
102
{ACAD_REACTORS
330
47
102
}
330
47
100
AcDbScale
 70
     0
300
1/4" = 1'-0"
140
0.25
141
12.0
290
     0
  0
SCALE
  5
51
102
{ACAD_REACTORS
330
47
102
}
330
47
100
AcDbScale
 70
     0
300
3/8" = 1'-0"
140
0.375
141
12.0
290
     0
  0
SCALE
  5
52
102
{ACAD_REACTORS
330
47
102
}
330
47
100
AcDbScale
 70
     0
300
1/2" = 1'-0"
140
0.5
141
12.0
290
     0
  0
SCALE
  5
53
102
{ACAD_REACTORS
330
47
102
}
330
47
100
AcDbScale
 70
     0
300
3/4" = 1'-0"
140
0.75
141
12.0
290
     0
  0
SCALE
  5
54
102
{ACAD_REACTORS
330
47
102
}
330
47
100
AcDbScale
 70
     0
300
1" = 1'-0"
140
1.0
141
12.0
290
     0
  0
SCALE
  5
55
102
{ACAD_REACTORS
330
47
102
}
330
47
100
AcDbScale
 70
     0
300
1-1/2" = 1'-0"
140
1.5
141
12.0
290
     0
  0
SCALE
  5
56
102
{ACAD_REACTORS
330
47
102
}
330
47
100
AcDbScale
 70
     0
300
3" = 1'-0"
140
3.0
141
12.0
290
     0
  0
SCALE
  5
57
102
{ACAD_REACTORS
330
47
102
}
330
47
100
AcDbScale
 70
     0
300
6" = 1'-0"
140
6.0
141
12.0
290
     0
  0
SCALE
  5
58
102
{ACAD_REACTORS
330
47
102
}
330
47
100
AcDbScale
 70
     0
300
1'-0" = 1'-0"
140
12.0
141
12.0
290
     0
  0
ENDSEC
  0
EOF
